<svg xmlns="http://www.w3.org/2000/svg" xmlns:xlink="http://www.w3.org/1999/xlink" contentStyleType="text/css" data-diagram-type="DESCRIPTION" height="1912px" preserveAspectRatio="none" style="width:1725px;height:1912px;background:#FFFFFF;" version="1.1" viewBox="0 0 1725 1912" width="1725px" zoomAndPan="magnify"><?plantuml 1.2026.6?><defs/><g><g class="title" data-source-line="1"><text fill="#000000" font-family="Arial" font-size="14" font-weight="700" lengthAdjust="spacing" textLength="291.751" x="713.3745" y="23.1318">Workstream v0.1 Backend Component View</text></g><!--cluster backend--><g class="cluster" data-qualified-name="backend" data-source-line="34" id="ent0005"><rect fill="#F8FBFF" height="1541" rx="4" ry="4" style="stroke:#1C7ED6;stroke-width:1;" width="1486.5" x="225" y="44.0986"/><text fill="#0B2942" font-family="Arial" font-size="15" font-weight="700" lengthAdjust="spacing" textLength="260.8447" x="837.8276" y="60.1685">FastAPI Backend - Modular Monolith</text></g><!--cluster http_boundary--><g class="cluster" data-qualified-name="backend.http_boundary" data-source-line="35" id="ent0006"><rect fill="#EDF2FF" height="316" rx="4" ry="4" style="stroke:#1C7ED6;stroke-width:1;" width="590" x="257" y="1076.0986"/><text fill="#0B2942" font-family="Arial" font-size="15" font-weight="700" lengthAdjust="spacing" textLength="164.5825" x="469.7087" y="1092.1685">HTTP + Auth Boundary</text></g><!--cluster workflow_services--><g class="cluster" data-qualified-name="backend.workflow_services" data-source-line="42" id="ent0011"><rect fill="#E7F5FF" height="517" rx="4" ry="4" style="stroke:#1C7ED6;stroke-width:1;" width="698" x="640" y="452.0986"/><text fill="#0B2942" font-family="Arial" font-size="15" font-weight="700" lengthAdjust="spacing" textLength="133.3813" x="922.3093" y="468.1685">Workflow Services</text></g><!--cluster shared_rules--><g class="cluster" data-qualified-name="backend.shared_rules" data-source-line="51" id="ent0018"><rect fill="#EDF2FF" height="316" rx="4" ry="4" style="stroke:#1C7ED6;stroke-width:1;" width="216" x="1102.5" y="96.0986"/><text fill="#0B2942" font-family="Arial" font-size="15" font-weight="700" lengthAdjust="spacing" textLength="155.0391" x="1132.9805" y="112.1685">Shared Domain Rules</text></g><!--cluster persistence--><g class="cluster" data-qualified-name="backend.persistence" data-source-line="56" id="ent0021"><rect fill="#E6FCF5" height="201" rx="4" ry="4" style="stroke:#1C7ED6;stroke-width:1;" width="208" x="1106.5" y="1352.0986"/><text fill="#0B2942" font-family="Arial" font-size="15" font-weight="700" lengthAdjust="spacing" textLength="158.3936" x="1131.3032" y="1368.1685">Persistence Boundary</text></g><!--cluster ports--><g class="cluster" data-qualified-name="backend.ports" data-source-line="60" id="ent0023"><rect fill="#FFF3BF" height="303" rx="4" ry="4" style="stroke:#1C7ED6;stroke-width:1;" width="545" x="1134.5" y="1009.0986"/><text fill="#0B2942" font-family="Arial" font-size="15" font-weight="700" lengthAdjust="spacing" textLength="183.8159" x="1315.092" y="1025.1685">External Ports + Adapters</text></g><!--entity api_router--><g class="entity" data-qualified-name="backend.http_boundary.api_router" data-source-line="36" id="ent0007"><rect fill="#E7F5FF" height="96.9941" rx="4" ry="4" style="stroke:#1C7ED6;stroke-width:0.5;" width="139.6338" x="281" y="1271.5986"/><text fill="#0B2942" font-family="Arial" font-size="15" lengthAdjust="spacing" textLength="73.3667" x="291" y="1295.6685">API Router</text><line style="stroke:#1C7ED6;stroke-width:1;" x1="282" x2="419.6338" y1="1298.8472" y2="1298.8472"/><text fill="#0B2942" font-family="Arial" font-size="15" lengthAdjust="spacing" textLength="70.8472" x="291" y="1316.917">HTTP only</text><text fill="#0B2942" font-family="Arial" font-size="15" lengthAdjust="spacing" textLength="119.6338" x="291" y="1334.1655">request -&gt; service</text><text fill="#0B2942" font-family="Arial" font-size="15" lengthAdjust="spacing" textLength="115.4663" x="291" y="1351.4141">error -&gt; response</text></g><!--entity current_actor--><g class="entity" data-qualified-name="backend.http_boundary.current_actor" data-source-line="37" id="ent0008"><rect fill="#E7F5FF" height="96.9941" rx="4" ry="4" style="stroke:#1C7ED6;stroke-width:0.5;" width="123.8062" x="289" y="1139.5986"/><text fill="#0B2942" font-family="Arial" font-size="15" lengthAdjust="spacing" textLength="89.1943" x="299" y="1163.6685">Current Actor</text><text fill="#0B2942" font-family="Arial" font-size="15" lengthAdjust="spacing" textLength="84.2285" x="299" y="1180.917">Dependency</text><line style="stroke:#1C7ED6;stroke-width:1;" x1="290" x2="411.8062" y1="1184.0957" y2="1184.0957"/><text fill="#0B2942" font-family="Arial" font-size="15" lengthAdjust="spacing" textLength="103.8062" x="299" y="1202.1655">Bearer token -&gt;</text><text fill="#0B2942" font-family="Arial" font-size="15" lengthAdjust="spacing" textLength="86.7041" x="299" y="1219.4141">ActorContext</text></g><!--entity permissions--><g class="entity" data-qualified-name="backend.http_boundary.permissions" data-source-line="38" id="ent0009"><rect fill="#E7F5FF" height="96.9941" rx="4" ry="4" style="stroke:#1C7ED6;stroke-width:0.5;" width="124.2383" x="690" y="1271.5986"/><text fill="#0B2942" font-family="Arial" font-size="15" lengthAdjust="spacing" textLength="74.187" x="700" y="1295.6685">Permission</text><text fill="#0B2942" font-family="Arial" font-size="15" lengthAdjust="spacing" textLength="51.687" x="700" y="1312.917">Policies</text><line style="stroke:#1C7ED6;stroke-width:1;" x1="691" x2="813.2383" y1="1316.0957" y2="1316.0957"/><text fill="#0B2942" font-family="Arial" font-size="15" lengthAdjust="spacing" textLength="104.2383" x="700" y="1334.1655">Role and object</text><text fill="#0B2942" font-family="Arial" font-size="15" lengthAdjust="spacing" textLength="102.5244" x="700" y="1351.4141">visibility checks</text></g><!--entity schemas--><g class="entity" data-qualified-name="backend.http_boundary.schemas" data-source-line="39" id="ent0010"><rect fill="#E7F5FF" height="96.9941" rx="4" ry="4" style="stroke:#1C7ED6;stroke-width:0.5;" width="141.7432" x="681" y="1139.5986"/><text fill="#0B2942" font-family="Arial" font-size="15" lengthAdjust="spacing" textLength="57.5317" x="691" y="1163.6685">Pydantic</text><text fill="#0B2942" font-family="Arial" font-size="15" lengthAdjust="spacing" textLength="62.5269" x="691" y="1180.917">Schemas</text><line style="stroke:#1C7ED6;stroke-width:1;" x1="682" x2="821.7432" y1="1184.0957" y2="1184.0957"/><text fill="#0B2942" font-family="Arial" font-size="15" lengthAdjust="spacing" textLength="121.7432" x="691" y="1202.1655">Request/response</text><text fill="#0B2942" font-family="Arial" font-size="15" lengthAdjust="spacing" textLength="60.8569" x="691" y="1219.4141">contracts</text></g><!--entity project_service--><g class="entity" data-qualified-name="backend.workflow_services.project_service" data-source-line="43" id="ent0012"><rect fill="#E7F5FF" height="114.2427" rx="4" ry="4" style="stroke:#1C7ED6;stroke-width:0.5;" width="175.8887" x="664" y="812.0986"/><text fill="#0B2942" font-family="Arial" font-size="15" lengthAdjust="spacing" textLength="90.8789" x="674" y="836.1685">Project Guide</text><text fill="#0B2942" font-family="Arial" font-size="15" lengthAdjust="spacing" textLength="50.0171" x="674" y="853.417">Service</text><line style="stroke:#1C7ED6;stroke-width:1;" x1="665" x2="838.8887" y1="856.5957" y2="856.5957"/><text fill="#0B2942" font-family="Arial" font-size="15" lengthAdjust="spacing" textLength="110.8887" x="674" y="874.6655">Projects, guides,</text><text fill="#0B2942" font-family="Arial" font-size="15" lengthAdjust="spacing" textLength="155.8887" x="674" y="891.9141">checker/review/revision</text><text fill="#0B2942" font-family="Arial" font-size="15" lengthAdjust="spacing" textLength="50.0244" x="674" y="909.1626">policies</text></g><!--entity task_service--><g class="entity" data-qualified-name="backend.workflow_services.task_service" data-source-line="44" id="ent0013"><rect fill="#E7F5FF" height="131.4912" rx="4" ry="4" style="stroke:#1C7ED6;stroke-width:0.5;" width="146.7383" x="678.5" y="645.5986"/><text fill="#0B2942" font-family="Arial" font-size="15" lengthAdjust="spacing" textLength="81.709" x="688.5" y="669.6685">Task Queue</text><text fill="#0B2942" font-family="Arial" font-size="15" lengthAdjust="spacing" textLength="50.0171" x="688.5" y="686.917">Service</text><line style="stroke:#1C7ED6;stroke-width:1;" x1="679.5" x2="824.2383" y1="690.0957" y2="690.0957"/><text fill="#0B2942" font-family="Arial" font-size="15" lengthAdjust="spacing" textLength="94.1968" x="688.5" y="708.1655">Task contract,</text><text fill="#0B2942" font-family="Arial" font-size="15" lengthAdjust="spacing" textLength="126.7383" x="688.5" y="725.4141">screening, release,</text><text fill="#0B2942" font-family="Arial" font-size="15" lengthAdjust="spacing" textLength="124.2114" x="688.5" y="742.6626">claim, assignment,</text><text fill="#0B2942" font-family="Arial" font-size="15" lengthAdjust="spacing" textLength="82.5513" x="688.5" y="759.9111">state guards</text></g><!--entity submission_service--><g class="entity" data-qualified-name="backend.workflow_services.submission_service" data-source-line="45" id="ent0014"><rect fill="#E7F5FF" height="114.2427" rx="4" ry="4" style="stroke:#1C7ED6;stroke-width:0.5;" width="145.9033" x="679" y="496.0986"/><text fill="#0B2942" font-family="Arial" font-size="15" lengthAdjust="spacing" textLength="77.5342" x="689" y="520.1685">Submission</text><text fill="#0B2942" font-family="Arial" font-size="15" lengthAdjust="spacing" textLength="50.0171" x="689" y="537.417">Service</text><line style="stroke:#1C7ED6;stroke-width:1;" x1="680" x2="823.9033" y1="540.5957" y2="540.5957"/><text fill="#0B2942" font-family="Arial" font-size="15" lengthAdjust="spacing" textLength="125.9033" x="689" y="558.6655">Packets, evidence,</text><text fill="#0B2942" font-family="Arial" font-size="15" lengthAdjust="spacing" textLength="110.0391" x="689" y="575.9141">artifact manifest,</text><text fill="#0B2942" font-family="Arial" font-size="15" lengthAdjust="spacing" textLength="110.8813" x="689" y="593.1626">versions, locking</text></g><!--entity checker_service--><g class="entity" data-qualified-name="backend.workflow_services.checker_service" data-source-line="46" id="ent0015"><rect fill="#E7F5FF" height="114.2427" rx="4" ry="4" style="stroke:#1C7ED6;stroke-width:0.5;" width="127.5488" x="1146.5" y="812.0986"/><text fill="#0B2942" font-family="Arial" font-size="15" lengthAdjust="spacing" textLength="55.8545" x="1156.5" y="836.1685">Checker</text><text fill="#0B2942" font-family="Arial" font-size="15" lengthAdjust="spacing" textLength="50.0171" x="1156.5" y="853.417">Service</text><line style="stroke:#1C7ED6;stroke-width:1;" x1="1147.5" x2="1273.0488" y1="856.5957" y2="856.5957"/><text fill="#0B2942" font-family="Arial" font-size="15" lengthAdjust="spacing" textLength="93.3691" x="1156.5" y="874.6655">Checker runs,</text><text fill="#0B2942" font-family="Arial" font-size="15" lengthAdjust="spacing" textLength="107.5488" x="1156.5" y="891.9141">blocking results,</text><text fill="#0B2942" font-family="Arial" font-size="15" lengthAdjust="spacing" textLength="103.3813" x="1156.5" y="909.1626">pre-review gate</text></g><!--entity review_service--><g class="entity" data-qualified-name="backend.workflow_services.review_service" data-source-line="47" id="ent0016"><rect fill="#E7F5FF" height="131.4912" rx="4" ry="4" style="stroke:#1C7ED6;stroke-width:0.5;" width="143.8013" x="1138.5" y="645.5986"/><text fill="#0B2942" font-family="Arial" font-size="15" lengthAdjust="spacing" textLength="123.8013" x="1148.5" y="669.6685">Review + Revision</text><text fill="#0B2942" font-family="Arial" font-size="15" lengthAdjust="spacing" textLength="50.0171" x="1148.5" y="686.917">Service</text><line style="stroke:#1C7ED6;stroke-width:1;" x1="1139.5" x2="1281.3013" y1="690.0957" y2="690.0957"/><text fill="#0B2942" font-family="Arial" font-size="15" lengthAdjust="spacing" textLength="48.3618" x="1148.5" y="708.1655">accept,</text><text fill="#0B2942" font-family="Arial" font-size="15" lengthAdjust="spacing" textLength="105.0659" x="1148.5" y="725.4141">needs_revision,</text><text fill="#0B2942" font-family="Arial" font-size="15" lengthAdjust="spacing" textLength="100.8838" x="1148.5" y="742.6626">reject, findings,</text><text fill="#0B2942" font-family="Arial" font-size="15" lengthAdjust="spacing" textLength="96.709" x="1148.5" y="759.9111">revision replay</text></g><!--entity ledger_service--><g class="entity" data-qualified-name="backend.workflow_services.ledger_service" data-source-line="48" id="ent0017"><rect fill="#E7F5FF" height="114.2427" rx="4" ry="4" style="stroke:#1C7ED6;stroke-width:0.5;" width="206.7236" x="1107" y="496.0986"/><text fill="#0B2942" font-family="Arial" font-size="15" lengthAdjust="spacing" textLength="89.2163" x="1117" y="520.1685">Contribution /</text><text fill="#0B2942" font-family="Arial" font-size="15" lengthAdjust="spacing" textLength="96.7236" x="1117" y="537.417">Compensation</text><text fill="#0B2942" font-family="Arial" font-size="15" lengthAdjust="spacing" textLength="50.0171" x="1117" y="554.6655">Service</text><line style="stroke:#1C7ED6;stroke-width:1;" x1="1108" x2="1312.7236" y1="557.8442" y2="557.8442"/><text fill="#0B2942" font-family="Arial" font-size="15" lengthAdjust="spacing" textLength="186.7236" x="1117" y="575.9141">Reviewer/submitter records,</text><text fill="#0B2942" font-family="Arial" font-size="15" lengthAdjust="spacing" textLength="108.3765" x="1117" y="593.1626">award fulfillment</text></g><!--entity lifecycle--><g class="entity" data-qualified-name="backend.shared_rules.lifecycle" data-source-line="52" id="ent0019"><rect fill="#E7F5FF" height="96.9941" rx="4" ry="4" style="stroke:#1C7ED6;stroke-width:0.5;" width="167.561" x="1126.5" y="139.5986"/><text fill="#0B2942" font-family="Arial" font-size="15" lengthAdjust="spacing" textLength="58.3594" x="1136.5" y="163.6685">Lifecycle</text><text fill="#0B2942" font-family="Arial" font-size="15" lengthAdjust="spacing" textLength="49.1895" x="1136.5" y="180.917">Guards</text><line style="stroke:#1C7ED6;stroke-width:1;" x1="1127.5" x2="1293.061" y1="184.0957" y2="184.0957"/><text fill="#0B2942" font-family="Arial" font-size="15" lengthAdjust="spacing" textLength="113.4009" x="1136.5" y="202.1655">Allowed task and</text><text fill="#0B2942" font-family="Arial" font-size="15" lengthAdjust="spacing" textLength="147.561" x="1136.5" y="219.4141">submission transitions</text></g><!--entity audit_service--><g class="entity" data-qualified-name="backend.shared_rules.audit_service" data-source-line="53" id="ent0020"><rect fill="#E7F5FF" height="96.9941" rx="4" ry="4" style="stroke:#1C7ED6;stroke-width:0.5;" width="126.7065" x="1147" y="271.5986"/><text fill="#0B2942" font-family="Arial" font-size="15" lengthAdjust="spacing" textLength="34.1895" x="1157" y="295.6685">Audit</text><text fill="#0B2942" font-family="Arial" font-size="15" lengthAdjust="spacing" textLength="50.0171" x="1157" y="312.917">Service</text><line style="stroke:#1C7ED6;stroke-width:1;" x1="1148" x2="1272.7065" y1="316.0957" y2="316.0957"/><text fill="#0B2942" font-family="Arial" font-size="15" lengthAdjust="spacing" textLength="84.2285" x="1157" y="334.1655">Append-only</text><text fill="#0B2942" font-family="Arial" font-size="15" lengthAdjust="spacing" textLength="106.7065" x="1157" y="351.4141">workflow events</text></g><!--entity repositories--><g class="entity" data-qualified-name="backend.persistence.repositories" data-source-line="57" id="ent0022"><rect fill="#E6FCF5" height="114.2427" rx="4" ry="4" style="stroke:#1C7ED6;stroke-width:0.5;" width="160.0537" x="1130.5" y="1396.0986"/><text fill="#0B2942" font-family="Arial" font-size="15" lengthAdjust="spacing" textLength="83.3716" x="1140.5" y="1420.1685">Repositories</text><line style="stroke:#1C7ED6;stroke-width:1;" x1="1131.5" x2="1289.5537" y1="1423.3472" y2="1423.3472"/><text fill="#0B2942" font-family="Arial" font-size="15" lengthAdjust="spacing" textLength="86.6968" x="1140.5" y="1441.417">Project, task,</text><text fill="#0B2942" font-family="Arial" font-size="15" lengthAdjust="spacing" textLength="140.0537" x="1140.5" y="1458.6655">submission, checker,</text><text fill="#0B2942" font-family="Arial" font-size="15" lengthAdjust="spacing" textLength="97.5439" x="1140.5" y="1475.9141">review, ledger,</text><text fill="#0B2942" font-family="Arial" font-size="15" lengthAdjust="spacing" textLength="113.4009" x="1140.5" y="1493.1626">audit persistence</text></g><!--entity auth_port--><g class="entity" data-qualified-name="backend.ports.auth_port" data-source-line="61" id="ent0024"><rect fill="#FFF3BF" height="54.4971" rx="4" ry="4" style="stroke:#1C7ED6;stroke-width:0.5;" width="102.5366" x="1159" y="1215.0986"/><text fill="#0B2942" font-family="Arial" font-size="15" lengthAdjust="spacing" textLength="82.5366" x="1169" y="1239.1685">Auth Verifier</text><text fill="#0B2942" font-family="Arial" font-size="15" lengthAdjust="spacing" textLength="58.3667" x="1169" y="1256.417">Interface</text></g><!--entity flow_adapter--><g class="entity" data-qualified-name="backend.ports.flow_adapter" data-source-line="62" id="ent0025"><rect fill="#FFF3BF" height="54.4971" rx="4" ry="4" style="stroke:#1C7ED6;stroke-width:0.5;" width="86.6943" x="1167" y="1126.0986"/><text fill="#0B2942" font-family="Arial" font-size="15" lengthAdjust="spacing" textLength="66.6943" x="1177" y="1150.1685">Flow Auth</text><text fill="#0B2942" font-family="Arial" font-size="15" lengthAdjust="spacing" textLength="52.5366" x="1177" y="1167.417">Adapter</text></g><!--entity storage_port--><g class="entity" data-qualified-name="backend.ports.storage_port" data-source-line="63" id="ent0026"><rect fill="#FFF3BF" height="37.2485" rx="4" ry="4" style="stroke:#1C7ED6;stroke-width:0.5;" width="104.2139" x="1158.5" y="1053.5986"/><text fill="#0B2942" font-family="Arial" font-size="15" lengthAdjust="spacing" textLength="84.2139" x="1168.5" y="1077.6685">Storage Port</text></g><!--entity storage_adapter--><g class="entity" data-qualified-name="backend.ports.storage_adapter" data-source-line="64" id="ent0027"><rect fill="#FFF3BF" height="54.4971" rx="4" ry="4" style="stroke:#1C7ED6;stroke-width:0.5;" width="112.5635" x="1534.5" y="1215.0986"/><text fill="#0B2942" font-family="Arial" font-size="15" lengthAdjust="spacing" textLength="92.5635" x="1544.5" y="1239.1685">Local Storage</text><text fill="#0B2942" font-family="Arial" font-size="15" lengthAdjust="spacing" textLength="52.5366" x="1544.5" y="1256.417">Adapter</text></g><!--entity checker_runner--><g class="entity" data-qualified-name="backend.ports.checker_runner" data-source-line="65" id="ent0028"><rect fill="#FFF3BF" height="54.4971" rx="4" ry="4" style="stroke:#1C7ED6;stroke-width:0.5;" width="129.2188" x="1526.5" y="1126.0986"/><text fill="#0B2942" font-family="Arial" font-size="15" lengthAdjust="spacing" textLength="109.2188" x="1536.5" y="1150.1685">Checker Runner</text><text fill="#0B2942" font-family="Arial" font-size="15" lengthAdjust="spacing" textLength="52.5366" x="1536.5" y="1167.417">Adapter</text></g><!--entity client--><g class="entity" data-qualified-name="client" data-source-line="29" id="ent0001"><rect fill="#F1F3F5" height="54.4971" rx="4" ry="4" style="stroke:#1C7ED6;stroke-width:0.5;" width="86.6943" x="7" y="1077.0986"/><text fill="#0B2942" font-family="Arial" font-size="15" lengthAdjust="spacing" textLength="66.687" x="17" y="1101.1685">React UI /</text><text fill="#0B2942" font-family="Arial" font-size="15" lengthAdjust="spacing" textLength="66.6943" x="17" y="1118.417">API Client</text></g><!--entity flow_auth--><g class="entity" data-qualified-name="flow_auth" data-source-line="30" id="ent0002"><path d="M1551.3771,1609.887 C1555.0389,1602.8871 1559.2633,1602.9075 1563.9591,1608.8844 C1566.1001,1600.6442 1573.6925,1599.8034 1578.8354,1605.7328 C1582.1008,1599.8713 1586.4318,1599.3329 1590.9441,1604.3442 C1595.9031,1598.2339 1601.2035,1598.8746 1605.1109,1605.5127 C1610.2564,1600.946 1614.5665,1600.2214 1617.8247,1607.5327 C1623.7025,1601.0507 1630.1593,1602.7555 1632.8494,1610.8241 C1638.7688,1612.6872 1640.517,1616.2514 1636.7044,1621.5969 C1643.9629,1622.7869 1645.8777,1629.3199 1641.0616,1634.5665 C1645.6159,1640.346 1643.3162,1645.8849 1636.1478,1647.0501 C1640.575,1652.6749 1638.1549,1656.6722 1631.9414,1658.3284 C1628.9194,1665.4099 1624.0793,1665.852 1619.6922,1659.5807 C1616.9768,1667.6659 1609.5944,1667.4627 1605.0644,1661.4655 C1602.5501,1667.6912 1598.0844,1670.3682 1592.5299,1664.6582 C1587.1491,1670.8519 1581.4441,1669.8428 1578.959,1661.8819 C1574.2773,1667.1691 1567.4355,1667.4087 1565.1176,1659.4178 C1561.4645,1665.36 1554.6965,1665.8387 1550.7861,1659.7235 C1544.4426,1656.843 1544.3547,1651.7719 1548.9692,1647.2901 C1541.2036,1644.9996 1539.5757,1640.5584 1543.8404,1633.7208 C1539.1968,1627.8213 1541.7157,1622.5823 1548.7335,1621.2631 C1544.4734,1616.4643 1545.2004,1612.2605 1551.3771,1609.887" fill="#F1F3F5" style="stroke:#868E96;stroke-width:0.5;"/><text fill="#212529" font-family="Arial" font-size="15" lengthAdjust="spacing" textLength="55.0269" x="1557.5" y="1630.1685">External</text><text fill="#212529" font-family="Arial" font-size="15" lengthAdjust="spacing" textLength="66.6943" x="1557.5" y="1647.417">Flow Auth</text></g><!--entity postgres--><g class="entity" data-qualified-name="postgres" data-source-line="31" id="ent0003"><path d="M1524,1825.5986 C1524,1815.5986 1591.1216,1815.5986 1591.1216,1815.5986 C1591.1216,1815.5986 1658.2432,1815.5986 1658.2432,1825.5986 L1658.2432,1877.0957 C1658.2432,1887.0957 1591.1216,1887.0957 1591.1216,1887.0957 C1591.1216,1887.0957 1524,1887.0957 1524,1877.0957 L1524,1825.5986" fill="#E6FCF5" style="stroke:#0CA678;stroke-width:0.5;"/><path d="M1524,1825.5986 C1524,1835.5986 1591.1216,1835.5986 1591.1216,1835.5986 C1591.1216,1835.5986 1658.2432,1835.5986 1658.2432,1825.5986" fill="none" style="stroke:#0CA678;stroke-width:0.5;"/><text fill="#063B2C" font-family="Arial" font-size="15" lengthAdjust="spacing" textLength="59.1943" x="1534" y="1853.6685">Postgres</text><path d="M1524,1851.8472 C1524,1861.8472 1591.1216,1861.8472 1591.1216,1861.8472 C1591.1216,1861.8472 1658.2432,1861.8472 1658.2432,1851.8472" fill="none" style="stroke:#0CA678;stroke-width:1;"/><text fill="#063B2C" font-family="Arial" font-size="15" lengthAdjust="spacing" textLength="114.2432" x="1534" y="1874.917">Record database</text></g><!--entity file_store--><g class="entity" data-qualified-name="file_store" data-source-line="32" id="ent0004"><rect fill="#E6FCF5" height="79.7456" rx="4" ry="4" style="stroke:#1C7ED6;stroke-width:0.5;" width="116.709" x="1532.5" y="1700.0986"/><text fill="#0B2942" font-family="Arial" font-size="15" lengthAdjust="spacing" textLength="64.1895" x="1542.5" y="1724.1685">File Store</text><line style="stroke:#1C7ED6;stroke-width:1;" x1="1533.5" x2="1648.209" y1="1727.3472" y2="1727.3472"/><text fill="#0B2942" font-family="Arial" font-size="15" lengthAdjust="spacing" textLength="90.9009" x="1542.5" y="1745.417">Evidence and</text><text fill="#0B2942" font-family="Arial" font-size="15" lengthAdjust="spacing" textLength="96.709" x="1542.5" y="1762.6655">artifact objects</text></g><!--link client to http_boundary--><g class="link" data-entity-1="ent0001" data-entity-2="ent0006" data-link-type="dependency" data-source-line="69" id="lnk29"><path d="M94.27,1104.0986 C134.895,1104.0986 197.48,1104.0986 250.5663,1104.0986 C252.2252,1104.0986 253.8749,1104.0986 255.5143,1104.0986 C255.9242,1104.0986 251.3334,1104.0986 251.7419,1104.0986" fill="none" id="client-to-http_boundary" style="stroke:#495057;stroke-width:1.1;"/><polygon fill="#495057" points="256.7419,1104.0986,247.7419,1100.0986,251.7419,1104.0986,247.7419,1108.0986,256.7419,1104.0986" style="stroke:#495057;stroke-width:1.1;stroke-linejoin:miter;stroke-miterlimit:10;"/><text fill="#000000" font-family="Arial" font-size="15" lengthAdjust="spacing" textLength="83.335" x="125" y="1100.1685">HTTP/JSON</text></g><!--link http_boundary to workflow_services--><g class="link" data-entity-1="ent0006" data-entity-2="ent0011" data-link-type="dependency" data-source-line="70" id="lnk30"><path d="M412.4997,1076.0684 C412.8409,1075.9191 413.1827,1075.7696 413.5249,1075.6202 C414.8938,1075.0224 416.27,1074.4241 417.6519,1073.8264 C428.7069,1069.0449 440.1225,1064.2986 451,1060.0986 C515.465,1035.2086 589.1475,1010.8361 647.3575,992.5024 C676.4625,983.3355 701.6994,975.6783 719.9819,970.221 C721.1245,969.8799 717.4478,970.9739 718.5354,970.6501" fill="none" id="http_boundary-to-workflow_services" style="stroke:#495057;stroke-width:1.1;"/><polygon fill="#495057" points="723.3276,969.2237,713.5605,967.9575,718.5354,970.6501,715.8428,975.6251,723.3276,969.2237" style="stroke:#495057;stroke-width:1.1;stroke-linejoin:miter;stroke-miterlimit:10;"/><text fill="#000000" font-family="Arial" font-size="15" lengthAdjust="spacing" textLength="163.4106" x="452" y="1000.1685">route to domain services</text></g><!--link http_boundary to ports--><g class="link" data-entity-1="ent0006" data-entity-2="ent0023" data-link-type="dependency" data-source-line="71" id="lnk31"><path d="M847.881,1119.141 C849.5745,1119.6693 851.2636,1120.205 852.9482,1120.7482 C856.3174,1121.8347 859.6684,1122.9513 863,1124.0986 C978.75,1163.9686 973.21,1238.6986 1086.5,1285.0986 C1099.0975,1290.2586 1112.9438,1294.0299 1126.6613,1296.7833 C1128.3759,1297.1275 1130.0886,1297.4558 1131.7966,1297.7689 C1132.6506,1297.9254 1128.5783,1297.2159 1129.4296,1297.3649" fill="none" id="http_boundary-to-ports" style="stroke:#495057;stroke-width:1.1;"/><polygon fill="#495057" points="1134.3547,1298.2272,1126.1794,1292.735,1129.4296,1297.3649,1124.7997,1300.6151,1134.3547,1298.2272" style="stroke:#495057;stroke-width:1.1;stroke-linejoin:miter;stroke-miterlimit:10;"/><text fill="#000000" font-family="Arial" font-size="15" lengthAdjust="spacing" textLength="73.3521" x="715.5" y="1082.1685">verify actor</text></g><!--link workflow_services to shared_rules--><g class="link" data-entity-1="ent0011" data-entity-2="ent0018" data-link-type="dependency" data-source-line="73" id="lnk32"><path d="M1118.2733,452.0661 C1119.9197,450.8683 1121.5773,449.6907 1123.2425,448.5336 C1136.5644,439.2768 1150.38,431.3286 1162.9475,424.8211 C1169.2312,421.5674 1175.203,418.6738 1180.6449,416.1568 C1183.3659,414.8984 1185.9544,413.734 1188.3833,412.6659 C1188.6869,412.5324 1188.988,412.4004 1189.2866,412.2699 C1189.3612,412.2373 1184.8531,414.2048 1184.9275,414.1723" fill="none" id="workflow_services-to-shared_rules" style="stroke:#495057;stroke-width:1.1;"/><polygon fill="#495057" points="1189.51,412.1723,1179.6614,412.1062,1184.9275,414.1723,1182.8614,419.4384,1189.51,412.1723" style="stroke:#495057;stroke-width:1.1;stroke-linejoin:miter;stroke-miterlimit:10;"/><text fill="#000000" font-family="Arial" font-size="15" lengthAdjust="spacing" textLength="156.7456" x="896" y="497.1685">state, audit, policy rules</text></g><!--link workflow_services to persistence--><g class="link" data-entity-1="ent0011" data-entity-2="ent0021" data-link-type="dependency" data-source-line="74" id="lnk33"><path d="M768.7558,969.2869 C769.7687,969.8431 770.8203,970.4256 771.9076,971.0339 C774.0822,972.2504 776.3996,973.5699 778.8354,974.9876 C783.7069,977.8229 789.0519,981.0508 794.675,984.6324 C817.1675,998.9586 844.11,1018.9436 863,1042.0986 C1012.78,1225.6886 897.27,1383.5186 1086.5,1526.0986 C1091.9363,1530.1949 1097.897,1533.5707 1104.1709,1536.3413 C1104.5631,1536.5144 1104.9564,1536.6852 1105.3509,1536.8537 C1105.5482,1536.9379 1101.1356,1535.0859 1101.3334,1535.169" fill="none" id="workflow_services-to-persistence" style="stroke:#495057;stroke-width:1.1;"/><polygon fill="#495057" points="1105.9436,1537.1046,1099.1939,1529.9323,1101.3334,1535.169,1096.0968,1537.3085,1105.9436,1537.1046" style="stroke:#495057;stroke-width:1.1;stroke-linejoin:miter;stroke-miterlimit:10;"/><text fill="#000000" font-family="Arial" font-size="15" lengthAdjust="spacing" textLength="120.0439" x="914" y="1049.1685">read/write records</text></g><!--link workflow_services to ports--><g class="link" data-entity-1="ent0011" data-entity-2="ent0023" data-link-type="dependency" data-source-line="75" id="lnk34"><path d="M951.0045,969.1568 C952.1552,969.2921 953.3036,969.4296 954.4497,969.5691 C972.7868,971.8025 990.5088,974.5875 1006.6573,978.0552 C1038.9544,984.9905 1064.9575,994.6561 1077,1008.0986 C1097.55,1031.0386 1066.06,1262.0686 1086.5,1285.0986 C1095.5375,1295.2786 1107.5763,1301.5986 1120.5917,1305.3421 C1123.8456,1306.2779 1127.1605,1307.0528 1130.5048,1307.6866 C1131.3409,1307.8451 1132.1788,1307.9947 1133.0181,1308.1359 C1133.4377,1308.2064 1128.9189,1307.4949 1129.3391,1307.5613" fill="none" id="workflow_services-to-ports" style="stroke:#495057;stroke-width:1.1;"/><polygon fill="#495057" points="1134.2779,1308.3413,1126.0121,1302.9863,1129.3391,1307.5613,1124.7641,1310.8884,1134.2779,1308.3413" style="stroke:#495057;stroke-width:1.1;stroke-linejoin:miter;stroke-miterlimit:10;"/><text fill="#000000" font-family="Arial" font-size="15" lengthAdjust="spacing" textLength="204.2944" x="872" y="960.1685">storage and checker execution</text></g><!--link ports to flow_auth--><g class="link" data-entity-1="ent0023" data-entity-2="ent0002" data-link-type="dependency" data-source-line="77" id="lnk35"><path d="M1231.5436,1312.258 C1231.8596,1312.3926 1232.1786,1312.5287 1232.5006,1312.6664 C1233.1445,1312.9417 1233.8004,1313.2232 1234.4678,1313.5107 C1237.1374,1314.6607 1239.9911,1315.9073 1243.0023,1317.2458 C1249.0248,1319.9228 1255.6775,1322.9671 1262.7475,1326.3399 C1291.0275,1339.8311 1325.985,1358.5786 1354,1380.0986 C1441.88,1447.6086 1522.6053,1545.268 1562.5553,1596.768" fill="none" id="ports-to-flow_auth" style="stroke:#495057;stroke-width:1.1;"/><polygon fill="#495057" points="1565.62,1600.7186,1563.2642,1591.1557,1562.5553,1596.768,1556.9431,1596.0591,1565.62,1600.7186" style="stroke:#495057;stroke-width:1.1;stroke-linejoin:miter;stroke-miterlimit:10;"/><text fill="#000000" font-family="Arial" font-size="15" lengthAdjust="spacing" textLength="76.6992" x="1390" y="1388.1685">verify token</text></g><!--link ports to file_store--><g class="link" data-entity-1="ent0023" data-entity-2="ent0004" data-link-type="dependency" data-source-line="78" id="lnk36"><path d="M1246.7783,1312.2673 C1247.1962,1312.3893 1247.6164,1312.5128 1248.039,1312.6379 C1254.7995,1314.6396 1262.1472,1317.048 1269.7663,1319.9186 C1300.2425,1331.4011 1335.06,1350.2786 1354,1380.0986 C1372.73,1409.5886 1346.99,1505.5486 1362,1537.0986 C1398.26,1613.3086 1473.4058,1670.5993 1528.2258,1705.0293" fill="none" id="ports-to-file_store" style="stroke:#495057;stroke-width:1.1;"/><polygon fill="#495057" points="1532.46,1707.6886,1526.9659,1699.5146,1528.2258,1705.0293,1522.7111,1706.2892,1532.46,1707.6886" style="stroke:#495057;stroke-width:1.1;stroke-linejoin:miter;stroke-miterlimit:10;"/><text fill="#000000" font-family="Arial" font-size="15" lengthAdjust="spacing" textLength="124.2188" x="1366" y="1533.1685">store/read artifacts</text></g><!--link persistence to postgres--><g class="link" data-entity-1="ent0021" data-entity-2="ent0003" data-link-type="dependency" data-source-line="79" id="lnk37"><path d="M1213.6399,1553.2197 C1213.6835,1553.3776 1213.7278,1553.5377 1213.7727,1553.6998 C1213.8626,1554.0242 1213.9553,1554.3569 1214.0506,1554.698 C1215.5764,1560.155 1217.8006,1567.7379 1220.7619,1576.9229 C1226.6844,1595.2927 1235.555,1620.0705 1247.6825,1647.0649 C1271.9375,1701.0536 1309.22,1763.9086 1362,1802.0986 C1409.07,1836.1586 1470.0216,1847.0887 1518.8916,1850.4187" fill="none" id="persistence-to-postgres" style="stroke:#495057;stroke-width:1.1;"/><polygon fill="#495057" points="1523.88,1850.7586,1515.1728,1846.156,1518.8916,1850.4187,1514.6289,1854.1375,1523.88,1850.7586" style="stroke:#495057;stroke-width:1.1;stroke-linejoin:miter;stroke-miterlimit:10;"/><text fill="#000000" font-family="Arial" font-size="15" lengthAdjust="spacing" textLength="130.8838" x="1363" y="1798.1685">SQLAlchemy async</text></g><?plantuml-src XLTBSo8t4BxpAxgynnsl3Lu_3wa2xDaujTcmu6mkL55YfW75WpIHDB0ajVyztP863w-4WsrQwkwlltx9Jhe2uGzjNgqpA9QmklpGXfx8Nb7bqDVBKYjK3hv9NBTQ1SuSE0r6pXSEScamSrAhLik-IbKAG_fJKfqRNQcyhmjju5tgFuqRTY5olPPg3ZDHM6oSUBLC6uK6xXho76UYAbogbViYbWXT8qLn_7ma_qPeNpSEkyReTSJoyVxwylfs__1b8RDNXTP2-qExSLXIA6AE8xSXYZXKeUR53jvQ1l-q07hQv6YYftR_zkdnXgNxV3pTfjV41m33ZRBBNkV-OwVrencJS68gx17Jb_tkpUtTKTCtQJ-ztZDzSzNhz7TCPuMkyaExTpTtJ_T78QVjz6hVRgVTkUxSaztM6mjdGnIPWz-VuMAikeDdw1UIYkSCX2Md_EVMLi1mzlJTeL6Y6Akqq6leLcxXRy_esqJGjzQMXxE1jcvkq8xLENt6QeXKAlcMAAzNnZjDKAcadoEd3TQQJokPeyeGXCh7IXWdPunRJ_yaBHi0aDB4ijAMrbQi1x8ehEFmwZOvXrzrNXN2q6-b2nc3cCRZT-bTsajJp_ZMniylBmDuxoEcD13NmcoyriAvSZAD4dB-c7QYBZGAxepz3tL5zDLHUOjQ5PknClXNXTR1-KzWqQnaHg4ZbRfX2T53JHq94wMS66zctq6_CeOpris8XR5wn99Y8TOsjRyU2aEDwZG5INOfutopJoM2tsFEWuc9u8Dz-mCqIsajZO-n6X1fcMoaLXS-EJ4bOxMILaubCRk1R87PQqXIkJLX3wnlSg6SpCPgH0fBqQWQJyr5pS9OPOJOY3hnDbmdUrJQZNpnYEIgX54WDDnUH-aaqcph_ZvCsC1eZWK-LLHy1AlEIu0LJsq2Spwt2U7YGD4GqXKDN_yhi5L6jW87GR46iE_rHTXN-5fXTUZI7zN1ap-R6KH5SpaX0mLIIp68GiXbGewidAib9PClEk6GS0gJ1moEB9q2CAgcspJlnypzmI5ZxCUaqOnBeUIC4aMo5HgVumGAdT4KcuT4RGsVSjqF11xuZN8mbMAUfz4gDmPj4HQL1iy3xJ2dM4Cn1wrJpeRX-diORlEqvrPa6POSZqBCxQJEPyBjoYbCQEYed81OBmgdvA8iH9WC0T79Q3cJSbhnGkRvoxiRbHNk69Q0behBi-WSi-77AViMQyeipAg2Xc2nh0TuWVby9_pT_XWjQ1hayAYNGYeOLaMiJ-lb4yE2qzFiC-KwssG50Vpawwe6sYsekyWkbrWOrszv1wfSPIK767mLjPM3OLdbqXsGq2rvf9s7aLbtCXKZHHpi2LOx6V60oz8wlqXs9dZPE8ZBup3Y8TAkaZGN6sCl3e74HviqGqtgyekbWUia9eJpnJ2RNcErl3beF0rsOwZtBmoqSPRtKIvA4iNPueNyWhlg7Lj1lBk-eP4poLtsJ8FVKE_6nKA74pPGw-zhRnS-9I8uRMp-83YboikSuJFeK6H1y9_-FkkCueogkpvhzVznMy-DOKKjR7PDrDF1-BE6XH_yH8gFdtFQlhlh_G5uQr_yClhjIsltXEyURfS7yCkQt-1vwBJww8XwIDy3h3X56mXRk7LebE_kjEa3-16VX0P8m2-S3VZ34_hDcYUGAFABjP4Ewx5oIYr2Z1dmEpzI2VWTiohyUn6kiSBsOVWMbt-0DA-yFTs2ORnWF52l5jjgWWqemgkHxe--VkuM_0GWlkn6PQr_0G00?></g></svg>