<?xml version="1.0" encoding="UTF-8" standalone="no"?><svg xmlns="http://www.w3.org/2000/svg" xmlns:xlink="http://www.w3.org/1999/xlink" contentScriptType="application/ecmascript" contentStyleType="text/css" height="1919px" preserveAspectRatio="none" style="width:1740px;height:1919px;" version="1.1" viewBox="0 0 1740 1919" width="1740px" zoomAndPan="magnify"><defs/><g><text fill="#000000" font-family="Arial" font-size="15" lengthAdjust="spacingAndGlyphs" textLength="288" x="737.5" y="14.0698">Workstream v0.1 Backend Component View</text><!--MD5=[47c14c564e796a575e671c2b0469a7bb]
cluster backend--><path d="M223,41.7485 L477,41.7485 A6,6 0 0 1 481,45.7485 L488,64.9971 L1724.5,64.9971 A4,4 0 0 1 1728.5,68.9971 L1728.5,1601.7485 A4,4 0 0 1 1724.5,1605.7485 L223,1605.7485 A4,4 0 0 1 219,1601.7485 L219,45.7485 A4,4 0 0 1 223,41.7485 " fill="#F8FBFF" style="stroke: #000000; stroke-width: 1.5;"/><line style="stroke: #000000; stroke-width: 1.5;" x1="219" x2="488" y1="64.9971" y2="64.9971"/><text fill="#000000" font-family="Arial" font-size="15" font-weight="bold" lengthAdjust="spacingAndGlyphs" textLength="256" x="223" y="57.8184">FastAPI Backend - Modular Monolith</text><!--MD5=[8fa4429849410ca15d0689cec35ff40f]
cluster http_boundary--><path d="M255,1107.7485 L415,1107.7485 A6,6 0 0 1 419,1111.7485 L426,1130.9971 L853,1130.9971 A4,4 0 0 1 857,1134.9971 L857,1419.7485 A4,4 0 0 1 853,1423.7485 L255,1423.7485 A4,4 0 0 1 251,1419.7485 L251,1111.7485 A4,4 0 0 1 255,1107.7485 " fill="#EDF2FF" style="stroke: #000000; stroke-width: 1.5;"/><line style="stroke: #000000; stroke-width: 1.5;" x1="251" x2="426" y1="1130.9971" y2="1130.9971"/><text fill="#000000" font-family="Arial" font-size="15" font-weight="bold" lengthAdjust="spacingAndGlyphs" textLength="162" x="255" y="1123.8184">HTTP + Auth Boundary</text><!--MD5=[2dd6ce832982956e079d926af2886812]
cluster workflow_services--><path d="M645,449.7485 L775,449.7485 A6,6 0 0 1 779,453.7485 L786,472.9971 L1348,472.9971 A4,4 0 0 1 1352,476.9971 L1352,985.7485 A4,4 0 0 1 1348,989.7485 L645,989.7485 A4,4 0 0 1 641,985.7485 L641,453.7485 A4,4 0 0 1 645,449.7485 " fill="#E7F5FF" style="stroke: #000000; stroke-width: 1.5;"/><line style="stroke: #000000; stroke-width: 1.5;" x1="641" x2="786" y1="472.9971" y2="472.9971"/><text fill="#000000" font-family="Arial" font-size="15" font-weight="bold" lengthAdjust="spacingAndGlyphs" textLength="132" x="645" y="465.8184">Workflow Services</text><!--MD5=[9cf0a6ebabef0c3781261e30eaf1a8b6]
cluster shared_rules--><path d="M1111,93.7485 L1262,93.7485 A6,6 0 0 1 1266,97.7485 L1273,116.9971 L1329,116.9971 A4,4 0 0 1 1333,120.9971 L1333,405.7485 A4,4 0 0 1 1329,409.7485 L1111,409.7485 A4,4 0 0 1 1107,405.7485 L1107,97.7485 A4,4 0 0 1 1111,93.7485 " fill="#EDF2FF" style="stroke: #000000; stroke-width: 1.5;"/><line style="stroke: #000000; stroke-width: 1.5;" x1="1107" x2="1273" y1="116.9971" y2="116.9971"/><text fill="#000000" font-family="Arial" font-size="15" font-weight="bold" lengthAdjust="spacingAndGlyphs" textLength="153" x="1111" y="109.8184">Shared Domain Rules</text><!--MD5=[0334151241c2df87d13997940bbf650c]
cluster persistence--><path d="M1114.5,1372.7485 L1269.5,1372.7485 A6,6 0 0 1 1273.5,1376.7485 L1280.5,1395.9971 L1325.5,1395.9971 A4,4 0 0 1 1329.5,1399.9971 L1329.5,1569.7485 A4,4 0 0 1 1325.5,1573.7485 L1114.5,1573.7485 A4,4 0 0 1 1110.5,1569.7485 L1110.5,1376.7485 A4,4 0 0 1 1114.5,1372.7485 " fill="#E6FCF5" style="stroke: #000000; stroke-width: 1.5;"/><line style="stroke: #000000; stroke-width: 1.5;" x1="1110.5" x2="1280.5" y1="1395.9971" y2="1395.9971"/><text fill="#000000" font-family="Arial" font-size="15" font-weight="bold" lengthAdjust="spacingAndGlyphs" textLength="157" x="1114.5" y="1388.8184">Persistence Boundary</text><!--MD5=[67478f8150ded03e41b1c1c9bdffce3b]
cluster ports--><path d="M1149,1029.7485 L1328,1029.7485 A6,6 0 0 1 1332,1033.7485 L1339,1052.9971 L1692.5,1052.9971 A4,4 0 0 1 1696.5,1056.9971 L1696.5,1328.7485 A4,4 0 0 1 1692.5,1332.7485 L1149,1332.7485 A4,4 0 0 1 1145,1328.7485 L1145,1033.7485 A4,4 0 0 1 1149,1029.7485 " fill="#FFF3BF" style="stroke: #000000; stroke-width: 1.5;"/><line style="stroke: #000000; stroke-width: 1.5;" x1="1145" x2="1339" y1="1052.9971" y2="1052.9971"/><text fill="#000000" font-family="Arial" font-size="15" font-weight="bold" lengthAdjust="spacingAndGlyphs" textLength="181" x="1149" y="1045.8184">External Ports + Adapters</text><!--MD5=[9ad6a1221cbce8f518f3e204d2f73422]
entity api_router--><rect fill="#E7F5FF" height="96.9941" rx="4" ry="4" style="stroke: #1C7ED6; stroke-width: 1.5;" width="150" x="275" y="1303.2485"/><text fill="#0B2942" font-family="Arial" font-size="15" lengthAdjust="spacingAndGlyphs" textLength="70" x="285" y="1327.3184">API Router</text><line style="stroke: #1C7ED6; stroke-width: 1.0;" x1="276" x2="424" y1="1330.4971" y2="1330.4971"/><text fill="#0B2942" font-family="Arial" font-size="15" lengthAdjust="spacingAndGlyphs" textLength="68" x="291" y="1348.5669">HTTP only</text><text fill="#0B2942" font-family="Arial" font-size="15" lengthAdjust="spacingAndGlyphs" textLength="118" x="291" y="1365.8154">request -&gt; service</text><text fill="#0B2942" font-family="Arial" font-size="15" lengthAdjust="spacingAndGlyphs" textLength="114" x="291" y="1383.064">error -&gt; response</text><!--MD5=[2217a1da6631dd34d1b296cec544f321]
entity current_actor--><rect fill="#E7F5FF" height="96.9941" rx="4" ry="4" style="stroke: #1C7ED6; stroke-width: 1.5;" width="133" x="283.5" y="1171.2485"/><text fill="#0B2942" font-family="Arial" font-size="15" lengthAdjust="spacingAndGlyphs" textLength="87" x="293.5" y="1195.3184">Current Actor</text><text fill="#0B2942" font-family="Arial" font-size="15" lengthAdjust="spacingAndGlyphs" textLength="82" x="293.5" y="1212.5669">Dependency</text><line style="stroke: #1C7ED6; stroke-width: 1.0;" x1="284.5" x2="415.5" y1="1215.7456" y2="1215.7456"/><text fill="#0B2942" font-family="Arial" font-size="15" lengthAdjust="spacingAndGlyphs" textLength="101" x="299.5" y="1233.8154">Bearer token -&gt;</text><text fill="#0B2942" font-family="Arial" font-size="15" lengthAdjust="spacingAndGlyphs" textLength="84" x="299.5" y="1251.064">ActorContext</text><!--MD5=[ad6d761789cfd2a85a23ab4162f9c8be]
entity permissions--><rect fill="#E7F5FF" height="96.9941" rx="4" ry="4" style="stroke: #1C7ED6; stroke-width: 1.5;" width="133" x="690.5" y="1303.2485"/><text fill="#0B2942" font-family="Arial" font-size="15" lengthAdjust="spacingAndGlyphs" textLength="74" x="700.5" y="1327.3184">Permission</text><text fill="#0B2942" font-family="Arial" font-size="15" lengthAdjust="spacingAndGlyphs" textLength="51" x="700.5" y="1344.5669">Policies</text><line style="stroke: #1C7ED6; stroke-width: 1.0;" x1="691.5" x2="822.5" y1="1347.7456" y2="1347.7456"/><text fill="#0B2942" font-family="Arial" font-size="15" lengthAdjust="spacingAndGlyphs" textLength="101" x="706.5" y="1365.8154">Role and object</text><text fill="#0B2942" font-family="Arial" font-size="15" lengthAdjust="spacingAndGlyphs" textLength="100" x="706.5" y="1383.064">visibility checks</text><!--MD5=[f50278905982483810086d91fb8fa489]
entity schemas--><rect fill="#E7F5FF" height="96.9941" rx="4" ry="4" style="stroke: #1C7ED6; stroke-width: 1.5;" width="152" x="681" y="1171.2485"/><text fill="#0B2942" font-family="Arial" font-size="15" lengthAdjust="spacingAndGlyphs" textLength="56" x="691" y="1195.3184">Pydantic</text><text fill="#0B2942" font-family="Arial" font-size="15" lengthAdjust="spacingAndGlyphs" textLength="63" x="691" y="1212.5669">Schemas</text><line style="stroke: #1C7ED6; stroke-width: 1.0;" x1="682" x2="832" y1="1215.7456" y2="1215.7456"/><text fill="#0B2942" font-family="Arial" font-size="15" lengthAdjust="spacingAndGlyphs" textLength="120" x="697" y="1233.8154">Request/response</text><text fill="#0B2942" font-family="Arial" font-size="15" lengthAdjust="spacingAndGlyphs" textLength="61" x="697" y="1251.064">contracts</text><!--MD5=[e3dee2c08d2bf4fbee9b487eaf3d3f20]
entity project_service--><rect fill="#E7F5FF" height="114.2427" rx="4" ry="4" style="stroke: #1C7ED6; stroke-width: 1.5;" width="184" x="665" y="832.7485"/><text fill="#0B2942" font-family="Arial" font-size="15" lengthAdjust="spacingAndGlyphs" textLength="88" x="675" y="856.8184">Project Guide</text><text fill="#0B2942" font-family="Arial" font-size="15" lengthAdjust="spacingAndGlyphs" textLength="49" x="675" y="874.0669">Service</text><line style="stroke: #1C7ED6; stroke-width: 1.0;" x1="666" x2="848" y1="877.2456" y2="877.2456"/><text fill="#0B2942" font-family="Arial" font-size="15" lengthAdjust="spacingAndGlyphs" textLength="109" x="681" y="895.3154">Projects, guides,</text><text fill="#0B2942" font-family="Arial" font-size="15" lengthAdjust="spacingAndGlyphs" textLength="152" x="681" y="912.564">checker/review/revision</text><text fill="#0B2942" font-family="Arial" font-size="15" lengthAdjust="spacingAndGlyphs" textLength="49" x="681" y="929.8125">policies</text><!--MD5=[15c59ee47735540d3f78d5170e4c9ba1]
entity task_service--><rect fill="#E7F5FF" height="131.4912" rx="4" ry="4" style="stroke: #1C7ED6; stroke-width: 1.5;" width="156" x="679" y="666.2485"/><text fill="#0B2942" font-family="Arial" font-size="15" lengthAdjust="spacingAndGlyphs" textLength="80" x="689" y="690.3184">Task Queue</text><text fill="#0B2942" font-family="Arial" font-size="15" lengthAdjust="spacingAndGlyphs" textLength="49" x="689" y="707.5669">Service</text><line style="stroke: #1C7ED6; stroke-width: 1.0;" x1="680" x2="834" y1="710.7456" y2="710.7456"/><text fill="#0B2942" font-family="Arial" font-size="15" lengthAdjust="spacingAndGlyphs" textLength="93" x="695" y="728.8154">Task contract,</text><text fill="#0B2942" font-family="Arial" font-size="15" lengthAdjust="spacingAndGlyphs" textLength="124" x="695" y="746.064">screening, release,</text><text fill="#0B2942" font-family="Arial" font-size="15" lengthAdjust="spacingAndGlyphs" textLength="123" x="695" y="763.3125">claim, assignment,</text><text fill="#0B2942" font-family="Arial" font-size="15" lengthAdjust="spacingAndGlyphs" textLength="81" x="695" y="780.561">state guards</text><!--MD5=[e54e5d3d10002438a7ae1563fd6364d3]
entity submission_service--><rect fill="#E7F5FF" height="114.2427" rx="4" ry="4" style="stroke: #1C7ED6; stroke-width: 1.5;" width="155" x="679.5" y="516.7485"/><text fill="#0B2942" font-family="Arial" font-size="15" lengthAdjust="spacingAndGlyphs" textLength="77" x="689.5" y="540.8184">Submission</text><text fill="#0B2942" font-family="Arial" font-size="15" lengthAdjust="spacingAndGlyphs" textLength="49" x="689.5" y="558.0669">Service</text><line style="stroke: #1C7ED6; stroke-width: 1.0;" x1="680.5" x2="833.5" y1="561.2456" y2="561.2456"/><text fill="#0B2942" font-family="Arial" font-size="15" lengthAdjust="spacingAndGlyphs" textLength="123" x="695.5" y="579.3154">Packets, evidence,</text><text fill="#0B2942" font-family="Arial" font-size="15" lengthAdjust="spacingAndGlyphs" textLength="108" x="695.5" y="596.564">artifact manifest,</text><text fill="#0B2942" font-family="Arial" font-size="15" lengthAdjust="spacingAndGlyphs" textLength="108" x="695.5" y="613.8125">versions, locking</text><!--MD5=[37c6be76aaa179f48d247b12db421517]
entity checker_service--><rect fill="#E7F5FF" height="114.2427" rx="4" ry="4" style="stroke: #1C7ED6; stroke-width: 1.5;" width="137" x="1151.5" y="843.7485"/><text fill="#0B2942" font-family="Arial" font-size="15" lengthAdjust="spacingAndGlyphs" textLength="55" x="1161.5" y="867.8184">Checker</text><text fill="#0B2942" font-family="Arial" font-size="15" lengthAdjust="spacingAndGlyphs" textLength="49" x="1161.5" y="885.0669">Service</text><line style="stroke: #1C7ED6; stroke-width: 1.0;" x1="1152.5" x2="1287.5" y1="888.2456" y2="888.2456"/><text fill="#0B2942" font-family="Arial" font-size="15" lengthAdjust="spacingAndGlyphs" textLength="92" x="1167.5" y="906.3154">Checker runs,</text><text fill="#0B2942" font-family="Arial" font-size="15" lengthAdjust="spacingAndGlyphs" textLength="105" x="1167.5" y="923.564">blocking results,</text><text fill="#0B2942" font-family="Arial" font-size="15" lengthAdjust="spacingAndGlyphs" textLength="100" x="1167.5" y="940.8125">pre-review gate</text><!--MD5=[20fcac1bd48b3bbf745dd5dd3151334a]
entity review_service--><rect fill="#E7F5FF" height="131.4912" rx="4" ry="4" style="stroke: #1C7ED6; stroke-width: 1.5;" width="141" x="1149.5" y="677.2485"/><text fill="#0B2942" font-family="Arial" font-size="15" lengthAdjust="spacingAndGlyphs" textLength="121" x="1159.5" y="701.3184">Review + Revision</text><text fill="#0B2942" font-family="Arial" font-size="15" lengthAdjust="spacingAndGlyphs" textLength="49" x="1159.5" y="718.5669">Service</text><line style="stroke: #1C7ED6; stroke-width: 1.0;" x1="1150.5" x2="1289.5" y1="721.7456" y2="721.7456"/><text fill="#0B2942" font-family="Arial" font-size="15" lengthAdjust="spacingAndGlyphs" textLength="48" x="1165.5" y="739.8154">accept,</text><text fill="#0B2942" font-family="Arial" font-size="15" lengthAdjust="spacingAndGlyphs" textLength="102" x="1165.5" y="757.064">needs_revision,</text><text fill="#0B2942" font-family="Arial" font-size="15" lengthAdjust="spacingAndGlyphs" textLength="98" x="1165.5" y="774.3125">reject, findings,</text><text fill="#0B2942" font-family="Arial" font-size="15" lengthAdjust="spacingAndGlyphs" textLength="93" x="1165.5" y="791.561">revision replay</text><!--MD5=[bd92806a2b0eeec26cf32e853bf3c934]
entity ledger_service--><rect fill="#E7F5FF" height="148.7397" rx="4" ry="4" style="stroke: #1C7ED6; stroke-width: 1.5;" width="216" x="1112" y="493.2485"/><text fill="#0B2942" font-family="Arial" font-size="15" lengthAdjust="spacingAndGlyphs" textLength="86" x="1122" y="517.3184">Contribution /</text><text fill="#0B2942" font-family="Arial" font-size="15" lengthAdjust="spacingAndGlyphs" textLength="103" x="1122" y="534.5669">Compensation /</text><text fill="#0B2942" font-family="Arial" font-size="15" lengthAdjust="spacingAndGlyphs" textLength="70" x="1122" y="551.8154">Reputation</text><text fill="#0B2942" font-family="Arial" font-size="15" lengthAdjust="spacingAndGlyphs" textLength="49" x="1122" y="569.064">Service</text><line style="stroke: #1C7ED6; stroke-width: 1.0;" x1="1113" x2="1327" y1="572.2427" y2="572.2427"/><text fill="#0B2942" font-family="Arial" font-size="15" lengthAdjust="spacingAndGlyphs" textLength="184" x="1128" y="590.3125">Reviewer/submitter records,</text><text fill="#0B2942" font-family="Arial" font-size="15" lengthAdjust="spacingAndGlyphs" textLength="109" x="1128" y="607.561">award fulfillment,</text><text fill="#0B2942" font-family="Arial" font-size="15" lengthAdjust="spacingAndGlyphs" textLength="104" x="1128" y="624.8096">outcome events</text><!--MD5=[61d82b33e39b82f50304075114ed2b20]
entity lifecycle--><rect fill="#E7F5FF" height="96.9941" rx="4" ry="4" style="stroke: #1C7ED6; stroke-width: 1.5;" width="178" x="1131" y="137.2485"/><text fill="#0B2942" font-family="Arial" font-size="15" lengthAdjust="spacingAndGlyphs" textLength="57" x="1141" y="161.3184">Lifecycle</text><text fill="#0B2942" font-family="Arial" font-size="15" lengthAdjust="spacingAndGlyphs" textLength="48" x="1141" y="178.5669">Guards</text><line style="stroke: #1C7ED6; stroke-width: 1.0;" x1="1132" x2="1308" y1="181.7456" y2="181.7456"/><text fill="#0B2942" font-family="Arial" font-size="15" lengthAdjust="spacingAndGlyphs" textLength="109" x="1147" y="199.8154">Allowed task and</text><text fill="#0B2942" font-family="Arial" font-size="15" lengthAdjust="spacingAndGlyphs" textLength="146" x="1147" y="217.064">submission transitions</text><!--MD5=[d281438539ff50848aa8b12911b4942e]
entity audit_service--><rect fill="#E7F5FF" height="96.9941" rx="4" ry="4" style="stroke: #1C7ED6; stroke-width: 1.5;" width="136" x="1152" y="269.2485"/><text fill="#0B2942" font-family="Arial" font-size="15" lengthAdjust="spacingAndGlyphs" textLength="32" x="1162" y="293.3184">Audit</text><text fill="#0B2942" font-family="Arial" font-size="15" lengthAdjust="spacingAndGlyphs" textLength="49" x="1162" y="310.5669">Service</text><line style="stroke: #1C7ED6; stroke-width: 1.0;" x1="1153" x2="1287" y1="313.7456" y2="313.7456"/><text fill="#0B2942" font-family="Arial" font-size="15" lengthAdjust="spacingAndGlyphs" textLength="80" x="1168" y="331.8154">Append-only</text><text fill="#0B2942" font-family="Arial" font-size="15" lengthAdjust="spacingAndGlyphs" textLength="104" x="1168" y="349.064">workflow events</text><!--MD5=[6f400b993ef113f7997965bb1aa02216]
entity repositories--><rect fill="#E6FCF5" height="114.2427" rx="4" ry="4" style="stroke: #1C7ED6; stroke-width: 1.5;" width="171" x="1134.5" y="1416.7485"/><text fill="#0B2942" font-family="Arial" font-size="15" lengthAdjust="spacingAndGlyphs" textLength="82" x="1144.5" y="1440.8184">Repositories</text><line style="stroke: #1C7ED6; stroke-width: 1.0;" x1="1135.5" x2="1304.5" y1="1443.9971" y2="1443.9971"/><text fill="#0B2942" font-family="Arial" font-size="15" lengthAdjust="spacingAndGlyphs" textLength="85" x="1150.5" y="1462.0669">Project, task,</text><text fill="#0B2942" font-family="Arial" font-size="15" lengthAdjust="spacingAndGlyphs" textLength="139" x="1150.5" y="1479.3154">submission, checker,</text><text fill="#0B2942" font-family="Arial" font-size="15" lengthAdjust="spacingAndGlyphs" textLength="94" x="1150.5" y="1496.564">review, ledger,</text><text fill="#0B2942" font-family="Arial" font-size="15" lengthAdjust="spacingAndGlyphs" textLength="111" x="1150.5" y="1513.8125">audit persistence</text><!--MD5=[1c662620b6bada510ea064c8190da53e]
entity auth_port--><rect fill="#FFF3BF" height="54.4971" rx="4" ry="4" style="stroke: #1C7ED6; stroke-width: 1.5;" width="98" x="1171" y="1235.7485"/><text fill="#0B2942" font-family="Arial" font-size="15" lengthAdjust="spacingAndGlyphs" textLength="78" x="1181" y="1259.8184">Auth Verifier</text><text fill="#0B2942" font-family="Arial" font-size="15" lengthAdjust="spacingAndGlyphs" textLength="56" x="1181" y="1277.0669">Interface</text><!--MD5=[94037ba55d9bee7096d67d56889d6eca]
entity flow_adapter--><rect fill="#FFF3BF" height="54.4971" rx="4" ry="4" style="stroke: #1C7ED6; stroke-width: 1.5;" width="84" x="1178" y="1146.7485"/><text fill="#0B2942" font-family="Arial" font-size="15" lengthAdjust="spacingAndGlyphs" textLength="64" x="1188" y="1170.8184">Flow Auth</text><text fill="#0B2942" font-family="Arial" font-size="15" lengthAdjust="spacingAndGlyphs" textLength="50" x="1188" y="1188.0669">Adapter</text><!--MD5=[44a834effb8cb0beb1f881d0cc0ab414]
entity storage_port--><rect fill="#FFF3BF" height="37.2485" rx="4" ry="4" style="stroke: #1C7ED6; stroke-width: 1.5;" width="102" x="1169" y="1074.2485"/><text fill="#0B2942" font-family="Arial" font-size="15" lengthAdjust="spacingAndGlyphs" textLength="82" x="1179" y="1098.3184">Storage Port</text><!--MD5=[9ba089fae273e65f7b5fa5eec55cf257]
entity storage_adapter--><rect fill="#FFF3BF" height="54.4971" rx="4" ry="4" style="stroke: #1C7ED6; stroke-width: 1.5;" width="110" x="1554" y="1235.7485"/><text fill="#0B2942" font-family="Arial" font-size="15" lengthAdjust="spacingAndGlyphs" textLength="90" x="1564" y="1259.8184">Local Storage</text><text fill="#0B2942" font-family="Arial" font-size="15" lengthAdjust="spacingAndGlyphs" textLength="50" x="1564" y="1277.0669">Adapter</text><!--MD5=[2cca36597585a1788879a03d9c9d61a7]
entity checker_runner--><rect fill="#FFF3BF" height="54.4971" rx="4" ry="4" style="stroke: #1C7ED6; stroke-width: 1.5;" width="127" x="1545.5" y="1146.7485"/><text fill="#0B2942" font-family="Arial" font-size="15" lengthAdjust="spacingAndGlyphs" textLength="107" x="1555.5" y="1170.8184">Checker Runner</text><text fill="#0B2942" font-family="Arial" font-size="15" lengthAdjust="spacingAndGlyphs" textLength="50" x="1555.5" y="1188.0669">Adapter</text><!--MD5=[4a65e84059005d12693a083370a06717]
entity client--><rect fill="#F1F3F5" height="54.4971" rx="4" ry="4" style="stroke: #1C7ED6; stroke-width: 1.5;" width="84" x="6" y="1108.7485"/><text fill="#0B2942" font-family="Arial" font-size="15" lengthAdjust="spacingAndGlyphs" textLength="64" x="16" y="1132.8184">React UI /</text><text fill="#0B2942" font-family="Arial" font-size="15" lengthAdjust="spacingAndGlyphs" textLength="63" x="16" y="1150.0669">API Client</text><!--MD5=[4943a2d735eb2304ff96892afb0c6d73]
entity flow_auth--><path d="M1572.1032,1631.26 C1574.7807,1625.3161 1579.1627,1624.5064 1583.6115,1629.3748 C1585.9512,1622.3583 1590.9498,1621.1926 1596.1829,1626.3988 C1599.247,1618.7828 1604.9886,1617.4386 1610.6569,1623.6783 C1615.5841,1619.2112 1621.3062,1619.5652 1623.1631,1626.925 C1628.5405,1621.6958 1633.0328,1622.8178 1636.6027,1629.0453 C1640.2232,1623.1 1645.6699,1624.596 1648.2677,1630.0883 C1655.214,1632.4532 1656.9065,1638.6556 1651.6798,1644.005 C1657.2985,1645.4949 1659.5447,1651.1283 1655.1948,1655.6319 C1659.5095,1660.8334 1658.1893,1665.2757 1651.8816,1667.5156 C1656.5331,1672.5676 1655.38,1676.7293 1648.7045,1678.5073 C1646.845,1685.822 1640.9972,1686.3643 1635.8051,1682.2778 C1632.9009,1688.5866 1627.9126,1689.2754 1623.8278,1683.4424 C1619.7746,1690.8423 1615.5756,1692.8136 1609.296,1685.6664 C1604.3926,1690.7855 1598.6668,1690.2225 1596.3084,1682.9903 C1593.0476,1688.8105 1587.5005,1688.3859 1584.8786,1682.3732 C1580.0908,1688.2603 1574.6528,1686.1132 1571.8509,1680.1837 C1565.2213,1677.3193 1563.2338,1671.4355 1569.8128,1666.5906 C1562.9277,1664.549 1562.1229,1658.7049 1567.6547,1654.4552 C1562.3307,1650.0711 1562.8477,1646.1132 1568.6533,1642.6723 C1564.8074,1638.1633 1565.8587,1632.7187 1572.1032,1631.26 " fill="#F1F3F5" style="stroke: #868E96; stroke-width: 1.5;"/><text fill="#212529" font-family="Arial" font-size="15" lengthAdjust="spacingAndGlyphs" textLength="53" x="1577" y="1650.8184">External</text><text fill="#212529" font-family="Arial" font-size="15" lengthAdjust="spacingAndGlyphs" textLength="64" x="1577" y="1668.0669">Flow Auth</text><!--MD5=[0e1fecc31e3549f2a1667c6349b56d9e]
entity postgres--><path d="M1537,1846.2485 C1537,1836.2485 1609,1836.2485 1609,1836.2485 C1609,1836.2485 1681,1836.2485 1681,1846.2485 L1681,1897.7456 C1681,1907.7456 1609,1907.7456 1609,1907.7456 C1609,1907.7456 1537,1907.7456 1537,1897.7456 L1537,1846.2485 " fill="#E6FCF5" style="stroke: #0CA678; stroke-width: 1.5;"/><path d="M1537,1846.2485 C1537,1856.2485 1609,1856.2485 1609,1856.2485 C1609,1856.2485 1681,1856.2485 1681,1846.2485 " fill="none" style="stroke: #0CA678; stroke-width: 1.5;"/><text fill="#063B2C" font-family="Arial" font-size="15" lengthAdjust="spacingAndGlyphs" textLength="59" x="1547" y="1874.3184">Postgres</text><path d="M1537,1872.4971 C1537,1882.4971 1609,1882.4971 1609,1882.4971 C1609,1882.4971 1681,1882.4971 1681,1872.4971 " fill="none" style="stroke: #0CA678; stroke-width: 1.0;"/><text fill="#063B2C" font-family="Arial" font-size="15" lengthAdjust="spacingAndGlyphs" textLength="112" x="1553" y="1895.5669">Record database</text><!--MD5=[986bdfb10df31212cfc6f8e81305bf50]
entity file_store--><rect fill="#E6FCF5" height="79.7456" rx="4" ry="4" style="stroke: #1C7ED6; stroke-width: 1.5;" width="127" x="1545.5" y="1720.7485"/><text fill="#0B2942" font-family="Arial" font-size="15" lengthAdjust="spacingAndGlyphs" textLength="62" x="1555.5" y="1744.8184">File Store</text><line style="stroke: #1C7ED6; stroke-width: 1.0;" x1="1546.5" x2="1671.5" y1="1747.9971" y2="1747.9971"/><text fill="#0B2942" font-family="Arial" font-size="15" lengthAdjust="spacingAndGlyphs" textLength="88" x="1561.5" y="1766.0669">Evidence and</text><text fill="#0B2942" font-family="Arial" font-size="15" lengthAdjust="spacingAndGlyphs" textLength="95" x="1561.5" y="1783.3154">artifact objects</text><!--MD5=[dbbbf275470eac1e45a6c04145314d2c]
link client to http_boundary--><path d="M90.08,1135.7485 C130.52,1135.7485 193.875,1135.7485 247.7913,1135.7485 C248.6337,1135.7485 249.4738,1135.7485 250.3115,1135.7485 " fill="none" id="client-&gt;http_boundary" style="stroke: #495057; stroke-width: 1.1;"/><polygon fill="#495057" points="250.3115,1135.7485,241.3115,1131.7485,245.3115,1135.7485,241.3115,1139.7485,250.3115,1135.7485" style="stroke: #495057; stroke-width: 1.1;"/><text fill="#000000" font-family="Arial" font-size="15" lengthAdjust="spacingAndGlyphs" textLength="81" x="121" y="1131.8184">HTTP/JSON</text><!--MD5=[77a9661b1565f8b8f6aab7424feefa76]
link http_boundary to workflow_services--><path d="M415.8411,1107.7269 C417.2772,1107.1247 418.7204,1106.521 420.1691,1105.9167 C431.7581,1101.0817 443.69,1096.2035 455,1091.7485 C520.225,1066.0535 594.16,1039.0035 652.4313,1018.1573 C681.5669,1007.7342 706.7866,998.862 725.0436,992.4856 C727.3257,991.6885 729.4991,990.9305 731.5577,990.2132 C731.815,990.1236 732.0705,990.0346 732.3242,989.9462 " fill="none" id="http_boundary-&gt;workflow_services" style="stroke: #495057; stroke-width: 1.1;"/><polygon fill="#495057" points="732.3242,989.9462,722.5093,989.129,727.6024,991.5908,725.1407,996.6839,732.3242,989.9462" style="stroke: #495057; stroke-width: 1.1;"/><text fill="#000000" font-family="Arial" font-size="15" lengthAdjust="spacingAndGlyphs" textLength="160" x="456" y="1029.8184">route to domain services</text><!--MD5=[30e94ae70bbb43130f2e8a1c688e080b]
link http_boundary to ports--><path d="M857.5005,1150.8486 C859.2363,1151.3708 860.9677,1151.9003 862.6945,1152.4372 C866.1483,1153.5111 869.5839,1154.6146 873,1155.7485 C984.62,1192.7985 981.56,1262.6685 1091,1305.7485 C1104.17,1310.9335 1118.61,1314.7173 1132.8973,1317.4754 C1136.4692,1318.1649 1140.0315,1318.7904 1143.562,1319.3576 C1144.0033,1319.4285 1144.4441,1319.4985 1144.8844,1319.5675 " fill="none" id="http_boundary-&gt;ports" style="stroke: #495057; stroke-width: 1.1;"/><polygon fill="#495057" points="1144.8844,1319.5675,1136.6133,1314.2206,1139.9449,1318.7924,1135.3731,1322.1239,1144.8844,1319.5675" style="stroke: #495057; stroke-width: 1.1;"/><text fill="#000000" font-family="Arial" font-size="15" lengthAdjust="spacingAndGlyphs" textLength="71" x="721.5" y="1114.8184">verify actor</text><!--MD5=[1fff9b7d56e59da8fafca999f26ca501]
link workflow_services to shared_rules--><path d="M1123.0534,449.4443 C1123.2662,449.292 1123.4791,449.1399 1123.6923,448.9882 C1125.3976,447.7748 1127.1157,446.584 1128.843,445.4157 C1142.6609,436.0698 1157.0644,428.1723 1170.1988,421.7735 C1176.7659,418.5742 1183.0159,415.7495 1188.7167,413.3058 C1191.5671,412.0839 1194.2803,410.9573 1196.8272,409.9267 C1196.9068,409.8945 1196.9862,409.8624 1197.0655,409.8304 " fill="none" id="workflow_services-&gt;shared_rules" style="stroke: #495057; stroke-width: 1.1;"/><polygon fill="#495057" points="1197.0655,409.8304,1187.2224,409.4923,1192.4294,411.7031,1190.2187,416.91,1197.0655,409.8304" style="stroke: #495057; stroke-width: 1.1;"/><text fill="#000000" font-family="Arial" font-size="15" lengthAdjust="spacingAndGlyphs" textLength="152" x="905.5" y="484.8184">state, audit, policy rules</text><!--MD5=[1753777cbc12f8dde1bc86b1a0377f09]
link workflow_services to persistence--><path d="M771.7511,989.7592 C771.8741,989.8338 771.9977,989.909 772.1219,989.9846 C772.3705,990.1359 772.6217,990.289 772.8756,990.4441 C773.3833,990.7543 773.9016,991.0721 774.4299,991.3974 C775.4867,992.0481 776.5839,992.7289 777.7184,993.4391 C779.9875,994.8594 782.4058,996.3968 784.948,998.0446 C790.0325,1001.3403 795.6125,1005.0773 801.485,1009.201 C824.975,1025.696 853.145,1048.3785 873,1073.7485 C1015.65,1256.0485 905.77,1407.9285 1091,1546.7485 C1096.6625,1550.9923 1102.8695,1554.4793 1109.4013,1557.3316 C1109.6055,1557.4207 1109.8099,1557.5092 1110.0147,1557.5971 " fill="none" id="workflow_services-&gt;persistence" style="stroke: #495057; stroke-width: 1.1;"/><polygon fill="#495057" points="1110.0147,1557.5971,1103.3225,1550.3712,1105.4201,1555.6247,1100.1666,1557.7224,1110.0147,1557.5971" style="stroke: #495057; stroke-width: 1.1;"/><text fill="#000000" font-family="Arial" font-size="15" lengthAdjust="spacingAndGlyphs" textLength="118" x="922.5" y="1080.8184">read/write records</text><!--MD5=[dfb61650550de0013edc06956a9b3384]
link workflow_services to ports--><path d="M830.4464,989.8874 C838.6656,990.8767 847.3343,991.9424 856.3152,993.0766 C874.277,995.3449 893.4875,997.887 912.8475,1000.6398 C990.2875,1011.651 1070.12,1026.0335 1082,1039.7485 C1101.36,1062.0985 1071.31,1283.6885 1091,1305.7485 C1100.425,1316.3085 1112.9631,1322.8217 1126.5112,1326.6403 C1129.8983,1327.5949 1133.3484,1328.3811 1136.8289,1329.0201 C1138.5691,1329.3396 1140.3168,1329.6222 1142.0681,1329.8707 C1142.9437,1329.995 1143.8202,1330.1107 1144.697,1330.2182 " fill="none" id="workflow_services-&gt;ports" style="stroke: #495057; stroke-width: 1.1;"/><polygon fill="#495057" points="1144.697,1330.2182,1136.2506,1325.1528,1139.7342,1329.6098,1135.2772,1333.0934,1144.697,1330.2182" style="stroke: #495057; stroke-width: 1.1;"/><text fill="#000000" font-family="Arial" font-size="15" lengthAdjust="spacingAndGlyphs" textLength="199" x="882" y="992.8184">storage and checker execution</text><!--MD5=[a8a76d8cc29ff81d3b1b34bcd1694666]
link ports to flow_auth--><path d="M1241.6596,1332.8216 C1241.9854,1332.955 1242.3143,1333.0899 1242.6462,1333.2264 C1243.3101,1333.4993 1243.9863,1333.7784 1244.6743,1334.0635 C1247.4266,1335.2039 1250.3688,1336.4409 1253.4735,1337.77 C1259.683,1340.4282 1266.5428,1343.4548 1273.8338,1346.8135 C1302.9975,1360.2485 1339.06,1378.9985 1368,1400.7485 C1455.26,1466.3285 1538.66,1565.0285 1580.35,1617.6685 " fill="none" id="ports-&gt;flow_auth" style="stroke: #495057; stroke-width: 1.1;"/><polygon fill="#495057" points="1583.52,1621.6885,1581.0681,1612.1498,1580.4158,1617.7689,1574.7966,1617.1166,1583.52,1621.6885" style="stroke: #495057; stroke-width: 1.1;"/><text fill="#000000" font-family="Arial" font-size="15" lengthAdjust="spacingAndGlyphs" textLength="73" x="1405" y="1408.8184">verify token</text><!--MD5=[a3f540ae2845f53a949d7d654accc93f]
link ports to file_store--><path d="M1258.0045,1332.7667 C1258.2211,1332.8269 1258.4383,1332.8875 1258.6561,1332.9485 C1265.6247,1334.9006 1273.1994,1337.2623 1281.055,1340.096 C1312.4775,1351.431 1348.395,1370.3185 1368,1400.7485 C1386.92,1430.1185 1361.04,1526.1785 1376,1557.7485 C1410.74,1631.0485 1485.65,1688.6985 1541,1723.5485 " fill="none" id="ports-&gt;file_store" style="stroke: #495057; stroke-width: 1.1;"/><polygon fill="#495057" points="1545.29,1726.2285,1539.7657,1718.0749,1541.046,1723.585,1535.5359,1724.8653,1545.29,1726.2285" style="stroke: #495057; stroke-width: 1.1;"/><text fill="#000000" font-family="Arial" font-size="15" lengthAdjust="spacingAndGlyphs" textLength="122" x="1380.5" y="1553.8184">store/read artifacts</text><!--MD5=[e88b2dcaf38f8eea309ed43f48bb6eb6]
link persistence to postgres--><path d="M1223.2746,1573.8822 C1223.3209,1574.0403 1223.3678,1574.2006 1223.4155,1574.363 C1223.511,1574.6878 1223.6092,1575.0211 1223.7104,1575.3627 C1225.3285,1580.8277 1227.6814,1588.4213 1230.7991,1597.6178 C1237.0344,1616.0107 1246.3288,1640.8154 1258.9225,1667.8273 C1284.11,1721.851 1322.495,1784.7035 1376,1822.7485 C1421.24,1854.9185 1483.18,1866.7885 1531.69,1870.8285 " fill="none" id="persistence-&gt;postgres" style="stroke: #495057; stroke-width: 1.1;"/><polygon fill="#495057" points="1536.93,1871.2385,1528.2653,1866.5563,1531.9449,1870.8529,1527.6483,1874.5324,1536.93,1871.2385" style="stroke: #495057; stroke-width: 1.1;"/><text fill="#000000" font-family="Arial" font-size="15" lengthAdjust="spacingAndGlyphs" textLength="129" x="1377" y="1818.8184">SQLAlchemy async</text><!--MD5=[c3f7b6715072596584d213a968f6559d]
link api_router to current_actor--><!--MD5=[ae0ccae431ea96e9e1e9caab9c3335c2]
link api_router to permissions--><!--MD5=[99f64b5e5d0274ca5285e91aae53093c]
link permissions to schemas--><!--MD5=[3e63cdadb73a9d856471e8cf6ae152e1]
link project_service to task_service--><!--MD5=[481c7c057b5f2cf6f6f08c37d83274e6]
link task_service to submission_service--><!--MD5=[c7a611e9e16859aaa301ae7a2bcb5508]
link project_service to checker_service--><!--MD5=[541457e6a573b73567308457776aaec2]
link checker_service to review_service--><!--MD5=[68ffe75cff30a5de359b19e9b4e61301]
link review_service to ledger_service--><!--MD5=[fa4e13c8f3feab734ef260292417432f]
link auth_port to flow_adapter--><!--MD5=[6f621ec7cb8802c3655e1df3c3796180]
link flow_adapter to storage_port--><!--MD5=[25030521750c9d863951b859422819b3]
link auth_port to storage_adapter--><!--MD5=[80c7737944bed9501ccd9aa6ee02153c]
link storage_adapter to checker_runner--><!--MD5=[7e989cbe2eec3885ce41b1f47c8b2bf3]
link current_actor to project_service--><!--MD5=[ca56939ee6eed3fb25b43d0bd40a20ea]
link permissions to auth_port--><!--MD5=[189cd88ae768917c38ef55955469f02a]
@startuml backend_v01_components
title Workstream v0.1 Backend Component View

left to right direction

skinparam backgroundColor #FFFFFF
skinparam shadowing false
skinparam roundcorner 8
skinparam defaultFontName Arial
skinparam defaultFontSize 15
skinparam ArrowColor #495057
skinparam ArrowThickness 1.1
skinparam packageStyle rectangle
skinparam rectangle {
  BorderColor #1C7ED6
  BackgroundColor #E7F5FF
  FontColor #0B2942
}
skinparam database {
  BorderColor #0CA678
  BackgroundColor #E6FCF5
  FontColor #063B2C
}
skinparam cloud {
  BorderColor #868E96
  BackgroundColor #F1F3F5
  FontColor #212529
}

rectangle "React UI /\nAPI Client" as client #F1F3F5
cloud "External\nFlow Auth" as flow_auth
database "Postgres\n- - - -\nRecord database" as postgres
rectangle "File Store\n- - - -\nEvidence and\nartifact objects" as file_store #E6FCF5

package "FastAPI Backend - Modular Monolith" as backend #F8FBFF {
  package "HTTP + Auth Boundary" as http_boundary #EDF2FF {
    rectangle "API Router\n- - - -\nHTTP only\nrequest -> service\nerror -> response" as api_router
    rectangle "Current Actor\nDependency\n- - - -\nBearer token ->\nActorContext" as current_actor
    rectangle "Permission\nPolicies\n- - - -\nRole and object\nvisibility checks" as permissions
    rectangle "Pydantic\nSchemas\n- - - -\nRequest/response\ncontracts" as schemas
  }

  package "Workflow Services" as workflow_services #E7F5FF {
    rectangle "Project Guide\nService\n- - - -\nProjects, guides,\nchecker/review/revision\npolicies" as project_service
    rectangle "Task Queue\nService\n- - - -\nTask contract,\nscreening, release,\nclaim, assignment,\nstate guards" as task_service
    rectangle "Submission\nService\n- - - -\nPackets, evidence,\nartifact manifest,\nversions, locking" as submission_service
    rectangle "Checker\nService\n- - - -\nChecker runs,\nblocking results,\npre-review gate" as checker_service
    rectangle "Review + Revision\nService\n- - - -\naccept,\nneeds_revision,\nreject, findings,\nrevision replay" as review_service
    rectangle "Contribution /\nCompensation /\nReputation\nService\n- - - -\nReviewer/submitter records,\naward fulfillment,\noutcome events" as ledger_service
  }

  package "Shared Domain Rules" as shared_rules #EDF2FF {
    rectangle "Lifecycle\nGuards\n- - - -\nAllowed task and\nsubmission transitions" as lifecycle
    rectangle "Audit\nService\n- - - -\nAppend-only\nworkflow events" as audit_service
  }

  package "Persistence Boundary" as persistence #E6FCF5 {
    rectangle "Repositories\n- - - -\nProject, task,\nsubmission, checker,\nreview, ledger,\naudit persistence" as repositories #E6FCF5
  }

  package "External Ports + Adapters" as ports #FFF3BF {
    rectangle "Auth Verifier\nInterface" as auth_port #FFF3BF
    rectangle "Flow Auth\nAdapter" as flow_adapter #FFF3BF
    rectangle "Storage Port" as storage_port #FFF3BF
    rectangle "Local Storage\nAdapter" as storage_adapter #FFF3BF
    rectangle "Checker Runner\nAdapter" as checker_runner #FFF3BF
  }
}

client - -> http_boundary : HTTP/JSON
http_boundary - -> workflow_services : route to domain services
http_boundary - -> ports : verify actor

workflow_services - -> shared_rules : state, audit, policy rules
workflow_services - -> persistence : read/write records
workflow_services - -> ports : storage and checker execution

ports - -> flow_auth : verify token
ports - -> file_store : store/read artifacts
persistence - -> postgres : SQLAlchemy async

@enduml

PlantUML version 1.2020.02(Sun Mar 01 11:22:07 WAT 2020)
(GPL source distribution)
Java Runtime: OpenJDK Runtime Environment
JVM: OpenJDK 64-Bit Server VM
Java Version: 17.0.19+10-1-24.04.2-Ubuntu
Operating System: Linux
Default Encoding: UTF-8
Language: en
Country: null
--></g></svg>