<svg xmlns="http://www.w3.org/2000/svg" xmlns:xlink="http://www.w3.org/1999/xlink" contentStyleType="text/css" data-diagram-type="DESCRIPTION" height="1935px" preserveAspectRatio="none" style="width:1708px;height:1935px;background:#FFFFFF;" version="1.1" viewBox="0 0 1708 1935" width="1708px" zoomAndPan="magnify"><?plantuml 1.2026.5?><defs/><g><g class="title" data-source-line="1"><text fill="#000000" font-family="Arial" font-size="14" font-weight="700" lengthAdjust="spacing" textLength="291.751" x="704.8745" y="23.1318">Workstream v0.1 Backend Component View</text></g><!--cluster backend--><g class="cluster" data-qualified-name="backend" data-source-line="34" id="ent0005"><rect fill="#F8FBFF" height="1564" rx="4" ry="4" style="stroke:#1C7ED6;stroke-width:1;" width="1469.5" x="225" y="44.0986"/><text fill="#0B2942" font-family="Arial" font-size="15" font-weight="700" lengthAdjust="spacing" textLength="260.8447" x="829.3276" y="60.1685">FastAPI Backend - Modular Monolith</text></g><!--cluster http_boundary--><g class="cluster" data-qualified-name="backend.http_boundary" data-source-line="35" id="ent0006"><rect fill="#EDF2FF" height="316" rx="4" ry="4" style="stroke:#1C7ED6;stroke-width:1;" width="592" x="257" y="1110.0986"/><text fill="#0B2942" font-family="Arial" font-size="15" font-weight="700" lengthAdjust="spacing" textLength="164.5825" x="470.7087" y="1126.1685">HTTP + Auth Boundary</text></g><!--cluster workflow_services--><g class="cluster" data-qualified-name="backend.workflow_services" data-source-line="42" id="ent0011"><rect fill="#E7F5FF" height="540" rx="4" ry="4" style="stroke:#1C7ED6;stroke-width:1;" width="681" x="640" y="452.0986"/><text fill="#0B2942" font-family="Arial" font-size="15" font-weight="700" lengthAdjust="spacing" textLength="133.3813" x="913.8093" y="468.1685">Workflow Services</text></g><!--cluster shared_rules--><g class="cluster" data-qualified-name="backend.shared_rules" data-source-line="51" id="ent0018"><rect fill="#EDF2FF" height="316" rx="4" ry="4" style="stroke:#1C7ED6;stroke-width:1;" width="216" x="1104" y="96.0986"/><text fill="#0B2942" font-family="Arial" font-size="15" font-weight="700" lengthAdjust="spacing" textLength="155.0391" x="1134.4805" y="112.1685">Shared Domain Rules</text></g><!--cluster persistence--><g class="cluster" data-qualified-name="backend.persistence" data-source-line="56" id="ent0021"><rect fill="#E6FCF5" height="201" rx="4" ry="4" style="stroke:#1C7ED6;stroke-width:1;" width="208" x="1108" y="1375.0986"/><text fill="#0B2942" font-family="Arial" font-size="15" font-weight="700" lengthAdjust="spacing" textLength="158.3936" x="1132.8032" y="1391.1685">Persistence Boundary</text></g><!--cluster ports--><g class="cluster" data-qualified-name="backend.ports" data-source-line="60" id="ent0023"><rect fill="#FFF3BF" height="303" rx="4" ry="4" style="stroke:#1C7ED6;stroke-width:1;" width="526.5" x="1136" y="1032.0986"/><text fill="#0B2942" font-family="Arial" font-size="15" font-weight="700" lengthAdjust="spacing" textLength="183.8159" x="1307.342" y="1048.1685">External Ports + Adapters</text></g><!--entity api_router--><g class="entity" data-qualified-name="backend.http_boundary.api_router" data-source-line="36" id="ent0007"><rect fill="#E7F5FF" height="96.9941" rx="4" ry="4" style="stroke:#1C7ED6;stroke-width:0.5;" width="139.6338" x="281" y="1305.5986"/><text fill="#0B2942" font-family="Arial" font-size="15" lengthAdjust="spacing" textLength="73.3667" x="291" y="1329.6685">API Router</text><line style="stroke:#1C7ED6;stroke-width:1;" x1="282" x2="419.6338" y1="1332.8472" y2="1332.8472"/><text fill="#0B2942" font-family="Arial" font-size="15" lengthAdjust="spacing" textLength="70.8472" x="291" y="1350.917">HTTP only</text><text fill="#0B2942" font-family="Arial" font-size="15" lengthAdjust="spacing" textLength="119.6338" x="291" y="1368.1655">request -&gt; service</text><text fill="#0B2942" font-family="Arial" font-size="15" lengthAdjust="spacing" textLength="115.4663" x="291" y="1385.4141">error -&gt; response</text></g><!--entity current_actor--><g class="entity" data-qualified-name="backend.http_boundary.current_actor" data-source-line="37" id="ent0008"><rect fill="#E7F5FF" height="96.9941" rx="4" ry="4" style="stroke:#1C7ED6;stroke-width:0.5;" width="123.8062" x="289" y="1173.5986"/><text fill="#0B2942" font-family="Arial" font-size="15" lengthAdjust="spacing" textLength="89.1943" x="299" y="1197.6685">Current Actor</text><text fill="#0B2942" font-family="Arial" font-size="15" lengthAdjust="spacing" textLength="84.2285" x="299" y="1214.917">Dependency</text><line style="stroke:#1C7ED6;stroke-width:1;" x1="290" x2="411.8062" y1="1218.0957" y2="1218.0957"/><text fill="#0B2942" font-family="Arial" font-size="15" lengthAdjust="spacing" textLength="103.8062" x="299" y="1236.1655">Bearer token -&gt;</text><text fill="#0B2942" font-family="Arial" font-size="15" lengthAdjust="spacing" textLength="86.7041" x="299" y="1253.4141">ActorContext</text></g><!--entity permissions--><g class="entity" data-qualified-name="backend.http_boundary.permissions" data-source-line="38" id="ent0009"><rect fill="#E7F5FF" height="96.9941" rx="4" ry="4" style="stroke:#1C7ED6;stroke-width:0.5;" width="124.2383" x="692" y="1305.5986"/><text fill="#0B2942" font-family="Arial" font-size="15" lengthAdjust="spacing" textLength="74.187" x="702" y="1329.6685">Permission</text><text fill="#0B2942" font-family="Arial" font-size="15" lengthAdjust="spacing" textLength="51.687" x="702" y="1346.917">Policies</text><line style="stroke:#1C7ED6;stroke-width:1;" x1="693" x2="815.2383" y1="1350.0957" y2="1350.0957"/><text fill="#0B2942" font-family="Arial" font-size="15" lengthAdjust="spacing" textLength="104.2383" x="702" y="1368.1655">Role and object</text><text fill="#0B2942" font-family="Arial" font-size="15" lengthAdjust="spacing" textLength="102.5244" x="702" y="1385.4141">visibility checks</text></g><!--entity schemas--><g class="entity" data-qualified-name="backend.http_boundary.schemas" data-source-line="39" id="ent0010"><rect fill="#E7F5FF" height="96.9941" rx="4" ry="4" style="stroke:#1C7ED6;stroke-width:0.5;" width="141.7432" x="683" y="1173.5986"/><text fill="#0B2942" font-family="Arial" font-size="15" lengthAdjust="spacing" textLength="57.5317" x="693" y="1197.6685">Pydantic</text><text fill="#0B2942" font-family="Arial" font-size="15" lengthAdjust="spacing" textLength="62.5269" x="693" y="1214.917">Schemas</text><line style="stroke:#1C7ED6;stroke-width:1;" x1="684" x2="823.7432" y1="1218.0957" y2="1218.0957"/><text fill="#0B2942" font-family="Arial" font-size="15" lengthAdjust="spacing" textLength="121.7432" x="693" y="1236.1655">Request/response</text><text fill="#0B2942" font-family="Arial" font-size="15" lengthAdjust="spacing" textLength="60.8569" x="693" y="1253.4141">contracts</text></g><!--entity project_service--><g class="entity" data-qualified-name="backend.workflow_services.project_service" data-source-line="43" id="ent0012"><rect fill="#E7F5FF" height="114.2427" rx="4" ry="4" style="stroke:#1C7ED6;stroke-width:0.5;" width="180.0562" x="664" y="835.0986"/><text fill="#0B2942" font-family="Arial" font-size="15" lengthAdjust="spacing" textLength="90.8789" x="674" y="859.1685">Project Guide</text><text fill="#0B2942" font-family="Arial" font-size="15" lengthAdjust="spacing" textLength="50.0171" x="674" y="876.417">Service</text><line style="stroke:#1C7ED6;stroke-width:1;" x1="665" x2="843.0562" y1="879.5957" y2="879.5957"/><text fill="#0B2942" font-family="Arial" font-size="15" lengthAdjust="spacing" textLength="110.8887" x="674" y="897.6655">Projects, guides,</text><text fill="#0B2942" font-family="Arial" font-size="15" lengthAdjust="spacing" textLength="160.0562" x="674" y="914.9141">checker/review/revision/</text><text fill="#0B2942" font-family="Arial" font-size="15" lengthAdjust="spacing" textLength="111.7236" x="674" y="932.1626">payment policies</text></g><!--entity task_service--><g class="entity" data-qualified-name="backend.workflow_services.task_service" data-source-line="44" id="ent0013"><rect fill="#E7F5FF" height="131.4912" rx="4" ry="4" style="stroke:#1C7ED6;stroke-width:0.5;" width="146.7383" x="680.5" y="668.5986"/><text fill="#0B2942" font-family="Arial" font-size="15" lengthAdjust="spacing" textLength="81.709" x="690.5" y="692.6685">Task Queue</text><text fill="#0B2942" font-family="Arial" font-size="15" lengthAdjust="spacing" textLength="50.0171" x="690.5" y="709.917">Service</text><line style="stroke:#1C7ED6;stroke-width:1;" x1="681.5" x2="826.2383" y1="713.0957" y2="713.0957"/><text fill="#0B2942" font-family="Arial" font-size="15" lengthAdjust="spacing" textLength="94.1968" x="690.5" y="731.1655">Task contract,</text><text fill="#0B2942" font-family="Arial" font-size="15" lengthAdjust="spacing" textLength="126.7383" x="690.5" y="748.4141">screening, release,</text><text fill="#0B2942" font-family="Arial" font-size="15" lengthAdjust="spacing" textLength="124.2114" x="690.5" y="765.6626">claim, assignment,</text><text fill="#0B2942" font-family="Arial" font-size="15" lengthAdjust="spacing" textLength="82.5513" x="690.5" y="782.9111">state guards</text></g><!--entity submission_service--><g class="entity" data-qualified-name="backend.workflow_services.submission_service" data-source-line="45" id="ent0014"><rect fill="#E7F5FF" height="114.2427" rx="4" ry="4" style="stroke:#1C7ED6;stroke-width:0.5;" width="145.9033" x="681" y="519.0986"/><text fill="#0B2942" font-family="Arial" font-size="15" lengthAdjust="spacing" textLength="77.5342" x="691" y="543.1685">Submission</text><text fill="#0B2942" font-family="Arial" font-size="15" lengthAdjust="spacing" textLength="50.0171" x="691" y="560.417">Service</text><line style="stroke:#1C7ED6;stroke-width:1;" x1="682" x2="825.9033" y1="563.5957" y2="563.5957"/><text fill="#0B2942" font-family="Arial" font-size="15" lengthAdjust="spacing" textLength="125.9033" x="691" y="581.6655">Packets, evidence,</text><text fill="#0B2942" font-family="Arial" font-size="15" lengthAdjust="spacing" textLength="110.0391" x="691" y="598.9141">artifact manifest,</text><text fill="#0B2942" font-family="Arial" font-size="15" lengthAdjust="spacing" textLength="110.8813" x="691" y="616.1626">versions, locking</text></g><!--entity checker_service--><g class="entity" data-qualified-name="backend.workflow_services.checker_service" data-source-line="46" id="ent0015"><rect fill="#E7F5FF" height="114.2427" rx="4" ry="4" style="stroke:#1C7ED6;stroke-width:0.5;" width="127.5488" x="1148" y="846.0986"/><text fill="#0B2942" font-family="Arial" font-size="15" lengthAdjust="spacing" textLength="55.8545" x="1158" y="870.1685">Checker</text><text fill="#0B2942" font-family="Arial" font-size="15" lengthAdjust="spacing" textLength="50.0171" x="1158" y="887.417">Service</text><line style="stroke:#1C7ED6;stroke-width:1;" x1="1149" x2="1274.5488" y1="890.5957" y2="890.5957"/><text fill="#0B2942" font-family="Arial" font-size="15" lengthAdjust="spacing" textLength="93.3691" x="1158" y="908.6655">Checker runs,</text><text fill="#0B2942" font-family="Arial" font-size="15" lengthAdjust="spacing" textLength="107.5488" x="1158" y="925.9141">blocking results,</text><text fill="#0B2942" font-family="Arial" font-size="15" lengthAdjust="spacing" textLength="103.3813" x="1158" y="943.1626">pre-review gate</text></g><!--entity review_service--><g class="entity" data-qualified-name="backend.workflow_services.review_service" data-source-line="47" id="ent0016"><rect fill="#E7F5FF" height="131.4912" rx="4" ry="4" style="stroke:#1C7ED6;stroke-width:0.5;" width="143.8013" x="1140" y="679.5986"/><text fill="#0B2942" font-family="Arial" font-size="15" lengthAdjust="spacing" textLength="123.8013" x="1150" y="703.6685">Review + Revision</text><text fill="#0B2942" font-family="Arial" font-size="15" lengthAdjust="spacing" textLength="50.0171" x="1150" y="720.917">Service</text><line style="stroke:#1C7ED6;stroke-width:1;" x1="1141" x2="1282.8013" y1="724.0957" y2="724.0957"/><text fill="#0B2942" font-family="Arial" font-size="15" lengthAdjust="spacing" textLength="48.3618" x="1150" y="742.1655">accept,</text><text fill="#0B2942" font-family="Arial" font-size="15" lengthAdjust="spacing" textLength="105.0659" x="1150" y="759.4141">needs_revision,</text><text fill="#0B2942" font-family="Arial" font-size="15" lengthAdjust="spacing" textLength="100.8838" x="1150" y="776.6626">reject, findings,</text><text fill="#0B2942" font-family="Arial" font-size="15" lengthAdjust="spacing" textLength="96.709" x="1150" y="793.9111">revision replay</text></g><!--entity ledger_service--><g class="entity" data-qualified-name="backend.workflow_services.ledger_service" data-source-line="48" id="ent0017"><rect fill="#E7F5FF" height="148.7397" rx="4" ry="4" style="stroke:#1C7ED6;stroke-width:0.5;" width="170.0586" x="1127" y="495.5986"/><text fill="#0B2942" font-family="Arial" font-size="15" lengthAdjust="spacing" textLength="89.2163" x="1137" y="519.6685">Contribution /</text><text fill="#0B2942" font-family="Arial" font-size="15" lengthAdjust="spacing" textLength="67.5293" x="1137" y="536.917">Payment /</text><text fill="#0B2942" font-family="Arial" font-size="15" lengthAdjust="spacing" textLength="72.5537" x="1137" y="554.1655">Reputation</text><text fill="#0B2942" font-family="Arial" font-size="15" lengthAdjust="spacing" textLength="50.0171" x="1137" y="571.4141">Service</text><line style="stroke:#1C7ED6;stroke-width:1;" x1="1128" x2="1296.0586" y1="574.5928" y2="574.5928"/><text fill="#0B2942" font-family="Arial" font-size="15" lengthAdjust="spacing" textLength="150.0586" x="1137" y="592.6626">Accepted-work record,</text><text fill="#0B2942" font-family="Arial" font-size="15" lengthAdjust="spacing" textLength="105.8862" x="1137" y="609.9111">payment status,</text><text fill="#0B2942" font-family="Arial" font-size="15" lengthAdjust="spacing" textLength="105.8936" x="1137" y="627.1597">outcome events</text></g><!--entity lifecycle--><g class="entity" data-qualified-name="backend.shared_rules.lifecycle" data-source-line="52" id="ent0019"><rect fill="#E7F5FF" height="96.9941" rx="4" ry="4" style="stroke:#1C7ED6;stroke-width:0.5;" width="167.561" x="1128" y="139.5986"/><text fill="#0B2942" font-family="Arial" font-size="15" lengthAdjust="spacing" textLength="58.3594" x="1138" y="163.6685">Lifecycle</text><text fill="#0B2942" font-family="Arial" font-size="15" lengthAdjust="spacing" textLength="49.1895" x="1138" y="180.917">Guards</text><line style="stroke:#1C7ED6;stroke-width:1;" x1="1129" x2="1294.561" y1="184.0957" y2="184.0957"/><text fill="#0B2942" font-family="Arial" font-size="15" lengthAdjust="spacing" textLength="113.4009" x="1138" y="202.1655">Allowed task and</text><text fill="#0B2942" font-family="Arial" font-size="15" lengthAdjust="spacing" textLength="147.561" x="1138" y="219.4141">submission transitions</text></g><!--entity audit_service--><g class="entity" data-qualified-name="backend.shared_rules.audit_service" data-source-line="53" id="ent0020"><rect fill="#E7F5FF" height="96.9941" rx="4" ry="4" style="stroke:#1C7ED6;stroke-width:0.5;" width="126.7065" x="1148.5" y="271.5986"/><text fill="#0B2942" font-family="Arial" font-size="15" lengthAdjust="spacing" textLength="34.1895" x="1158.5" y="295.6685">Audit</text><text fill="#0B2942" font-family="Arial" font-size="15" lengthAdjust="spacing" textLength="50.0171" x="1158.5" y="312.917">Service</text><line style="stroke:#1C7ED6;stroke-width:1;" x1="1149.5" x2="1274.2065" y1="316.0957" y2="316.0957"/><text fill="#0B2942" font-family="Arial" font-size="15" lengthAdjust="spacing" textLength="84.2285" x="1158.5" y="334.1655">Append-only</text><text fill="#0B2942" font-family="Arial" font-size="15" lengthAdjust="spacing" textLength="106.7065" x="1158.5" y="351.4141">workflow events</text></g><!--entity repositories--><g class="entity" data-qualified-name="backend.persistence.repositories" data-source-line="57" id="ent0022"><rect fill="#E6FCF5" height="114.2427" rx="4" ry="4" style="stroke:#1C7ED6;stroke-width:0.5;" width="160.0537" x="1132" y="1419.0986"/><text fill="#0B2942" font-family="Arial" font-size="15" lengthAdjust="spacing" textLength="83.3716" x="1142" y="1443.1685">Repositories</text><line style="stroke:#1C7ED6;stroke-width:1;" x1="1133" x2="1291.0537" y1="1446.3472" y2="1446.3472"/><text fill="#0B2942" font-family="Arial" font-size="15" lengthAdjust="spacing" textLength="86.6968" x="1142" y="1464.417">Project, task,</text><text fill="#0B2942" font-family="Arial" font-size="15" lengthAdjust="spacing" textLength="140.0537" x="1142" y="1481.6655">submission, checker,</text><text fill="#0B2942" font-family="Arial" font-size="15" lengthAdjust="spacing" textLength="97.5439" x="1142" y="1498.9141">review, ledger,</text><text fill="#0B2942" font-family="Arial" font-size="15" lengthAdjust="spacing" textLength="113.4009" x="1142" y="1516.1626">audit persistence</text></g><!--entity auth_port--><g class="entity" data-qualified-name="backend.ports.auth_port" data-source-line="61" id="ent0024"><rect fill="#FFF3BF" height="54.4971" rx="4" ry="4" style="stroke:#1C7ED6;stroke-width:0.5;" width="102.5366" x="1160.5" y="1238.0986"/><text fill="#0B2942" font-family="Arial" font-size="15" lengthAdjust="spacing" textLength="82.5366" x="1170.5" y="1262.1685">Auth Verifier</text><text fill="#0B2942" font-family="Arial" font-size="15" lengthAdjust="spacing" textLength="58.3667" x="1170.5" y="1279.417">Interface</text></g><!--entity flow_adapter--><g class="entity" data-qualified-name="backend.ports.flow_adapter" data-source-line="62" id="ent0025"><rect fill="#FFF3BF" height="54.4971" rx="4" ry="4" style="stroke:#1C7ED6;stroke-width:0.5;" width="86.6943" x="1168.5" y="1149.0986"/><text fill="#0B2942" font-family="Arial" font-size="15" lengthAdjust="spacing" textLength="66.6943" x="1178.5" y="1173.1685">Flow Auth</text><text fill="#0B2942" font-family="Arial" font-size="15" lengthAdjust="spacing" textLength="52.5366" x="1178.5" y="1190.417">Adapter</text></g><!--entity storage_port--><g class="entity" data-qualified-name="backend.ports.storage_port" data-source-line="63" id="ent0026"><rect fill="#FFF3BF" height="37.2485" rx="4" ry="4" style="stroke:#1C7ED6;stroke-width:0.5;" width="104.2139" x="1160" y="1076.5986"/><text fill="#0B2942" font-family="Arial" font-size="15" lengthAdjust="spacing" textLength="84.2139" x="1170" y="1100.6685">Storage Port</text></g><!--entity storage_adapter--><g class="entity" data-qualified-name="backend.ports.storage_adapter" data-source-line="64" id="ent0027"><rect fill="#FFF3BF" height="54.4971" rx="4" ry="4" style="stroke:#1C7ED6;stroke-width:0.5;" width="112.5635" x="1517.5" y="1238.0986"/><text fill="#0B2942" font-family="Arial" font-size="15" lengthAdjust="spacing" textLength="92.5635" x="1527.5" y="1262.1685">Local Storage</text><text fill="#0B2942" font-family="Arial" font-size="15" lengthAdjust="spacing" textLength="52.5366" x="1527.5" y="1279.417">Adapter</text></g><!--entity checker_runner--><g class="entity" data-qualified-name="backend.ports.checker_runner" data-source-line="65" id="ent0028"><rect fill="#FFF3BF" height="54.4971" rx="4" ry="4" style="stroke:#1C7ED6;stroke-width:0.5;" width="129.2188" x="1509.5" y="1149.0986"/><text fill="#0B2942" font-family="Arial" font-size="15" lengthAdjust="spacing" textLength="109.2188" x="1519.5" y="1173.1685">Checker Runner</text><text fill="#0B2942" font-family="Arial" font-size="15" lengthAdjust="spacing" textLength="52.5366" x="1519.5" y="1190.417">Adapter</text></g><!--entity client--><g class="entity" data-qualified-name="client" data-source-line="29" id="ent0001"><rect fill="#F1F3F5" height="54.4971" rx="4" ry="4" style="stroke:#1C7ED6;stroke-width:0.5;" width="86.6943" x="7" y="1111.0986"/><text fill="#0B2942" font-family="Arial" font-size="15" lengthAdjust="spacing" textLength="66.687" x="17" y="1135.1685">React UI /</text><text fill="#0B2942" font-family="Arial" font-size="15" lengthAdjust="spacing" textLength="66.6943" x="17" y="1152.417">API Client</text></g><!--entity flow_auth--><g class="entity" data-qualified-name="flow_auth" data-source-line="30" id="ent0002"><path d="M1534.3771,1632.887 C1538.0389,1625.8871 1542.2633,1625.9075 1546.9591,1631.8844 C1549.1001,1623.6442 1556.6925,1622.8034 1561.8354,1628.7328 C1565.1008,1622.8713 1569.4318,1622.3329 1573.9441,1627.3442 C1578.9031,1621.2339 1584.2035,1621.8746 1588.1109,1628.5127 C1593.2564,1623.946 1597.5665,1623.2214 1600.8247,1630.5327 C1606.7025,1624.0507 1613.1593,1625.7555 1615.8494,1633.8241 C1621.7688,1635.6872 1623.517,1639.2514 1619.7044,1644.5969 C1626.9629,1645.7869 1628.8777,1652.3199 1624.0616,1657.5665 C1628.6159,1663.346 1626.3162,1668.8849 1619.1478,1670.0501 C1623.575,1675.6749 1621.1549,1679.6722 1614.9414,1681.3284 C1611.9194,1688.4099 1607.0793,1688.852 1602.6922,1682.5807 C1599.9768,1690.6659 1592.5944,1690.4627 1588.0644,1684.4655 C1585.5501,1690.6912 1581.0844,1693.3682 1575.5299,1687.6582 C1570.1491,1693.8519 1564.4441,1692.8428 1561.959,1684.8819 C1557.2773,1690.1691 1550.4355,1690.4087 1548.1176,1682.4178 C1544.4645,1688.36 1537.6965,1688.8387 1533.7861,1682.7235 C1527.4426,1679.843 1527.3547,1674.7719 1531.9692,1670.2901 C1524.2036,1667.9996 1522.5757,1663.5584 1526.8404,1656.7208 C1522.1968,1650.8213 1524.7157,1645.5823 1531.7335,1644.2631 C1527.4734,1639.4643 1528.2004,1635.2605 1534.3771,1632.887" fill="#F1F3F5" style="stroke:#868E96;stroke-width:0.5;"/><text fill="#212529" font-family="Arial" font-size="15" lengthAdjust="spacing" textLength="55.0269" x="1540.5" y="1653.1685">External</text><text fill="#212529" font-family="Arial" font-size="15" lengthAdjust="spacing" textLength="66.6943" x="1540.5" y="1670.417">Flow Auth</text></g><!--entity postgres--><g class="entity" data-qualified-name="postgres" data-source-line="31" id="ent0003"><path d="M1507,1848.5986 C1507,1838.5986 1574.1216,1838.5986 1574.1216,1838.5986 C1574.1216,1838.5986 1641.2432,1838.5986 1641.2432,1848.5986 L1641.2432,1900.0957 C1641.2432,1910.0957 1574.1216,1910.0957 1574.1216,1910.0957 C1574.1216,1910.0957 1507,1910.0957 1507,1900.0957 L1507,1848.5986" fill="#E6FCF5" style="stroke:#0CA678;stroke-width:0.5;"/><path d="M1507,1848.5986 C1507,1858.5986 1574.1216,1858.5986 1574.1216,1858.5986 C1574.1216,1858.5986 1641.2432,1858.5986 1641.2432,1848.5986" fill="none" style="stroke:#0CA678;stroke-width:0.5;"/><text fill="#063B2C" font-family="Arial" font-size="15" lengthAdjust="spacing" textLength="59.1943" x="1517" y="1876.6685">Postgres</text><path d="M1507,1874.8472 C1507,1884.8472 1574.1216,1884.8472 1574.1216,1884.8472 C1574.1216,1884.8472 1641.2432,1884.8472 1641.2432,1874.8472" fill="none" style="stroke:#0CA678;stroke-width:1;"/><text fill="#063B2C" font-family="Arial" font-size="15" lengthAdjust="spacing" textLength="114.2432" x="1517" y="1897.917">Record database</text></g><!--entity file_store--><g class="entity" data-qualified-name="file_store" data-source-line="32" id="ent0004"><rect fill="#E6FCF5" height="79.7456" rx="4" ry="4" style="stroke:#1C7ED6;stroke-width:0.5;" width="116.709" x="1515.5" y="1723.0986"/><text fill="#0B2942" font-family="Arial" font-size="15" lengthAdjust="spacing" textLength="64.1895" x="1525.5" y="1747.1685">File Store</text><line style="stroke:#1C7ED6;stroke-width:1;" x1="1516.5" x2="1631.209" y1="1750.3472" y2="1750.3472"/><text fill="#0B2942" font-family="Arial" font-size="15" lengthAdjust="spacing" textLength="90.9009" x="1525.5" y="1768.417">Evidence and</text><text fill="#0B2942" font-family="Arial" font-size="15" lengthAdjust="spacing" textLength="96.709" x="1525.5" y="1785.6655">artifact objects</text></g><!--link client to http_boundary--><g class="link" data-entity-1="ent0001" data-entity-2="ent0006" data-link-type="dependency" data-source-line="69" id="lnk29"><path d="M94.27,1138.0986 C134.895,1138.0986 197.48,1138.0986 250.5663,1138.0986 C252.2252,1138.0986 253.8749,1138.0986 255.5143,1138.0986 C255.9242,1138.0986 251.3334,1138.0986 251.7419,1138.0986" fill="none" id="client-to-http_boundary" style="stroke:#495057;stroke-width:1.1;"/><polygon fill="#495057" points="256.7419,1138.0986,247.7419,1134.0986,251.7419,1138.0986,247.7419,1142.0986,256.7419,1138.0986" style="stroke:#495057;stroke-width:1.1;stroke-linejoin:miter;stroke-miterlimit:10;"/><text fill="#000000" font-family="Arial" font-size="15" lengthAdjust="spacing" textLength="83.335" x="125" y="1134.1685">HTTP/JSON</text></g><!--link http_boundary to workflow_services--><g class="link" data-entity-1="ent0006" data-entity-2="ent0011" data-link-type="dependency" data-source-line="70" id="lnk30"><path d="M413.6417,1109.9147 C415.0094,1109.3142 416.3842,1108.7125 417.7644,1108.1105 C428.8056,1103.2949 440.1875,1098.4636 451,1094.0986 C516.195,1067.7736 590.3725,1040.7161 648.8975,1020.0236 C678.16,1009.6774 703.5094,1000.9224 721.8663,994.6458 C724.1609,993.8612 726.3462,993.1154 728.4163,992.41 C728.6751,992.3218 724.199,993.8464 724.4542,993.7595" fill="none" id="http_boundary-to-workflow_services" style="stroke:#495057;stroke-width:1.1;"/><polygon fill="#495057" points="729.1872,992.1474,719.3781,991.2628,724.4542,993.7595,721.9575,998.8356,729.1872,992.1474" style="stroke:#495057;stroke-width:1.1;stroke-linejoin:miter;stroke-miterlimit:10;"/><text fill="#000000" font-family="Arial" font-size="15" lengthAdjust="spacing" textLength="163.4106" x="452" y="1029.1685">route to domain services</text></g><!--link http_boundary to ports--><g class="link" data-entity-1="ent0006" data-entity-2="ent0023" data-link-type="dependency" data-source-line="71" id="lnk31"><path d="M849.7443,1153.3536 C851.4526,1153.8594 853.1567,1154.3722 854.8563,1154.8922 C858.2557,1155.9322 861.6373,1157.0008 865,1158.0986 C978.55,1195.1686 976.75,1264.6086 1088,1308.0986 C1100.6775,1313.0561 1114.5644,1316.7243 1128.2977,1319.4374 C1130.0143,1319.7765 1131.7286,1320.1007 1133.4378,1320.4107 C1134.2924,1320.5657 1130.2194,1319.8615 1131.0712,1320.0094" fill="none" id="http_boundary-to-ports" style="stroke:#495057;stroke-width:1.1;"/><polygon fill="#495057" points="1135.9974,1320.865,1127.8146,1315.384,1131.0712,1320.0094,1126.4457,1323.266,1135.9974,1320.865" style="stroke:#495057;stroke-width:1.1;stroke-linejoin:miter;stroke-miterlimit:10;"/><text fill="#000000" font-family="Arial" font-size="15" lengthAdjust="spacing" textLength="73.3521" x="717.5" y="1118.1685">verify actor</text></g><!--link workflow_services to shared_rules--><g class="link" data-entity-1="ent0011" data-entity-2="ent0018" data-link-type="dependency" data-source-line="73" id="lnk32"><path d="M1119.5067,451.8275 C1121.1474,450.6246 1122.8001,449.4427 1124.4613,448.2819 C1137.7506,438.9958 1151.585,431.0643 1164.1925,424.5924 C1170.4963,421.3564 1176.4933,418.4854 1181.9621,415.9925 C1184.6965,414.746 1187.2989,413.594 1189.7415,412.5382 C1190.0468,412.4063 1185.7555,414.2489 1186.0558,414.12" fill="none" id="workflow_services-to-shared_rules" style="stroke:#495057;stroke-width:1.1;"/><polygon fill="#495057" points="1190.65,412.1468,1180.8019,412.0231,1186.0558,414.12,1183.9589,419.3738,1190.65,412.1468" style="stroke:#495057;stroke-width:1.1;stroke-linejoin:miter;stroke-miterlimit:10;"/><text fill="#000000" font-family="Arial" font-size="15" lengthAdjust="spacing" textLength="156.7456" x="899" y="487.1685">state, audit, policy rules</text></g><!--link workflow_services to persistence--><g class="link" data-entity-1="ent0011" data-entity-2="ent0021" data-link-type="dependency" data-source-line="74" id="lnk33"><path d="M768.0988,992.2778 C768.216,992.3539 768.3338,992.4303 768.4522,992.5073 C768.689,992.6613 768.9284,992.8172 769.1703,992.975 C769.6542,993.2906 770.148,993.6139 770.6516,993.9448 C771.6587,994.6066 772.7045,995.2986 773.7859,996.02 C775.9489,997.4628 778.2545,999.0229 780.6789,1000.6927 C785.5277,1004.0323 790.8512,1007.8108 796.4575,1011.9674 C818.8825,1028.5936 845.83,1051.2686 865,1076.0986 C1007.02,1260.0686 901.82,1409.9786 1088,1549.0986 C1093.4525,1553.1724 1099.4255,1556.5313 1105.7083,1559.2896 C1106.1009,1559.462 1106.4948,1559.632 1106.8899,1559.7998 C1107.0874,1559.8836 1102.6712,1558.0405 1102.8693,1558.1232" fill="none" id="workflow_services-to-persistence" style="stroke:#495057;stroke-width:1.1;"/><polygon fill="#495057" points="1107.4833,1560.0496,1100.7193,1552.8908,1102.8693,1558.1232,1097.637,1560.2732,1107.4833,1560.0496" style="stroke:#495057;stroke-width:1.1;stroke-linejoin:miter;stroke-miterlimit:10;"/><text fill="#000000" font-family="Arial" font-size="15" lengthAdjust="spacing" textLength="120.0439" x="917" y="1094.1685">read/write records</text></g><!--link workflow_services to ports--><g class="link" data-entity-1="ent0011" data-entity-2="ent0023" data-link-type="dependency" data-source-line="75" id="lnk34"><path d="M827.6832,992.2133 C835.9289,993.2002 844.6255,994.2633 853.6352,995.395 C871.6545,997.6584 890.9263,1000.1958 910.3475,1002.9449 C988.0325,1013.9411 1068.11,1028.3236 1080,1042.0986 C1099.32,1064.4786 1068.42,1285.9386 1088,1308.0986 C1097.015,1318.2986 1109.0419,1324.6293 1122.0523,1328.3772 C1125.305,1329.3142 1128.6191,1330.0898 1131.9629,1330.7241 C1132.7989,1330.8826 1133.6367,1331.0324 1134.4759,1331.1736 C1134.8955,1331.2442 1130.3767,1330.5324 1130.7969,1330.5988" fill="none" id="workflow_services-to-ports" style="stroke:#495057;stroke-width:1.1;"/><polygon fill="#495057" points="1135.7357,1331.3791,1127.4701,1326.0236,1130.7969,1330.5988,1126.2217,1333.9256,1135.7357,1331.3791" style="stroke:#495057;stroke-width:1.1;stroke-linejoin:miter;stroke-miterlimit:10;"/><text fill="#000000" font-family="Arial" font-size="15" lengthAdjust="spacing" textLength="204.2944" x="875" y="995.1685">storage and checker execution</text></g><!--link ports to flow_auth--><g class="link" data-entity-1="ent0023" data-entity-2="ent0002" data-link-type="dependency" data-source-line="77" id="lnk35"><path d="M1229.1238,1335.1692 C1229.2566,1335.2377 1229.3901,1335.3066 1229.5242,1335.376 C1230.5973,1335.9304 1231.7133,1336.5099 1232.8694,1337.1138 C1235.1815,1338.3214 1237.6538,1339.626 1240.2636,1341.0208 C1245.483,1343.8104 1251.2522,1346.9608 1257.3888,1350.4174 C1281.935,1364.2436 1312.36,1382.9686 1337,1403.0986 C1422.59,1473.0186 1503.9306,1569.229 1544.6806,1620.009" fill="none" id="ports-to-flow_auth" style="stroke:#495057;stroke-width:1.1;"/><polygon fill="#495057" points="1547.81,1623.9086,1545.2968,1614.3858,1544.6806,1620.009,1539.0574,1619.3928,1547.81,1623.9086" style="stroke:#495057;stroke-width:1.1;stroke-linejoin:miter;stroke-miterlimit:10;"/><text fill="#000000" font-family="Arial" font-size="15" lengthAdjust="spacing" textLength="76.6992" x="1373" y="1411.1685">verify token</text></g><!--link ports to file_store--><g class="link" data-entity-1="ent0023" data-entity-2="ent0004" data-link-type="dependency" data-source-line="78" id="lnk36"><path d="M1240.0804,1335.2436 C1240.2552,1335.3055 1240.4306,1335.3678 1240.6065,1335.4305 C1242.0142,1335.9319 1243.458,1336.4576 1244.9337,1337.0079 C1250.8365,1339.2093 1257.2491,1341.8058 1263.8937,1344.8249 C1290.4725,1356.9011 1320.765,1375.7386 1337,1403.0986 C1355.06,1433.5186 1329.7,1530.1986 1345,1562.0986 C1381.34,1637.8686 1456.4512,1694.5128 1511.2412,1728.5028" fill="none" id="ports-to-file_store" style="stroke:#495057;stroke-width:1.1;"/><polygon fill="#495057" points="1515.49,1731.1386,1509.9508,1722.9951,1511.2412,1728.5028,1505.7335,1729.7932,1515.49,1731.1386" style="stroke:#495057;stroke-width:1.1;stroke-linejoin:miter;stroke-miterlimit:10;"/><text fill="#000000" font-family="Arial" font-size="15" lengthAdjust="spacing" textLength="124.2188" x="1349" y="1558.1685">store/read artifacts</text></g><!--link persistence to postgres--><g class="link" data-entity-1="ent0021" data-entity-2="ent0003" data-link-type="dependency" data-source-line="79" id="lnk37"><path d="M1214.5438,1576.1993 C1214.5758,1576.3568 1214.6084,1576.5164 1214.6415,1576.6782 C1214.7076,1577.0017 1214.7758,1577.3336 1214.8462,1577.6738 C1215.9721,1583.1169 1217.6411,1590.6811 1219.9309,1599.8455 C1224.5106,1618.1743 1231.5738,1642.9036 1241.7425,1669.8661 C1262.08,1723.7911 1294.84,1786.6486 1345,1825.0986 C1391.27,1860.5686 1452.6387,1871.3444 1501.8387,1874.2444" fill="none" id="persistence-to-postgres" style="stroke:#495057;stroke-width:1.1;"/><polygon fill="#495057" points="1506.83,1874.5386,1498.081,1870.016,1501.8387,1874.2444,1497.6102,1878.0021,1506.83,1874.5386" style="stroke:#495057;stroke-width:1.1;stroke-linejoin:miter;stroke-miterlimit:10;"/><text fill="#000000" font-family="Arial" font-size="15" lengthAdjust="spacing" textLength="130.8838" x="1346" y="1821.1685">SQLAlchemy async</text></g><?plantuml-src XLVTSnet47_dhzXn7dF4XiIV3vq1x4lJILC2Rlh232Fk5b1zI5T91w6T_E_TbNJu-6fviCrA-zlVVijEkWBX3srUh3CeLh2-UjU1liXUKEKmqAjIArGEladSj5e5pXqu3KOkbWvoQJ1pKgjMoxv8LGf3-ZDINHXTgNoW2stWJUe_ZHjsANAzaMe1Sr5OR9nujKmRXGRk6l8Svw8gNAgL-o9M23qZHN7wV2p_HkXSDmvxnkXDvFBX_lhg-lRmy7afinU5raBdNQTnM98hOe5ZjwKGiQj2BOezlhKC_ca1zBN9qKHBdS7jq-CDIm_ZyNIRNbCy09Xkb5trk_SVkgqVJP-44pDXJq1V3NetjtSdeM_IGNfz07tpljyTx45dXQxoOzoxcxkd-vEKqqxw_X2ts-bUT-y9j_KQXOiHYip1xv_WSg9wmqymA2GLpmK8IqRvpnrMu73nzDsXKQAOgBJG6-XLRkblp-dRLD2trYuE5qDjtSAWdQWsVIPgX5Gg-IvGNg-CTvgaKaa_nquRh3MVrZ97bI48bK-KC4xEcRUU_KbQDX0WfQbbfLrOMx4U255On-xLRTA6NtLU5SBGRwKB6PsOnUCtwLtQJrCVyHt6py_FGtZhFQOqKAo5sNgjfNFbT1ObPFmnxKPTQ1JS1TiVwOh2Ltlb4RKgjXDbyAyAhOFsJs3Hh6L6hYELkc49XOUQEWPCb79gFCoXWK5b36Uibr4K9keHI_A5ehQjxVLH66fKfyb9mgMCyyq1bGX-ZpaF45F11uVuGpGhQIsDZuaQKj0osKYjBdnoOaecQYsjd4cAx1Qo9MOl8Kdb3i8UeMzpePpC9cfC2YlHg1eVciiw2XEL4MCZwiJRS9tmgBGR-U8HoLK9un3GS7iJfTCOPbltzt72XaQpB_2nek8ZMdLU0gruQXDOyBbDY1SxYeQOhcdu-b_iAhLMAROhJaqPmnQ24H1g9eVcduLzWQyLLiUs_L4T1J9iCuEeQ40d150WzHQpAOHS9MJ8oeLYwtpH2OT4M9WyS724T8x0k9hjydteF3SA-uwnCPD6Lww4adFA6CdMQ7oo4oXqHkDi4JAs0pvdUX0YUMGtoi5KYWC-YwZS8RHEM5GQR8Vumu9y3LKTjCuP6uNhRs4K4tPaLcGPbkoFGipjj4vimdtBAKne-gYSY5Wl2gTaeYn46161qLblEPDoLl5cva4yZDLooSLVLfIpKwHwdXJcRIvfXgFPchoM6gUwOZuqAp9DEnZN90vPBp1VxCLZltF6IveJEJpgbP0AHbKH2zPw-TImuFoS-qp9pxPPGKG_-aBR4IwexmYNQouCyjT202fbPIKx6YdMA4TZjCgbEmv6oSEk7OPftUDDbmMhdVLuo7LgdLynUxEzR1p4jNBiCIL94tTj6WCnZeV4UviqNKtgUeorWfia9eIRY6ashSRoUJNGU3Ji-r1lPXXguonlgbnGVPWuRBoGttRl-wUM4s-rRsZaN7BRVQALOAYPuygXmoa3rFg7shkd02KY66sy2OBWd2glUQRFf4EH1S5_slkiC_8pgkxRhDN_nsmzI4OLzRJPXwZ7XV5d3OGV_7YApw8sxUNznVy0lCylVnd_zgMrVy9tZ_VE0_Wrpg_pF7HQVNH2FQJl0TQSeYs4_Tmw1kMxUstwu0S19g41ah21jk0Fp-WtQvv8eiWlDqOwZ3Fch5ga63FWNmCnb83VCQl2FnxX6YlideolVlcdIVFAwwCk0ECbyu5wrzXMasnW4TwJT7_yzNEluCS1nSjkLTRw5m00?></g></svg>