<?xml version="1.0" encoding="UTF-8" standalone="no"?><svg xmlns="http://www.w3.org/2000/svg" xmlns:xlink="http://www.w3.org/1999/xlink" contentScriptType="application/ecmascript" contentStyleType="text/css" height="711px" preserveAspectRatio="none" style="width:2873px;height:711px;" version="1.1" viewBox="0 0 2873 711" width="2873px" zoomAndPan="magnify"><defs/><g><text fill="#000000" font-family="Arial" font-size="15" lengthAdjust="spacingAndGlyphs" textLength="411" x="1242" y="14.0698">Future Identity, Task Contract, Settlement, And Reputation View</text><!--MD5=[e0324a720aae3ee05d4d8b9d7d35e0c5]
cluster Contributor Unit--><path d="M26,41.2485 L139,41.2485 A6,6 0 0 1 143,45.2485 L150,64.4971 L528,64.4971 A4,4 0 0 1 532,68.4971 L532,284.2485 A4,4 0 0 1 528,288.2485 L26,288.2485 A4,4 0 0 1 22,284.2485 L22,45.2485 A4,4 0 0 1 26,41.2485 " fill="#F8F9FA" style="stroke: #000000; stroke-width: 1.5;"/><line style="stroke: #000000; stroke-width: 1.5;" x1="22" x2="150" y1="64.4971" y2="64.4971"/><text fill="#000000" font-family="Arial" font-size="15" font-weight="bold" lengthAdjust="spacingAndGlyphs" textLength="115" x="26" y="57.3184">Contributor Unit</text><!--MD5=[07b5373420091a23417b897e4f294b96]
cluster Future Identity / Contract Rails--><path d="M330,426.2485 L543,426.2485 A6,6 0 0 1 547,430.2485 L554,449.4971 L553,449.4971 A4,4 0 0 1 557,453.4971 L557,686.2485 A4,4 0 0 1 553,690.2485 L330,690.2485 A4,4 0 0 1 326,686.2485 L326,430.2485 A4,4 0 0 1 330,426.2485 " fill="#FFF9DB" style="stroke: #000000; stroke-width: 1.5;"/><line style="stroke: #000000; stroke-width: 1.5;" x1="326" x2="554" y1="449.4971" y2="449.4971"/><text fill="#000000" font-family="Arial" font-size="15" font-weight="bold" lengthAdjust="spacingAndGlyphs" textLength="215" x="330" y="442.3184">Future Identity / Contract Rails</text><!--MD5=[0b2e0741c5b4f172298a0a9d631118e0]
cluster Workstream--><path d="M700,384.2485 L782,384.2485 A6,6 0 0 1 786,388.2485 L793,407.4971 L1927,407.4971 A4,4 0 0 1 1931,411.4971 L1931,695.2485 A4,4 0 0 1 1927,699.2485 L700,699.2485 A4,4 0 0 1 696,695.2485 L696,388.2485 A4,4 0 0 1 700,384.2485 " fill="#F8FBFF" style="stroke: #000000; stroke-width: 1.5;"/><line style="stroke: #000000; stroke-width: 1.5;" x1="696" x2="793" y1="407.4971" y2="407.4971"/><text fill="#000000" font-family="Arial" font-size="15" font-weight="bold" lengthAdjust="spacingAndGlyphs" textLength="84" x="700" y="400.3184">Workstream</text><!--MD5=[0a1d1665b35bc35834f4501c3d09db55]
cluster Future Settlement Rails--><path d="M2063,331.2485 L2228,331.2485 A6,6 0 0 1 2232,335.2485 L2239,354.4971 L2857,354.4971 A4,4 0 0 1 2861,358.4971 L2861,475.2485 A4,4 0 0 1 2857,479.2485 L2063,479.2485 A4,4 0 0 1 2059,475.2485 L2059,335.2485 A4,4 0 0 1 2063,331.2485 " fill="#FFF9DB" style="stroke: #000000; stroke-width: 1.5;"/><line style="stroke: #000000; stroke-width: 1.5;" x1="2059" x2="2239" y1="354.4971" y2="354.4971"/><text fill="#000000" font-family="Arial" font-size="15" font-weight="bold" lengthAdjust="spacingAndGlyphs" textLength="167" x="2063" y="347.3184">Future Settlement Rails</text><!--MD5=[576713d34b70cd01e0fe64aa18bc23e4]
entity human--><rect fill="#F1F3F5" height="79.7456" rx="4" ry="4" style="stroke: #1C7ED6; stroke-width: 1.5;" width="112" x="38" y="77.2485"/><text fill="#0B2942" font-family="Arial" font-size="15" lengthAdjust="spacingAndGlyphs" textLength="47" x="48" y="101.3184">Human</text><line style="stroke: #1C7ED6; stroke-width: 1.0;" x1="39" x2="149" y1="104.4971" y2="104.4971"/><text fill="#0B2942" font-family="Arial" font-size="15" lengthAdjust="spacingAndGlyphs" textLength="80" x="54" y="122.5669">Flow identity</text><text fill="#0B2942" font-family="Arial" font-size="15" lengthAdjust="spacingAndGlyphs" textLength="47" x="54" y="139.8154">subject</text><!--MD5=[3908db504f15eb564d5f0e12bd7273c1]
entity agent--><rect fill="#F1F3F5" height="79.7456" rx="4" ry="4" style="stroke: #1C7ED6; stroke-width: 1.5;" width="101" x="43.5" y="192.2485"/><text fill="#0B2942" font-family="Arial" font-size="15" lengthAdjust="spacingAndGlyphs" textLength="37" x="53.5" y="216.3184">Agent</text><line style="stroke: #1C7ED6; stroke-width: 1.0;" x1="44.5" x2="143.5" y1="219.4971" y2="219.4971"/><text fill="#0B2942" font-family="Arial" font-size="15" lengthAdjust="spacingAndGlyphs" textLength="69" x="59.5" y="237.5669">ERC-8004</text><text fill="#0B2942" font-family="Arial" font-size="15" lengthAdjust="spacingAndGlyphs" textLength="45" x="59.5" y="254.8154">identity</text><!--MD5=[9a62c7632a3e12d2b4ef62c23371a6aa]
entity contributor--><rect fill="#F1F3F5" height="96.9941" rx="4" ry="4" style="stroke: #1C7ED6; stroke-width: 1.5;" width="150" x="366" y="148.7485"/><text fill="#0B2942" font-family="Arial" font-size="15" lengthAdjust="spacingAndGlyphs" textLength="89" x="376" y="172.8184">Human-Agent</text><text fill="#0B2942" font-family="Arial" font-size="15" lengthAdjust="spacingAndGlyphs" textLength="72" x="376" y="190.0669">Contributor</text><line style="stroke: #1C7ED6; stroke-width: 1.0;" x1="367" x2="515" y1="193.2456" y2="193.2456"/><text fill="#0B2942" font-family="Arial" font-size="15" lengthAdjust="spacingAndGlyphs" textLength="111" x="382" y="211.3154">One accountable</text><text fill="#0B2942" font-family="Arial" font-size="15" lengthAdjust="spacingAndGlyphs" textLength="118" x="382" y="228.564">Workstream actor</text><!--MD5=[eedaff74fe49a5103417a345f4ad077f]
entity erc8004--><rect fill="#FFF3BF" height="96.9941" rx="4" ry="4" style="stroke: #1C7ED6; stroke-width: 1.5;" width="164" x="359" y="577.7485"/><text fill="#0B2942" font-family="Arial" font-size="15" lengthAdjust="spacingAndGlyphs" textLength="69" x="369" y="601.8184">ERC-8004</text><line style="stroke: #1C7ED6; stroke-width: 1.0;" x1="360" x2="522" y1="604.9971" y2="604.9971"/><text fill="#0B2942" font-family="Arial" font-size="15" lengthAdjust="spacingAndGlyphs" textLength="86" x="375" y="623.0669">Agent identity</text><text fill="#0B2942" font-family="Arial" font-size="15" lengthAdjust="spacingAndGlyphs" textLength="132" x="375" y="640.3154">and agent reputation</text><text fill="#0B2942" font-family="Arial" font-size="15" lengthAdjust="spacingAndGlyphs" textLength="48" x="375" y="657.564">registry</text><!--MD5=[b162f9662ebd3d40757374b99c06205d]
entity erc8183--><rect fill="#FFF3BF" height="79.7456" rx="4" ry="4" style="stroke: #1C7ED6; stroke-width: 1.5;" width="143" x="369.5" y="462.2485"/><text fill="#0B2942" font-family="Arial" font-size="15" lengthAdjust="spacingAndGlyphs" textLength="69" x="379.5" y="486.3184">ERC-8183</text><line style="stroke: #1C7ED6; stroke-width: 1.0;" x1="370.5" x2="511.5" y1="489.4971" y2="489.4971"/><text fill="#0B2942" font-family="Arial" font-size="15" lengthAdjust="spacingAndGlyphs" textLength="89" x="385.5" y="507.5669">Task contract</text><text fill="#0B2942" font-family="Arial" font-size="15" lengthAdjust="spacingAndGlyphs" textLength="111" x="385.5" y="524.8154">and escrow layer</text><!--MD5=[93b1caf4ff659fc939d417c97e5e796b]
entity gate--><rect fill="#E7F5FF" height="114.2427" rx="4" ry="4" style="stroke: #1C7ED6; stroke-width: 1.5;" width="159" x="712" y="445.2485"/><text fill="#0B2942" font-family="Arial" font-size="15" lengthAdjust="spacingAndGlyphs" textLength="46" x="722" y="469.3184">Claim /</text><text fill="#0B2942" font-family="Arial" font-size="15" lengthAdjust="spacingAndGlyphs" textLength="112" x="722" y="486.5669">Submission Gate</text><line style="stroke: #1C7ED6; stroke-width: 1.0;" x1="713" x2="870" y1="489.7456" y2="489.7456"/><text fill="#0B2942" font-family="Arial" font-size="15" lengthAdjust="spacingAndGlyphs" textLength="96" x="728" y="507.8154">Policy, identity,</text><text fill="#0B2942" font-family="Arial" font-size="15" lengthAdjust="spacingAndGlyphs" textLength="127" x="728" y="525.064">agent id, reputation,</text><text fill="#0B2942" font-family="Arial" font-size="15" lengthAdjust="spacingAndGlyphs" textLength="127" x="728" y="542.3125">contract references</text><!--MD5=[61d82b33e39b82f50304075114ed2b20]
entity lifecycle--><rect fill="#E7F5FF" height="114.2427" rx="4" ry="4" style="stroke: #1C7ED6; stroke-width: 1.5;" width="194" x="1009" y="445.2485"/><text fill="#0B2942" font-family="Arial" font-size="15" lengthAdjust="spacingAndGlyphs" textLength="67" x="1019" y="469.3184">Evaluation</text><text fill="#0B2942" font-family="Arial" font-size="15" lengthAdjust="spacingAndGlyphs" textLength="57" x="1019" y="486.5669">Lifecycle</text><line style="stroke: #1C7ED6; stroke-width: 1.0;" x1="1010" x2="1202" y1="489.7456" y2="489.7456"/><text fill="#0B2942" font-family="Arial" font-size="15" lengthAdjust="spacingAndGlyphs" textLength="102" x="1025" y="507.8154">guide -&gt; task -&gt;</text><text fill="#0B2942" font-family="Arial" font-size="15" lengthAdjust="spacingAndGlyphs" textLength="162" x="1025" y="525.064">submission -&gt; checks -&gt;</text><text fill="#0B2942" font-family="Arial" font-size="15" lengthAdjust="spacingAndGlyphs" textLength="114" x="1025" y="542.3125">review -&gt; revision</text><!--MD5=[1a9005b4925d26353bcc5dd2b161abe7]
entity contribution--><rect fill="#E6FCF5" height="114.2427" rx="4" ry="4" style="stroke: #1C7ED6; stroke-width: 1.5;" width="175" x="1423" y="445.2485"/><text fill="#0B2942" font-family="Arial" font-size="15" lengthAdjust="spacingAndGlyphs" textLength="78" x="1433" y="469.3184">Contribution</text><text fill="#0B2942" font-family="Arial" font-size="15" lengthAdjust="spacingAndGlyphs" textLength="48" x="1433" y="486.5669">Record</text><line style="stroke: #1C7ED6; stroke-width: 1.0;" x1="1424" x2="1597" y1="489.7456" y2="489.7456"/><text fill="#0B2942" font-family="Arial" font-size="15" lengthAdjust="spacingAndGlyphs" textLength="143" x="1439" y="507.8154">Reviewer or submitter</text><text fill="#0B2942" font-family="Arial" font-size="15" lengthAdjust="spacingAndGlyphs" textLength="118" x="1439" y="525.064">work under locked</text><text fill="#0B2942" font-family="Arial" font-size="15" lengthAdjust="spacingAndGlyphs" textLength="58" x="1439" y="542.3125">evidence</text><!--MD5=[0228d2ca3353b3328e073ec669f49bba]
entity compensation_award--><rect fill="#E6FCF5" height="114.2427" rx="4" ry="4" style="stroke: #1C7ED6; stroke-width: 1.5;" width="136" x="1779" y="420.2485"/><text fill="#0B2942" font-family="Arial" font-size="15" lengthAdjust="spacingAndGlyphs" textLength="95" x="1789" y="444.3184">Compensation</text><text fill="#0B2942" font-family="Arial" font-size="15" lengthAdjust="spacingAndGlyphs" textLength="41" x="1789" y="461.5669">Award</text><line style="stroke: #1C7ED6; stroke-width: 1.0;" x1="1780" x2="1914" y1="464.7456" y2="464.7456"/><text fill="#0B2942" font-family="Arial" font-size="15" lengthAdjust="spacingAndGlyphs" textLength="104" x="1795" y="482.8154">Instrument, unit,</text><text fill="#0B2942" font-family="Arial" font-size="15" lengthAdjust="spacingAndGlyphs" textLength="99" x="1795" y="500.064">quantity, policy,</text><text fill="#0B2942" font-family="Arial" font-size="15" lengthAdjust="spacingAndGlyphs" textLength="46" x="1795" y="517.3125">binding</text><!--MD5=[ad5c2e33fb657e0595ab4da332970276]
entity reputation_record--><rect fill="#E6FCF5" height="114.2427" rx="4" ry="4" style="stroke: #1C7ED6; stroke-width: 1.5;" width="131" x="1781.5" y="569.2485"/><text fill="#0B2942" font-family="Arial" font-size="15" lengthAdjust="spacingAndGlyphs" textLength="70" x="1791.5" y="593.3184">Reputation</text><text fill="#0B2942" font-family="Arial" font-size="15" lengthAdjust="spacingAndGlyphs" textLength="37" x="1791.5" y="610.5669">Event</text><line style="stroke: #1C7ED6; stroke-width: 1.0;" x1="1782.5" x2="1911.5" y1="613.7456" y2="613.7456"/><text fill="#0B2942" font-family="Arial" font-size="15" lengthAdjust="spacingAndGlyphs" textLength="75" x="1797.5" y="631.8154">Human and</text><text fill="#0B2942" font-family="Arial" font-size="15" lengthAdjust="spacingAndGlyphs" textLength="78" x="1797.5" y="649.064">agent-linked</text><text fill="#0B2942" font-family="Arial" font-size="15" lengthAdjust="spacingAndGlyphs" textLength="99" x="1797.5" y="666.3125">outcome signal</text><!--MD5=[9938a77802c80073b2687890cc19c670]
entity payment_link--><rect fill="#FFF3BF" height="96.9941" rx="4" ry="4" style="stroke: #1C7ED6; stroke-width: 1.5;" width="174" x="2075" y="366.7485"/><text fill="#0B2942" font-family="Arial" font-size="15" lengthAdjust="spacingAndGlyphs" textLength="96" x="2085" y="390.8184">Payment Link /</text><text fill="#0B2942" font-family="Arial" font-size="15" lengthAdjust="spacingAndGlyphs" textLength="55" x="2085" y="408.0669">Request</text><line style="stroke: #1C7ED6; stroke-width: 1.0;" x1="2076" x2="2248" y1="411.2456" y2="411.2456"/><text fill="#0B2942" font-family="Arial" font-size="15" lengthAdjust="spacingAndGlyphs" textLength="102" x="2091" y="429.3154">Generated from</text><text fill="#0B2942" font-family="Arial" font-size="15" lengthAdjust="spacingAndGlyphs" textLength="142" x="2091" y="446.564">payable money award</text><!--MD5=[78527f08e4c22c7b02ebdebf231c666e]
entity x402--><rect fill="#FFF3BF" height="79.7456" rx="4" ry="4" style="stroke: #1C7ED6; stroke-width: 1.5;" width="143" x="2310" y="379.2485"/><text fill="#0B2942" font-family="Arial" font-size="15" lengthAdjust="spacingAndGlyphs" textLength="31" x="2320" y="403.3184">x402</text><line style="stroke: #1C7ED6; stroke-width: 1.0;" x1="2311" x2="2452" y1="406.4971" y2="406.4971"/><text fill="#0B2942" font-family="Arial" font-size="15" lengthAdjust="spacingAndGlyphs" textLength="111" x="2326" y="424.5669">Payment request</text><text fill="#0B2942" font-family="Arial" font-size="15" lengthAdjust="spacingAndGlyphs" textLength="52" x="2326" y="441.8154">protocol</text><!--MD5=[e1de78a131aef3a955ecef52cca7c441]
entity omniclaw--><rect fill="#FFF3BF" height="79.7456" rx="4" ry="4" style="stroke: #1C7ED6; stroke-width: 1.5;" width="117" x="2514" y="382.2485"/><text fill="#0B2942" font-family="Arial" font-size="15" lengthAdjust="spacingAndGlyphs" textLength="69" x="2524" y="406.3184">OmniClaw</text><line style="stroke: #1C7ED6; stroke-width: 1.0;" x1="2515" x2="2630" y1="409.4971" y2="409.4971"/><text fill="#0B2942" font-family="Arial" font-size="15" lengthAdjust="spacingAndGlyphs" textLength="70" x="2530" y="427.5669">Settlement</text><text fill="#0B2942" font-family="Arial" font-size="15" lengthAdjust="spacingAndGlyphs" textLength="85" x="2530" y="444.8154">orchestration</text><!--MD5=[91788ee49fbaff576d72e3b8fd1a5fdc]
entity usdc--><rect fill="#FFF3BF" height="79.7456" rx="4" ry="4" style="stroke: #1C7ED6; stroke-width: 1.5;" width="117" x="2728" y="383.2485"/><text fill="#0B2942" font-family="Arial" font-size="15" lengthAdjust="spacingAndGlyphs" textLength="42" x="2738" y="407.3184">USDC</text><text fill="#0B2942" font-family="Arial" font-size="15" lengthAdjust="spacingAndGlyphs" textLength="68" x="2738" y="424.5669">Stablecoin</text><line style="stroke: #1C7ED6; stroke-width: 1.0;" x1="2729" x2="2844" y1="427.7456" y2="427.7456"/><text fill="#0B2942" font-family="Arial" font-size="15" lengthAdjust="spacingAndGlyphs" textLength="85" x="2744" y="445.8154">Payout asset</text><!--MD5=[8c9add5694584d0c377b988b91c2657a]
entity flow_identity--><path d="M381.2128,312.4632 C383.5582,304.8103 389.0044,305.2769 393.8159,309.9394 C396.8454,304.6142 401.4981,305.3897 404.7093,309.7346 C407.4875,303.3003 412.7329,302.2448 417.3737,307.7607 C420.3772,299.8578 424.5648,299.0285 430.2825,305.2866 C432.7002,298.4331 437.6183,298.038 442.6878,302.3369 C447.7234,296.9525 451.4537,297.672 454.5169,304.2821 C459.8204,300.5599 463.8029,300.521 466.2207,307.4524 C470.0462,301.8486 474.8885,302.1983 477.9926,308.185 C483.1023,303.2121 487.625,303.868 491.2112,309.9987 C501.9618,303.1346 507.611,307.0902 509.5,318.7485 C510.6932,319.0328 510.9088,319.6059 510.172,320.5933 C516.4094,322.4662 518.0488,326.8891 513.3183,331.8324 C518.9668,335.8036 519.9074,340.5577 513.736,344.9066 C520.0101,347.4155 521.6068,352.3167 516.7823,357.5085 C523.415,364.1129 521.8746,368.5469 513.5861,371.8187 C518.5101,376.5794 518.3089,381.446 512.1038,384.9504 C516.7076,393.7311 514.66,403.0106 502.5,402.7427 C503.8537,402.5816 504.4648,403.0042 504.202,404.4524 C501.3387,410.8798 495.2034,410.7569 491.6128,405.2174 C486.812,411.0915 482.4912,410.9352 478.0821,404.7768 C475.7388,411.3248 470.6022,411.5883 466.8094,406.1388 C463.1124,412.7516 458.8728,413.2078 454.401,406.8819 C449.4626,411.9665 445.1141,413.4005 441.0602,405.9412 C438.2212,412.4449 432.8268,412.9737 428.8376,407.0746 C425.1896,411.3341 421.1893,411.7398 418.2138,406.3354 C413.2767,411.8905 409.3142,411.6397 406.0118,404.7345 C402.1133,410.4163 397.5781,410.8666 393.8739,404.5381 C383.3299,412.3227 373.9565,410.0417 372.5,395.7427 C373.4922,395.9478 373.7297,396.8474 373.0674,397.5671 C366.4007,394.1755 365.9492,389.7557 371.3458,384.7444 C363.7821,381.7234 362.1923,376.3851 368.5213,370.5915 C361.0413,369.3092 360.0131,362.9396 364.4219,357.8364 C360.0135,353.3548 361.0264,347.7011 367.6612,346.328 C362.5643,340.4819 363.2794,334.7764 371.3257,332.3845 C364.1359,323.2514 368.2823,313.5901 379.5,311.7485 C380.319,310.9995 381.1164,311.4802 381.2128,312.4632 " fill="#F1F3F5" style="stroke: #868E96; stroke-width: 1.5;"/><text fill="#212529" font-family="Arial" font-size="15" lengthAdjust="spacingAndGlyphs" textLength="120" x="379.5" y="332.8184">Flow Identity Layer</text><line style="stroke: #868E96; stroke-width: 1.0;" x1="365.5" x2="516.5" y1="335.9971" y2="335.9971"/><text fill="#212529" font-family="Arial" font-size="15" lengthAdjust="spacingAndGlyphs" textLength="100" x="385.5" y="354.0669">Human identity,</text><text fill="#212529" font-family="Arial" font-size="15" lengthAdjust="spacingAndGlyphs" textLength="71" x="385.5" y="371.3154">auth token,</text><text fill="#212529" font-family="Arial" font-size="15" lengthAdjust="spacingAndGlyphs" textLength="111" x="385.5" y="388.564">human-agent link</text><!--MD5=[d88c7e1c138f6847cdeeddf784addf8f]
link human to contributor--><path d="M150.05,130.0085 C206.97,143.2085 296.38,163.9485 360.87,178.8985 " fill="none" id="human-&gt;contributor" style="stroke: #495057; stroke-width: 1.2;"/><polygon fill="#495057" points="365.86,180.0585,357.995,174.1305,360.989,178.9301,356.1894,181.9241,365.86,180.0585" style="stroke: #495057; stroke-width: 1.2;"/><text fill="#000000" font-family="Arial" font-size="15" lengthAdjust="spacingAndGlyphs" textLength="128" x="181" y="134.3184">accountable human</text><!--MD5=[44122806b276176998567d4c7c050fce]
link agent to contributor--><path d="M144.8,227.1985 C201.27,221.4685 294.11,212.0485 360.6,205.2985 " fill="none" id="agent-&gt;contributor" style="stroke: #495057; stroke-width: 1.2;"/><polygon fill="#495057" points="365.74,204.7785,356.3762,201.7259,360.7665,205.293,357.1994,209.6834,365.74,204.7785" style="stroke: #495057; stroke-width: 1.2;"/><text fill="#000000" font-family="Arial" font-size="15" lengthAdjust="spacingAndGlyphs" textLength="47" x="221.5" y="207.3184">assists</text><!--MD5=[ec060fdc40030aeb11977efc7a324381]
link human to flow_identity--><path d="M137.32,157.3285 C141.93,162.7585 146.29,168.4585 150,174.2485 C169.81,205.1785 154.23,225.0785 180,251.2485 C228.3,300.3085 302.45,327.4985 359.22,342.0185 " fill="none" id="human-&gt;flow_identity" style="stroke: #495057; stroke-width: 1.2;"/><polygon fill="#495057" points="364.31,343.2985,356.5489,337.2351,359.4593,342.0859,354.6086,344.9963,364.31,343.2985" style="stroke: #495057; stroke-width: 1.2;"/><text fill="#000000" font-family="Arial" font-size="15" lengthAdjust="spacingAndGlyphs" textLength="87" x="201.5" y="247.3184">authenticates</text><!--MD5=[18ef646f0a7a0d192ca54360aeb60adb]
link flow_identity to gate--><path d="M517.62,388.7085 C573.41,411.9185 649.3,443.4985 706.89,467.4585 " fill="none" id="flow_identity-&gt;gate" style="stroke: #495057; stroke-width: 1.2;"/><polygon fill="#495057" points="711.7,469.4685,704.9198,462.3251,707.0817,467.5526,701.8542,469.7145,711.7,469.4685" style="stroke: #495057; stroke-width: 1.2;"/><text fill="#000000" font-family="Arial" font-size="15" lengthAdjust="spacingAndGlyphs" textLength="94" x="579.5" y="409.3184">trusted identity</text><!--MD5=[48ed9ee5ee07b15cf8f4298b491cbb2f]
link agent to erc8004--><path d="M114.41,272.4185 C148.13,338.9185 223.12,473.0985 318,559.2485 C328.93,569.1685 341.59,578.1785 354.53,586.1285 " fill="none" id="agent-&gt;erc8004" style="stroke: #495057; stroke-width: 1.2;"/><polygon fill="#495057" points="358.93,588.7885,353.3022,580.7059,354.6527,586.1992,349.1594,587.5497,358.93,588.7885" style="stroke: #495057; stroke-width: 1.2;"/><text fill="#000000" font-family="Arial" font-size="15" lengthAdjust="spacingAndGlyphs" textLength="39" x="225.5" y="389.3184">has id</text><!--MD5=[737008dcde77f316c9c2f17f74e684fb]
link erc8004 to gate--><path d="M523.27,597.3285 C578.42,577.7085 651.15,551.8285 706.81,532.0285 " fill="none" id="erc8004-&gt;gate" style="stroke: #495057; stroke-width: 1.2; stroke-dasharray: 7.0,7.0;"/><polygon fill="#495057" points="711.81,530.2485,701.9907,529.486,707.0974,531.9194,704.664,537.0261,711.81,530.2485" style="stroke: #495057; stroke-width: 1.2;"/><text fill="#000000" font-family="Arial" font-size="15" lengthAdjust="spacingAndGlyphs" textLength="97" x="578" y="539.3184">read reputation</text><!--MD5=[9bf0ed5877bd8dd86618b8ac885fcc83]
link erc8183 to gate--><path d="M512.52,502.2485 C568.61,502.2485 647.24,502.2485 706.56,502.2485 " fill="none" id="erc8183-&gt;gate" style="stroke: #495057; stroke-width: 1.2; stroke-dasharray: 7.0,7.0;"/><polygon fill="#495057" points="711.88,502.2485,702.88,498.2485,706.88,502.2485,702.88,506.2485,711.88,502.2485" style="stroke: #495057; stroke-width: 1.2;"/><text fill="#000000" font-family="Arial" font-size="15" lengthAdjust="spacingAndGlyphs" textLength="105" x="574" y="498.3184">task contract ref</text><!--MD5=[150666baf123ae851a5c563b65607bac]
link gate to lifecycle--><path d="M871.36,502.2485 C911.49,502.2485 960.74,502.2485 1003.66,502.2485 " fill="none" id="gate-&gt;lifecycle" style="stroke: #495057; stroke-width: 1.2;"/><polygon fill="#495057" points="1008.86,502.2485,999.86,498.2485,1003.86,502.2485,999.86,506.2485,1008.86,502.2485" style="stroke: #495057; stroke-width: 1.2;"/><text fill="#000000" font-family="Arial" font-size="15" lengthAdjust="spacingAndGlyphs" textLength="76" x="902" y="498.3184">allows work</text><!--MD5=[0ea7627382685ab39b8175b10063b308]
link lifecycle to contribution--><path d="M1203.15,502.2485 C1268.07,502.2485 1353.26,502.2485 1417.33,502.2485 " fill="none" id="lifecycle-&gt;contribution" style="stroke: #495057; stroke-width: 1.2;"/><polygon fill="#495057" points="1422.68,502.2485,1413.68,498.2485,1417.68,502.2485,1413.68,506.2485,1422.68,502.2485" style="stroke: #495057; stroke-width: 1.2;"/><text fill="#000000" font-family="Arial" font-size="15" lengthAdjust="spacingAndGlyphs" textLength="124" x="1251" y="481.3184">valid human review</text><text fill="#000000" font-family="Arial" font-size="15" lengthAdjust="spacingAndGlyphs" textLength="158" x="1234" y="498.5669">+ accept adds submitter</text><!--MD5=[aad4a354301d7baf4e5bbd739eb80a02]
link contribution to compensation_award--><path d="M1598.08,495.7785 C1652.54,491.7085 1722,486.5185 1773.54,482.6685 " fill="none" id="contribution-&gt;compensation_award" style="stroke: #495057; stroke-width: 1.2;"/><polygon fill="#495057" points="1778.79,482.2685,1769.5177,478.9482,1773.8038,482.64,1770.112,486.9261,1778.79,482.2685" style="stroke: #495057; stroke-width: 1.2;"/><text fill="#000000" font-family="Arial" font-size="15" lengthAdjust="spacingAndGlyphs" textLength="119" x="1629" y="481.3184">only when payable</text><!--MD5=[d06dc8bc087e7d0dd6ffe75ecedb9cf6]
link contribution to reputation_record--><path d="M1598.08,534.3385 C1653.59,554.9185 1724.68,581.2785 1776.5,600.4785 " fill="none" id="contribution-&gt;reputation_record" style="stroke: #495057; stroke-width: 1.2;"/><polygon fill="#495057" points="1781.45,602.3185,1774.4091,595.4319,1776.7637,600.5755,1771.6201,602.93,1781.45,602.3185" style="stroke: #495057; stroke-width: 1.2;"/><text fill="#000000" font-family="Arial" font-size="15" lengthAdjust="spacingAndGlyphs" textLength="96" x="1640.5" y="542.3184">outcome event</text><!--MD5=[2100dc4370bf1b0a47307f2b34145cee]
link compensation_award to payment_link--><path d="M1915.15,463.9485 C1960.3,455.0085 2020.38,443.1085 2069.84,433.3085 " fill="none" id="compensation_award-&gt;payment_link" style="stroke: #495057; stroke-width: 1.2; stroke-dasharray: 7.0,7.0;"/><polygon fill="#495057" points="2074.9,432.3085,2065.294,430.1351,2069.9955,433.2809,2066.8497,437.9824,2074.9,432.3085" style="stroke: #495057; stroke-width: 1.2;"/><text fill="#000000" font-family="Arial" font-size="15" lengthAdjust="spacingAndGlyphs" textLength="94" x="1948" y="435.3184">create request</text><!--MD5=[ba415d395b6cf59994658cbc09261202]
link payment_link to x402--><path d="M2249.27,416.8385 C2267.6,417.1685 2286.81,417.5285 2304.7,417.8585 " fill="none" id="payment_link-&gt;x402" style="stroke: #495057; stroke-width: 1.2; stroke-dasharray: 7.0,7.0;"/><polygon fill="#495057" points="2309.71,417.9485,2300.7918,413.7694,2304.711,417.8486,2300.6318,421.7678,2309.71,417.9485" style="stroke: #495057; stroke-width: 1.2;"/><!--MD5=[0b84a35b34f93d9eebf8c85a4cc70a6f]
link x402 to omniclaw--><path d="M2453.15,420.3685 C2471.29,420.6585 2490.7,420.9685 2508.44,421.2485 " fill="none" id="x402-&gt;omniclaw" style="stroke: #495057; stroke-width: 1.2; stroke-dasharray: 7.0,7.0;"/><polygon fill="#495057" points="2513.88,421.3385,2504.9381,417.2104,2508.8805,421.2671,2504.8238,425.2096,2513.88,421.3385" style="stroke: #495057; stroke-width: 1.2;"/><!--MD5=[ef9f80fd2ac3284bb8800e28512e95eb]
link omniclaw to usdc--><path d="M2631.15,422.5185 C2659.43,422.6585 2693.55,422.8185 2722.52,422.9485 " fill="none" id="omniclaw-&gt;usdc" style="stroke: #495057; stroke-width: 1.2; stroke-dasharray: 7.0,7.0;"/><polygon fill="#495057" points="2727.86,422.9785,2718.883,418.9272,2722.8601,422.95,2718.8373,426.927,2727.86,422.9785" style="stroke: #495057; stroke-width: 1.2;"/><text fill="#000000" font-family="Arial" font-size="15" lengthAdjust="spacingAndGlyphs" textLength="35" x="2662" y="419.3184">settle</text><!--MD5=[95879a58e5243349f2b0d530c2c339d7]
link usdc to compensation_award--><path d="M2729.52,463.3885 C2688.4,488.9385 2630.07,517.2485 2573.5,517.2485 C2161,517.2485 2161,517.2485 2161,517.2485 C2078.01,517.2485 1983.63,503.2385 1920.41,491.8085 " fill="none" id="usdc-&gt;compensation_award" style="stroke: #495057; stroke-width: 1.2; stroke-dasharray: 7.0,7.0;"/><polygon fill="#495057" points="1915.15,490.8485,1923.3006,496.3774,1920.0712,491.7329,1924.7156,488.5035,1915.15,490.8485" style="stroke: #495057; stroke-width: 1.2;"/><text fill="#000000" font-family="Arial" font-size="15" lengthAdjust="spacingAndGlyphs" textLength="109" x="2327" y="513.3184">fulfillment receipt</text><!--MD5=[33aa5aba1fb3499f74c72566ebfccffc]
link reputation_record to erc8004--><path d="M1781.25,626.2485 C1713.87,626.2485 1605.29,626.2485 1511.5,626.2485 C790.5,626.2485 790.5,626.2485 790.5,626.2485 C701.13,626.2485 598.88,626.2485 528.35,626.2485 " fill="none" id="reputation_record-&gt;erc8004" style="stroke: #495057; stroke-width: 1.2; stroke-dasharray: 7.0,7.0;"/><polygon fill="#495057" points="523.33,626.2485,532.33,630.2485,528.33,626.2485,532.33,622.2485,523.33,626.2485" style="stroke: #495057; stroke-width: 1.2;"/><text fill="#000000" font-family="Arial" font-size="15" lengthAdjust="spacingAndGlyphs" textLength="85" x="1063.5" y="622.3184">optional write</text><!--MD5=[c0853009863b79f1906fab31cad0894e]
@startuml future_identity_payment_reputation
title Future Identity, Task Contract, Settlement, And Reputation View

left to right direction

skinparam backgroundColor #FFFFFF
skinparam shadowing false
skinparam roundcorner 8
skinparam defaultFontName Arial
skinparam defaultFontSize 15
skinparam ArrowColor #495057
skinparam ArrowThickness 1.2
skinparam packageStyle rectangle
skinparam rectangle {
  BorderColor #1C7ED6
  BackgroundColor #E7F5FF
  FontColor #0B2942
}
skinparam cloud {
  BorderColor #868E96
  BackgroundColor #F1F3F5
  FontColor #212529
}

package "Contributor Unit" #F8F9FA {
  rectangle "Human\n- - - -\nFlow identity\nsubject" as human #F1F3F5
  rectangle "Agent\n- - - -\nERC-8004\nidentity" as agent #F1F3F5
  rectangle "Human-Agent\nContributor\n- - - -\nOne accountable\nWorkstream actor" as contributor #F1F3F5
}

cloud "Flow Identity Layer\n- - - -\nHuman identity,\nauth token,\nhuman-agent link" as flow_identity

package "Future Identity / Contract Rails" #FFF9DB {
  rectangle "ERC-8004\n- - - -\nAgent identity\nand agent reputation\nregistry" as erc8004 #FFF3BF
  rectangle "ERC-8183\n- - - -\nTask contract\nand escrow layer" as erc8183 #FFF3BF
}

package "Workstream" #F8FBFF {
  rectangle "Claim /\nSubmission Gate\n- - - -\nPolicy, identity,\nagent id, reputation,\ncontract references" as gate
  rectangle "Evaluation\nLifecycle\n- - - -\nguide -> task ->\nsubmission -> checks ->\nreview -> revision" as lifecycle
  rectangle "Contribution\nRecord\n- - - -\nReviewer or submitter\nwork under locked\nevidence" as contribution #E6FCF5
  rectangle "Compensation\nAward\n- - - -\nInstrument, unit,\nquantity, policy,\nbinding" as compensation_award #E6FCF5
  rectangle "Reputation\nEvent\n- - - -\nHuman and\nagent-linked\noutcome signal" as reputation_record #E6FCF5
}

package "Future Settlement Rails" #FFF9DB {
  rectangle "Payment Link /\nRequest\n- - - -\nGenerated from\npayable money award" as payment_link #FFF3BF
  rectangle "x402\n- - - -\nPayment request\nprotocol" as x402 #FFF3BF
  rectangle "OmniClaw\n- - - -\nSettlement\norchestration" as omniclaw #FFF3BF
  rectangle "USDC\nStablecoin\n- - - -\nPayout asset" as usdc #FFF3BF
}

human - -> contributor : accountable human
agent - -> contributor : assists
human - -> flow_identity : authenticates
flow_identity - -> gate : trusted identity
agent - -> erc8004 : has id
erc8004 ..> gate : read reputation
erc8183 ..> gate : task contract ref

gate - -> lifecycle : allows work
lifecycle - -> contribution : valid human review\n+ accept adds submitter
contribution - -> compensation_award : only when payable
contribution - -> reputation_record : outcome event

compensation_award ..> payment_link : create request
payment_link ..> x402
x402 ..> omniclaw
omniclaw ..> usdc : settle
usdc ..> compensation_award : fulfillment receipt
reputation_record ..> erc8004 : optional write

@enduml

PlantUML version 1.2020.02(Sun Mar 01 11:22:07 WAT 2020)
(GPL source distribution)
Java Runtime: OpenJDK Runtime Environment
JVM: OpenJDK 64-Bit Server VM
Java Version: 17.0.19+10-1-24.04.2-Ubuntu
Operating System: Linux
Default Encoding: UTF-8
Language: en
Country: null
--></g></svg>