<svg xmlns="http://www.w3.org/2000/svg" xmlns:xlink="http://www.w3.org/1999/xlink" contentStyleType="text/css" data-diagram-type="DESCRIPTION" height="716px" preserveAspectRatio="none" style="width:2712px;height:716px;background:#FFFFFF;" version="1.1" viewBox="0 0 2712 716" width="2712px" zoomAndPan="magnify"><?plantuml 1.2026.5?><defs/><g><g class="title" data-source-line="1"><text fill="#000000" font-family="Arial" font-size="14" font-weight="700" lengthAdjust="spacing" textLength="425.4893" x="1139.7554" y="23.1318">Future Identity, Task Contract, Settlement, And Reputation View</text></g><!--cluster Contributor Unit--><g class="cluster" data-qualified-name="Contributor Unit" data-source-line="24" id="ent0001"><rect fill="#F8F9FA" height="247" rx="4" ry="4" style="stroke:#1C7ED6;stroke-width:1;" width="499" x="7" y="44.0986"/><text fill="#0B2942" font-family="Arial" font-size="15" font-weight="700" lengthAdjust="spacing" textLength="115.8032" x="198.5984" y="60.1685">Contributor Unit</text></g><!--cluster Future Identity / Contract Rails--><g class="cluster" data-qualified-name="Future Identity . Contract Rails" data-source-line="32" id="ent0006"><rect fill="#FFF9DB" height="264" rx="4" ry="4" style="stroke:#1C7ED6;stroke-width:1;" width="234" x="304" y="429.0986"/><text fill="#0B2942" font-family="Arial" font-size="15" font-weight="700" lengthAdjust="spacing" textLength="218.3569" x="311.8215" y="445.1685">Future Identity / Contract Rails</text></g><!--cluster Workstream--><g class="cluster" data-qualified-name="Workstream" data-source-line="37" id="ent0009"><rect fill="#F8FBFF" height="315" rx="4" ry="4" style="stroke:#1C7ED6;stroke-width:1;" width="1130" x="678" y="387.0986"/><text fill="#0B2942" font-family="Arial" font-size="15" font-weight="700" lengthAdjust="spacing" textLength="86.6968" x="1199.6516" y="403.1685">Workstream</text></g><!--cluster Future Settlement Rails--><g class="cluster" data-qualified-name="Future Settlement Rails" data-source-line="45" id="ent0015"><rect fill="#FFF9DB" height="148" rx="4" ry="4" style="stroke:#1C7ED6;stroke-width:1;" width="761" x="1937" y="334.0986"/><text fill="#0B2942" font-family="Arial" font-size="15" font-weight="700" lengthAdjust="spacing" textLength="167.5342" x="2233.7329" y="350.1685">Future Settlement Rails</text></g><!--entity human--><g class="entity" data-qualified-name="Contributor Unit.human" data-source-line="25" id="ent0002"><rect fill="#F1F3F5" height="79.7456" rx="4" ry="4" style="stroke:#1C7ED6;stroke-width:0.5;" width="103.3643" x="23" y="80.0986"/><text fill="#0B2942" font-family="Arial" font-size="15" lengthAdjust="spacing" textLength="48.3545" x="33" y="104.1685">Human</text><line style="stroke:#1C7ED6;stroke-width:1;" x1="24" x2="125.3643" y1="107.3472" y2="107.3472"/><text fill="#0B2942" font-family="Arial" font-size="15" lengthAdjust="spacing" textLength="83.3643" x="33" y="125.417">Flow identity</text><text fill="#0B2942" font-family="Arial" font-size="15" lengthAdjust="spacing" textLength="47.5269" x="33" y="142.6655">subject</text></g><!--entity agent--><g class="entity" data-qualified-name="Contributor Unit.agent" data-source-line="26" id="ent0003"><rect fill="#F1F3F5" height="79.7456" rx="4" ry="4" style="stroke:#1C7ED6;stroke-width:0.5;" width="90.0342" x="29.5" y="195.0986"/><text fill="#0B2942" font-family="Arial" font-size="15" lengthAdjust="spacing" textLength="39.1992" x="39.5" y="219.1685">Agent</text><line style="stroke:#1C7ED6;stroke-width:1;" x1="30.5" x2="118.5342" y1="222.3472" y2="222.3472"/><text fill="#0B2942" font-family="Arial" font-size="15" lengthAdjust="spacing" textLength="70.0342" x="39.5" y="240.417">ERC-8004</text><text fill="#0B2942" font-family="Arial" font-size="15" lengthAdjust="spacing" textLength="47.5269" x="39.5" y="257.6655">identity</text></g><!--entity contributor--><g class="entity" data-qualified-name="Contributor Unit.contributor" data-source-line="27" id="ent0004"><rect fill="#F1F3F5" height="96.9941" rx="4" ry="4" style="stroke:#1C7ED6;stroke-width:0.5;" width="138.3521" x="352" y="151.5986"/><text fill="#0B2942" font-family="Arial" font-size="15" lengthAdjust="spacing" textLength="92.5488" x="362" y="175.6685">Human-Agent</text><text fill="#0B2942" font-family="Arial" font-size="15" lengthAdjust="spacing" textLength="74.2017" x="362" y="192.917">Contributor</text><line style="stroke:#1C7ED6;stroke-width:1;" x1="353" x2="489.3521" y1="196.0957" y2="196.0957"/><text fill="#0B2942" font-family="Arial" font-size="15" lengthAdjust="spacing" textLength="113.4155" x="362" y="214.1655">One accountable</text><text fill="#0B2942" font-family="Arial" font-size="15" lengthAdjust="spacing" textLength="118.3521" x="362" y="231.4141">Workstream actor</text></g><!--entity erc8004--><g class="entity" data-qualified-name="Future Identity . Contract Rails.erc8004" data-source-line="33" id="ent0007"><rect fill="#FFF3BF" height="96.9941" rx="4" ry="4" style="stroke:#1C7ED6;stroke-width:0.5;" width="157.6147" x="342" y="580.5986"/><text fill="#0B2942" font-family="Arial" font-size="15" lengthAdjust="spacing" textLength="70.0342" x="352" y="604.6685">ERC-8004</text><line style="stroke:#1C7ED6;stroke-width:1;" x1="343" x2="498.6147" y1="607.8472" y2="607.8472"/><text fill="#0B2942" font-family="Arial" font-size="15" lengthAdjust="spacing" textLength="90.8936" x="352" y="625.917">Agent identity</text><text fill="#0B2942" font-family="Arial" font-size="15" lengthAdjust="spacing" textLength="137.6147" x="352" y="643.1655">and agent reputation</text><text fill="#0B2942" font-family="Arial" font-size="15" lengthAdjust="spacing" textLength="49.1748" x="352" y="660.4141">registry</text></g><!--entity erc8183--><g class="entity" data-qualified-name="Future Identity . Contract Rails.erc8183" data-source-line="34" id="ent0008"><rect fill="#FFF3BF" height="79.7456" rx="4" ry="4" style="stroke:#1C7ED6;stroke-width:0.5;" width="133.3862" x="354.5" y="465.0986"/><text fill="#0B2942" font-family="Arial" font-size="15" lengthAdjust="spacing" textLength="70.0342" x="364.5" y="489.1685">ERC-8183</text><line style="stroke:#1C7ED6;stroke-width:1;" x1="355.5" x2="486.8862" y1="492.3472" y2="492.3472"/><text fill="#0B2942" font-family="Arial" font-size="15" lengthAdjust="spacing" textLength="90.0293" x="364.5" y="510.417">Task contract</text><text fill="#0B2942" font-family="Arial" font-size="15" lengthAdjust="spacing" textLength="113.3862" x="364.5" y="527.6655">and escrow layer</text></g><!--entity gate--><g class="entity" data-qualified-name="Workstream.gate" data-source-line="38" id="ent0010"><rect fill="#E7F5FF" height="114.2427" rx="4" ry="4" style="stroke:#1C7ED6;stroke-width:0.5;" width="152.5977" x="694" y="448.0986"/><text fill="#0B2942" font-family="Arial" font-size="15" lengthAdjust="spacing" textLength="46.6699" x="704" y="472.1685">Claim /</text><text fill="#0B2942" font-family="Arial" font-size="15" lengthAdjust="spacing" textLength="114.2212" x="704" y="489.417">Submission Gate</text><line style="stroke:#1C7ED6;stroke-width:1;" x1="695" x2="845.5977" y1="492.5957" y2="492.5957"/><text fill="#0B2942" font-family="Arial" font-size="15" lengthAdjust="spacing" textLength="100.0415" x="704" y="510.6655">Policy, identity,</text><text fill="#0B2942" font-family="Arial" font-size="15" lengthAdjust="spacing" textLength="132.5977" x="704" y="527.9141">agent id, reputation,</text><text fill="#0B2942" font-family="Arial" font-size="15" lengthAdjust="spacing" textLength="128.3936" x="704" y="545.1626">contract references</text></g><!--entity lifecycle--><g class="entity" data-qualified-name="Workstream.lifecycle" data-source-line="39" id="ent0011"><rect fill="#E7F5FF" height="114.2427" rx="4" ry="4" style="stroke:#1C7ED6;stroke-width:0.5;" width="181.7261" x="986" y="448.0986"/><text fill="#0B2942" font-family="Arial" font-size="15" lengthAdjust="spacing" textLength="70.0488" x="996" y="472.1685">Evaluation</text><text fill="#0B2942" font-family="Arial" font-size="15" lengthAdjust="spacing" textLength="58.3594" x="996" y="489.417">Lifecycle</text><line style="stroke:#1C7ED6;stroke-width:1;" x1="987" x2="1166.7261" y1="492.5957" y2="492.5957"/><text fill="#0B2942" font-family="Arial" font-size="15" lengthAdjust="spacing" textLength="104.2236" x="996" y="510.6655">guide -&gt; task -&gt;</text><text fill="#0B2942" font-family="Arial" font-size="15" lengthAdjust="spacing" textLength="161.7261" x="996" y="527.9141">submission -&gt; checks -&gt;</text><text fill="#0B2942" font-family="Arial" font-size="15" lengthAdjust="spacing" textLength="117.1216" x="996" y="545.1626">review -&gt; revision</text></g><!--entity contribution--><g class="entity" data-qualified-name="Workstream.contribution" data-source-line="40" id="ent0012"><rect fill="#E6FCF5" height="114.2427" rx="4" ry="4" style="stroke:#1C7ED6;stroke-width:0.5;" width="146.7603" x="1326" y="448.0986"/><text fill="#0B2942" font-family="Arial" font-size="15" lengthAdjust="spacing" textLength="80.8813" x="1336" y="472.1685">Contribution</text><text fill="#0B2942" font-family="Arial" font-size="15" lengthAdjust="spacing" textLength="48.3545" x="1336" y="489.417">Record</text><line style="stroke:#1C7ED6;stroke-width:1;" x1="1327" x2="1471.7603" y1="492.5957" y2="492.5957"/><text fill="#0B2942" font-family="Arial" font-size="15" lengthAdjust="spacing" textLength="98.3789" x="1336" y="510.6655">Accepted work</text><text fill="#0B2942" font-family="Arial" font-size="15" lengthAdjust="spacing" textLength="126.7603" x="1336" y="527.9141">under locked guide</text><text fill="#0B2942" font-family="Arial" font-size="15" lengthAdjust="spacing" textLength="89.2383" x="1336" y="545.1626">and evidence</text></g><!--entity payment_record--><g class="entity" data-qualified-name="Workstream.payment_record" data-source-line="41" id="ent0013"><rect fill="#E6FCF5" height="114.2427" rx="4" ry="4" style="stroke:#1C7ED6;stroke-width:0.5;" width="141.7139" x="1650" y="423.0986"/><text fill="#0B2942" font-family="Arial" font-size="15" lengthAdjust="spacing" textLength="59.1943" x="1660" y="447.1685">Payment</text><text fill="#0B2942" font-family="Arial" font-size="15" lengthAdjust="spacing" textLength="48.3545" x="1660" y="464.417">Record</text><line style="stroke:#1C7ED6;stroke-width:1;" x1="1651" x2="1790.7139" y1="467.5957" y2="467.5957"/><text fill="#0B2942" font-family="Arial" font-size="15" lengthAdjust="spacing" textLength="121.7139" x="1660" y="485.6655">Amount, currency,</text><text fill="#0B2942" font-family="Arial" font-size="15" lengthAdjust="spacing" textLength="90.8716" x="1660" y="502.9141">policy, status,</text><text fill="#0B2942" font-family="Arial" font-size="15" lengthAdjust="spacing" textLength="70.8691" x="1660" y="520.1626">references</text></g><!--entity reputation_record--><g class="entity" data-qualified-name="Workstream.reputation_record" data-source-line="42" id="ent0014"><rect fill="#E6FCF5" height="114.2427" rx="4" ry="4" style="stroke:#1C7ED6;stroke-width:0.5;" width="120.8911" x="1660.5" y="572.0986"/><text fill="#0B2942" font-family="Arial" font-size="15" lengthAdjust="spacing" textLength="72.5537" x="1670.5" y="596.1685">Reputation</text><text fill="#0B2942" font-family="Arial" font-size="15" lengthAdjust="spacing" textLength="38.3569" x="1670.5" y="613.417">Event</text><line style="stroke:#1C7ED6;stroke-width:1;" x1="1661.5" x2="1780.3911" y1="616.5957" y2="616.5957"/><text fill="#0B2942" font-family="Arial" font-size="15" lengthAdjust="spacing" textLength="77.5488" x="1670.5" y="634.6655">Human and</text><text fill="#0B2942" font-family="Arial" font-size="15" lengthAdjust="spacing" textLength="81.7236" x="1670.5" y="651.9141">agent-linked</text><text fill="#0B2942" font-family="Arial" font-size="15" lengthAdjust="spacing" textLength="100.8911" x="1670.5" y="669.1626">outcome signal</text></g><!--entity payment_link--><g class="entity" data-qualified-name="Future Settlement Rails.payment_link" data-source-line="46" id="ent0016"><rect fill="#FFF3BF" height="96.9941" rx="4" ry="4" style="stroke:#1C7ED6;stroke-width:0.5;" width="162.5952" x="1953" y="369.5986"/><text fill="#0B2942" font-family="Arial" font-size="15" lengthAdjust="spacing" textLength="99.2139" x="1963" y="393.6685">Payment Link /</text><text fill="#0B2942" font-family="Arial" font-size="15" lengthAdjust="spacing" textLength="55.8691" x="1963" y="410.917">Request</text><line style="stroke:#1C7ED6;stroke-width:1;" x1="1954" x2="2114.5952" y1="414.0957" y2="414.0957"/><text fill="#0B2942" font-family="Arial" font-size="15" lengthAdjust="spacing" textLength="105.0513" x="1963" y="432.1655">Generated from</text><text fill="#0B2942" font-family="Arial" font-size="15" lengthAdjust="spacing" textLength="142.5952" x="1963" y="449.4141">accepted contribution</text></g><!--entity x402--><g class="entity" data-qualified-name="Future Settlement Rails.x402" data-source-line="47" id="ent0017"><rect fill="#FFF3BF" height="79.7456" rx="4" ry="4" style="stroke:#1C7ED6;stroke-width:0.5;" width="133.3936" x="2177" y="382.0986"/><text fill="#0B2942" font-family="Arial" font-size="15" lengthAdjust="spacing" textLength="32.5269" x="2187" y="406.1685">x402</text><line style="stroke:#1C7ED6;stroke-width:1;" x1="2178" x2="2309.3936" y1="409.3472" y2="409.3472"/><text fill="#0B2942" font-family="Arial" font-size="15" lengthAdjust="spacing" textLength="113.3936" x="2187" y="427.417">Payment request</text><text fill="#0B2942" font-family="Arial" font-size="15" lengthAdjust="spacing" textLength="53.3643" x="2187" y="444.6655">protocol</text></g><!--entity omniclaw--><g class="entity" data-qualified-name="Future Settlement Rails.omniclaw" data-source-line="48" id="ent0018"><rect fill="#FFF3BF" height="79.7456" rx="4" ry="4" style="stroke:#1C7ED6;stroke-width:0.5;" width="106.7114" x="2371" y="385.0986"/><text fill="#0B2942" font-family="Arial" font-size="15" lengthAdjust="spacing" textLength="69.1772" x="2381" y="409.1685">OmniClaw</text><line style="stroke:#1C7ED6;stroke-width:1;" x1="2372" x2="2476.7114" y1="412.3472" y2="412.3472"/><text fill="#0B2942" font-family="Arial" font-size="15" lengthAdjust="spacing" textLength="71.7041" x="2381" y="430.417">Settlement</text><text fill="#0B2942" font-family="Arial" font-size="15" lengthAdjust="spacing" textLength="86.7114" x="2381" y="447.6655">orchestration</text></g><!--entity usdc--><g class="entity" data-qualified-name="Future Settlement Rails.usdc" data-source-line="49" id="ent0019"><rect fill="#FFF3BF" height="79.7456" rx="4" ry="4" style="stroke:#1C7ED6;stroke-width:0.5;" width="106.7188" x="2575" y="386.0986"/><text fill="#0B2942" font-family="Arial" font-size="15" lengthAdjust="spacing" textLength="42.5024" x="2585" y="410.1685">USDC</text><text fill="#0B2942" font-family="Arial" font-size="15" lengthAdjust="spacing" textLength="70.0488" x="2585" y="427.417">Stablecoin</text><line style="stroke:#1C7ED6;stroke-width:1;" x1="2576" x2="2680.7188" y1="430.5957" y2="430.5957"/><text fill="#0B2942" font-family="Arial" font-size="15" lengthAdjust="spacing" textLength="86.7188" x="2585" y="448.6655">Payout asset</text></g><!--entity flow_identity--><g class="entity" data-qualified-name="flow_identity" data-source-line="30" id="ent0005"><path d="M358.8149,315.6922 C362.2931,308.4449 366.442,308.7203 371.8583,313.6093 C374.9006,306.5345 380.7282,306.4884 384.8972,312.4854 C387.5445,307.0019 393.2626,305.9207 397.1129,311.1082 C398.7439,303.4828 405.4142,303.2494 410.1763,307.7293 C412.4148,302.4309 417.0479,301.6575 421.1271,305.532 C426.1767,299.0409 432.4878,300.8705 435.7084,307.556 C440.198,302.8459 444.0736,303.1475 446.8368,309.3212 C452.3803,305.3763 456.8772,305.6728 459.196,312.8913 C463.499,307.6233 468.3342,308.7913 471.3216,314.363 C481.9959,306.1476 487.1335,311.1031 490.8887,321.5986 C491.5383,321.189 492.1435,321.4406 492.1583,322.2564 C497.863,325.5802 500.2022,330.1237 493.7147,334.9433 C500.7204,339.1925 499.8429,343.7962 493.9255,348.2501 C501.6639,352.0609 501.027,357.6298 494.6649,362.1887 C499.8183,366.6609 500.6597,370.8614 493.9213,374.6224 C498.8973,378.4844 498.5661,383.3579 493.3954,386.781 C498.9514,397.7787 497.2493,404.1548 483.8887,405.5928 C484.7528,404.8704 485.595,405.0929 485.7366,406.2889 C482.0215,413.2298 477.2337,414.6597 472.0039,407.7957 C468.855,414.1942 464.8001,413.6493 460.4014,409.123 C457.1871,415.0277 453.0587,416.6597 448.3156,410.6773 C444.3016,418.3042 438.1775,417.728 433.88,410.9615 C430.8504,417.6526 426.0566,417.7873 421.4052,412.6756 C416.9117,418.0802 412.0546,418.3555 408.5706,411.6092 C404.9618,415.7517 400.8624,415.3167 397.9207,410.7896 C392.1727,417.4933 387.3848,416.1726 383.5788,408.8095 C379.9567,414.8725 375.5257,414.4567 372.3254,408.4173 C362.6613,414.392 352.7072,409.8895 351,398.5928 C351.2105,398.286 351.4819,398.2593 351.6699,398.6155 C345.3776,395.46 346.354,390.0536 351.5944,386.8242 C344.0948,382.888 344.3501,377.3226 351.2715,373.0484 C344.7349,369.4382 345.1554,365.4736 349.6552,360.4478 C343.6216,356.0673 344.7173,351.4157 350.7742,348.134 C346.2957,344.6657 345.5103,338.9974 351.8806,336.5668 C344.2743,326.8835 344.5978,318.4298 358,314.5986 C358.8062,314.4881 359.164,314.9419 358.8149,315.6922" fill="#F1F3F5" style="stroke:#868E96;stroke-width:0.5;"/><text fill="#212529" font-family="Arial" font-size="15" lengthAdjust="spacing" textLength="125.8887" x="358" y="335.6685">Flow Identity Layer</text><line style="stroke:#868E96;stroke-width:1;" x1="344" x2="497.8887" y1="338.8472" y2="338.8472"/><text fill="#212529" font-family="Arial" font-size="15" lengthAdjust="spacing" textLength="104.2163" x="358" y="356.917">Human identity,</text><text fill="#212529" font-family="Arial" font-size="15" lengthAdjust="spacing" textLength="74.2236" x="358" y="374.1655">auth token,</text><text fill="#212529" font-family="Arial" font-size="15" lengthAdjust="spacing" textLength="115.0708" x="358" y="391.4141">human-agent link</text></g><!--link human to contributor--><g class="link" data-entity-1="ent0002" data-entity-2="ent0004" data-link-type="dependency" data-source-line="52" id="lnk20"><path d="M126.33,131.8986 C186.04,145.7686 280.4696,167.6974 346.8596,183.1174" fill="none" id="human-to-contributor" style="stroke:#495057;stroke-width:1.2;"/><polygon fill="#495057" points="351.73,184.2486,343.8683,178.3162,346.8596,183.1174,342.0584,186.1087,351.73,184.2486" style="stroke:#495057;stroke-width:1.2;stroke-linejoin:miter;stroke-miterlimit:10;"/><text fill="#000000" font-family="Arial" font-size="15" lengthAdjust="spacing" textLength="130.9277" x="157" y="136.1685">accountable human</text></g><!--link agent to contributor--><g class="link" data-entity-1="ent0003" data-entity-2="ent0004" data-link-type="dependency" data-source-line="53" id="lnk21"><path d="M119.83,230.5986 C178.62,224.6186 277.9756,214.5236 346.8356,207.5336" fill="none" id="agent-to-contributor" style="stroke:#495057;stroke-width:1.2;"/><polygon fill="#495057" points="351.81,207.0286,342.452,203.958,346.8356,207.5336,343.26,211.9171,351.81,207.0286" style="stroke:#495057;stroke-width:1.2;stroke-linejoin:miter;stroke-miterlimit:10;"/><text fill="#000000" font-family="Arial" font-size="15" lengthAdjust="spacing" textLength="45.8423" x="199.5" y="211.1685">assists</text></g><!--link human to flow_identity--><g class="link" data-entity-1="ent0002" data-entity-2="ent0005" data-link-type="dependency" data-source-line="54" id="lnk22"><path d="M114.03,160.1386 C118.37,165.6186 122.49,171.3486 126,177.0986 C145.14,208.4386 130.16,227.9986 156,254.0986 C206.47,305.0886 279.7894,331.1663 337.9994,345.2063" fill="none" id="human-to-flow_identity" style="stroke:#495057;stroke-width:1.2;"/><polygon fill="#495057" points="342.86,346.3786,335.0488,340.3799,337.9994,345.2063,333.173,348.1569,342.86,346.3786" style="stroke:#495057;stroke-width:1.2;stroke-linejoin:miter;stroke-miterlimit:10;"/><text fill="#000000" font-family="Arial" font-size="15" lengthAdjust="spacing" textLength="89.231" x="177.5" y="250.1685">authenticates</text></g><!--link flow_identity to gate--><g class="link" data-entity-1="ent0005" data-entity-2="ent0010" data-link-type="dependency" data-source-line="55" id="lnk23"><path d="M499.12,392.2786 C557.11,416.4786 631.5356,447.5333 689.1756,471.5833" fill="none" id="flow_identity-to-gate" style="stroke:#495057;stroke-width:1.2;"/><polygon fill="#495057" points="693.79,473.5086,687.0243,466.3515,689.1756,471.5833,683.9437,473.7346,693.79,473.5086" style="stroke:#495057;stroke-width:1.2;stroke-linejoin:miter;stroke-miterlimit:10;"/><text fill="#000000" font-family="Arial" font-size="15" lengthAdjust="spacing" textLength="97.5513" x="559.5" y="412.1685">trusted identity</text></g><!--link agent to erc8004--><g class="link" data-entity-1="ent0003" data-entity-2="ent0007" data-link-type="dependency" data-source-line="56" id="lnk24"><path d="M94.3,275.1686 C127.22,341.8286 200.92,476.5986 296,562.0986 C309.56,574.2886 321.3712,582.5913 337.4812,591.7313" fill="none" id="agent-to-erc8004" style="stroke:#495057;stroke-width:1.2;"/><polygon fill="#495057" points="341.83,594.1986,335.9759,586.2784,337.4812,591.7313,332.0282,593.2365,341.83,594.1986" style="stroke:#495057;stroke-width:1.2;stroke-linejoin:miter;stroke-miterlimit:10;"/><text fill="#000000" font-family="Arial" font-size="15" lengthAdjust="spacing" textLength="40.0269" x="202" y="384.1685">has id</text></g><!--link erc8004 to gate--><g class="link" data-entity-1="ent0007" data-entity-2="ent0010" data-link-type="dependency" data-source-line="57" id="lnk25"><path d="M500.42,601.1186 C558.27,580.4686 631.8307,554.2187 689.0407,533.8087" fill="none" id="erc8004-to-gate" style="stroke:#495057;stroke-width:1.2;stroke-dasharray:7,7;"/><polygon fill="#495057" points="693.75,532.1286,683.9292,531.3853,689.0407,533.8087,686.6173,538.9202,693.75,532.1286" style="stroke:#495057;stroke-width:1.2;stroke-linejoin:miter;stroke-miterlimit:10;"/><text fill="#000000" font-family="Arial" font-size="15" lengthAdjust="spacing" textLength="100.9058" x="558" y="540.1685">read reputation</text></g><!--link erc8183 to gate--><g class="link" data-entity-1="ent0008" data-entity-2="ent0010" data-link-type="dependency" data-source-line="58" id="lnk26"><path d="M487.77,505.0986 C546.41,505.0986 627.23,505.0986 688.72,505.0986" fill="none" id="erc8183-to-gate" style="stroke:#495057;stroke-width:1.2;stroke-dasharray:7,7;"/><polygon fill="#495057" points="693.72,505.0986,684.72,501.0986,688.72,505.0986,684.72,509.0986,693.72,505.0986" style="stroke:#495057;stroke-width:1.2;stroke-linejoin:miter;stroke-miterlimit:10;"/><text fill="#000000" font-family="Arial" font-size="15" lengthAdjust="spacing" textLength="106.7065" x="555" y="501.1685">task contract ref</text></g><!--link gate to lifecycle--><g class="link" data-entity-1="ent0010" data-entity-2="ent0011" data-link-type="dependency" data-source-line="60" id="lnk27"><path d="M847.16,505.0986 C889.17,505.0986 936.7,505.0986 980.83,505.0986" fill="none" id="gate-to-lifecycle" style="stroke:#495057;stroke-width:1.2;"/><polygon fill="#495057" points="985.83,505.0986,976.83,501.0986,980.83,505.0986,976.83,509.0986,985.83,505.0986" style="stroke:#495057;stroke-width:1.2;stroke-linejoin:miter;stroke-miterlimit:10;"/><text fill="#000000" font-family="Arial" font-size="15" lengthAdjust="spacing" textLength="77.5195" x="878" y="501.1685">allows work</text></g><!--link lifecycle to contribution--><g class="link" data-entity-1="ent0011" data-entity-2="ent0012" data-link-type="dependency" data-source-line="61" id="lnk28"><path d="M1168.13,505.0986 C1218.03,505.0986 1274.22,505.0986 1321,505.0986" fill="none" id="lifecycle-to-contribution" style="stroke:#495057;stroke-width:1.2;"/><polygon fill="#495057" points="1326,505.0986,1317,501.0986,1321,505.0986,1317,509.0986,1326,505.0986" style="stroke:#495057;stroke-width:1.2;stroke-linejoin:miter;stroke-miterlimit:10;"/><text fill="#000000" font-family="Arial" font-size="15" lengthAdjust="spacing" textLength="96.7163" x="1199" y="501.1685">accepted work</text></g><!--link contribution to payment_record--><g class="link" data-entity-1="ent0012" data-entity-2="ent0013" data-link-type="dependency" data-source-line="62" id="lnk29"><path d="M1473.4,499.3986 C1526.35,495.2486 1592.6052,490.0685 1644.8952,485.9785" fill="none" id="contribution-to-payment_record" style="stroke:#495057;stroke-width:1.2;"/><polygon fill="#495057" points="1649.88,485.5886,1640.5955,482.3026,1644.8952,485.9785,1641.2193,490.2783,1649.88,485.5886" style="stroke:#495057;stroke-width:1.2;stroke-linejoin:miter;stroke-miterlimit:10;"/><text fill="#000000" font-family="Arial" font-size="15" lengthAdjust="spacing" textLength="115.0854" x="1504" y="485.1685">pending payment</text></g><!--link contribution to reputation_record--><g class="link" data-entity-1="ent0012" data-entity-2="ent0014" data-link-type="dependency" data-source-line="63" id="lnk30"><path d="M1473.4,533.3886 C1529.94,555.3386 1602.6789,583.5592 1655.5889,604.0992" fill="none" id="contribution-to-reputation_record" style="stroke:#495057;stroke-width:1.2;"/><polygon fill="#495057" points="1660.25,605.9086,1653.3076,598.9227,1655.5889,604.0992,1650.4125,606.3805,1660.25,605.9086" style="stroke:#495057;stroke-width:1.2;stroke-linejoin:miter;stroke-miterlimit:10;"/><text fill="#000000" font-family="Arial" font-size="15" lengthAdjust="spacing" textLength="98.3936" x="1512.5" y="542.1685">outcome event</text></g><!--link payment_record to payment_link--><g class="link" data-entity-1="ent0013" data-entity-2="ent0016" data-link-type="dependency" data-source-line="65" id="lnk31"><path d="M1792.3,466.1086 C1839.94,456.6286 1898.1263,445.0452 1947.8363,435.1452" fill="none" id="payment_record-to-payment_link" style="stroke:#495057;stroke-width:1.2;stroke-dasharray:7,7;"/><polygon fill="#495057" points="1952.74,434.1686,1943.1321,432.0035,1947.8363,435.1452,1944.6946,439.8495,1952.74,434.1686" style="stroke:#495057;stroke-width:1.2;stroke-linejoin:miter;stroke-miterlimit:10;"/><text fill="#000000" font-family="Arial" font-size="15" lengthAdjust="spacing" textLength="95.8887" x="1825" y="438.1685">create request</text></g><!--link payment_link to x402--><g class="link" data-entity-1="ent0016" data-entity-2="ent0017" data-link-type="dependency" data-source-line="66" id="lnk32"><path d="M2116.12,419.6586 C2136.22,420.0486 2152.5209,420.3627 2171.8009,420.7327" fill="none" id="payment_link-to-x402" style="stroke:#495057;stroke-width:1.2;stroke-dasharray:7,7;"/><polygon fill="#495057" points="2176.8,420.8286,2167.8784,416.6567,2171.8009,420.7327,2167.7249,424.6552,2176.8,420.8286" style="stroke:#495057;stroke-width:1.2;stroke-linejoin:miter;stroke-miterlimit:10;"/></g><!--link x402 to omniclaw--><g class="link" data-entity-1="ent0017" data-entity-2="ent0018" data-link-type="dependency" data-source-line="67" id="lnk33"><path d="M2310.14,423.1986 C2330.09,423.5286 2346.7607,423.8144 2365.7507,424.1344" fill="none" id="x402-to-omniclaw" style="stroke:#495057;stroke-width:1.2;stroke-dasharray:7,7;"/><polygon fill="#495057" points="2370.75,424.2186,2361.8187,420.0676,2365.7507,424.1344,2361.6839,428.0664,2370.75,424.2186" style="stroke:#495057;stroke-width:1.2;stroke-linejoin:miter;stroke-miterlimit:10;"/></g><!--link omniclaw to usdc--><g class="link" data-entity-1="ent0018" data-entity-2="ent0019" data-link-type="dependency" data-source-line="68" id="lnk34"><path d="M2478.05,425.3586 C2507.85,425.5086 2540.0401,425.6635 2569.8701,425.8135" fill="none" id="omniclaw-to-usdc" style="stroke:#495057;stroke-width:1.2;stroke-dasharray:7,7;"/><polygon fill="#495057" points="2574.87,425.8386,2565.8902,421.7934,2569.8701,425.8135,2565.85,429.7933,2574.87,425.8386" style="stroke:#495057;stroke-width:1.2;stroke-linejoin:miter;stroke-miterlimit:10;"/><text fill="#000000" font-family="Arial" font-size="15" lengthAdjust="spacing" textLength="35.8521" x="2509" y="422.1685">settle</text></g><!--link usdc to payment_record--><g class="link" data-entity-1="ent0019" data-entity-2="ent0013" data-link-type="dependency" data-source-line="69" id="lnk35"><path d="M2574.85,465.9586 C2535.78,491.5786 2480.04,520.0986 2425.5,520.0986 C2033.5,520.0986 2033.5,520.0986 2033.5,520.0986 C1950.08,520.0986 1860.0287,506.7068 1797.1087,495.2168" fill="none" id="usdc-to-payment_record" style="stroke:#495057;stroke-width:1.2;stroke-dasharray:7,7;"/><polygon fill="#495057" points="1792.19,494.3186,1800.325,499.8703,1797.1087,495.2168,1801.7622,492.0005,1792.19,494.3186" style="stroke:#495057;stroke-width:1.2;stroke-linejoin:miter;stroke-miterlimit:10;"/><text fill="#000000" font-family="Arial" font-size="15" lengthAdjust="spacing" textLength="81.7017" x="2203" y="516.1685">confirmation</text></g><!--link reputation_record to erc8004--><g class="link" data-entity-1="ent0014" data-entity-2="ent0007" data-link-type="dependency" data-source-line="70" id="lnk36"><path d="M1660.23,629.0986 C1596.04,629.0986 1491.05,629.0986 1400.5,629.0986 C769.5,629.0986 769.5,629.0986 769.5,629.0986 C677.04,629.0986 575.75,629.0986 505.32,629.0986" fill="none" id="reputation_record-to-erc8004" style="stroke:#495057;stroke-width:1.2;stroke-dasharray:7,7;"/><polygon fill="#495057" points="500.32,629.0986,509.32,633.0986,505.32,629.0986,509.32,625.0986,500.32,629.0986" style="stroke:#495057;stroke-width:1.2;stroke-linejoin:miter;stroke-miterlimit:10;"/><text fill="#000000" font-family="Arial" font-size="15" lengthAdjust="spacing" textLength="88.3813" x="1033" y="625.1685">optional write</text></g><?plantuml-src XLPHRo8t47xVNp7YNY4NI4Y0XvCImbuhHRqJkMjVa4wEru2BiQdj3QNL_VVEUDUBTuFKF6Kzus---JpV95vw9I0lVMa5_5e8xQK_zU4RSpkO6-qjuxuFBy9ZsXwZVNZG1Ip5eVJCIwFXTocEMQR4seCtOELcww6GLd2APfdRINrWbktXbV7TnffI5tEZZ8KFUVX9CjoM5UOezGRMJ3cHHC8rRgmM5YR9UI7Mh5G-HwA_iRs01okPkXn_aVy868wJu8ErvbXpkPsEhyVttU2thUGxBPo3uTKe2Hwm5ROHB_w4sb6hJ6zKYsyyWtypW4TZ2s7hIiFv_UBfZawxUYpkyp7g0K1qwxFhnz7qTfJzJB2vCcNn7dToDrbCB-Bcm_mc7xTnHyFHU3H5tApk1NhXjULhwJ7-NKlVmvkJV9e_X5hdZdg_b7kcLtg0FokTAtC4MS_DIhlozK_Cx05piAMyf7m2yR312n5YiPmF9jVNjoiTSS9rHZcNhmS6WneauHqHlsW1Z7FKmBDN9LRw3sDtpbk1yk4y6niAyAJXM0O5gVJjXSQY8U2PdKG37yetJVTNcfL-YzE_4ne_Gjk3YhsIUXTghH7jHxoHYDun7dniJ0TB9fNh1PjCdnwxZt0MhU8Kn4WUWg5BAmwsyUfAMx6Hg4CbiB2S44A5cyVy0lvmSXFnmqBWDRSANZYE7W55qZI0UAK1JAVh_0BLN3tcURUbkM9o3nzN-gLytKldQBjyPbv42b-DaXntKofytNK_wHAF8qyyNGihD1Sk4DmWMgVDDwRAMfndkHRyn5LJS5DYAHXy0a_D3pw5yOxCy9Xl1T-v4B3Y3VSW7T9lb10AgWZPwJHENgYx5BZPYkOXEHS7Bmeuec8hZJR6dQSCt-5H85IB_qOoSD6UP2BsON6NpxkE-SfE--2MJh4zUQGFlBGa4qbwg5Lsg6Rf-jHQIyD3XVJ31g3BrPR9o2tU4gjNpa7-zTCDo202lqpfkS45xkH6CnKAdL-qM-ldUmET_q3zZszg8U0P2zEiBSLVfN0DmSy2_yGmadzjpHvPnjT89MxfG1rSjj3VjzUZPdRhiZQMErZZ3JTLgvHv6UFBNalqnJ7YdFj4pImE87gADPmCPdFClepr_ULfZWXX9N8ZTS8DvSVxJbIBktG5JqrSBV81JNooCcVfYgsMVLRvyK8cUiPvbo2r5Y9bu0gb3uxYkwmTfNooBgPvMpfwZcQLdYl6TJQ3BVOWYomUN5qrrt7_5CbWPN5Z9Ia-NNIqGB8iHAX4OsSYh92Z2oxDpkUjricDGQMpeRDMaB8xVfh1GUY2_WUg0-zll3V63A9_1BcDxD42fVPQype3Zb9u4USnQqKfdKOo2tD9Nt6micR2w3JCoGnScCaiVAML6dBOmLhQVINvU_Pqv_nuva0nfk1e9Mxh_m00?></g></svg>