<svg xmlns="http://www.w3.org/2000/svg" xmlns:xlink="http://www.w3.org/1999/xlink" contentStyleType="text/css" data-diagram-type="DESCRIPTION" height="505px" preserveAspectRatio="none" style="width:2158px;height:505px;background:#FFFFFF;" version="1.1" viewBox="0 0 2158 505" width="2158px" zoomAndPan="magnify"><?plantuml 1.2026.6?><defs/><g><g class="title" data-source-line="1"><text fill="#000000" font-family="Arial" font-size="14" font-weight="700" lengthAdjust="spacing" textLength="217.0752" x="966.9624" y="23.1318">Workstream v0.1 Container View</text></g><!--cluster People--><g class="cluster" data-qualified-name="People" data-source-line="29" id="ent0001"><rect fill="#F8F9FA" height="324" rx="4" ry="4" style="stroke:#1C7ED6;stroke-width:1;" width="219" x="7" y="99.0986"/><text fill="#0B2942" font-family="Arial" font-size="15" font-weight="700" lengthAdjust="spacing" textLength="49.1821" x="91.9089" y="115.1685">People</text></g><!--cluster Workstream v0.1--><g class="cluster" data-qualified-name="Workstream v0.1" data-source-line="38" id="ent0007"><rect fill="#F8FBFF" height="284" rx="4" ry="4" style="stroke:#1C7ED6;stroke-width:1;" width="1551" x="291" y="44.0986"/><text fill="#0B2942" font-family="Arial" font-size="15" font-weight="700" lengthAdjust="spacing" textLength="120.0586" x="1006.4707" y="60.1685">Workstream v0.1</text></g><!--cluster Durable Records--><g class="cluster" data-qualified-name="Durable Records" data-source-line="47" id="ent0014"><rect fill="#F2FBF7" height="341" rx="4" ry="4" style="stroke:#1C7ED6;stroke-width:1;" width="201" x="1943" y="50.0986"/><text fill="#0B2942" font-family="Arial" font-size="15" font-weight="700" lengthAdjust="spacing" textLength="120.0366" x="1983.4817" y="66.1685">Durable Records</text></g><!--entity project_manager--><g class="entity" data-qualified-name="People.project_manager" data-source-line="30" id="ent0002"><rect fill="#F1F3F5" height="37.2485" rx="4" ry="4" style="stroke:#1C7ED6;stroke-width:0.5;" width="130.0537" x="51.5" y="135.5986"/><text fill="#0B2942" font-family="Arial" font-size="15" lengthAdjust="spacing" textLength="110.0537" x="61.5" y="159.6685">Project Manager</text></g><!--entity contributor--><g class="entity" data-qualified-name="People.contributor" data-source-line="31" id="ent0003"><rect fill="#F1F3F5" height="54.4971" rx="4" ry="4" style="stroke:#1C7ED6;stroke-width:0.5;" width="112.5488" x="60" y="208.0986"/><text fill="#0B2942" font-family="Arial" font-size="15" lengthAdjust="spacing" textLength="92.5488" x="70" y="232.1685">Human-Agent</text><text fill="#0B2942" font-family="Arial" font-size="15" lengthAdjust="spacing" textLength="74.2017" x="70" y="249.417">Contributor</text></g><!--entity reviewer--><g class="entity" data-qualified-name="People.reviewer" data-source-line="32" id="ent0004"><rect fill="#F1F3F5" height="37.2485" rx="4" ry="4" style="stroke:#1C7ED6;stroke-width:0.5;" width="82.5195" x="75" y="297.5986"/><text fill="#0B2942" font-family="Arial" font-size="15" lengthAdjust="spacing" textLength="62.5195" x="85" y="321.6685">Reviewer</text></g><!--entity operator--><g class="entity" data-qualified-name="People.operator" data-source-line="33" id="ent0005"><rect fill="#F1F3F5" height="37.2485" rx="4" ry="4" style="stroke:#1C7ED6;stroke-width:0.5;" width="186.7285" x="23" y="369.5986"/><text fill="#0B2942" font-family="Arial" font-size="15" lengthAdjust="spacing" textLength="166.7285" x="33" y="393.6685">Operator / Access Admin</text></g><!--entity frontend--><g class="entity" data-qualified-name="Workstream v0.1.frontend" data-source-line="39" id="ent0008"><rect fill="#E7F5FF" height="79.7456" rx="4" ry="4" style="stroke:#1C7ED6;stroke-width:0.5;" width="198.8354" x="307" y="232.0986"/><text fill="#0B2942" font-family="Arial" font-size="15" lengthAdjust="spacing" textLength="178.8354" x="317" y="256.1685">React + Vite Operations UI</text><line style="stroke:#1C7ED6;stroke-width:1;" x1="308" x2="504.8354" y1="259.3472" y2="259.3472"/><text fill="#0B2942" font-family="Arial" font-size="15" lengthAdjust="spacing" textLength="108.4131" x="317" y="277.417">Planned internal</text><text fill="#0B2942" font-family="Arial" font-size="15" lengthAdjust="spacing" textLength="145.1074" x="317" y="294.6655">operations dashboard</text></g><!--entity api--><g class="entity" data-qualified-name="Workstream v0.1.api" data-source-line="40" id="ent0009"><rect fill="#E7F5FF" height="79.7456" rx="4" ry="4" style="stroke:#1C7ED6;stroke-width:0.5;" width="163.4009" x="651" y="232.0986"/><text fill="#0B2942" font-family="Arial" font-size="15" lengthAdjust="spacing" textLength="115.8911" x="661" y="256.1685">FastAPI Backend</text><line style="stroke:#1C7ED6;stroke-width:1;" x1="652" x2="813.4009" y1="259.3472" y2="259.3472"/><text fill="#0B2942" font-family="Arial" font-size="15" lengthAdjust="spacing" textLength="143.4009" x="661" y="277.417">Modular monolith API</text><text fill="#0B2942" font-family="Arial" font-size="15" lengthAdjust="spacing" textLength="124.2188" x="661" y="294.6655">and workflow rules</text></g><!--entity authorization--><g class="entity" data-qualified-name="Workstream v0.1.authorization" data-source-line="41" id="ent0010"><rect fill="#E7F5FF" height="79.7456" rx="4" ry="4" style="stroke:#1C7ED6;stroke-width:0.5;" width="196.7407" x="1004" y="232.0986"/><text fill="#0B2942" font-family="Arial" font-size="15" lengthAdjust="spacing" textLength="141.7383" x="1014" y="256.1685">Authorization Service</text><line style="stroke:#1C7ED6;stroke-width:1;" x1="1005" x2="1199.7407" y1="259.3472" y2="259.3472"/><text fill="#0B2942" font-family="Arial" font-size="15" lengthAdjust="spacing" textLength="176.7407" x="1014" y="277.417">Actor profiles, local grants,</text><text fill="#0B2942" font-family="Arial" font-size="15" lengthAdjust="spacing" textLength="142.5806" x="1014" y="294.6655">and capability checks</text></g><!--entity jobs--><g class="entity" data-qualified-name="Workstream v0.1.jobs" data-source-line="42" id="ent0011"><rect fill="#E7F5FF" height="79.7456" rx="4" ry="4" style="stroke:#1C7ED6;stroke-width:0.5;" width="191.7676" x="1006.5" y="117.0986"/><text fill="#0B2942" font-family="Arial" font-size="15" lengthAdjust="spacing" textLength="164.2236" x="1016.5" y="141.1685">Celery Worker Boundary</text><line style="stroke:#1C7ED6;stroke-width:1;" x1="1007.5" x2="1197.2676" y1="144.3472" y2="144.3472"/><text fill="#0B2942" font-family="Arial" font-size="15" lengthAdjust="spacing" textLength="146.748" x="1016.5" y="162.417">Durable project setup,</text><text fill="#0B2942" font-family="Arial" font-size="15" lengthAdjust="spacing" textLength="171.7676" x="1016.5" y="179.6655">checker, and product jobs</text></g><!--entity checker--><g class="entity" data-qualified-name="Workstream v0.1.checker" data-source-line="43" id="ent0012"><rect fill="#E7F5FF" height="79.7456" rx="4" ry="4" style="stroke:#1C7ED6;stroke-width:0.5;" width="153.418" x="1335" y="135.0986"/><text fill="#0B2942" font-family="Arial" font-size="15" lengthAdjust="spacing" textLength="109.2188" x="1345" y="159.1685">Checker Runner</text><line style="stroke:#1C7ED6;stroke-width:1;" x1="1336" x2="1487.418" y1="162.3472" y2="162.3472"/><text fill="#0B2942" font-family="Arial" font-size="15" lengthAdjust="spacing" textLength="133.418" x="1345" y="180.417">Automated task and</text><text fill="#0B2942" font-family="Arial" font-size="15" lengthAdjust="spacing" textLength="125.8813" x="1345" y="197.6655">submission checks</text></g><!--entity storage_adapter--><g class="entity" data-qualified-name="Workstream v0.1.storage_adapter" data-source-line="44" id="ent0013"><rect fill="#E7F5FF" height="79.7456" rx="4" ry="4" style="stroke:#1C7ED6;stroke-width:0.5;" width="153.3887" x="1673" y="80.0986"/><text fill="#0B2942" font-family="Arial" font-size="15" lengthAdjust="spacing" textLength="115.0708" x="1683" y="104.1685">Storage Interface</text><line style="stroke:#1C7ED6;stroke-width:1;" x1="1674" x2="1825.3887" y1="107.3472" y2="107.3472"/><text fill="#0B2942" font-family="Arial" font-size="15" lengthAdjust="spacing" textLength="133.3887" x="1683" y="125.417">Object-storage style</text><text fill="#0B2942" font-family="Arial" font-size="15" lengthAdjust="spacing" textLength="24.1772" x="1683" y="142.6655">API</text></g><!--entity postgres--><g class="entity" data-qualified-name="Durable Records.postgres" data-source-line="48" id="ent0015"><path d="M1959,227.0986 C1959,217.0986 2043.6191,217.0986 2043.6191,217.0986 C2043.6191,217.0986 2128.2383,217.0986 2128.2383,227.0986 L2128.2383,364.8384 C2128.2383,374.8384 2043.6191,374.8384 2043.6191,374.8384 C2043.6191,374.8384 1959,374.8384 1959,364.8384 L1959,227.0986" fill="#E6FCF5" style="stroke:#0CA678;stroke-width:0.5;"/><path d="M1959,227.0986 C1959,237.0986 2043.6191,237.0986 2043.6191,237.0986 C2043.6191,237.0986 2128.2383,237.0986 2128.2383,227.0986" fill="none" style="stroke:#0CA678;stroke-width:0.5;"/><text fill="#063B2C" font-family="Arial" font-size="15" lengthAdjust="spacing" textLength="59.1943" x="1969" y="255.1685">Postgres</text><path d="M1959,253.3472 C1959,263.3472 2043.6191,263.3472 2043.6191,263.3472 C2043.6191,263.3472 2128.2383,263.3472 2128.2383,253.3472" fill="none" style="stroke:#0CA678;stroke-width:1;"/><text fill="#063B2C" font-family="Arial" font-size="15" lengthAdjust="spacing" textLength="110.8887" x="1969" y="276.417">Projects, guides,</text><text fill="#063B2C" font-family="Arial" font-size="15" lengthAdjust="spacing" textLength="130.0415" x="1969" y="293.6655">tasks, submissions,</text><text fill="#063B2C" font-family="Arial" font-size="15" lengthAdjust="spacing" textLength="110.0317" x="1969" y="310.9141">checks, reviews,</text><text fill="#063B2C" font-family="Arial" font-size="15" lengthAdjust="spacing" textLength="149.2383" x="1969" y="328.1626">revisions, contribution,</text><text fill="#063B2C" font-family="Arial" font-size="15" lengthAdjust="spacing" textLength="136.7505" x="1969" y="345.4111">payment, reputation,</text><text fill="#063B2C" font-family="Arial" font-size="15" lengthAdjust="spacing" textLength="80.8887" x="1969" y="362.6597">audit events</text></g><!--entity file_store--><g class="entity" data-qualified-name="Durable Records.file_store" data-source-line="49" id="ent0016"><rect fill="#E6FCF5" height="96.9941" rx="4" ry="4" style="stroke:#1C7ED6;stroke-width:0.5;" width="139.2236" x="1974" y="85.5986"/><text fill="#0B2942" font-family="Arial" font-size="15" lengthAdjust="spacing" textLength="104.2163" x="1984" y="109.6685">Local File Store</text><text fill="#0B2942" font-family="Arial" font-size="15" lengthAdjust="spacing" textLength="109.2407" x="1984" y="126.917">Behind Interface</text><line style="stroke:#1C7ED6;stroke-width:1;" x1="1975" x2="2112.2236" y1="130.0957" y2="130.0957"/><text fill="#0B2942" font-family="Arial" font-size="15" lengthAdjust="spacing" textLength="119.2236" x="1984" y="148.1655">R2/S3-compatible</text><text fill="#0B2942" font-family="Arial" font-size="15" lengthAdjust="spacing" textLength="93.3984" x="1984" y="165.4141">adapter target</text></g><!--entity flow_auth--><g class="entity" data-qualified-name="flow_auth" data-source-line="36" id="ent0006"><path d="M1023.1278,355.5027 C1027.0982,350.2206 1030.5621,350.4643 1033.9763,356.0575 C1037.4645,349.9755 1043.6735,349.5822 1046.9844,356.2386 C1050.1201,351.7173 1053.6149,351.5337 1056.9663,355.999 C1060.9282,349.3311 1065.8177,349.029 1069.9124,355.8717 C1072.9556,351.1381 1077.7258,349.9743 1080.983,355.644 C1083.0063,350.29 1087.12,349.0126 1091.2825,353.3768 C1095.3983,348.108 1099.7441,346.423 1104.0164,353.2116 C1107.5862,347.7695 1110.9739,348.4542 1114.2177,353.5278 C1118.247,347.3893 1123.2334,348.0132 1126.1952,354.5376 C1129.3414,349.1793 1134.8347,349.8881 1137.8497,354.6882 C1141.638,349.0554 1147.226,350.1552 1149.5248,356.1799 C1152.9743,351.0717 1158.5856,350.3784 1161.5527,356.688 C1164.7144,350.7147 1169.741,350.4376 1173.3843,356.2027 C1176.9222,352.0368 1181.884,352.4933 1184.5425,357.2968 C1191.3726,359.6959 1190.6281,365.4139 1185.8915,369.1315 C1192.0763,371.1064 1193.113,375.8281 1188.2066,380.1362 C1195.2671,384.3033 1194.6238,388.8308 1189.271,393.9541 C1193.3998,397.883 1193.4562,403.9462 1186.9218,405.7518 C1191.9649,409.4547 1192.4535,415.2571 1186.1741,418.2846 C1190.8109,422.1983 1190.0644,428.149 1184.5146,430.7012 C1180.8175,436.6505 1175.8923,437.521 1171.4805,431.478 C1169.3313,436.1347 1164.9604,436.85 1161.673,432.7533 C1157.0433,439.9097 1153.0213,438.5531 1148.4053,432.7392 C1145.0396,437.6601 1140.6001,437.5636 1137.2656,432.7037 C1135.5491,438.0587 1130.1568,440.1799 1126.0711,435.2933 C1121.7505,440.7279 1117.5461,440.8414 1114.4221,434.1444 C1111.6178,440.0347 1106.9735,439.9431 1102.9349,435.5191 C1099.7325,441.9074 1094.9546,442.176 1091.1744,436.0626 C1087.6333,441.0918 1082.1012,439.6111 1079.7685,434.679 C1076.5635,440.2978 1071.2474,439.2649 1068.696,434.0132 C1064.7028,438.2069 1060.6731,438.4278 1057.7371,432.83 C1052.9765,437.6011 1048.7371,436.5046 1045.5439,430.9747 C1041.9774,436.3365 1037.4847,435.1766 1035.1389,429.7927 C1031.5194,434.742 1027.8874,436.109 1023.6536,430.4583 C1015.8919,427.0919 1017.3248,421.552 1022.3832,416.9775 C1014.9519,415.1982 1013.031,409.9242 1018.9033,404.4496 C1013.7296,401.1815 1013.0902,397.2234 1017.6182,392.8779 C1012.263,389.214 1012.7851,383.6701 1018.9051,381.2794 C1015.1045,375.8465 1016.2245,371.8241 1022.2363,369.068 C1015.9313,364.9306 1016.0623,358.7614 1023.1278,355.5027" fill="#F1F3F5" style="stroke:#868E96;stroke-width:0.5;"/><text fill="#212529" font-family="Arial" font-size="15" lengthAdjust="spacing" textLength="66.6943" x="1029" y="376.1685">Flow Auth</text><line style="stroke:#868E96;stroke-width:1;" x1="1015" x2="1189.748" y1="379.3472" y2="379.3472"/><text fill="#212529" font-family="Arial" font-size="15" lengthAdjust="spacing" textLength="115.0635" x="1029" y="397.417">Token issuer and</text><text fill="#212529" font-family="Arial" font-size="15" lengthAdjust="spacing" textLength="146.748" x="1029" y="414.6655">human identity source</text></g><!--link project_manager to frontend--><g class="link" data-entity-1="ent0002" data-entity-2="ent0008" data-link-type="dependency" data-source-line="52" id="lnk17"><path d="M181.57,172.0586 C198.77,177.3686 217.24,183.5486 234,190.0986 C265.35,202.3586 294.4483,215.6722 323.5283,229.8922" fill="none" id="project_manager-to-frontend" style="stroke:#495057;stroke-width:1.2;"/><polygon fill="#495057" points="328.02,232.0886,321.692,224.5417,323.5283,229.8922,318.1777,231.7284,328.02,232.0886" style="stroke:#495057;stroke-width:1.2;stroke-linejoin:miter;stroke-miterlimit:10;"/><text fill="#000000" font-family="Arial" font-size="15" lengthAdjust="spacing" textLength="31.6846" x="243" y="190.1685">uses</text></g><!--link contributor to frontend--><g class="link" data-entity-1="ent0003" data-entity-2="ent0008" data-link-type="dependency" data-source-line="53" id="lnk18"><path d="M173.03,242.2286 C210.95,247.1086 257.2808,253.0514 302.0308,258.8014" fill="none" id="contributor-to-frontend" style="stroke:#495057;stroke-width:1.2;"/><polygon fill="#495057" points="306.99,259.4386,298.5732,254.3243,302.0308,258.8014,297.5536,262.259,306.99,259.4386" style="stroke:#495057;stroke-width:1.2;stroke-linejoin:miter;stroke-miterlimit:10;"/><text fill="#000000" font-family="Arial" font-size="15" lengthAdjust="spacing" textLength="31.6846" x="243" y="248.1685">uses</text></g><!--link reviewer to frontend--><g class="link" data-entity-1="ent0004" data-entity-2="ent0008" data-link-type="dependency" data-source-line="54" id="lnk19"><path d="M158.15,309.8886 C196.61,304.0086 250.8973,295.7137 301.7573,287.9437" fill="none" id="reviewer-to-frontend" style="stroke:#495057;stroke-width:1.2;"/><polygon fill="#495057" points="306.7,287.1886,297.1991,284.5937,301.7573,287.9437,298.4073,292.5019,306.7,287.1886" style="stroke:#495057;stroke-width:1.2;stroke-linejoin:miter;stroke-miterlimit:10;"/><text fill="#000000" font-family="Arial" font-size="15" lengthAdjust="spacing" textLength="31.6846" x="243" y="289.1685">uses</text></g><!--link operator to frontend--><g class="link" data-entity-1="ent0005" data-entity-2="ent0008" data-link-type="dependency" data-source-line="55" id="lnk20"><path d="M183.05,369.5686 C199.81,364.3586 217.71,358.3786 234,352.0986 C264.35,340.3986 292.3531,327.9229 320.8331,314.4029" fill="none" id="operator-to-frontend" style="stroke:#495057;stroke-width:1.2;"/><polygon fill="#495057" points="325.35,312.2586,315.5042,312.5048,320.8331,314.4029,318.935,319.7318,325.35,312.2586" style="stroke:#495057;stroke-width:1.2;stroke-linejoin:miter;stroke-miterlimit:10;"/><text fill="#000000" font-family="Arial" font-size="15" lengthAdjust="spacing" textLength="31.6846" x="243" y="333.1685">uses</text></g><!--link frontend to api--><g class="link" data-entity-1="ent0008" data-entity-2="ent0009" data-link-type="dependency" data-source-line="57" id="lnk21"><path d="M506.03,272.0986 C552.39,272.0986 601.98,272.0986 645.84,272.0986" fill="none" id="frontend-to-api" style="stroke:#495057;stroke-width:1.2;"/><polygon fill="#495057" points="650.84,272.0986,641.84,268.0986,645.84,272.0986,641.84,276.0986,650.84,272.0986" style="stroke:#495057;stroke-width:1.2;stroke-linejoin:miter;stroke-miterlimit:10;"/><text fill="#000000" font-family="Arial" font-size="15" lengthAdjust="spacing" textLength="83.335" x="537" y="268.1685">HTTP/JSON</text></g><!--link api to flow_auth--><g class="link" data-entity-1="ent0009" data-entity-2="ent0006" data-link-type="dependency" data-source-line="58" id="lnk22"><path d="M814.26,298.4286 C873.29,317.6786 948.5263,342.2188 1009.1063,361.9688" fill="none" id="api-to-flow_auth" style="stroke:#495057;stroke-width:1.2;"/><polygon fill="#495057" points="1013.86,363.5186,1006.5431,356.926,1009.1063,361.9688,1004.0634,364.532,1013.86,363.5186" style="stroke:#495057;stroke-width:1.2;stroke-linejoin:miter;stroke-miterlimit:10;"/><text fill="#000000" font-family="Arial" font-size="15" lengthAdjust="spacing" textLength="128.3936" x="845" y="307.1685">verify identity token</text></g><!--link api to authorization--><g class="link" data-entity-1="ent0009" data-entity-2="ent0010" data-link-type="dependency" data-source-line="59" id="lnk23"><path d="M814.26,272.0986 C870.12,272.0986 939.74,272.0986 998.92,272.0986" fill="none" id="api-to-authorization" style="stroke:#495057;stroke-width:1.2;"/><polygon fill="#495057" points="1003.92,272.0986,994.92,268.0986,998.92,272.0986,994.92,276.0986,1003.92,272.0986" style="stroke:#495057;stroke-width:1.2;stroke-linejoin:miter;stroke-miterlimit:10;"/><text fill="#000000" font-family="Arial" font-size="15" lengthAdjust="spacing" textLength="128.4082" x="845" y="268.1685">authorize capability</text></g><!--link authorization to postgres--><g class="link" data-entity-1="ent0010" data-entity-2="ent0015" data-link-type="dependency" data-source-line="60" id="lnk24"><path d="M1201.33,274.5986 C1386.52,279.3286 1780.2716,289.4011 1953.8816,293.8311" fill="none" id="authorization-to-postgres" style="stroke:#495057;stroke-width:1.2;"/><polygon fill="#495057" points="1958.88,293.9586,1949.985,289.7304,1953.8816,293.8311,1949.7809,297.7278,1958.88,293.9586" style="stroke:#495057;stroke-width:1.2;stroke-linejoin:miter;stroke-miterlimit:10;"/><text fill="#000000" font-family="Arial" font-size="15" lengthAdjust="spacing" textLength="123.4058" x="1519" y="279.1685">profiles and grants</text></g><!--link api to postgres--><g class="link" data-entity-1="ent0009" data-entity-2="ent0015" data-link-type="dependency" data-source-line="61" id="lnk25"><path d="M770.27,312.3386 C832.06,375.3286 963.57,490.0986 1101.5,490.0986 C1101.5,490.0986 1101.5,490.0986 1750.5,490.0986 C1837.99,490.0986 1915.7374,432.4369 1970.2074,378.7969" fill="none" id="api-to-postgres" style="stroke:#495057;stroke-width:1.2;"/><polygon fill="#495057" points="1973.77,375.2886,1964.5507,378.7535,1970.2074,378.7969,1970.164,384.4536,1973.77,375.2886" style="stroke:#495057;stroke-width:1.2;stroke-linejoin:miter;stroke-miterlimit:10;"/><text fill="#000000" font-family="Arial" font-size="15" lengthAdjust="spacing" textLength="130.8838" x="1346.5" y="486.1685">SQLAlchemy async</text></g><!--link api to storage_adapter--><g class="link" data-entity-1="ent0009" data-entity-2="ent0013" data-link-type="dependency" data-source-line="62" id="lnk26"><path d="M771.36,231.8786 C791.6,211.8886 817.72,188.3786 844,171.0986 C909.15,128.2586 927.76,115.4586 1004,99.0986 C1243.89,47.6086 1532.256,83.1791 1667.986,105.4491" fill="none" id="api-to-storage_adapter" style="stroke:#495057;stroke-width:1.2;"/><polygon fill="#495057" points="1672.92,106.2586,1664.6864,100.8542,1667.986,105.4491,1663.3911,108.7487,1672.92,106.2586" style="stroke:#495057;stroke-width:1.2;stroke-linejoin:miter;stroke-miterlimit:10;"/><text fill="#000000" font-family="Arial" font-size="15" lengthAdjust="spacing" textLength="69.1992" x="1233.5" y="69.1685">object refs</text></g><!--link api to jobs--><g class="link" data-entity-1="ent0009" data-entity-2="ent0011" data-link-type="dependency" data-source-line="63" id="lnk27"><path d="M814.26,246.8586 C870.86,229.1786 941.9476,206.9601 1001.4976,188.3501" fill="none" id="api-to-jobs" style="stroke:#495057;stroke-width:1.2;"/><polygon fill="#495057" points="1006.27,186.8586,996.4866,185.7253,1001.4976,188.3501,998.8728,193.3611,1006.27,186.8586" style="stroke:#495057;stroke-width:1.2;stroke-linejoin:miter;stroke-miterlimit:10;"/><text fill="#000000" font-family="Arial" font-size="15" lengthAdjust="spacing" textLength="95.8813" x="861.5" y="194.1685">schedule work</text></g><!--link jobs to checker--><g class="link" data-entity-1="ent0011" data-entity-2="ent0012" data-link-type="dependency" data-source-line="64" id="lnk28"><path d="M1198.53,162.6686 C1242.38,165.2386 1288.7286,167.9552 1329.8886,170.3752" fill="none" id="jobs-to-checker" style="stroke:#495057;stroke-width:1.2;"/><polygon fill="#495057" points="1334.88,170.6686,1326.1303,166.1473,1329.8886,170.3752,1325.6607,174.1335,1334.88,170.6686" style="stroke:#495057;stroke-width:1.2;stroke-linejoin:miter;stroke-miterlimit:10;"/><text fill="#000000" font-family="Arial" font-size="15" lengthAdjust="spacing" textLength="72.5317" x="1232" y="161.1685">run checks</text></g><!--link checker to postgres--><g class="link" data-entity-1="ent0012" data-entity-2="ent0015" data-link-type="dependency" data-source-line="65" id="lnk29"><path d="M1488.18,189.6386 C1606.78,212.4086 1830.6597,255.4158 1953.9797,279.0958" fill="none" id="checker-to-postgres" style="stroke:#495057;stroke-width:1.2;"/><polygon fill="#495057" points="1958.89,280.0386,1950.8058,274.4132,1953.9797,279.0958,1949.2972,282.2697,1958.89,280.0386" style="stroke:#495057;stroke-width:1.2;stroke-linejoin:miter;stroke-miterlimit:10;"/><text fill="#000000" font-family="Arial" font-size="15" lengthAdjust="spacing" textLength="44.1797" x="1727.5" y="222.1685">results</text></g><!--link checker to storage_adapter--><g class="link" data-entity-1="ent0012" data-entity-2="ent0013" data-link-type="dependency" data-source-line="66" id="lnk30"><path d="M1488.32,162.6886 C1543.49,153.6586 1612.9157,142.2964 1668.0157,133.2764" fill="none" id="checker-to-storage_adapter" style="stroke:#495057;stroke-width:1.2;"/><polygon fill="#495057" points="1672.95,132.4686,1663.422,129.9751,1668.0157,133.2764,1664.7144,137.8701,1672.95,132.4686" style="stroke:#495057;stroke-width:1.2;stroke-linejoin:miter;stroke-miterlimit:10;"/><text fill="#000000" font-family="Arial" font-size="15" lengthAdjust="spacing" textLength="94.2334" x="1533.5" y="134.1685">read evidence</text></g><!--link storage_adapter to file_store--><g class="link" data-entity-1="ent0013" data-entity-2="ent0016" data-link-type="dependency" data-source-line="67" id="lnk31"><path d="M1826.08,123.7186 C1871.7,125.9086 1924.3957,128.4398 1968.7357,130.5598" fill="none" id="storage_adapter-to-file_store" style="stroke:#495057;stroke-width:1.2;"/><polygon fill="#495057" points="1973.73,130.7986,1964.9313,126.3734,1968.7357,130.5598,1964.5492,134.3642,1973.73,130.7986" style="stroke:#495057;stroke-width:1.2;stroke-linejoin:miter;stroke-miterlimit:10;"/><text fill="#000000" font-family="Arial" font-size="15" lengthAdjust="spacing" textLength="67.5366" x="1859" y="122.1685">store/read</text></g><?plantuml-src RLPDS-983BtxLwZOuuP98CFN7BRAC75DjcOcB6HtBrIbP5j03wRRrTs6OgRslw_QNzWE759qF-b9UYs9M64JWd-LFXYh2OzmUlWmW8MI5eKa3Vy8EdjUGbiBLe4Mkxs5M6YAh53Iyyn1o1Gr-uKO7NPQPJ9Ug4Hf-2t8FmqBiyTOdONSmHOJGmqaTukKTW6dZVkOjfWbDk1ilkEHmDS2azluMlma68mQeA-rEfUvV9oD7aQJBlYw5z51aZ4m-31iW2cNWZjQsmjBuqf5kKjQ-LPtyCi3c2iTaouZ3HQJfyzZTzlLusaIZ5WF09TkUVSm7yu-3ht_cZMXnH3D3Ug7XJ-UJ6zIZuD5CEfGZn_dmqMBEafK5h_ddOwdJxERAGU3uB7BEnmCHyCPytgbJD1RaaeJwh7zD9W5VXxXAb5lgTKFFi4tb6okUu06qkBkxLZSDK8r7Bza3FVz7KcxaQubjGWpgmg6w7g-xRsY4_Tk6K-NXzkcBobfT4Jtu4UHQmW_FWgPUweAgpovyaB8Nf2eC_YPtMzadpyR-QeE944Oat4abF56xbq9868kGTWB69NfY7BUBJk_8JitXEoCOQ7eF0YwYgu8MS_VUJWjGP4yJwE1lv-hJ9O9Iaan26b9IqmsKbtDOZJxKA6EYqGqAqaoReS8q5X_-Ppt1BbA2jvlAiuIr71KKYN2xe5jDf9BXJFdxce2dILaScPCHPlKQQMq-9dd0MlI9n5HHUr7JcLkZArWWZj8L8G9x3HAQ-wA616c68h4AHdjAJgKOPgixO0BIaXVylN6Bp9thOtwKaNyd6aCsQniHZ1aivH3vToaxzmJEZ3E6FoXmYAS-zA9KjZ3AcFDTLqFj-OHBJ-2HNCesi5auP7RmrNVAA2CroPTingkAPxT2sxngjDBw9Bjcn8tRajnjELppbLUls6CAJksvhIgTqMyQsFZscl8xJN9swlUExsbCdQdoTIzLCZ3JxBBk9FTOxYA-7mjnrIoyMqnQ-x6VIlGwxZoaP4KBqUU2MUSPXRBMynYOO5EZ1JAf6KgRMc-vfqHS9k0KuchdzDUy5kzqserl5y_zYDrJ3b4w7GgTU4tqJkonG0mqPlJZUfDwbJhRAX-_uzwLE0JP8QpQkwWMtYzTMw1zMAv1NhrXKDva1ZuylgwlFzp_VBTS-VSgzeXZ9v8Y-tbkcgisqMrPMj6sBewKsEclBQHSwlqPuzgCFEXAAQoPc-OhV_wwYVS2SSBItkHKMtJQKmsLNaZyyDkhqnkk1WopC2BXlAjukMN3Yq7XGrqLasGLrrs4k6__Az16twV0-_Qc1lEgHRnBtm7ppM-TiUdd83kdPFtFm00?></g></svg>