<svg xmlns="http://www.w3.org/2000/svg" xmlns:xlink="http://www.w3.org/1999/xlink" contentStyleType="text/css" data-diagram-type="DESCRIPTION" height="782px" preserveAspectRatio="none" style="width:1245px;height:782px;background:#FFFFFF;" version="1.1" viewBox="0 0 1245 782" width="1245px" zoomAndPan="magnify"><?plantuml 1.2026.6?><defs/><g><g class="title" data-source-line="1"><text fill="#000000" font-family="Arial" font-size="14" font-weight="700" lengthAdjust="spacing" textLength="190.6133" x="524.0154" y="23.1318">Workstream System Context</text></g><!--entity project_manager--><g class="entity" data-qualified-name="project_manager" data-source-line="29" id="ent0001"><rect fill="#F1F3F5" height="96.9941" rx="4" ry="4" style="stroke:#1C7ED6;stroke-width:0.5;" width="229.2603" x="21.5" y="44.0986"/><text fill="#0B2942" font-family="Arial" font-size="15" lengthAdjust="spacing" textLength="110.0537" x="31.5" y="68.1685">Project Manager</text><line style="stroke:#1C7ED6;stroke-width:1;" x1="22.5" x2="249.7603" y1="71.3472" y2="71.3472"/><text fill="#0B2942" font-family="Arial" font-size="15" lengthAdjust="spacing" textLength="209.2603" x="31.5" y="89.417">Creates projects, guides, tasks,</text><text fill="#0B2942" font-family="Arial" font-size="15" lengthAdjust="spacing" textLength="174.2578" x="31.5" y="106.6655">and setup/checker/review/</text><text fill="#0B2942" font-family="Arial" font-size="15" lengthAdjust="spacing" textLength="141.7456" x="31.5" y="123.9141">revision configuration</text></g><!--entity finance_authority--><g class="entity" data-qualified-name="finance_authority" data-source-line="30" id="ent0002"><rect fill="#F1F3F5" height="79.7456" rx="4" ry="4" style="stroke:#1C7ED6;stroke-width:0.5;" width="258.4985" x="7" y="176.5986"/><text fill="#0B2942" font-family="Arial" font-size="15" lengthAdjust="spacing" textLength="116.7261" x="17" y="200.6685">Finance Authority</text><line style="stroke:#1C7ED6;stroke-width:1;" x1="8" x2="264.4985" y1="203.8472" y2="203.8472"/><text fill="#0B2942" font-family="Arial" font-size="15" lengthAdjust="spacing" textLength="189.2725" x="17" y="221.917">Publishes contribution policy</text><text fill="#0B2942" font-family="Arial" font-size="15" lengthAdjust="spacing" textLength="238.4985" x="17" y="239.1655">and compensation-adapter bindings</text></g><!--entity contributor--><g class="entity" data-qualified-name="contributor" data-source-line="31" id="ent0003"><rect fill="#F1F3F5" height="114.2427" rx="4" ry="4" style="stroke:#1C7ED6;stroke-width:0.5;" width="139.2529" x="66.5" y="291.5986"/><text fill="#0B2942" font-family="Arial" font-size="15" lengthAdjust="spacing" textLength="92.5488" x="76.5" y="315.6685">Human-Agent</text><text fill="#0B2942" font-family="Arial" font-size="15" lengthAdjust="spacing" textLength="74.2017" x="76.5" y="332.917">Contributor</text><line style="stroke:#1C7ED6;stroke-width:1;" x1="67.5" x2="204.7529" y1="336.0957" y2="336.0957"/><text fill="#0B2942" font-family="Arial" font-size="15" lengthAdjust="spacing" textLength="85.8398" x="76.5" y="354.1655">Claims work,</text><text fill="#0B2942" font-family="Arial" font-size="15" lengthAdjust="spacing" textLength="111.709" x="76.5" y="371.4141">submits packets,</text><text fill="#0B2942" font-family="Arial" font-size="15" lengthAdjust="spacing" textLength="119.2529" x="76.5" y="388.6626">and attests output</text></g><!--entity reviewer--><g class="entity" data-qualified-name="reviewer" data-source-line="32" id="ent0004"><rect fill="#F1F3F5" height="96.9941" rx="4" ry="4" style="stroke:#1C7ED6;stroke-width:0.5;" width="145.061" x="63.5" y="441.0986"/><text fill="#0B2942" font-family="Arial" font-size="15" lengthAdjust="spacing" textLength="62.5195" x="73.5" y="465.1685">Reviewer</text><line style="stroke:#1C7ED6;stroke-width:1;" x1="64.5" x2="207.561" y1="468.3472" y2="468.3472"/><text fill="#0B2942" font-family="Arial" font-size="15" lengthAdjust="spacing" textLength="125.061" x="73.5" y="486.417">Reviews evidence,</text><text fill="#0B2942" font-family="Arial" font-size="15" lengthAdjust="spacing" textLength="85.0635" x="73.5" y="503.6655">findings, and</text><text fill="#0B2942" font-family="Arial" font-size="15" lengthAdjust="spacing" textLength="100.8691" x="73.5" y="520.9141">checker results</text></g><!--entity operator--><g class="entity" data-qualified-name="operator" data-source-line="33" id="ent0005"><rect fill="#F1F3F5" height="79.7456" rx="4" ry="4" style="stroke:#1C7ED6;stroke-width:0.5;" width="154.231" x="59" y="573.5986"/><text fill="#0B2942" font-family="Arial" font-size="15" lengthAdjust="spacing" textLength="59.1943" x="69" y="597.6685">Operator</text><line style="stroke:#1C7ED6;stroke-width:1;" x1="60" x2="212.231" y1="600.8472" y2="600.8472"/><text fill="#0B2942" font-family="Arial" font-size="15" lengthAdjust="spacing" textLength="134.231" x="69" y="618.917">Audits and performs</text><text fill="#0B2942" font-family="Arial" font-size="15" lengthAdjust="spacing" textLength="128.3862" x="69" y="636.1655">registered recovery</text></g><!--entity access_administrator--><g class="entity" data-qualified-name="access_administrator" data-source-line="34" id="ent0006"><rect fill="#F1F3F5" height="79.7456" rx="4" ry="4" style="stroke:#1C7ED6;stroke-width:0.5;" width="220.9253" x="25.5" y="688.5986"/><text fill="#0B2942" font-family="Arial" font-size="15" lengthAdjust="spacing" textLength="140.874" x="35.5" y="712.6685">Access Administrator</text><line style="stroke:#1C7ED6;stroke-width:1;" x1="26.5" x2="245.4253" y1="715.8472" y2="715.8472"/><text fill="#0B2942" font-family="Arial" font-size="15" lengthAdjust="spacing" textLength="200.9253" x="35.5" y="733.917">Manages actors, identity links,</text><text fill="#0B2942" font-family="Arial" font-size="15" lengthAdjust="spacing" textLength="167.5854" x="35.5" y="751.1655">and administrative grants</text></g><!--entity workstream--><g class="entity" data-qualified-name="workstream" data-source-line="36" id="ent0007"><rect fill="#E7F5FF" height="96.9941" rx="4" ry="4" style="stroke:#1C7ED6;stroke-width:0.5;" width="155.9009" x="504" y="371.0986"/><text fill="#0B2942" font-family="Arial" font-size="15" lengthAdjust="spacing" textLength="80.8374" x="514" y="395.1685">Workstream</text><line style="stroke:#1C7ED6;stroke-width:1;" x1="505" x2="658.9009" y1="398.3472" y2="398.3472"/><text fill="#0B2942" font-family="Arial" font-size="15" lengthAdjust="spacing" textLength="135.9009" x="514" y="416.417">Flow task evaluation</text><text fill="#0B2942" font-family="Arial" font-size="15" lengthAdjust="spacing" textLength="106.7432" x="514" y="433.6655">and contribution</text><text fill="#0B2942" font-family="Arial" font-size="15" lengthAdjust="spacing" textLength="87.5317" x="514" y="450.9141">infrastructure</text></g><!--entity flow_auth--><g class="entity" data-qualified-name="flow_auth" data-source-line="38" id="ent0008"><path d="M1040.6672,147.8659 C1045.0476,141.4379 1050.8891,143.1944 1054.0541,149.1769 C1055.9589,143.239 1061.1083,141.7856 1065.1747,147.0265 C1069.4941,141.8815 1074.1575,142.1237 1077.2675,148.3164 C1079.1319,141.8747 1084.519,140.5083 1088.7363,146.068 C1093.303,139.8392 1097.9842,139.2015 1102.512,146.1088 C1105.2675,141.0026 1110.4215,140.3236 1113.293,145.9927 C1116.9948,140.4384 1122.9207,140.1286 1126.0826,146.5683 C1130.8203,140.8977 1134.9345,141.706 1138.555,147.757 C1142.6929,142.5478 1146.1233,142.6258 1149.1584,148.7855 C1153.4764,141.8546 1158.3542,143.0434 1162.3804,149.0829 C1168.9698,151.9461 1169.6793,158.3737 1163.169,162.0345 C1170.0344,164.6151 1169.2995,168.6606 1165.2848,173.287 C1171.6571,175.5119 1173.7792,181.015 1168.3806,186.0868 C1173.903,190.8071 1172.083,196.3055 1165.6159,198.315 C1170.9008,202.8021 1169.077,207.6886 1163.435,210.1647 C1168.3905,214.1548 1167.8393,219.604 1162.1159,222.4473 C1158.5781,229.0256 1153.0499,227.954 1149.3639,222.6058 C1147.302,228.8889 1142.2877,229.6765 1138.5374,224.1543 C1134.8648,231.3692 1129.8382,231.9215 1125.2516,225.0141 C1122.3533,230.9241 1118.6478,230.6801 1114.4901,226.3359 C1110.9318,232.6429 1105.731,234.0703 1101.3601,227.1421 C1097.5638,231.4784 1092.6304,231.1112 1089.8881,225.8786 C1086.4643,231.0635 1080.3279,231.8238 1077.2704,225.4777 C1072.3783,230.5264 1067.4461,230.9049 1064.641,223.3812 C1060.9095,228.7573 1055.6148,228.3933 1053.0552,222.2069 C1049.0643,228.7251 1044.309,228.4246 1040.5419,221.9906 C1033.5311,218.966 1032.4958,214.5666 1037.9761,209.0628 C1031.8086,206.1041 1030.2825,202.4977 1035.2966,197.0458 C1029.8965,194.1977 1029.1506,190.9812 1033.6929,186.6059 C1028.3622,181.4966 1028.3528,176.3894 1035.6515,173.1133 C1029.8296,168.0913 1032.5895,163.1785 1038.4209,160.7715 C1033.2731,156.3316 1033.2847,150.1248 1040.6672,147.8659" fill="#F1F3F5" style="stroke:#868E96;stroke-width:0.5;"/><text fill="#212529" font-family="Arial" font-size="15" lengthAdjust="spacing" textLength="84.1992" x="1047" y="168.6685">Flow Identity</text><line style="stroke:#868E96;stroke-width:1;" x1="1033" x2="1167.7505" y1="171.8472" y2="171.8472"/><text fill="#212529" font-family="Arial" font-size="15" lengthAdjust="spacing" textLength="100.0488" x="1047" y="189.917">Human identity</text><text fill="#212529" font-family="Arial" font-size="15" lengthAdjust="spacing" textLength="106.7505" x="1047" y="207.1655">and auth tokens</text></g><!--entity postgres--><g class="entity" data-qualified-name="postgres" data-source-line="39" id="ent0009"><path d="M1033.5,275.0986 C1033.5,265.0986 1100.6216,265.0986 1100.6216,265.0986 C1100.6216,265.0986 1167.7432,265.0986 1167.7432,275.0986 L1167.7432,326.5957 C1167.7432,336.5957 1100.6216,336.5957 1100.6216,336.5957 C1100.6216,336.5957 1033.5,336.5957 1033.5,326.5957 L1033.5,275.0986" fill="#E6FCF5" style="stroke:#0CA678;stroke-width:0.5;"/><path d="M1033.5,275.0986 C1033.5,285.0986 1100.6216,285.0986 1100.6216,285.0986 C1100.6216,285.0986 1167.7432,285.0986 1167.7432,275.0986" fill="none" style="stroke:#0CA678;stroke-width:0.5;"/><text fill="#063B2C" font-family="Arial" font-size="15" lengthAdjust="spacing" textLength="59.1943" x="1043.5" y="303.1685">Postgres</text><path d="M1033.5,301.3472 C1033.5,311.3472 1100.6216,311.3472 1100.6216,311.3472 C1100.6216,311.3472 1167.7432,311.3472 1167.7432,301.3472" fill="none" style="stroke:#0CA678;stroke-width:1;"/><text fill="#063B2C" font-family="Arial" font-size="15" lengthAdjust="spacing" textLength="114.2432" x="1043.5" y="324.417">Record database</text></g><!--entity storage--><g class="entity" data-qualified-name="storage" data-source-line="40" id="ent0010"><rect fill="#E6FCF5" height="96.9941" rx="4" ry="4" style="stroke:#1C7ED6;stroke-width:0.5;" width="197.5757" x="1001.5" y="371.0986"/><text fill="#0B2942" font-family="Arial" font-size="15" lengthAdjust="spacing" textLength="177.5757" x="1011.5" y="395.1685">Immutable Artifact Storage</text><line style="stroke:#1C7ED6;stroke-width:1;" x1="1002.5" x2="1198.0757" y1="398.3472" y2="398.3472"/><text fill="#0B2942" font-family="Arial" font-size="15" lengthAdjust="spacing" textLength="120.9155" x="1011.5" y="416.417">Local focused dev</text><text fill="#0B2942" font-family="Arial" font-size="15" lengthAdjust="spacing" textLength="132.5464" x="1011.5" y="433.6655">MinIO local/CI proof</text><text fill="#0B2942" font-family="Arial" font-size="15" lengthAdjust="spacing" textLength="138.4058" x="1011.5" y="450.9141">AWS S3 hosted v0.1</text></g><!--entity future_boundary--><g class="entity" data-qualified-name="future_boundary" data-source-line="42" id="ent0011"><rect fill="#FFF3BF" height="131.4912" rx="4" ry="4" style="stroke:#1C7ED6;stroke-width:0.5;" width="262.644" x="969" y="503.0986"/><text fill="#0B2942" font-family="Arial" font-size="15" lengthAdjust="spacing" textLength="168.4351" x="979" y="527.1685">Future Adapter Boundary</text><line style="stroke:#1C7ED6;stroke-width:1;" x1="970" x2="1230.644" y1="530.3472" y2="530.3472"/><text fill="#0B2942" font-family="Arial" font-size="15" lengthAdjust="spacing" textLength="135.0586" x="979" y="548.417">External task origins</text><text fill="#0B2942" font-family="Arial" font-size="15" lengthAdjust="spacing" textLength="234.3164" x="979" y="565.6655">ERC-8004 agent identity/reputation</text><text fill="#0B2942" font-family="Arial" font-size="15" lengthAdjust="spacing" textLength="210.9155" x="979" y="582.9141">ERC-8183 task contract/escrow</text><text fill="#0B2942" font-family="Arial" font-size="15" lengthAdjust="spacing" textLength="242.5781" x="979" y="600.1626">x402 / OmniClaw / USDC settlement</text><text fill="#0B2942" font-family="Arial" font-size="15" lengthAdjust="spacing" textLength="242.644" x="979" y="617.4111">Reputation and reporting consumers</text></g><!--link project_manager to workstream--><g class="link" data-entity-1="ent0001" data-entity-2="ent0007" data-link-type="dependency" data-source-line="44" id="lnk12"><path d="M250.75,126.1886 C320.98,151.1786 409.64,190.8386 474,247.5986 C512.64,281.6786 539.9349,328.5717 558.0649,366.3117" fill="none" id="project_manager-to-workstream" style="stroke:#495057;stroke-width:1.2;"/><polygon fill="#495057" points="560.23,370.8186,559.9384,360.9741,558.0649,366.3117,552.7273,364.4382,560.23,370.8186" style="stroke:#495057;stroke-width:1.2;stroke-linejoin:miter;stroke-miterlimit:10;"/><text fill="#000000" font-family="Arial" font-size="15" lengthAdjust="spacing" textLength="58.374" x="355.5" y="142.6685">operates</text></g><!--link finance_authority to workstream--><g class="link" data-entity-1="ent0002" data-entity-2="ent0007" data-link-type="dependency" data-source-line="45" id="lnk13"><path d="M255.39,256.6186 C321.21,280.5086 403.76,313.2386 474,349.5986 C486.32,355.9786 494.762,360.7555 506.902,368.3555" fill="none" id="finance_authority-to-workstream" style="stroke:#495057;stroke-width:1.2;"/><polygon fill="#495057" points="511.14,371.0086,505.6341,362.8426,506.902,368.3555,501.389,369.6234,511.14,371.0086" style="stroke:#495057;stroke-width:1.2;stroke-linejoin:miter;stroke-miterlimit:10;"/><text fill="#000000" font-family="Arial" font-size="15" lengthAdjust="spacing" textLength="177.5977" x="296" y="270.6685">governs contribution policy</text></g><!--link contributor to workstream--><g class="link" data-entity-1="ent0003" data-entity-2="ent0007" data-link-type="dependency" data-source-line="46" id="lnk14"><path d="M205.89,359.6186 C286.51,372.5086 414.7327,393.0093 498.8027,406.4493" fill="none" id="contributor-to-workstream" style="stroke:#495057;stroke-width:1.2;"/><polygon fill="#495057" points="503.74,407.2386,495.4843,401.868,498.8027,406.4493,494.2214,409.7677,503.74,407.2386" style="stroke:#495057;stroke-width:1.2;stroke-linejoin:miter;stroke-miterlimit:10;"/><text fill="#000000" font-family="Arial" font-size="15" lengthAdjust="spacing" textLength="51.6797" x="359" y="372.6685">submits</text></g><!--link reviewer to workstream--><g class="link" data-entity-1="ent0004" data-entity-2="ent0007" data-link-type="dependency" data-source-line="47" id="lnk15"><path d="M208.83,478.2786 C289.7,465.5286 415.6811,445.6676 498.7411,432.5676" fill="none" id="reviewer-to-workstream" style="stroke:#495057;stroke-width:1.2;"/><polygon fill="#495057" points="503.68,431.7886,494.1667,429.2396,498.7411,432.5676,495.4131,437.1419,503.68,431.7886" style="stroke:#495057;stroke-width:1.2;stroke-linejoin:miter;stroke-miterlimit:10;"/><text fill="#000000" font-family="Arial" font-size="15" lengthAdjust="spacing" textLength="50.8447" x="359.5" y="432.6685">reviews</text></g><!--link operator to workstream--><g class="link" data-entity-1="ent0005" data-entity-2="ent0007" data-link-type="dependency" data-source-line="48" id="lnk16"><path d="M213.08,591.4986 C282.81,569.9286 387.98,534.0686 474,490.5986 C486.93,484.0586 495.9784,478.9478 508.5684,470.9578" fill="none" id="operator-to-workstream" style="stroke:#495057;stroke-width:1.2;"/><polygon fill="#495057" points="512.79,468.2786,503.0478,469.7238,508.5684,470.9578,507.3344,476.4784,512.79,468.2786" style="stroke:#495057;stroke-width:1.2;stroke-linejoin:miter;stroke-miterlimit:10;"/><text fill="#000000" font-family="Arial" font-size="15" lengthAdjust="spacing" textLength="40.0269" x="364.5" y="486.6685">audits</text></g><!--link access_administrator to workstream--><g class="link" data-entity-1="ent0006" data-entity-2="ent0007" data-link-type="dependency" data-source-line="49" id="lnk17"><path d="M246.72,702.0486 C317.51,680.6886 408.3,644.9486 474,589.5986 C513.07,556.6786 540.3092,510.2776 558.2992,472.7376" fill="none" id="access_administrator-to-workstream" style="stroke:#495057;stroke-width:1.2;"/><polygon fill="#495057" points="560.46,468.2286,552.9634,474.6162,558.2992,472.7376,560.1777,478.0734,560.46,468.2286" style="stroke:#495057;stroke-width:1.2;stroke-linejoin:miter;stroke-miterlimit:10;"/><text fill="#000000" font-family="Arial" font-size="15" lengthAdjust="spacing" textLength="127.5439" x="321" y="585.6685">administers access</text></g><!--link workstream to flow_auth--><g class="link" data-entity-1="ent0007" data-entity-2="ent0008" data-link-type="dependency" data-source-line="51" id="lnk18"><path d="M621.16,370.9686 C639.92,349.8486 664.06,326.3786 690,310.5986 C799.46,243.9986 942.0877,210.8566 1026.9177,195.7266" fill="none" id="workstream-to-flow_auth" style="stroke:#495057;stroke-width:1.2;"/><polygon fill="#495057" points="1031.84,194.8486,1022.2775,192.491,1026.9177,195.7266,1023.6822,200.3668,1031.84,194.8486" style="stroke:#495057;stroke-width:1.2;stroke-linejoin:miter;stroke-miterlimit:10;"/><text fill="#000000" font-family="Arial" font-size="15" lengthAdjust="spacing" textLength="247.6025" x="691" y="211.6685">verifies externally issued Flow tokens</text></g><!--link workstream to postgres--><g class="link" data-entity-1="ent0007" data-entity-2="ent0009" data-link-type="dependency" data-source-line="52" id="lnk19"><path d="M660.09,399.8886 C670.14,397.3986 680.31,394.9086 690,392.5986 C810.85,363.7786 947.4845,333.6025 1028.5345,315.9525" fill="none" id="workstream-to-postgres" style="stroke:#495057;stroke-width:1.2;"/><polygon fill="#495057" points="1033.42,314.8886,1023.775,312.8953,1028.5345,315.9525,1025.4772,320.7121,1033.42,314.8886" style="stroke:#495057;stroke-width:1.2;stroke-linejoin:miter;stroke-miterlimit:10;"/><text fill="#000000" font-family="Arial" font-size="15" lengthAdjust="spacing" textLength="107.5342" x="761" y="333.6685">records lifecycle</text></g><!--link workstream to storage--><g class="link" data-entity-1="ent0007" data-entity-2="ent0010" data-link-type="dependency" data-source-line="53" id="lnk20"><path d="M660.05,419.5986 C750.88,419.5986 897,419.5986 996.2,419.5986" fill="none" id="workstream-to-storage" style="stroke:#495057;stroke-width:1.2;"/><polygon fill="#495057" points="1001.2,419.5986,992.2,415.5986,996.2,419.5986,992.2,423.5986,1001.2,419.5986" style="stroke:#495057;stroke-width:1.2;stroke-linejoin:miter;stroke-miterlimit:10;"/><text fill="#000000" font-family="Arial" font-size="15" lengthAdjust="spacing" textLength="105.0586" x="762" y="415.6685">stores evidence</text></g><!--link future_boundary to workstream--><g class="link" data-entity-1="ent0011" data-entity-2="ent0007" data-link-type="dependency" data-source-line="55" id="lnk21"><path d="M968.67,588.2486 C884.72,594.7686 775.79,591.4886 690,548.5986 C655.38,531.2986 630.5585,501.3579 612.0885,472.5479" fill="none" id="future_boundary-to-workstream" style="stroke:#495057;stroke-width:1.2;stroke-dasharray:7,7;"/><polygon fill="#495057" points="609.39,468.3386,610.88,478.0741,612.0885,472.5479,617.6148,473.7565,609.39,468.3386" style="stroke:#495057;stroke-width:1.2;stroke-linejoin:miter;stroke-miterlimit:10;"/><text fill="#000000" font-family="Arial" font-size="15" lengthAdjust="spacing" textLength="89.2163" x="770" y="544.6685">source intake</text></g><!--link workstream to future_boundary--><g class="link" data-entity-1="ent0007" data-entity-2="ent0011" data-link-type="dependency" data-source-line="56" id="lnk22"><path d="M660.05,441.8286 C741.46,465.3086 866.4959,501.3828 963.9759,529.5028" fill="none" id="workstream-to-future_boundary" style="stroke:#495057;stroke-width:1.2;stroke-dasharray:7,7;"/><polygon fill="#495057" points="968.78,530.8886,961.2413,524.5508,963.9759,529.5028,959.0239,532.2374,968.78,530.8886" style="stroke:#495057;stroke-width:1.2;stroke-linejoin:miter;stroke-miterlimit:10;"/><text fill="#000000" font-family="Arial" font-size="15" lengthAdjust="spacing" textLength="104.2456" x="762.5" y="448.6685">adapter outputs</text></g><?plantuml-src RLLTRoet47tVNs6bho5yXOJSXqh01JLIsqIXrNr1YepNkxZisiWV46xL_zvZxoSBl03hyPcPC-VCMc4pJduelJTMSvgJzTbOdfE5afP_sIZAU6A9LKIBT6T9B3HdLYWPHMOlv85gNDbIja-rSZ9Ug4nfyiigV5eHPaTZTH8o9GdD36-TX6jCQSarcRQUnpoXBhChbF4dpJcPQK6ps-ThyPEJuQHrEDDQdSfQ7bycWybpz_2ldM1xoOqXmuTHw_20LcZAr_OCLdohLARPHRtLC_9lHCXSwPZhCjDmyRpy_kIVTlbOFgycu8CGNsxvR30VlJoEel_QFL5BjzJSW1uiPa_FqvlGJwl5QjA1VXhFHuiBQ9Of5r_ZJf-covUR9Q-6gt4NTpGSJKOlm8qQ5kxUjVe7_yWVL88ulP4zV3Po0J5PRiYXE3Rt97KYvlYsrEpD_KPI6HF3hJlqsOwpFTTzpO-2d_eRwNyOY8mm9HEHEaszvEu8hV4-yo9TNMYhefK0DeDadDqfBUovgkdTRJDXTgWAk5QBhVEmvA0omSv5GKpb1ovDoDUZCJrOvDWA6KEx9XIG5EYVj4A_LS9l3lNrPYcN5bHKoLJ3JaP5RiW9jWCJncrpOKqG7xSLDzI2FpnLpXwS3RbPWtGhwqVWhvb1yTyGVCKSDGCuALkv9qYnaINpKBM1cOe6TOboAyFRWMCMJHyp5_l2VRauIPJEZPzUAh13D8-zMzIHwtC0LkNbMy0pnhmPPt4k92vV92cKXImC3r6vRyPwuZCXQoNHvgOuSf9gAij-Q83-f6tekeHs3SqIh3AlCdKAUWM5D7D15PLE6W5jf929fhZgc7MQXwodPgDMzeyA4zu5rDUoYIfLK4pTMjaJ98RLkuSW2-dXOj1TL6-AktTbR8hnDJF7CethLL9ufenfD_kQvmuXcT-iLYJWbgn138Yka7vNZ6OaKSmPJ3BcHqn2oDStalc3_kBLUr4b4C6FDLcFoGvP47WSF0n3LbF0rIlgmgBE4uLn5mQR-yL3TKt6yWjF9R87xk6oL4XqkFnOzAQ3mIEXtbWrMTWRC4Wvd10pd8wBgs5CwAtF3SFMtyYlny68zCbRBWKyUCBFlzVV5tuFuJMO1xj-r6X1rm1NO0YlBe0PbtDT3YEqyBajImyllV4SK-vkg5xlrxOQlfK-m3YkLybLREhj8sykhAYz3QukbZibgjry5L6ScAYsvLK43UwERXheEhWy1Z-bvQAe5U3ZQ_qY76s9HC3Ll9nrTYR260S55QuBikyYL4eEvNkX6oo1XBCpmqkw4rlfxrlunPir64NTsJqyTDbJJkCD8gIb-mjW7zczxNilT5oiQXFz3m00?></g></svg>