<?xml version="1.0" encoding="UTF-8" standalone="no"?><svg xmlns="http://www.w3.org/2000/svg" xmlns:xlink="http://www.w3.org/1999/xlink" contentScriptType="application/ecmascript" contentStyleType="text/css" height="499px" preserveAspectRatio="none" style="width:2375px;height:499px;" version="1.1" viewBox="0 0 2375 499" width="2375px" zoomAndPan="magnify"><defs/><g><text fill="#000000" font-family="Arial" font-size="15" lengthAdjust="spacingAndGlyphs" textLength="214" x="1091.5" y="14.0698">Workstream v0.1 Container View</text><!--MD5=[7800e5c124ef25a8d30c52515fe6f662]
cluster People--><path d="M26,92.2485 L74,92.2485 A6,6 0 0 1 78,96.2485 L85,115.4971 L234,115.4971 A4,4 0 0 1 238,119.4971 L238,412.2485 A4,4 0 0 1 234,416.2485 L26,416.2485 A4,4 0 0 1 22,412.2485 L22,96.2485 A4,4 0 0 1 26,92.2485 " fill="#F8F9FA" style="stroke: #000000; stroke-width: 1.5;"/><line style="stroke: #000000; stroke-width: 1.5;" x1="22" x2="85" y1="115.4971" y2="115.4971"/><text fill="#000000" font-family="Arial" font-size="15" font-weight="bold" lengthAdjust="spacingAndGlyphs" textLength="50" x="26" y="108.3184">People</text><!--MD5=[87b12a90d835ec12e5cfe48ffadd849a]
cluster Workstream v0.1--><path d="M308,41.2485 L423,41.2485 A6,6 0 0 1 427,45.2485 L434,64.4971 L2027,64.4971 A4,4 0 0 1 2031,68.4971 L2031,321.2485 A4,4 0 0 1 2027,325.2485 L308,325.2485 A4,4 0 0 1 304,321.2485 L304,45.2485 A4,4 0 0 1 308,41.2485 " fill="#F8FBFF" style="stroke: #000000; stroke-width: 1.5;"/><line style="stroke: #000000; stroke-width: 1.5;" x1="304" x2="434" y1="64.4971" y2="64.4971"/><text fill="#000000" font-family="Arial" font-size="15" font-weight="bold" lengthAdjust="spacingAndGlyphs" textLength="117" x="308" y="57.3184">Workstream v0.1</text><!--MD5=[3e2793211ebac9f6c38c928c142ec2b1]
cluster Durable Records--><path d="M2135,55.2485 L2253,55.2485 A6,6 0 0 1 2257,59.2485 L2264,78.4971 L2359,78.4971 A4,4 0 0 1 2363,82.4971 L2363,376.2485 A4,4 0 0 1 2359,380.2485 L2135,380.2485 A4,4 0 0 1 2131,376.2485 L2131,59.2485 A4,4 0 0 1 2135,55.2485 " fill="#F2FBF7" style="stroke: #000000; stroke-width: 1.5;"/><line style="stroke: #000000; stroke-width: 1.5;" x1="2131" x2="2264" y1="78.4971" y2="78.4971"/><text fill="#000000" font-family="Arial" font-size="15" font-weight="bold" lengthAdjust="spacingAndGlyphs" textLength="120" x="2135" y="71.3184">Durable Records</text><!--MD5=[e4d9b16ce700f5526a6421bf59dc0657]
entity project_manager--><rect fill="#F1F3F5" height="37.2485" rx="4" ry="4" style="stroke: #1C7ED6; stroke-width: 1.5;" width="126" x="67" y="128.7485"/><text fill="#0B2942" font-family="Arial" font-size="15" lengthAdjust="spacingAndGlyphs" textLength="106" x="77" y="152.8184">Project Manager</text><!--MD5=[9a62c7632a3e12d2b4ef62c23371a6aa]
entity contributor--><rect fill="#F1F3F5" height="54.4971" rx="4" ry="4" style="stroke: #1C7ED6; stroke-width: 1.5;" width="109" x="75.5" y="201.2485"/><text fill="#0B2942" font-family="Arial" font-size="15" lengthAdjust="spacingAndGlyphs" textLength="89" x="85.5" y="225.3184">Human-Agent</text><text fill="#0B2942" font-family="Arial" font-size="15" lengthAdjust="spacingAndGlyphs" textLength="72" x="85.5" y="242.5669">Contributor</text><!--MD5=[da6ed71e162b42f7b344d0f64d75f986]
entity reviewer--><rect fill="#F1F3F5" height="37.2485" rx="4" ry="4" style="stroke: #1C7ED6; stroke-width: 1.5;" width="81" x="89.5" y="290.7485"/><text fill="#0B2942" font-family="Arial" font-size="15" lengthAdjust="spacingAndGlyphs" textLength="61" x="99.5" y="314.8184">Reviewer</text><!--MD5=[0050c6625e3b42e2857ba4d8ed699679]
entity operator--><rect fill="#F1F3F5" height="37.2485" rx="4" ry="4" style="stroke: #1C7ED6; stroke-width: 1.5;" width="184" x="38" y="362.7485"/><text fill="#0B2942" font-family="Arial" font-size="15" lengthAdjust="spacingAndGlyphs" textLength="164" x="48" y="386.8184">Operator / Access Admin</text><!--MD5=[b1e3d2dcb3697de9e6328d1cb436cbc4]
entity frontend--><rect fill="#E7F5FF" height="79.7456" rx="4" ry="4" style="stroke: #1C7ED6; stroke-width: 1.5;" width="193" x="320" y="229.2485"/><text fill="#0B2942" font-family="Arial" font-size="15" lengthAdjust="spacingAndGlyphs" textLength="173" x="330" y="253.3184">React + Vite Operations UI</text><line style="stroke: #1C7ED6; stroke-width: 1.0;" x1="321" x2="512" y1="256.4971" y2="256.4971"/><text fill="#0B2942" font-family="Arial" font-size="15" lengthAdjust="spacingAndGlyphs" textLength="104" x="336" y="274.5669">Planned internal</text><text fill="#0B2942" font-family="Arial" font-size="15" lengthAdjust="spacingAndGlyphs" textLength="141" x="336" y="291.8154">operations dashboard</text><!--MD5=[e2307af040e3f87d22824e7603ca28ec]
entity api--><rect fill="#E7F5FF" height="79.7456" rx="4" ry="4" style="stroke: #1C7ED6; stroke-width: 1.5;" width="168" x="656" y="229.2485"/><text fill="#0B2942" font-family="Arial" font-size="15" lengthAdjust="spacingAndGlyphs" textLength="112" x="666" y="253.3184">FastAPI Backend</text><line style="stroke: #1C7ED6; stroke-width: 1.0;" x1="657" x2="823" y1="256.4971" y2="256.4971"/><text fill="#0B2942" font-family="Arial" font-size="15" lengthAdjust="spacingAndGlyphs" textLength="136" x="672" y="274.5669">Modular monolith API</text><text fill="#0B2942" font-family="Arial" font-size="15" lengthAdjust="spacingAndGlyphs" textLength="121" x="672" y="291.8154">and workflow rules</text><!--MD5=[4c8b68244c4c53aaa007eabd84727103]
entity authorization--><rect fill="#E7F5FF" height="79.7456" rx="4" ry="4" style="stroke: #1C7ED6; stroke-width: 1.5;" width="204" x="1010" y="229.2485"/><text fill="#0B2942" font-family="Arial" font-size="15" lengthAdjust="spacingAndGlyphs" textLength="137" x="1020" y="253.3184">Authorization Service</text><line style="stroke: #1C7ED6; stroke-width: 1.0;" x1="1011" x2="1213" y1="256.4971" y2="256.4971"/><text fill="#0B2942" font-family="Arial" font-size="15" lengthAdjust="spacingAndGlyphs" textLength="172" x="1026" y="274.5669">Actor profiles, local grants,</text><text fill="#0B2942" font-family="Arial" font-size="15" lengthAdjust="spacingAndGlyphs" textLength="139" x="1026" y="291.8154">and capability checks</text><!--MD5=[02166ec8b5dc17ca1006903c442c31f1]
entity jobs--><rect fill="#E7F5FF" height="79.7456" rx="4" ry="4" style="stroke: #1C7ED6; stroke-width: 1.5;" width="200" x="1012" y="114.2485"/><text fill="#0B2942" font-family="Arial" font-size="15" lengthAdjust="spacingAndGlyphs" textLength="160" x="1022" y="138.3184">Celery Worker Boundary</text><line style="stroke: #1C7ED6; stroke-width: 1.0;" x1="1013" x2="1211" y1="141.4971" y2="141.4971"/><text fill="#0B2942" font-family="Arial" font-size="15" lengthAdjust="spacingAndGlyphs" textLength="143" x="1028" y="159.5669">Durable project setup,</text><text fill="#0B2942" font-family="Arial" font-size="15" lengthAdjust="spacingAndGlyphs" textLength="168" x="1028" y="176.8154">checker, and product jobs</text><!--MD5=[2f9795ea503557699cddd4010d0870e5]
entity checker--><rect fill="#E7F5FF" height="79.7456" rx="4" ry="4" style="stroke: #1C7ED6; stroke-width: 1.5;" width="161" x="1431" y="132.2485"/><text fill="#0B2942" font-family="Arial" font-size="15" lengthAdjust="spacingAndGlyphs" textLength="107" x="1441" y="156.3184">Checker Runner</text><line style="stroke: #1C7ED6; stroke-width: 1.0;" x1="1432" x2="1591" y1="159.4971" y2="159.4971"/><text fill="#0B2942" font-family="Arial" font-size="15" lengthAdjust="spacingAndGlyphs" textLength="129" x="1447" y="177.5669">Automated task and</text><text fill="#0B2942" font-family="Arial" font-size="15" lengthAdjust="spacingAndGlyphs" textLength="126" x="1447" y="194.8154">submission checks</text><!--MD5=[9ba089fae273e65f7b5fa5eec55cf257]
entity storage_adapter--><rect fill="#E7F5FF" height="79.7456" rx="4" ry="4" style="stroke: #1C7ED6; stroke-width: 1.5;" width="195" x="1820" y="77.2485"/><text fill="#0B2942" font-family="Arial" font-size="15" lengthAdjust="spacingAndGlyphs" textLength="153" x="1830" y="101.3184">Artifact Storage Service</text><line style="stroke: #1C7ED6; stroke-width: 1.0;" x1="1821" x2="2014" y1="104.4971" y2="104.4971"/><text fill="#0B2942" font-family="Arial" font-size="15" lengthAdjust="spacingAndGlyphs" textLength="149" x="1836" y="122.5669">Admission, verification,</text><text fill="#0B2942" font-family="Arial" font-size="15" lengthAdjust="spacingAndGlyphs" textLength="163" x="1836" y="139.8154">binding, and provider port</text><!--MD5=[0e1fecc31e3549f2a1667c6349b56d9e]
entity postgres--><path d="M2147,216.2485 C2147,206.2485 2247,206.2485 2247,206.2485 C2247,206.2485 2347,206.2485 2347,216.2485 L2347,353.9883 C2347,363.9883 2247,363.9883 2247,363.9883 C2247,363.9883 2147,363.9883 2147,353.9883 L2147,216.2485 " fill="#E6FCF5" style="stroke: #0CA678; stroke-width: 1.5;"/><path d="M2147,216.2485 C2147,226.2485 2247,226.2485 2247,226.2485 C2247,226.2485 2347,226.2485 2347,216.2485 " fill="none" style="stroke: #0CA678; stroke-width: 1.5;"/><text fill="#063B2C" font-family="Arial" font-size="15" lengthAdjust="spacingAndGlyphs" textLength="59" x="2157" y="244.3184">Postgres</text><path d="M2147,242.4971 C2147,252.4971 2247,252.4971 2247,252.4971 C2247,252.4971 2347,252.4971 2347,242.4971 " fill="none" style="stroke: #0CA678; stroke-width: 1.0;"/><text fill="#063B2C" font-family="Arial" font-size="15" lengthAdjust="spacingAndGlyphs" textLength="109" x="2163" y="265.5669">Projects, guides,</text><text fill="#063B2C" font-family="Arial" font-size="15" lengthAdjust="spacingAndGlyphs" textLength="130" x="2163" y="282.8154">tasks, submissions,</text><text fill="#063B2C" font-family="Arial" font-size="15" lengthAdjust="spacingAndGlyphs" textLength="109" x="2163" y="300.064">checks, reviews,</text><text fill="#063B2C" font-family="Arial" font-size="15" lengthAdjust="spacingAndGlyphs" textLength="145" x="2163" y="317.3125">revisions, contribution,</text><text fill="#063B2C" font-family="Arial" font-size="15" lengthAdjust="spacingAndGlyphs" textLength="168" x="2163" y="334.561">compensation, reputation,</text><text fill="#063B2C" font-family="Arial" font-size="15" lengthAdjust="spacingAndGlyphs" textLength="78" x="2163" y="351.8096">audit events</text><!--MD5=[986bdfb10df31212cfc6f8e81305bf50]
entity file_store--><rect fill="#E6FCF5" height="79.7456" rx="4" ry="4" style="stroke: #1C7ED6; stroke-width: 1.5;" width="184" x="2155" y="91.2485"/><text fill="#0B2942" font-family="Arial" font-size="15" lengthAdjust="spacingAndGlyphs" textLength="131" x="2165" y="115.3184">Private Object Store</text><text fill="#0B2942" font-family="Arial" font-size="15" lengthAdjust="spacingAndGlyphs" textLength="129" x="2165" y="132.5669">Behind ArtifactStore</text><line style="stroke: #1C7ED6; stroke-width: 1.0;" x1="2156" x2="2338" y1="135.7456" y2="135.7456"/><text fill="#0B2942" font-family="Arial" font-size="15" lengthAdjust="spacingAndGlyphs" textLength="152" x="2171" y="153.8154">Local / MinIO / AWS S3</text><!--MD5=[4943a2d735eb2304ff96892afb0c6d73]
entity flow_auth--><path d="M1028.1686,353.0515 C1031.5237,347.0911 1037.1648,348.0107 1040.4049,353.178 C1043.921,347.9339 1048.6912,348.2152 1051.942,353.4695 C1055.189,347.9981 1059.8557,347.5624 1063.9225,352.5284 C1067.4314,346.584 1074.3455,344.6193 1078.0459,352.3304 C1080.3134,346.9641 1085.731,346.8506 1089.1479,350.9876 C1093.6223,344.9283 1097.6752,345.0138 1102.2297,350.8999 C1105.8362,346.6502 1109.7662,346.2253 1112.9908,351.3389 C1117.021,346.1245 1120.8796,346.5498 1124.2178,352.063 C1127.8857,345.9227 1132.3486,344.0808 1137.2584,350.804 C1141.0457,345.2299 1146.5476,346.4958 1149.1952,352.0288 C1152.533,345.7314 1158.1679,346.4761 1161.5432,351.9897 C1165.2237,346.7099 1170.4693,347.2494 1172.452,353.5844 C1175.2864,346.4231 1182.0907,346.3119 1186.0464,352.4372 C1189.3293,346.1769 1194.8109,347.3019 1197.7978,352.7348 C1204.9545,355.1943 1204.591,361.3458 1199.6876,365.5796 C1204.5752,369.2651 1203.8809,373.9051 1198.8816,376.8858 C1205.2916,380.5655 1206.4826,386.3764 1200.0316,391.0968 C1205.4663,394.7753 1205.7346,401.024 1198.7568,403.4183 C1204.0535,406.9064 1204.5514,411.2987 1199.6797,415.5597 C1205.5688,420.1446 1203.4739,425.1039 1197.5918,427.6572 C1194.3235,433.1528 1190.2669,434.0083 1186.4729,428.1731 C1182.7543,433.9003 1178.5162,435.6112 1173.7712,429.2517 C1170.1272,435.5679 1164.9743,433.7001 1161.8115,428.7412 C1158.3611,435.931 1153.5502,435.4135 1148.8544,430.0241 C1146.0768,436.4076 1140.0346,436.498 1136.562,430.727 C1134.0679,435.9457 1128.4638,436.2955 1125.2221,431.5805 C1121.3707,436.7233 1117.0705,435.689 1113.9604,430.7522 C1108.4792,437.3568 1104.1019,436.5744 1099.9882,429.3687 C1096.4763,434.8721 1092.8403,435.9515 1088.0193,430.8456 C1082.9699,435.6052 1079.6306,433.9452 1076.5841,428.5829 C1072.1585,434.5384 1068.3081,434.2466 1063.9079,428.5552 C1060.897,433.5901 1055.698,435.0151 1052.2058,429.0681 C1048.1188,434.9217 1042.6444,433.6318 1039.9679,427.614 C1036.703,432.3771 1030.9618,433.2602 1028.1152,427.1578 C1023.3198,423.7298 1022.9829,419.7606 1027.6877,415.9696 C1020.4195,413.0822 1019.3547,408.4454 1025.4412,403.2071 C1019.0562,399.504 1017.0019,394.7054 1023.8569,389.4747 C1020.1206,385.5082 1020.2949,381.0079 1025.8664,378.7924 C1020.2784,373.4775 1019.9242,368.4589 1027.82,365.0626 C1022.6537,361.0424 1022.0174,356.7433 1028.1686,353.0515 " fill="#F1F3F5" style="stroke: #868E96; stroke-width: 1.5;"/><text fill="#212529" font-family="Arial" font-size="15" lengthAdjust="spacingAndGlyphs" textLength="64" x="1034.5" y="373.3184">Flow Auth</text><line style="stroke: #868E96; stroke-width: 1.0;" x1="1020.5" x2="1203.5" y1="376.4971" y2="376.4971"/><text fill="#212529" font-family="Arial" font-size="15" lengthAdjust="spacingAndGlyphs" textLength="112" x="1040.5" y="394.5669">Token issuer and</text><text fill="#212529" font-family="Arial" font-size="15" lengthAdjust="spacingAndGlyphs" textLength="143" x="1040.5" y="411.8154">human identity source</text><!--MD5=[033e6ad22de3874dc7ee329c27707175]
link project_manager to frontend--><path d="M193.14,164.6285 C210.46,170.0285 229.14,176.3885 246,183.2485 C276.9,195.8185 309.83,211.8785 338.36,226.6985 " fill="none" id="project_manager-&gt;frontend" style="stroke: #495057; stroke-width: 1.2;"/><polygon fill="#495057" points="342.9,229.0685,336.7761,221.3551,338.4686,226.7528,333.0709,228.4453,342.9,229.0685" style="stroke: #495057; stroke-width: 1.2;"/><text fill="#000000" font-family="Arial" font-size="15" lengthAdjust="spacingAndGlyphs" textLength="32" x="255" y="183.3184">uses</text><!--MD5=[3775bb662c854c1f5320edfa92093e22]
link contributor to frontend--><path d="M184.51,235.9585 C221.17,241.2385 270.91,248.4085 314.85,254.7385 " fill="none" id="contributor-&gt;frontend" style="stroke: #495057; stroke-width: 1.2;"/><polygon fill="#495057" points="319.9,255.4685,311.5646,250.2225,314.9514,254.7534,310.4204,258.1402,319.9,255.4685" style="stroke: #495057; stroke-width: 1.2;"/><text fill="#000000" font-family="Arial" font-size="15" lengthAdjust="spacingAndGlyphs" textLength="32" x="255" y="243.3184">uses</text><!--MD5=[76f04c771fba104c909fc4eaecf3920a]
link reviewer to frontend--><path d="M170.52,307.3585 C202.36,305.5085 248.22,302.0885 288,296.2485 C296.69,294.9785 305.67,293.4685 314.67,291.8185 " fill="none" id="reviewer-&gt;frontend" style="stroke: #495057; stroke-width: 1.2;"/><polygon fill="#495057" points="319.66,290.8985,310.0802,288.6122,314.7443,291.8131,311.5435,296.4772,319.66,290.8985" style="stroke: #495057; stroke-width: 1.2;"/><text fill="#000000" font-family="Arial" font-size="15" lengthAdjust="spacingAndGlyphs" textLength="32" x="255" y="292.3184">uses</text><!--MD5=[d53404854f8c5417cc6b7811f274d9b8]
link operator to frontend--><path d="M194.36,362.6785 C211.25,357.3885 229.42,351.3785 246,345.2485 C272.77,335.3485 301.28,323.2185 327.14,311.5685 " fill="none" id="operator-&gt;frontend" style="stroke: #495057; stroke-width: 1.2;"/><polygon fill="#495057" points="331.94,309.4085,322.0913,309.4657,327.3828,311.4657,325.3828,316.7572,331.94,309.4085" style="stroke: #495057; stroke-width: 1.2;"/><text fill="#000000" font-family="Arial" font-size="15" lengthAdjust="spacingAndGlyphs" textLength="32" x="255" y="327.3184">uses</text><!--MD5=[c00afe3db0c8ea2b21346873462b2a20]
link frontend to api--><path d="M513.09,269.2485 C556.67,269.2485 607.93,269.2485 650.61,269.2485 " fill="none" id="frontend-&gt;api" style="stroke: #495057; stroke-width: 1.2;"/><polygon fill="#495057" points="655.77,269.2485,646.77,265.2485,650.77,269.2485,646.77,273.2485,655.77,269.2485" style="stroke: #495057; stroke-width: 1.2;"/><text fill="#000000" font-family="Arial" font-size="15" lengthAdjust="spacingAndGlyphs" textLength="81" x="544" y="265.3184">HTTP/JSON</text><!--MD5=[d9b9e48a8272b59514483353fb9eee21]
link api to flow_auth--><path d="M824.04,296.1785 C880.51,314.4985 955.41,338.7885 1014.53,357.9585 " fill="none" id="api-&gt;flow_auth" style="stroke: #495057; stroke-width: 1.2;"/><polygon fill="#495057" points="1019.48,359.5685,1012.153,352.9871,1014.7239,358.026,1009.685,360.5969,1019.48,359.5685" style="stroke: #495057; stroke-width: 1.2;"/><text fill="#000000" font-family="Arial" font-size="15" lengthAdjust="spacingAndGlyphs" textLength="122" x="856" y="304.3184">verify identity token</text><!--MD5=[f1a8abbf0fdbe4847c8bd5d8dd329172]
link api to authorization--><path d="M824.04,269.2485 C877.4,269.2485 947.21,269.2485 1004.62,269.2485 " fill="none" id="api-&gt;authorization" style="stroke: #495057; stroke-width: 1.2;"/><polygon fill="#495057" points="1009.79,269.2485,1000.79,265.2485,1004.79,269.2485,1000.79,273.2485,1009.79,269.2485" style="stroke: #495057; stroke-width: 1.2;"/><text fill="#000000" font-family="Arial" font-size="15" lengthAdjust="spacingAndGlyphs" textLength="124" x="855" y="265.3184">authorize capability</text><!--MD5=[9fe5ba6c09c2279bd45ee4277bba56c9]
link authorization to postgres--><path d="M1214.04,270.6785 C1427.95,273.6985 1924.64,280.7085 2141.53,283.7685 " fill="none" id="authorization-&gt;postgres" style="stroke: #495057; stroke-width: 1.2;"/><polygon fill="#495057" points="2146.6,283.8485,2137.6581,279.7204,2141.6005,283.7771,2137.5438,287.7196,2146.6,283.8485" style="stroke: #495057; stroke-width: 1.2;"/><text fill="#000000" font-family="Arial" font-size="15" lengthAdjust="spacingAndGlyphs" textLength="120" x="1646" y="273.3184">profiles and grants</text><!--MD5=[cd83b3c44c7b7f318af569b0a483990c]
link api to postgres--><path d="M778.01,309.4885 C840.2,372.4785 972.51,487.2485 1111,487.2485 C1111,487.2485 1111,487.2485 1918.5,487.2485 C2014.26,487.2485 2105.47,423.9085 2167.2,368.1685 " fill="none" id="api-&gt;postgres" style="stroke: #495057; stroke-width: 1.2;"/><polygon fill="#495057" points="2171.22,364.5085,2161.8734,367.6136,2167.5242,367.8762,2167.2616,373.5269,2171.22,364.5085" style="stroke: #495057; stroke-width: 1.2;"/><text fill="#000000" font-family="Arial" font-size="15" lengthAdjust="spacingAndGlyphs" textLength="129" x="1447" y="483.3184">SQLAlchemy async</text><!--MD5=[550a6eca4a521ae4e174bde1a980a213]
link api to storage_adapter--><path d="M781.78,229.1885 C802.38,210.2085 828.39,188.0785 854,171.2485 C918.29,129.0085 934.99,113.3385 1010,96.2485 C1295.73,31.1285 1645.27,71.8285 1814.72,98.8785 " fill="none" id="api-&gt;storage_adapter" style="stroke: #495057; stroke-width: 1.2;"/><polygon fill="#495057" points="1819.68,99.6685,1811.4347,94.282,1814.7442,98.8697,1810.1565,102.1792,1819.68,99.6685" style="stroke: #495057; stroke-width: 1.2;"/><text fill="#000000" font-family="Arial" font-size="15" lengthAdjust="spacingAndGlyphs" textLength="155" x="1245" y="58.3184">typed artifact operations</text><!--MD5=[d4e9ad8ff581b57a6983e845e0fbe02f]
link api to jobs--><path d="M824.04,243.4385 C878.12,226.6285 949.12,204.5585 1006.97,186.5785 " fill="none" id="api-&gt;jobs" style="stroke: #495057; stroke-width: 1.2;"/><polygon fill="#495057" points="1011.81,185.0785,1002.0277,183.9351,1007.0361,186.565,1004.4061,191.5734,1011.81,185.0785" style="stroke: #495057; stroke-width: 1.2;"/><text fill="#000000" font-family="Arial" font-size="15" lengthAdjust="spacingAndGlyphs" textLength="94" x="870" y="194.3184">schedule work</text><!--MD5=[cd77fa0ab81476e13793cb36a39cb2f7]
link jobs to checker--><path d="M1212.02,158.7285 C1277.67,161.7085 1362.9,165.5685 1425.47,168.3985 " fill="none" id="jobs-&gt;checker" style="stroke: #495057; stroke-width: 1.2;"/><polygon fill="#495057" points="1430.69,168.6385,1421.8821,164.2317,1425.6952,168.4102,1421.5167,172.2234,1430.69,168.6385" style="stroke: #495057; stroke-width: 1.2;"/><text fill="#000000" font-family="Arial" font-size="15" lengthAdjust="spacingAndGlyphs" textLength="72" x="1286.5" y="157.3184">run checks</text><!--MD5=[fb011a12cf72e92f309c1011b7979491]
link checker to postgres--><path d="M1592.04,184.4985 C1725.28,205.0285 1993.49,246.3485 2141.68,269.1785 " fill="none" id="checker-&gt;postgres" style="stroke: #495057; stroke-width: 1.2;"/><polygon fill="#495057" points="2146.9,269.9785,2138.6094,264.6619,2141.9576,269.2215,2137.3981,272.5697,2146.9,269.9785" style="stroke: #495057; stroke-width: 1.2;"/><text fill="#000000" font-family="Arial" font-size="15" lengthAdjust="spacingAndGlyphs" textLength="44" x="1895.5" y="217.3184">results</text><!--MD5=[71230a0264e8ddc1b5a9d306e69452fa]
link checker to storage_adapter--><path d="M1592.32,161.3785 C1655.97,152.7185 1745.54,140.5185 1814.41,131.1485 " fill="none" id="checker-&gt;storage_adapter" style="stroke: #495057; stroke-width: 1.2;"/><polygon fill="#495057" points="1819.75,130.4185,1810.2946,127.6627,1814.7952,131.0896,1811.3683,135.5903,1819.75,130.4185" style="stroke: #495057; stroke-width: 1.2;"/><text fill="#000000" font-family="Arial" font-size="15" lengthAdjust="spacingAndGlyphs" textLength="166" x="1623" y="131.3184">materialize exact artifacts</text><!--MD5=[6b55e2f4c021d0bb2db0ad2da7895e70]
link storage_adapter to file_store--><path d="M2015.43,121.3885 C2057.84,123.2085 2107.47,125.3285 2149.8,127.1385 " fill="none" id="storage_adapter-&gt;file_store" style="stroke: #495057; stroke-width: 1.2;"/><polygon fill="#495057" points="2154.93,127.3585,2146.1095,122.9768,2149.9346,127.1444,2145.767,130.9695,2154.93,127.3585" style="stroke: #495057; stroke-width: 1.2;"/><text fill="#000000" font-family="Arial" font-size="15" lengthAdjust="spacingAndGlyphs" textLength="66" x="2048" y="119.3184">store/read</text><!--MD5=[d8ad4c3c53c41e60a5c8d95a51d0b2c4]
@startuml workstream_v01_container
title Workstream v0.1 Container View

left to right direction

skinparam backgroundColor #FFFFFF
skinparam shadowing false
skinparam roundcorner 8
skinparam defaultFontName Arial
skinparam defaultFontSize 15
skinparam ArrowColor #495057
skinparam ArrowThickness 1.2
skinparam packageStyle rectangle
skinparam rectangle {
  BorderColor #1C7ED6
  BackgroundColor #E7F5FF
  FontColor #0B2942
}
skinparam database {
  BorderColor #0CA678
  BackgroundColor #E6FCF5
  FontColor #063B2C
}
skinparam cloud {
  BorderColor #868E96
  BackgroundColor #F1F3F5
  FontColor #212529
}

package "People" #F8F9FA {
  rectangle "Project Manager" as project_manager #F1F3F5
  rectangle "Human-Agent\nContributor" as contributor #F1F3F5
  rectangle "Reviewer" as reviewer #F1F3F5
  rectangle "Operator / Access Admin" as operator #F1F3F5
}

cloud "Flow Auth\n- - - -\nToken issuer and\nhuman identity source" as flow_auth

package "Workstream v0.1" #F8FBFF {
  rectangle "React + Vite Operations UI\n- - - -\nPlanned internal\noperations dashboard" as frontend
  rectangle "FastAPI Backend\n- - - -\nModular monolith API\nand workflow rules" as api
  rectangle "Authorization Service\n- - - -\nActor profiles, local grants,\nand capability checks" as authorization
  rectangle "Celery Worker Boundary\n- - - -\nDurable project setup,\nchecker, and product jobs" as jobs
  rectangle "Checker Runner\n- - - -\nAutomated task and\nsubmission checks" as checker
  rectangle "Artifact Storage Service\n- - - -\nAdmission, verification,\nbinding, and provider port" as storage_adapter
}

package "Durable Records" #F2FBF7 {
  database "Postgres\n- - - -\nProjects, guides,\ntasks, submissions,\nchecks, reviews,\nrevisions, contribution,\ncompensation, reputation,\naudit events" as postgres
  rectangle "Private Object Store\nBehind ArtifactStore\n- - - -\nLocal / MinIO / AWS S3" as file_store #E6FCF5
}

project_manager - -> frontend : uses
contributor - -> frontend : uses
reviewer - -> frontend : uses
operator - -> frontend : uses

frontend - -> api : HTTP/JSON
api - -> flow_auth : verify identity token
api - -> authorization : authorize capability
authorization - -> postgres : profiles and grants
api - -> postgres : SQLAlchemy async
api - -> storage_adapter : typed artifact operations
api - -> jobs : schedule work
jobs - -> checker : run checks
checker - -> postgres : results
checker - -> storage_adapter : materialize exact artifacts
storage_adapter - -> file_store : store/read

@enduml

PlantUML version 1.2020.02(Sun Mar 01 11:22:07 WAT 2020)
(GPL source distribution)
Java Runtime: OpenJDK Runtime Environment
JVM: OpenJDK 64-Bit Server VM
Java Version: 17.0.19+10-1-24.04.2-Ubuntu
Operating System: Linux
Default Encoding: UTF-8
Language: en
Country: null
--></g></svg>