<svg xmlns="http://www.w3.org/2000/svg" xmlns:xlink="http://www.w3.org/1999/xlink" contentStyleType="text/css" data-diagram-type="DESCRIPTION" height="464px" preserveAspectRatio="none" style="width:1968px;height:464px;background:#FFFFFF;" version="1.1" viewBox="0 0 1968 464" width="1968px" zoomAndPan="magnify"><?plantuml 1.2026.5?><defs/><g><g class="title" data-source-line="1"><text fill="#000000" font-family="Arial" font-size="14" font-weight="700" lengthAdjust="spacing" textLength="217.0752" x="871.9624" y="23.1318">Workstream v0.1 Container View</text></g><!--cluster People--><g class="cluster" data-qualified-name="People" data-source-line="29" id="ent0001"><rect fill="#F8F9FA" height="324" rx="4" ry="4" style="stroke:#1C7ED6;stroke-width:1;" width="166" x="7" y="44.0986"/><text fill="#0B2942" font-family="Arial" font-size="15" font-weight="700" lengthAdjust="spacing" textLength="49.1821" x="65.4089" y="60.1685">People</text></g><!--cluster Workstream v0.1--><g class="cluster" data-qualified-name="Workstream v0.1" data-source-line="38" id="ent0007"><rect fill="#F8FBFF" height="169" rx="4" ry="4" style="stroke:#1C7ED6;stroke-width:1;" width="1414" x="238" y="108.0986"/><text fill="#0B2942" font-family="Arial" font-size="15" font-weight="700" lengthAdjust="spacing" textLength="120.0586" x="884.9707" y="124.1685">Workstream v0.1</text></g><!--cluster Durable Records--><g class="cluster" data-qualified-name="Durable Records" data-source-line="46" id="ent0013"><rect fill="#F2FBF7" height="341" rx="4" ry="4" style="stroke:#1C7ED6;stroke-width:1;" width="201" x="1753" y="109.0986"/><text fill="#0B2942" font-family="Arial" font-size="15" font-weight="700" lengthAdjust="spacing" textLength="120.0366" x="1793.4817" y="125.1685">Durable Records</text></g><!--entity project_manager--><g class="entity" data-qualified-name="People.project_manager" data-source-line="30" id="ent0002"><rect fill="#F1F3F5" height="37.2485" rx="4" ry="4" style="stroke:#1C7ED6;stroke-width:0.5;" width="130.0537" x="25" y="80.5986"/><text fill="#0B2942" font-family="Arial" font-size="15" lengthAdjust="spacing" textLength="110.0537" x="35" y="104.6685">Project Manager</text></g><!--entity worker--><g class="entity" data-qualified-name="People.worker" data-source-line="31" id="ent0003"><rect fill="#F1F3F5" height="54.4971" rx="4" ry="4" style="stroke:#1C7ED6;stroke-width:0.5;" width="112.5488" x="33.5" y="153.0986"/><text fill="#0B2942" font-family="Arial" font-size="15" lengthAdjust="spacing" textLength="92.5488" x="43.5" y="177.1685">Human-Agent</text><text fill="#0B2942" font-family="Arial" font-size="15" lengthAdjust="spacing" textLength="74.2017" x="43.5" y="194.417">Contributor</text></g><!--entity reviewer--><g class="entity" data-qualified-name="People.reviewer" data-source-line="32" id="ent0004"><rect fill="#F1F3F5" height="37.2485" rx="4" ry="4" style="stroke:#1C7ED6;stroke-width:0.5;" width="82.5195" x="48.5" y="242.5986"/><text fill="#0B2942" font-family="Arial" font-size="15" lengthAdjust="spacing" textLength="62.5195" x="58.5" y="266.6685">Reviewer</text></g><!--entity operator--><g class="entity" data-qualified-name="People.operator" data-source-line="33" id="ent0005"><rect fill="#F1F3F5" height="37.2485" rx="4" ry="4" style="stroke:#1C7ED6;stroke-width:0.5;" width="134.2139" x="23" y="314.5986"/><text fill="#0B2942" font-family="Arial" font-size="15" lengthAdjust="spacing" textLength="114.2139" x="33" y="338.6685">Operator / Admin</text></g><!--entity frontend--><g class="entity" data-qualified-name="Workstream v0.1.frontend" data-source-line="39" id="ent0008"><rect fill="#E7F5FF" height="79.7456" rx="4" ry="4" style="stroke:#1C7ED6;stroke-width:0.5;" width="144.248" x="254" y="181.0986"/><text fill="#0B2942" font-family="Arial" font-size="15" lengthAdjust="spacing" textLength="101.2939" x="264" y="205.1685">React + Vite UI</text><line style="stroke:#1C7ED6;stroke-width:1;" x1="255" x2="397.248" y1="208.3472" y2="208.3472"/><text fill="#0B2942" font-family="Arial" font-size="15" lengthAdjust="spacing" textLength="124.248" x="264" y="226.417">Internal operations</text><text fill="#0B2942" font-family="Arial" font-size="15" lengthAdjust="spacing" textLength="57.5317" x="264" y="243.6655">interface</text></g><!--entity api--><g class="entity" data-qualified-name="Workstream v0.1.api" data-source-line="40" id="ent0009"><rect fill="#E7F5FF" height="79.7456" rx="4" ry="4" style="stroke:#1C7ED6;stroke-width:0.5;" width="163.4009" x="543" y="181.0986"/><text fill="#0B2942" font-family="Arial" font-size="15" lengthAdjust="spacing" textLength="115.8911" x="553" y="205.1685">FastAPI Backend</text><line style="stroke:#1C7ED6;stroke-width:1;" x1="544" x2="705.4009" y1="208.3472" y2="208.3472"/><text fill="#0B2942" font-family="Arial" font-size="15" lengthAdjust="spacing" textLength="143.4009" x="553" y="226.417">Modular monolith API</text><text fill="#0B2942" font-family="Arial" font-size="15" lengthAdjust="spacing" textLength="124.2188" x="553" y="243.6655">and workflow rules</text></g><!--entity jobs--><g class="entity" data-qualified-name="Workstream v0.1.jobs" data-source-line="41" id="ent0010"><rect fill="#E7F5FF" height="79.7456" rx="4" ry="4" style="stroke:#1C7ED6;stroke-width:0.5;" width="175.083" x="864" y="181.0986"/><text fill="#0B2942" font-family="Arial" font-size="15" lengthAdjust="spacing" textLength="137.5781" x="874" y="205.1685">Async Job Boundary</text><line style="stroke:#1C7ED6;stroke-width:1;" x1="865" x2="1038.083" y1="208.3472" y2="208.3472"/><text fill="#0B2942" font-family="Arial" font-size="15" lengthAdjust="spacing" textLength="155.083" x="874" y="226.417">Background tasks now;</text><text fill="#0B2942" font-family="Arial" font-size="15" lengthAdjust="spacing" textLength="140.061" x="874" y="243.6655">durable workers later</text></g><!--entity checker--><g class="entity" data-qualified-name="Workstream v0.1.checker" data-source-line="42" id="ent0011"><rect fill="#E7F5FF" height="79.7456" rx="4" ry="4" style="stroke:#1C7ED6;stroke-width:0.5;" width="153.418" x="1174" y="181.0986"/><text fill="#0B2942" font-family="Arial" font-size="15" lengthAdjust="spacing" textLength="109.2188" x="1184" y="205.1685">Checker Runner</text><line style="stroke:#1C7ED6;stroke-width:1;" x1="1175" x2="1326.418" y1="208.3472" y2="208.3472"/><text fill="#0B2942" font-family="Arial" font-size="15" lengthAdjust="spacing" textLength="133.418" x="1184" y="226.417">Automated task and</text><text fill="#0B2942" font-family="Arial" font-size="15" lengthAdjust="spacing" textLength="125.8813" x="1184" y="243.6655">submission checks</text></g><!--entity storage_adapter--><g class="entity" data-qualified-name="Workstream v0.1.storage_adapter" data-source-line="43" id="ent0012"><rect fill="#E7F5FF" height="79.7456" rx="4" ry="4" style="stroke:#1C7ED6;stroke-width:0.5;" width="153.3887" x="1483" y="153.0986"/><text fill="#0B2942" font-family="Arial" font-size="15" lengthAdjust="spacing" textLength="115.0708" x="1493" y="177.1685">Storage Interface</text><line style="stroke:#1C7ED6;stroke-width:1;" x1="1484" x2="1635.3887" y1="180.3472" y2="180.3472"/><text fill="#0B2942" font-family="Arial" font-size="15" lengthAdjust="spacing" textLength="133.3887" x="1493" y="198.417">Object-storage style</text><text fill="#0B2942" font-family="Arial" font-size="15" lengthAdjust="spacing" textLength="24.1772" x="1493" y="215.6655">API</text></g><!--entity postgres--><g class="entity" data-qualified-name="Durable Records.postgres" data-source-line="47" id="ent0014"><path d="M1769,286.0986 C1769,276.0986 1853.6191,276.0986 1853.6191,276.0986 C1853.6191,276.0986 1938.2383,276.0986 1938.2383,286.0986 L1938.2383,423.8384 C1938.2383,433.8384 1853.6191,433.8384 1853.6191,433.8384 C1853.6191,433.8384 1769,433.8384 1769,423.8384 L1769,286.0986" fill="#E6FCF5" style="stroke:#0CA678;stroke-width:0.5;"/><path d="M1769,286.0986 C1769,296.0986 1853.6191,296.0986 1853.6191,296.0986 C1853.6191,296.0986 1938.2383,296.0986 1938.2383,286.0986" fill="none" style="stroke:#0CA678;stroke-width:0.5;"/><text fill="#063B2C" font-family="Arial" font-size="15" lengthAdjust="spacing" textLength="59.1943" x="1779" y="314.1685">Postgres</text><path d="M1769,312.3472 C1769,322.3472 1853.6191,322.3472 1853.6191,322.3472 C1853.6191,322.3472 1938.2383,322.3472 1938.2383,312.3472" fill="none" style="stroke:#0CA678;stroke-width:1;"/><text fill="#063B2C" font-family="Arial" font-size="15" lengthAdjust="spacing" textLength="110.8887" x="1779" y="335.417">Projects, guides,</text><text fill="#063B2C" font-family="Arial" font-size="15" lengthAdjust="spacing" textLength="130.0415" x="1779" y="352.6655">tasks, submissions,</text><text fill="#063B2C" font-family="Arial" font-size="15" lengthAdjust="spacing" textLength="110.0317" x="1779" y="369.9141">checks, reviews,</text><text fill="#063B2C" font-family="Arial" font-size="15" lengthAdjust="spacing" textLength="149.2383" x="1779" y="387.1626">revisions, contribution,</text><text fill="#063B2C" font-family="Arial" font-size="15" lengthAdjust="spacing" textLength="136.7505" x="1779" y="404.4111">payment, reputation,</text><text fill="#063B2C" font-family="Arial" font-size="15" lengthAdjust="spacing" textLength="80.8887" x="1779" y="421.6597">audit events</text></g><!--entity file_store--><g class="entity" data-qualified-name="Durable Records.file_store" data-source-line="48" id="ent0015"><rect fill="#E6FCF5" height="96.9941" rx="4" ry="4" style="stroke:#1C7ED6;stroke-width:0.5;" width="139.2236" x="1784" y="144.5986"/><text fill="#0B2942" font-family="Arial" font-size="15" lengthAdjust="spacing" textLength="104.2163" x="1794" y="168.6685">Local File Store</text><text fill="#0B2942" font-family="Arial" font-size="15" lengthAdjust="spacing" textLength="109.2407" x="1794" y="185.917">Behind Interface</text><line style="stroke:#1C7ED6;stroke-width:1;" x1="1785" x2="1922.2236" y1="189.0957" y2="189.0957"/><text fill="#0B2942" font-family="Arial" font-size="15" lengthAdjust="spacing" textLength="119.2236" x="1794" y="207.1655">R2/S3-compatible</text><text fill="#0B2942" font-family="Arial" font-size="15" lengthAdjust="spacing" textLength="93.3984" x="1794" y="224.4141">adapter target</text></g><!--entity flow_auth--><g class="entity" data-qualified-name="flow_auth" data-source-line="36" id="ent0006"><path d="M872.1278,304.5027 C876.0982,299.2206 879.5621,299.4643 882.9763,305.0575 C886.4645,298.9755 892.6735,298.5822 895.9844,305.2386 C899.1201,300.7173 902.6149,300.5337 905.9663,304.999 C909.9282,298.3311 914.8177,298.029 918.9124,304.8717 C921.9556,300.1381 926.7258,298.9743 929.983,304.644 C932.0063,299.29 936.12,298.0126 940.2825,302.3768 C944.3983,297.108 948.7441,295.423 953.0164,302.2116 C956.5862,296.7695 959.9739,297.4542 963.2177,302.5278 C967.247,296.3893 972.2334,297.0132 975.1952,303.5376 C978.3414,298.1793 983.8347,298.8881 986.8497,303.6882 C990.638,298.0554 996.226,299.1552 998.5248,305.1799 C1001.9743,300.0717 1007.5856,299.3784 1010.5527,305.688 C1013.7144,299.7147 1018.741,299.4376 1022.3843,305.2027 C1025.9222,301.0368 1030.884,301.4933 1033.5425,306.2968 C1040.3726,308.6959 1039.6281,314.4139 1034.8915,318.1315 C1041.0763,320.1064 1042.113,324.8281 1037.2066,329.1362 C1044.2671,333.3033 1043.6238,337.8308 1038.271,342.9541 C1042.3998,346.883 1042.4562,352.9462 1035.9218,354.7518 C1040.9649,358.4547 1041.4535,364.2571 1035.1741,367.2846 C1039.8109,371.1983 1039.0644,377.149 1033.5146,379.7012 C1029.8175,385.6505 1024.8923,386.521 1020.4805,380.478 C1018.3313,385.1347 1013.9604,385.85 1010.673,381.7533 C1006.0433,388.9097 1002.0213,387.5531 997.4053,381.7392 C994.0396,386.6601 989.6001,386.5636 986.2656,381.7037 C984.5491,387.0587 979.1568,389.1799 975.0711,384.2933 C970.7505,389.7279 966.5461,389.8414 963.4221,383.1444 C960.6178,389.0347 955.9735,388.9431 951.9349,384.5191 C948.7325,390.9074 943.9546,391.176 940.1744,385.0626 C936.6333,390.0918 931.1012,388.6111 928.7685,383.679 C925.5635,389.2978 920.2474,388.2649 917.696,383.0132 C913.7028,387.2069 909.6731,387.4278 906.7371,381.83 C901.9765,386.6011 897.7371,385.5046 894.5439,379.9747 C890.9774,385.3365 886.4847,384.1766 884.1389,378.7927 C880.5194,383.742 876.8874,385.109 872.6536,379.4583 C864.8919,376.0919 866.3248,370.552 871.3832,365.9775 C863.9519,364.1982 862.031,358.9242 867.9033,353.4496 C862.7296,350.1815 862.0902,346.2234 866.6182,341.8779 C861.263,338.214 861.7851,332.6701 867.9051,330.2794 C864.1045,324.8465 865.2245,320.8241 871.2363,318.068 C864.9313,313.9306 865.0623,307.7614 872.1278,304.5027" fill="#F1F3F5" style="stroke:#868E96;stroke-width:0.5;"/><text fill="#212529" font-family="Arial" font-size="15" lengthAdjust="spacing" textLength="66.6943" x="878" y="325.1685">Flow Auth</text><line style="stroke:#868E96;stroke-width:1;" x1="864" x2="1038.748" y1="328.3472" y2="328.3472"/><text fill="#212529" font-family="Arial" font-size="15" lengthAdjust="spacing" textLength="115.0635" x="878" y="346.417">Token issuer and</text><text fill="#212529" font-family="Arial" font-size="15" lengthAdjust="spacing" textLength="146.748" x="878" y="363.6655">human identity source</text></g><!--link project_manager to frontend--><g class="link" data-entity-1="ent0002" data-entity-2="ent0008" data-link-type="dependency" data-source-line="51" id="lnk16"><path d="M141.6,117.7186 C154.62,122.9386 168.48,128.9086 181,135.0986 C208.53,148.7186 233.567,163.1058 258.497,178.3858" fill="none" id="project_manager-to-frontend" style="stroke:#495057;stroke-width:1.2;"/><polygon fill="#495057" points="262.76,180.9986,257.1769,172.8851,258.497,178.3858,252.9964,179.7059,262.76,180.9986" style="stroke:#495057;stroke-width:1.2;stroke-linejoin:miter;stroke-miterlimit:10;"/><text fill="#000000" font-family="Arial" font-size="15" lengthAdjust="spacing" textLength="31.6846" x="190" y="136.1685">uses</text></g><!--link worker to frontend--><g class="link" data-entity-1="ent0003" data-entity-2="ent0008" data-link-type="dependency" data-source-line="52" id="lnk17"><path d="M146.75,189.8686 C178.79,195.4786 214.4351,201.7253 248.7751,207.7453" fill="none" id="worker-to-frontend" style="stroke:#495057;stroke-width:1.2;"/><polygon fill="#495057" points="253.7,208.6086,245.5259,203.1147,248.7751,207.7453,244.1445,210.9945,253.7,208.6086" style="stroke:#495057;stroke-width:1.2;stroke-linejoin:miter;stroke-miterlimit:10;"/><text fill="#000000" font-family="Arial" font-size="15" lengthAdjust="spacing" textLength="31.6846" x="190" y="195.1685">uses</text></g><!--link reviewer to frontend--><g class="link" data-entity-1="ent0004" data-entity-2="ent0008" data-link-type="dependency" data-source-line="53" id="lnk18"><path d="M131.65,258.7186 C157.63,256.7986 191.97,253.4886 222,248.0986 C232.37,246.2386 238.3692,245.0403 248.9892,242.4803" fill="none" id="reviewer-to-frontend" style="stroke:#495057;stroke-width:1.2;"/><polygon fill="#495057" points="253.85,241.3086,244.1632,239.5291,248.9892,242.4803,246.038,247.3063,253.85,241.3086" style="stroke:#495057;stroke-width:1.2;stroke-linejoin:miter;stroke-miterlimit:10;"/><text fill="#000000" font-family="Arial" font-size="15" lengthAdjust="spacing" textLength="31.6846" x="190" y="244.1685">uses</text></g><!--link operator to frontend--><g class="link" data-entity-1="ent0005" data-entity-2="ent0008" data-link-type="dependency" data-source-line="54" id="lnk19"><path d="M137.76,314.5286 C151.69,308.9586 166.97,302.8086 181,297.0986 C199.27,289.6586 204.29,288.7986 222,280.0986 C233.75,274.3286 241.6324,270.2225 253.4224,263.6525" fill="none" id="operator-to-frontend" style="stroke:#495057;stroke-width:1.2;"/><polygon fill="#495057" points="257.79,261.2186,247.9812,262.1055,253.4224,263.6525,251.8754,269.0937,257.79,261.2186" style="stroke:#495057;stroke-width:1.2;stroke-linejoin:miter;stroke-miterlimit:10;"/><text fill="#000000" font-family="Arial" font-size="15" lengthAdjust="spacing" textLength="31.6846" x="190" y="276.1685">uses</text></g><!--link frontend to api--><g class="link" data-entity-1="ent0008" data-entity-2="ent0009" data-link-type="dependency" data-source-line="56" id="lnk20"><path d="M398.02,221.0986 C441.62,221.0986 492.59,221.0986 537.85,221.0986" fill="none" id="frontend-to-api" style="stroke:#495057;stroke-width:1.2;"/><polygon fill="#495057" points="542.85,221.0986,533.85,217.0986,537.85,221.0986,533.85,225.0986,542.85,221.0986" style="stroke:#495057;stroke-width:1.2;stroke-linejoin:miter;stroke-miterlimit:10;"/><text fill="#000000" font-family="Arial" font-size="15" lengthAdjust="spacing" textLength="83.335" x="429" y="217.1685">HTTP/JSON</text></g><!--link api to flow_auth--><g class="link" data-entity-1="ent0009" data-entity-2="ent0006" data-link-type="dependency" data-source-line="57" id="lnk21"><path d="M706.25,250.9186 C753.82,268.4786 809.3197,288.9661 858.0497,306.9661" fill="none" id="api-to-flow_auth" style="stroke:#495057;stroke-width:1.2;"/><polygon fill="#495057" points="862.74,308.6986,855.6835,301.8279,858.0497,306.9661,852.9116,309.3323,862.74,308.6986" style="stroke:#495057;stroke-width:1.2;stroke-linejoin:miter;stroke-miterlimit:10;"/><text fill="#000000" font-family="Arial" font-size="15" lengthAdjust="spacing" textLength="76.6992" x="746.5" y="260.1685">verify token</text></g><!--link api to postgres--><g class="link" data-entity-1="ent0009" data-entity-2="ent0014" data-link-type="dependency" data-source-line="58" id="lnk22"><path d="M656.98,261.3386 C710.13,324.3286 824.3,439.0986 950.5,439.0986 C950.5,439.0986 950.5,439.0986 1560.5,439.0986 C1632.77,439.0986 1706.6509,416.8533 1764.0609,394.4933" fill="none" id="api-to-postgres" style="stroke:#495057;stroke-width:1.2;"/><polygon fill="#495057" points="1768.72,392.6786,1758.8819,392.2177,1764.0609,394.4933,1761.7853,399.6722,1768.72,392.6786" style="stroke:#495057;stroke-width:1.2;stroke-linejoin:miter;stroke-miterlimit:10;"/><text fill="#000000" font-family="Arial" font-size="15" lengthAdjust="spacing" textLength="130.8838" x="1185.5" y="435.1685">SQLAlchemy async</text></g><!--link api to storage_adapter--><g class="link" data-entity-1="ent0009" data-entity-2="ent0012" data-link-type="dependency" data-source-line="59" id="lnk23"><path d="M706.23,196.2886 C751.77,183.5786 810.01,169.4686 863,163.0986 C1067.75,138.4686 1121.05,152.4986 1327,163.0986 C1379.31,165.7886 1432.8673,172.6537 1477.9773,179.5437" fill="none" id="api-to-storage_adapter" style="stroke:#495057;stroke-width:1.2;"/><polygon fill="#495057" points="1482.92,180.2986,1474.6271,174.9856,1477.9773,179.5437,1473.4192,182.8939,1482.92,180.2986" style="stroke:#495057;stroke-width:1.2;stroke-linejoin:miter;stroke-miterlimit:10;"/><text fill="#000000" font-family="Arial" font-size="15" lengthAdjust="spacing" textLength="69.1992" x="1072.5" y="146.1685">object refs</text></g><!--link api to jobs--><g class="link" data-entity-1="ent0009" data-entity-2="ent0010" data-link-type="dependency" data-source-line="60" id="lnk24"><path d="M706.25,221.0986 C754.19,221.0986 809.97,221.0986 858.9,221.0986" fill="none" id="api-to-jobs" style="stroke:#495057;stroke-width:1.2;"/><polygon fill="#495057" points="863.9,221.0986,854.9,217.0986,858.9,221.0986,854.9,225.0986,863.9,221.0986" style="stroke:#495057;stroke-width:1.2;stroke-linejoin:miter;stroke-miterlimit:10;"/><text fill="#000000" font-family="Arial" font-size="15" lengthAdjust="spacing" textLength="95.8813" x="737" y="217.1685">schedule work</text></g><!--link jobs to checker--><g class="link" data-entity-1="ent0010" data-entity-2="ent0011" data-link-type="dependency" data-source-line="61" id="lnk25"><path d="M1039.12,224.3786 C1049.52,224.6786 1060,224.9286 1070,225.0986 C1102.88,225.6586 1111.12,225.7186 1144,225.0986 C1153.62,224.9186 1158.7326,224.7986 1168.7326,224.4786" fill="none" id="jobs-to-checker" style="stroke:#495057;stroke-width:1.2;"/><polygon fill="#495057" points="1173.73,224.3186,1164.6067,220.6085,1168.7326,224.4786,1164.8625,228.6044,1173.73,224.3186" style="stroke:#495057;stroke-width:1.2;stroke-linejoin:miter;stroke-miterlimit:10;"/><text fill="#000000" font-family="Arial" font-size="15" lengthAdjust="spacing" textLength="72.5317" x="1071" y="221.1685">run checks</text></g><!--link checker to postgres--><g class="link" data-entity-1="ent0011" data-entity-2="ent0014" data-link-type="dependency" data-source-line="62" id="lnk26"><path d="M1327.01,237.9386 C1439.72,263.0586 1646.3499,309.1303 1763.7399,335.3103" fill="none" id="checker-to-postgres" style="stroke:#495057;stroke-width:1.2;"/><polygon fill="#495057" points="1768.62,336.3986,1760.7065,330.5355,1763.7399,335.3103,1758.9651,338.3437,1768.62,336.3986" style="stroke:#495057;stroke-width:1.2;stroke-linejoin:miter;stroke-miterlimit:10;"/><text fill="#000000" font-family="Arial" font-size="15" lengthAdjust="spacing" textLength="44.1797" x="1537.5" y="270.1685">results</text></g><!--link checker to storage_adapter--><g class="link" data-entity-1="ent0011" data-entity-2="ent0012" data-link-type="dependency" data-source-line="63" id="lnk27"><path d="M1327.39,214.1786 C1374.8,209.8486 1430.6307,204.763 1477.9707,200.443" fill="none" id="checker-to-storage_adapter" style="stroke:#495057;stroke-width:1.2;"/><polygon fill="#495057" points="1482.95,199.9886,1473.6237,196.8231,1477.9707,200.443,1474.3507,204.79,1482.95,199.9886" style="stroke:#495057;stroke-width:1.2;stroke-linejoin:miter;stroke-miterlimit:10;"/><text fill="#000000" font-family="Arial" font-size="15" lengthAdjust="spacing" textLength="94.2334" x="1358" y="199.1685">read evidence</text></g><!--link storage_adapter to file_store--><g class="link" data-entity-1="ent0012" data-entity-2="ent0015" data-link-type="dependency" data-source-line="64" id="lnk28"><path d="M1636.08,193.0986 C1681.7,193.0986 1734.39,193.0986 1778.73,193.0986" fill="none" id="storage_adapter-to-file_store" style="stroke:#495057;stroke-width:1.2;"/><polygon fill="#495057" points="1783.73,193.0986,1774.73,189.0986,1778.73,193.0986,1774.73,197.0986,1783.73,193.0986" style="stroke:#495057;stroke-width:1.2;stroke-linejoin:miter;stroke-miterlimit:10;"/><text fill="#000000" font-family="Arial" font-size="15" lengthAdjust="spacing" textLength="67.5366" x="1669" y="189.1685">store/read</text></g><?plantuml-src TLLTRvjA47tdLupSnnitCQc_UgKhOIUehjh6jTFU5qlH0ckyCUoY_OZbNjt_tbbO212N1ylCsJapSsPcqKnd5FuLygYqf2I7bvlt8rWAhWdZLC9FHa-Ubz6z1Yr0ilIW8M6Infe9xddgo7X19Ff593wcKXYUB4Kc9BmBowTrGXr88awCfx0dcQ8jf7IBXRG1PorxGlV4P3h4RBwHd48W6SakurlsYy9et083ASN9vV9XFhuPJ_lWuu75HqwLWj5xlmKMM0f9wLQVKHfRAk5frictji5_7i12o8HA5scqdDxVJQorhyVzD1oZ7W0sNMUxMVZp3xxtVxiceab4r0NgcsKmcSukKa_2PJZkKKzk5_woGnrdmYHlUMUJsVtyOihXABpjy_eZV-pFaTTpCi5WJKMHqG6UduNpC2WZl4eqM4lnZ6_mbN0yBWT051ILxIclRArGBSTF1k5Xa5AkTzoEf6IHqQ9YEE78_ibnGrzmR5qewLuk7tqeg2J82TSG93dZfOkeZRKBLbk9DmWpSOB0wCEE3_7PyKTnf1oOKWP349xi-C6c3Ip1j9a-Wn96nhJatQFp4q7dbdYzrQjKN8HXNyKD9QZXNxYGciAFLHr-nJMLd6GkPrnAjUFC6lUaZYfHEigJBbz8b0xMgxBfrAPTyNqLYSc8X5nmaJ5z03opurXNARWj0AJ9g2gPIS6wf84wynW-YmWd3CU8o7FD-pfRe8awAk3YzFUE9qQI23shRYh8Y7PjUnQHwf8l3pIsBTyOZXT5JOoz43bwLRnL1vI9Skm8YW6nTQgoZIl_BkaMsspxiAebgtaV8ZkWG-LmPIy3ZBPUbLpE_4GIKg1ZPntkN4qRYbTQecn7VUpejEneizw3jL0wbLJL0TsQg2j83GwFkjhnKgahU2t76gkAhjnSMulzLw4Grrk2huWKv9pZ6Dh3XT74MOb9c0RwWaYbJE5IwKhpHSGuLo73_rObh7v13mmR-4QhZN-zlHt68YymH6HrShfWJsHATJM6IFHaTQFDXMLLwrq4m-4_pS32Hp0AitAhVWbgbliIsApn9T1h31R5IKRWq-FZ-lhpzk6RPzzBhtfZ4NsXaktF-1d4VMaErD8Xllt-9SYmE_aPoyKzQCxqXWMFYdAuKEozQaxPWKT88GEkOBKINccqg1jUF21DFTLURUmbWh_uLUp2RtF0AoV18R3tL8mVjnvU5l_QiOyb0RssJjvl?></g></svg>