<svg xmlns="http://www.w3.org/2000/svg" xmlns:xlink="http://www.w3.org/1999/xlink" contentStyleType="text/css" data-diagram-type="DESCRIPTION" height="510px" preserveAspectRatio="none" style="width:2338px;height:510px;background:#FFFFFF;" version="1.1" viewBox="0 0 2338 510" width="2338px" zoomAndPan="magnify"><?plantuml 1.2026.6?><defs/><g><g class="title" data-source-line="1"><text fill="#000000" font-family="Arial" font-size="14" font-weight="700" lengthAdjust="spacing" textLength="217.0752" x="1056.9624" y="23.1318">Workstream v0.1 Container View</text></g><!--cluster People--><g class="cluster" data-qualified-name="People" data-source-line="29" id="ent0001"><rect fill="#F8F9FA" height="324" rx="4" ry="4" style="stroke:#1C7ED6;stroke-width:1;" width="219" x="7" y="100.7186"/><text fill="#0B2942" font-family="Arial" font-size="15" font-weight="700" lengthAdjust="spacing" textLength="49.1821" x="91.9089" y="116.7885">People</text></g><!--cluster Workstream v0.1--><g class="cluster" data-qualified-name="Workstream v0.1" data-source-line="38" id="ent0007"><rect fill="#F8FBFF" height="284" rx="4" ry="4" style="stroke:#1C7ED6;stroke-width:1;" width="1722" x="291" y="49.7186"/><text fill="#0B2942" font-family="Arial" font-size="15" font-weight="700" lengthAdjust="spacing" textLength="120.0586" x="1091.9707" y="65.7885">Workstream v0.1</text></g><!--cluster Durable Records--><g class="cluster" data-qualified-name="Durable Records" data-source-line="47" id="ent0014"><rect fill="#F2FBF7" height="325" rx="4" ry="4" style="stroke:#1C7ED6;stroke-width:1;" width="210" x="2114" y="63.7186"/><text fill="#0B2942" font-family="Arial" font-size="15" font-weight="700" lengthAdjust="spacing" textLength="120.0366" x="2158.9817" y="79.7885">Durable Records</text></g><!--entity project_manager--><g class="entity" data-qualified-name="People.project_manager" data-source-line="30" id="ent0002"><rect fill="#F1F3F5" height="37.2485" rx="4" ry="4" style="stroke:#1C7ED6;stroke-width:0.5;" width="130.0537" x="51.5" y="137.2186"/><text fill="#0B2942" font-family="Arial" font-size="15" lengthAdjust="spacing" textLength="110.0537" x="61.5" y="161.2885">Project Manager</text></g><!--entity contributor--><g class="entity" data-qualified-name="People.contributor" data-source-line="31" id="ent0003"><rect fill="#F1F3F5" height="54.4971" rx="4" ry="4" style="stroke:#1C7ED6;stroke-width:0.5;" width="112.5488" x="60" y="209.7186"/><text fill="#0B2942" font-family="Arial" font-size="15" lengthAdjust="spacing" textLength="92.5488" x="70" y="233.7885">Human-Agent</text><text fill="#0B2942" font-family="Arial" font-size="15" lengthAdjust="spacing" textLength="74.2017" x="70" y="251.037">Contributor</text></g><!--entity reviewer--><g class="entity" data-qualified-name="People.reviewer" data-source-line="32" id="ent0004"><rect fill="#F1F3F5" height="37.2485" rx="4" ry="4" style="stroke:#1C7ED6;stroke-width:0.5;" width="82.5195" x="75" y="299.2186"/><text fill="#0B2942" font-family="Arial" font-size="15" lengthAdjust="spacing" textLength="62.5195" x="85" y="323.2885">Reviewer</text></g><!--entity operator--><g class="entity" data-qualified-name="People.operator" data-source-line="33" id="ent0005"><rect fill="#F1F3F5" height="37.2485" rx="4" ry="4" style="stroke:#1C7ED6;stroke-width:0.5;" width="186.7285" x="23" y="371.2186"/><text fill="#0B2942" font-family="Arial" font-size="15" lengthAdjust="spacing" textLength="166.7285" x="33" y="395.2885">Operator / Access Admin</text></g><!--entity frontend--><g class="entity" data-qualified-name="Workstream v0.1.frontend" data-source-line="39" id="ent0008"><rect fill="#E7F5FF" height="79.7456" rx="4" ry="4" style="stroke:#1C7ED6;stroke-width:0.5;" width="198.8354" x="307" y="237.7186"/><text fill="#0B2942" font-family="Arial" font-size="15" lengthAdjust="spacing" textLength="178.8354" x="317" y="261.7885">React + Vite Operations UI</text><line style="stroke:#1C7ED6;stroke-width:1;" x1="308" x2="504.8354" y1="264.9672" y2="264.9672"/><text fill="#0B2942" font-family="Arial" font-size="15" lengthAdjust="spacing" textLength="108.4131" x="317" y="283.037">Planned internal</text><text fill="#0B2942" font-family="Arial" font-size="15" lengthAdjust="spacing" textLength="145.1074" x="317" y="300.2855">operations dashboard</text></g><!--entity api--><g class="entity" data-qualified-name="Workstream v0.1.api" data-source-line="40" id="ent0009"><rect fill="#E7F5FF" height="79.7456" rx="4" ry="4" style="stroke:#1C7ED6;stroke-width:0.5;" width="163.4009" x="651" y="237.7186"/><text fill="#0B2942" font-family="Arial" font-size="15" lengthAdjust="spacing" textLength="115.8911" x="661" y="261.7885">FastAPI Backend</text><line style="stroke:#1C7ED6;stroke-width:1;" x1="652" x2="813.4009" y1="264.9672" y2="264.9672"/><text fill="#0B2942" font-family="Arial" font-size="15" lengthAdjust="spacing" textLength="143.4009" x="661" y="283.037">Modular monolith API</text><text fill="#0B2942" font-family="Arial" font-size="15" lengthAdjust="spacing" textLength="124.2188" x="661" y="300.2855">and workflow rules</text></g><!--entity authorization--><g class="entity" data-qualified-name="Workstream v0.1.authorization" data-source-line="41" id="ent0010"><rect fill="#E7F5FF" height="79.7456" rx="4" ry="4" style="stroke:#1C7ED6;stroke-width:0.5;" width="196.7407" x="1004" y="237.7186"/><text fill="#0B2942" font-family="Arial" font-size="15" lengthAdjust="spacing" textLength="141.7383" x="1014" y="261.7885">Authorization Service</text><line style="stroke:#1C7ED6;stroke-width:1;" x1="1005" x2="1199.7407" y1="264.9672" y2="264.9672"/><text fill="#0B2942" font-family="Arial" font-size="15" lengthAdjust="spacing" textLength="176.7407" x="1014" y="283.037">Actor profiles, local grants,</text><text fill="#0B2942" font-family="Arial" font-size="15" lengthAdjust="spacing" textLength="142.5806" x="1014" y="300.2855">and capability checks</text></g><!--entity jobs--><g class="entity" data-qualified-name="Workstream v0.1.jobs" data-source-line="42" id="ent0011"><rect fill="#E7F5FF" height="79.7456" rx="4" ry="4" style="stroke:#1C7ED6;stroke-width:0.5;" width="191.7676" x="1006.5" y="122.7186"/><text fill="#0B2942" font-family="Arial" font-size="15" lengthAdjust="spacing" textLength="164.2236" x="1016.5" y="146.7885">Celery Worker Boundary</text><line style="stroke:#1C7ED6;stroke-width:1;" x1="1007.5" x2="1197.2676" y1="149.9672" y2="149.9672"/><text fill="#0B2942" font-family="Arial" font-size="15" lengthAdjust="spacing" textLength="146.748" x="1016.5" y="168.037">Durable project setup,</text><text fill="#0B2942" font-family="Arial" font-size="15" lengthAdjust="spacing" textLength="171.7676" x="1016.5" y="185.2855">checker, and product jobs</text></g><!--entity checker--><g class="entity" data-qualified-name="Workstream v0.1.checker" data-source-line="43" id="ent0012"><rect fill="#E7F5FF" height="79.7456" rx="4" ry="4" style="stroke:#1C7ED6;stroke-width:0.5;" width="153.418" x="1423" y="140.7186"/><text fill="#0B2942" font-family="Arial" font-size="15" lengthAdjust="spacing" textLength="109.2188" x="1433" y="164.7885">Checker Runner</text><line style="stroke:#1C7ED6;stroke-width:1;" x1="1424" x2="1575.418" y1="167.9672" y2="167.9672"/><text fill="#0B2942" font-family="Arial" font-size="15" lengthAdjust="spacing" textLength="133.418" x="1433" y="186.037">Automated task and</text><text fill="#0B2942" font-family="Arial" font-size="15" lengthAdjust="spacing" textLength="125.8813" x="1433" y="203.2855">submission checks</text></g><!--entity storage_adapter--><g class="entity" data-qualified-name="Workstream v0.1.storage_adapter" data-source-line="44" id="ent0013"><rect fill="#E7F5FF" height="79.7456" rx="4" ry="4" style="stroke:#1C7ED6;stroke-width:0.5;" width="190.1123" x="1807" y="85.7186"/><text fill="#0B2942" font-family="Arial" font-size="15" lengthAdjust="spacing" textLength="157.5659" x="1817" y="109.7885">Artifact Storage Service</text><line style="stroke:#1C7ED6;stroke-width:1;" x1="1808" x2="1996.1123" y1="112.9672" y2="112.9672"/><text fill="#0B2942" font-family="Arial" font-size="15" lengthAdjust="spacing" textLength="153.3911" x="1817" y="131.037">Admission, verification,</text><text fill="#0B2942" font-family="Arial" font-size="15" lengthAdjust="spacing" textLength="170.1123" x="1817" y="148.2855">binding, and provider port</text></g><!--entity postgres--><g class="entity" data-qualified-name="Durable Records.postgres" data-source-line="48" id="ent0015"><path d="M2134.5,224.7186 C2134.5,214.7186 2219.1191,214.7186 2219.1191,214.7186 C2219.1191,214.7186 2303.7383,214.7186 2303.7383,224.7186 L2303.7383,362.4584 C2303.7383,372.4584 2219.1191,372.4584 2219.1191,372.4584 C2219.1191,372.4584 2134.5,372.4584 2134.5,362.4584 L2134.5,224.7186" fill="#E6FCF5" style="stroke:#0CA678;stroke-width:0.5;"/><path d="M2134.5,224.7186 C2134.5,234.7186 2219.1191,234.7186 2219.1191,234.7186 C2219.1191,234.7186 2303.7383,234.7186 2303.7383,224.7186" fill="none" style="stroke:#0CA678;stroke-width:0.5;"/><text fill="#063B2C" font-family="Arial" font-size="15" lengthAdjust="spacing" textLength="59.1943" x="2144.5" y="252.7885">Postgres</text><path d="M2134.5,250.9672 C2134.5,260.9672 2219.1191,260.9672 2219.1191,260.9672 C2219.1191,260.9672 2303.7383,260.9672 2303.7383,250.9672" fill="none" style="stroke:#0CA678;stroke-width:1;"/><text fill="#063B2C" font-family="Arial" font-size="15" lengthAdjust="spacing" textLength="110.8887" x="2144.5" y="274.037">Projects, guides,</text><text fill="#063B2C" font-family="Arial" font-size="15" lengthAdjust="spacing" textLength="130.0415" x="2144.5" y="291.2855">tasks, submissions,</text><text fill="#063B2C" font-family="Arial" font-size="15" lengthAdjust="spacing" textLength="110.0317" x="2144.5" y="308.5341">checks, reviews,</text><text fill="#063B2C" font-family="Arial" font-size="15" lengthAdjust="spacing" textLength="149.2383" x="2144.5" y="325.7826">revisions, contribution,</text><text fill="#063B2C" font-family="Arial" font-size="15" lengthAdjust="spacing" textLength="136.7505" x="2144.5" y="343.0311">payment, reputation,</text><text fill="#063B2C" font-family="Arial" font-size="15" lengthAdjust="spacing" textLength="80.8887" x="2144.5" y="360.2797">audit events</text></g><!--entity file_store--><g class="entity" data-qualified-name="Durable Records.file_store" data-source-line="49" id="ent0016"><rect fill="#E6FCF5" height="79.7456" rx="4" ry="4" style="stroke:#1C7ED6;stroke-width:0.5;" width="177.5513" x="2130" y="99.7186"/><text fill="#0B2942" font-family="Arial" font-size="15" lengthAdjust="spacing" textLength="134.2236" x="2140" y="123.7885">Private Object Store</text><text fill="#0B2942" font-family="Arial" font-size="15" lengthAdjust="spacing" textLength="133.4033" x="2140" y="141.037">Behind ArtifactStore</text><line style="stroke:#1C7ED6;stroke-width:1;" x1="2131" x2="2306.5513" y1="144.2157" y2="144.2157"/><text fill="#0B2942" font-family="Arial" font-size="15" lengthAdjust="spacing" textLength="157.5513" x="2140" y="162.2855">Local / MinIO / AWS S3</text></g><!--entity flow_auth--><g class="entity" data-qualified-name="flow_auth" data-source-line="36" id="ent0006"><path d="M1023.1278,361.1227 C1027.0982,355.8406 1030.5621,356.0843 1033.9763,361.6775 C1037.4645,355.5955 1043.6735,355.2022 1046.9844,361.8586 C1050.1201,357.3373 1053.6149,357.1537 1056.9663,361.619 C1060.9282,354.9511 1065.8177,354.649 1069.9124,361.4917 C1072.9556,356.7581 1077.7258,355.5943 1080.983,361.264 C1083.0063,355.91 1087.12,354.6326 1091.2825,358.9968 C1095.3983,353.728 1099.7441,352.043 1104.0164,358.8316 C1107.5862,353.3895 1110.9739,354.0742 1114.2177,359.1478 C1118.247,353.0093 1123.2334,353.6332 1126.1952,360.1576 C1129.3414,354.7993 1134.8347,355.5081 1137.8497,360.3082 C1141.638,354.6754 1147.226,355.7752 1149.5248,361.7999 C1152.9743,356.6917 1158.5856,355.9984 1161.5527,362.308 C1164.7144,356.3347 1169.741,356.0576 1173.3843,361.8227 C1176.9222,357.6568 1181.884,358.1133 1184.5425,362.9168 C1191.3726,365.3159 1190.6281,371.0339 1185.8915,374.7515 C1192.0763,376.7264 1193.113,381.4481 1188.2066,385.7562 C1195.2671,389.9233 1194.6238,394.4508 1189.271,399.5741 C1193.3998,403.503 1193.4562,409.5662 1186.9218,411.3718 C1191.9649,415.0747 1192.4535,420.8771 1186.1741,423.9046 C1190.8109,427.8183 1190.0644,433.769 1184.5146,436.3212 C1180.8175,442.2705 1175.8923,443.141 1171.4805,437.098 C1169.3313,441.7547 1164.9604,442.47 1161.673,438.3733 C1157.0433,445.5297 1153.0213,444.1731 1148.4053,438.3592 C1145.0396,443.2801 1140.6001,443.1836 1137.2656,438.3237 C1135.5491,443.6787 1130.1568,445.7999 1126.0711,440.9133 C1121.7505,446.3479 1117.5461,446.4614 1114.4221,439.7644 C1111.6178,445.6547 1106.9735,445.5631 1102.9349,441.1391 C1099.7325,447.5274 1094.9546,447.796 1091.1744,441.6826 C1087.6333,446.7118 1082.1012,445.2311 1079.7685,440.299 C1076.5635,445.9178 1071.2474,444.8849 1068.696,439.6332 C1064.7028,443.8269 1060.6731,444.0478 1057.7371,438.45 C1052.9765,443.2211 1048.7371,442.1246 1045.5439,436.5947 C1041.9774,441.9565 1037.4847,440.7966 1035.1389,435.4127 C1031.5194,440.362 1027.8874,441.729 1023.6536,436.0783 C1015.8919,432.7119 1017.3248,427.172 1022.3832,422.5975 C1014.9519,420.8182 1013.031,415.5442 1018.9033,410.0696 C1013.7296,406.8015 1013.0902,402.8434 1017.6182,398.4979 C1012.263,394.834 1012.7851,389.2901 1018.9051,386.8994 C1015.1045,381.4665 1016.2245,377.4441 1022.2363,374.688 C1015.9313,370.5506 1016.0623,364.3814 1023.1278,361.1227" fill="#F1F3F5" style="stroke:#868E96;stroke-width:0.5;"/><text fill="#212529" font-family="Arial" font-size="15" lengthAdjust="spacing" textLength="66.6943" x="1029" y="381.7885">Flow Auth</text><line style="stroke:#868E96;stroke-width:1;" x1="1015" x2="1189.748" y1="384.9672" y2="384.9672"/><text fill="#212529" font-family="Arial" font-size="15" lengthAdjust="spacing" textLength="115.0635" x="1029" y="403.037">Token issuer and</text><text fill="#212529" font-family="Arial" font-size="15" lengthAdjust="spacing" textLength="146.748" x="1029" y="420.2855">human identity source</text></g><!--link project_manager to frontend--><g class="link" data-entity-1="ent0002" data-entity-2="ent0008" data-link-type="dependency" data-source-line="52" id="lnk17"><path d="M181.65,173.4586 C198.85,178.7786 217.3,185.0086 234,191.7186 C266.91,204.9486 297.6792,219.761 327.5792,235.231" fill="none" id="project_manager-to-frontend" style="stroke:#495057;stroke-width:1.2;"/><polygon fill="#495057" points="332.02,237.5286,325.8646,229.8402,327.5792,235.231,322.1884,236.9455,332.02,237.5286" style="stroke:#495057;stroke-width:1.2;stroke-linejoin:miter;stroke-miterlimit:10;"/><text fill="#000000" font-family="Arial" font-size="15" lengthAdjust="spacing" textLength="31.6846" x="243" y="191.7885">uses</text></g><!--link contributor to frontend--><g class="link" data-entity-1="ent0003" data-entity-2="ent0008" data-link-type="dependency" data-source-line="53" id="lnk18"><path d="M173.03,244.6286 C210.95,250.0186 257.2899,256.624 302.0399,262.994" fill="none" id="contributor-to-frontend" style="stroke:#495057;stroke-width:1.2;"/><polygon fill="#495057" points="306.99,263.6986,298.6435,258.4702,302.0399,262.994,297.5161,266.3904,306.99,263.6986" style="stroke:#495057;stroke-width:1.2;stroke-linejoin:miter;stroke-miterlimit:10;"/><text fill="#000000" font-family="Arial" font-size="15" lengthAdjust="spacing" textLength="31.6846" x="243" y="251.7885">uses</text></g><!--link reviewer to frontend--><g class="link" data-entity-1="ent0004" data-entity-2="ent0008" data-link-type="dependency" data-source-line="54" id="lnk19"><path d="M158.12,315.7286 C190.01,313.8386 235.49,310.4186 275,304.7186 C285.3,303.2286 291.1024,302.3428 301.7624,300.3828" fill="none" id="reviewer-to-frontend" style="stroke:#495057;stroke-width:1.2;"/><polygon fill="#495057" points="306.68,299.4786,297.105,297.1721,301.7624,300.3828,298.5517,305.0402,306.68,299.4786" style="stroke:#495057;stroke-width:1.2;stroke-linejoin:miter;stroke-miterlimit:10;"/><text fill="#000000" font-family="Arial" font-size="15" lengthAdjust="spacing" textLength="31.6846" x="243" y="300.7885">uses</text></g><!--link operator to frontend--><g class="link" data-entity-1="ent0005" data-entity-2="ent0008" data-link-type="dependency" data-source-line="55" id="lnk20"><path d="M182.04,371.2086 C199.07,365.9386 217.34,359.9286 234,353.7186 C262.53,343.0886 288.5361,332.1208 315.8461,319.9008" fill="none" id="operator-to-frontend" style="stroke:#495057;stroke-width:1.2;"/><polygon fill="#495057" points="320.41,317.8586,310.5612,317.8834,315.8461,319.9008,313.8286,325.1857,320.41,317.8586" style="stroke:#495057;stroke-width:1.2;stroke-linejoin:miter;stroke-miterlimit:10;"/><text fill="#000000" font-family="Arial" font-size="15" lengthAdjust="spacing" textLength="31.6846" x="243" y="334.7885">uses</text></g><!--link frontend to api--><g class="link" data-entity-1="ent0008" data-entity-2="ent0009" data-link-type="dependency" data-source-line="57" id="lnk21"><path d="M506.03,277.7186 C552.39,277.7186 601.98,277.7186 645.84,277.7186" fill="none" id="frontend-to-api" style="stroke:#495057;stroke-width:1.2;"/><polygon fill="#495057" points="650.84,277.7186,641.84,273.7186,645.84,277.7186,641.84,281.7186,650.84,277.7186" style="stroke:#495057;stroke-width:1.2;stroke-linejoin:miter;stroke-miterlimit:10;"/><text fill="#000000" font-family="Arial" font-size="15" lengthAdjust="spacing" textLength="83.335" x="537" y="273.7885">HTTP/JSON</text></g><!--link api to flow_auth--><g class="link" data-entity-1="ent0009" data-entity-2="ent0006" data-link-type="dependency" data-source-line="58" id="lnk22"><path d="M814.26,304.0486 C873.29,323.2986 948.5263,347.8388 1009.1063,367.5888" fill="none" id="api-to-flow_auth" style="stroke:#495057;stroke-width:1.2;"/><polygon fill="#495057" points="1013.86,369.1386,1006.5431,362.546,1009.1063,367.5888,1004.0634,370.152,1013.86,369.1386" style="stroke:#495057;stroke-width:1.2;stroke-linejoin:miter;stroke-miterlimit:10;"/><text fill="#000000" font-family="Arial" font-size="15" lengthAdjust="spacing" textLength="128.3936" x="845" y="312.7885">verify identity token</text></g><!--link api to authorization--><g class="link" data-entity-1="ent0009" data-entity-2="ent0010" data-link-type="dependency" data-source-line="59" id="lnk23"><path d="M814.26,277.7186 C870.12,277.7186 939.74,277.7186 998.92,277.7186" fill="none" id="api-to-authorization" style="stroke:#495057;stroke-width:1.2;"/><polygon fill="#495057" points="1003.92,277.7186,994.92,273.7186,998.92,277.7186,994.92,281.7186,1003.92,277.7186" style="stroke:#495057;stroke-width:1.2;stroke-linejoin:miter;stroke-miterlimit:10;"/><text fill="#000000" font-family="Arial" font-size="15" lengthAdjust="spacing" textLength="128.4082" x="845" y="273.7885">authorize capability</text></g><!--link authorization to postgres--><g class="link" data-entity-1="ent0010" data-entity-2="ent0015" data-link-type="dependency" data-source-line="60" id="lnk24"><path d="M1201.43,279.1286 C1417.48,282.2286 1926.8405,289.5367 2129.1805,292.4467" fill="none" id="authorization-to-postgres" style="stroke:#495057;stroke-width:1.2;"/><polygon fill="#495057" points="2134.18,292.5186,2125.2385,288.3896,2129.1805,292.4467,2125.1234,296.3888,2134.18,292.5186" style="stroke:#495057;stroke-width:1.2;stroke-linejoin:miter;stroke-miterlimit:10;"/><text fill="#000000" font-family="Arial" font-size="15" lengthAdjust="spacing" textLength="123.4058" x="1630" y="281.7885">profiles and grants</text></g><!--link api to postgres--><g class="link" data-entity-1="ent0009" data-entity-2="ent0015" data-link-type="dependency" data-source-line="61" id="lnk25"><path d="M770.27,317.9586 C832.06,380.9486 963.57,495.7186 1101.5,495.7186 C1101.5,495.7186 1101.5,495.7186 1903,495.7186 C1998.18,495.7186 2083.9695,433.0276 2143.0395,376.4376" fill="none" id="api-to-postgres" style="stroke:#495057;stroke-width:1.2;"/><polygon fill="#495057" points="2146.65,372.9786,2137.3839,376.3163,2143.0395,376.4376,2142.9182,382.0931,2146.65,372.9786" style="stroke:#495057;stroke-width:1.2;stroke-linejoin:miter;stroke-miterlimit:10;"/><text fill="#000000" font-family="Arial" font-size="15" lengthAdjust="spacing" textLength="130.8838" x="1434.5" y="491.7885">SQLAlchemy async</text></g><!--link api to storage_adapter--><g class="link" data-entity-1="ent0009" data-entity-2="ent0013" data-link-type="dependency" data-source-line="62" id="lnk26"><path d="M771.36,237.4986 C791.6,217.5086 817.72,193.9986 844,176.7186 C909.15,133.8786 927.76,121.0786 1004,104.7186 C1291.09,43.0986 1636.7894,82.8404 1801.7394,108.4904" fill="none" id="api-to-storage_adapter" style="stroke:#495057;stroke-width:1.2;"/><polygon fill="#495057" points="1806.68,109.2586,1798.4015,103.9232,1801.7394,108.4904,1797.1723,111.8282,1806.68,109.2586" style="stroke:#495057;stroke-width:1.2;stroke-linejoin:miter;stroke-miterlimit:10;"/><text fill="#000000" font-family="Arial" font-size="15" lengthAdjust="spacing" textLength="160.0928" x="1232" y="68.7885">typed artifact operations</text></g><!--link api to jobs--><g class="link" data-entity-1="ent0009" data-entity-2="ent0011" data-link-type="dependency" data-source-line="63" id="lnk27"><path d="M814.26,252.4786 C870.86,234.7986 941.9476,212.5801 1001.4976,193.9701" fill="none" id="api-to-jobs" style="stroke:#495057;stroke-width:1.2;"/><polygon fill="#495057" points="1006.27,192.4786,996.4866,191.3453,1001.4976,193.9701,998.8728,198.9811,1006.27,192.4786" style="stroke:#495057;stroke-width:1.2;stroke-linejoin:miter;stroke-miterlimit:10;"/><text fill="#000000" font-family="Arial" font-size="15" lengthAdjust="spacing" textLength="95.8813" x="861.5" y="199.7885">schedule work</text></g><!--link jobs to checker--><g class="link" data-entity-1="ent0011" data-entity-2="ent0012" data-link-type="dependency" data-source-line="64" id="lnk28"><path d="M1198.62,167.0486 C1267.33,170.1886 1353.8952,174.1308 1417.7052,177.0408" fill="none" id="jobs-to-checker" style="stroke:#495057;stroke-width:1.2;"/><polygon fill="#495057" points="1422.7,177.2686,1413.8916,172.8628,1417.7052,177.0408,1413.5271,180.8545,1422.7,177.2686" style="stroke:#495057;stroke-width:1.2;stroke-linejoin:miter;stroke-miterlimit:10;"/><text fill="#000000" font-family="Arial" font-size="15" lengthAdjust="spacing" textLength="72.5317" x="1276" y="164.7885">run checks</text></g><!--link checker to postgres--><g class="link" data-entity-1="ent0012" data-entity-2="ent0015" data-link-type="dependency" data-source-line="65" id="lnk29"><path d="M1576.27,192.6486 C1711.53,213.9586 1988.6209,257.5908 2129.3909,279.7608" fill="none" id="checker-to-postgres" style="stroke:#495057;stroke-width:1.2;"/><polygon fill="#495057" points="2134.33,280.5386,2126.0619,275.1872,2129.3909,279.7608,2124.8173,283.0898,2134.33,280.5386" style="stroke:#495057;stroke-width:1.2;stroke-linejoin:miter;stroke-miterlimit:10;"/><text fill="#000000" font-family="Arial" font-size="15" lengthAdjust="spacing" textLength="44.1797" x="1880" y="225.7885">results</text></g><!--link checker to storage_adapter--><g class="link" data-entity-1="ent0012" data-entity-2="ent0013" data-link-type="dependency" data-source-line="66" id="lnk30"><path d="M1576.3,170.3086 C1641.73,161.3286 1731.5565,148.9887 1801.8465,139.3387" fill="none" id="checker-to-storage_adapter" style="stroke:#495057;stroke-width:1.2;"/><polygon fill="#495057" points="1806.8,138.6586,1797.3396,135.9199,1801.8465,139.3387,1798.4277,143.8456,1806.8,138.6586" style="stroke:#495057;stroke-width:1.2;stroke-linejoin:miter;stroke-miterlimit:10;"/><text fill="#000000" font-family="Arial" font-size="15" lengthAdjust="spacing" textLength="169.2261" x="1607" y="139.7885">materialize exact artifacts</text></g><!--link storage_adapter to file_store--><g class="link" data-entity-1="ent0013" data-entity-2="ent0016" data-link-type="dependency" data-source-line="67" id="lnk31"><path d="M1997.08,129.8986 C2039.14,131.7686 2083.4449,133.7364 2124.7949,135.5764" fill="none" id="storage_adapter-to-file_store" style="stroke:#495057;stroke-width:1.2;"/><polygon fill="#495057" points="2129.79,135.7986,2120.9767,131.4025,2124.7949,135.5764,2120.6211,139.3946,2129.79,135.7986" style="stroke:#495057;stroke-width:1.2;stroke-linejoin:miter;stroke-miterlimit:10;"/><text fill="#000000" font-family="Arial" font-size="15" lengthAdjust="spacing" textLength="67.5366" x="2030" y="127.7885">store/read</text></g><?plantuml-src RLPHSzeu47xthzZX7Yzf0YaG-d0pXiRJt3GD3Rdh2pCPsLf0nKWUIORIc_llNKcsCIuyC4Yx--tkfsztiCBc2D-KtXghaUrWV_kk3pCbBHCIDVmhy115EQuiM0LQh3SMkD2OMQ5a59cja0NJ59UoRBlMgfHyfdAbuO_4VreUPiEuEWYvXXNB3ROiFYnJsYMyRzrpNB4ojmbLyuNj468jM7xPlX0_4Vh3bZ7MMXsgMjvFXhV3STVukX7PLg8nq7ytQ1aBQeMjSM6FH8rhbSbrVbPlVGV_HG1JfJdgAbD_DdxuE7AtNJuUnicG-01mvLPtjzF1vFqW-h_T4xCiPUO2zEqi7etlBqAFabaox42FxgQ3sHbqbgkI_uvxFxf_c5miEUadTrtSGNym74m8DwfeWjuSLP5ZZ_plaqaI-mmdYdfphRxJ2PwO97VT0sQW27Tlkt3NIjKA_5II-JfUexHBwIIfHLfQ5H2oq_boz0lkIRjLFbqTBhi-5wYP0xg1ECkS86A-4z97gjfMHrBdWSXUagi3nANTBEKrVPRoLMrHWZ2cf4nCygNSk1P0S6f1s2COLUeCFUwAWjyO1RU8x8nXO7IQ95r6Nv0Hdt_IS5g4K3nDeu5_7kjAvZcJ4Za8QL5BbY-bEhbnPZQfOfg7GZGnYPAVfqYOiV7yqMi2NIS1zqdnCcSQTaggNDWDaCzIKgjmeDfTJw3B78r7PeKu1tLSAIr--ZfWWNelCgoXuyonJC9O2GAuWbnbB8UrPjAQgv0ZOmLBHUwOp3QORQiqRTJpX3FCKH_zUgCNcJffCtsiCtuiDKl9hH8Z6BHbGQayDkehzuJEo4ioVbTfIET-TB84VtWfYNFTz4FIt35BZs2PsGOvc3BTaJnSzwq6gdmThhGLA_VC2wB5gQDB5w-Ghc2FMgn4vlkdybCXEMtPflmzoO-8LThwR2RWlJ7E2XB7sIJNZBmWRMDkd0079C2n5s2pcNfpPUnQesdK5WYaHrkNbCmzb-kPpgU6JKqitOPfT3VkLx2U1ZfqKR3ZZgR6EHUbhNjZ9HSMS4-Mm5rHbT9TEMBFt6oa_c4TXKJS53T43TJCLhUXXSzURJVm9EJZizi3tnQmk0i3GdfySwnXisaTPvqDTdtzLpDAy05AGpMrTzGbUxELBXcRnNF963KNpag3HePFhw_pcxyNpryYT_PHzOuXgnV9yRIAhDjLZUVP395tVSRMp4NdJYwiPfyYwi7rgWjJsw2tt1PVFySvwM1t96gFCcjyEh8aLtiiQ7XOFGUd1TR4k54aHqDuj9RGxw38NpfhDLRaeCjwtgBwibCMVTCVYNFpxnMvSNP_GHml-CCLLLTdegwtv_-ad0yU3czekVFe5m00?></g></svg>