<svg xmlns="http://www.w3.org/2000/svg" xmlns:xlink="http://www.w3.org/1999/xlink" contentStyleType="text/css" data-diagram-type="DESCRIPTION" height="571px" preserveAspectRatio="none" style="width:991px;height:571px;background:#FFFFFF;" version="1.1" viewBox="0 0 991 571" width="991px" zoomAndPan="magnify"><?plantuml 1.2026.6?><defs/><g><g class="title" data-source-line="1"><text fill="#000000" font-family="Arial" font-size="14" font-weight="700" lengthAdjust="spacing" textLength="190.6133" x="397.0154" y="23.1318">Workstream System Context</text></g><!--entity project_manager--><g class="entity" data-qualified-name="project_manager" data-source-line="29" id="ent0001"><rect fill="#F1F3F5" height="96.9941" rx="4" ry="4" style="stroke:#1C7ED6;stroke-width:0.5;" width="133.3789" x="52" y="62.9957"/><text fill="#0B2942" font-family="Arial" font-size="15" lengthAdjust="spacing" textLength="110.0537" x="62" y="87.0656">Project Manager</text><line style="stroke:#1C7ED6;stroke-width:1;" x1="53" x2="184.3789" y1="90.2443" y2="90.2443"/><text fill="#0B2942" font-family="Arial" font-size="15" lengthAdjust="spacing" textLength="113.3789" x="62" y="108.3141">Creates projects,</text><text fill="#0B2942" font-family="Arial" font-size="15" lengthAdjust="spacing" textLength="106.7285" x="62" y="125.5626">guides, policies,</text><text fill="#0B2942" font-family="Arial" font-size="15" lengthAdjust="spacing" textLength="64.2041" x="62" y="142.8112">and tasks</text></g><!--entity contributor--><g class="entity" data-qualified-name="contributor" data-source-line="30" id="ent0002"><rect fill="#F1F3F5" height="114.2427" rx="4" ry="4" style="stroke:#1C7ED6;stroke-width:0.5;" width="139.2529" x="49" y="195.4957"/><text fill="#0B2942" font-family="Arial" font-size="15" lengthAdjust="spacing" textLength="92.5488" x="59" y="219.5656">Human-Agent</text><text fill="#0B2942" font-family="Arial" font-size="15" lengthAdjust="spacing" textLength="74.2017" x="59" y="236.8141">Contributor</text><line style="stroke:#1C7ED6;stroke-width:1;" x1="50" x2="187.2529" y1="239.9928" y2="239.9928"/><text fill="#0B2942" font-family="Arial" font-size="15" lengthAdjust="spacing" textLength="85.8398" x="59" y="258.0626">Claims work,</text><text fill="#0B2942" font-family="Arial" font-size="15" lengthAdjust="spacing" textLength="111.709" x="59" y="275.3112">submits packets,</text><text fill="#0B2942" font-family="Arial" font-size="15" lengthAdjust="spacing" textLength="119.2529" x="59" y="292.5597">and attests output</text></g><!--entity reviewer--><g class="entity" data-qualified-name="reviewer" data-source-line="31" id="ent0003"><rect fill="#F1F3F5" height="96.9941" rx="4" ry="4" style="stroke:#1C7ED6;stroke-width:0.5;" width="145.061" x="46" y="344.9957"/><text fill="#0B2942" font-family="Arial" font-size="15" lengthAdjust="spacing" textLength="62.5195" x="56" y="369.0656">Reviewer</text><line style="stroke:#1C7ED6;stroke-width:1;" x1="47" x2="190.061" y1="372.2443" y2="372.2443"/><text fill="#0B2942" font-family="Arial" font-size="15" lengthAdjust="spacing" textLength="125.061" x="56" y="390.3141">Reviews evidence,</text><text fill="#0B2942" font-family="Arial" font-size="15" lengthAdjust="spacing" textLength="85.0635" x="56" y="407.5626">findings, and</text><text fill="#0B2942" font-family="Arial" font-size="15" lengthAdjust="spacing" textLength="100.8691" x="56" y="424.8112">checker results</text></g><!--entity operator--><g class="entity" data-qualified-name="operator" data-source-line="32" id="ent0004"><rect fill="#F1F3F5" height="79.7456" rx="4" ry="4" style="stroke:#1C7ED6;stroke-width:0.5;" width="222.6099" x="7" y="477.4957"/><text fill="#0B2942" font-family="Arial" font-size="15" lengthAdjust="spacing" textLength="166.7285" x="17" y="501.5656">Operator / Access Admin</text><line style="stroke:#1C7ED6;stroke-width:1;" x1="8" x2="228.6099" y1="504.7443" y2="504.7443"/><text fill="#0B2942" font-family="Arial" font-size="15" lengthAdjust="spacing" textLength="180.0732" x="17" y="522.8141">Audits, performs registered</text><text fill="#0B2942" font-family="Arial" font-size="15" lengthAdjust="spacing" textLength="202.6099" x="17" y="540.0626">recovery, and manages grants</text></g><!--entity workstream--><g class="entity" data-qualified-name="workstream" data-source-line="34" id="ent0005"><rect fill="#E7F5FF" height="96.9941" rx="4" ry="4" style="stroke:#1C7ED6;stroke-width:0.5;" width="155.9009" x="350" y="274.9957"/><text fill="#0B2942" font-family="Arial" font-size="15" lengthAdjust="spacing" textLength="80.8374" x="360" y="299.0656">Workstream</text><line style="stroke:#1C7ED6;stroke-width:1;" x1="351" x2="504.9009" y1="302.2443" y2="302.2443"/><text fill="#0B2942" font-family="Arial" font-size="15" lengthAdjust="spacing" textLength="135.9009" x="360" y="320.3141">Flow task evaluation</text><text fill="#0B2942" font-family="Arial" font-size="15" lengthAdjust="spacing" textLength="106.7432" x="360" y="337.5626">and contribution</text><text fill="#0B2942" font-family="Arial" font-size="15" lengthAdjust="spacing" textLength="87.5317" x="360" y="354.8112">infrastructure</text></g><!--entity flow_auth--><g class="entity" data-qualified-name="flow_auth" data-source-line="36" id="ent0006"><path d="M786.6672,51.763 C791.0476,45.335 796.8891,47.0915 800.0541,53.074 C801.9589,47.1361 807.1083,45.6827 811.1747,50.9236 C815.4941,45.7786 820.1575,46.0209 823.2675,52.2136 C825.1319,45.7719 830.519,44.4054 834.7363,49.9651 C839.303,43.7363 843.9842,43.0986 848.512,50.0059 C851.2675,44.8997 856.4215,44.2207 859.293,49.8898 C862.9948,44.3355 868.9207,44.0258 872.0826,50.4654 C876.8203,44.7948 880.9345,45.6031 884.555,51.6541 C888.6929,46.4449 892.1233,46.523 895.1584,52.6826 C899.4764,45.7517 904.3542,46.9406 908.3804,52.98 C914.9698,55.8432 915.6793,62.2708 909.169,65.9317 C916.0344,68.5122 915.2995,72.5577 911.2848,77.1841 C917.6571,79.409 919.7792,84.9121 914.3806,89.9839 C919.903,94.7042 918.083,100.2026 911.6159,102.2121 C916.9008,106.6992 915.077,111.5857 909.435,114.0618 C914.3905,118.0519 913.8393,123.5012 908.1159,126.3445 C904.5781,132.9227 899.0499,131.8511 895.3639,126.503 C893.302,132.786 888.2877,133.5736 884.5374,128.0514 C880.8648,135.2663 875.8382,135.8186 871.2516,128.9113 C868.3533,134.8212 864.6478,134.5772 860.4901,130.233 C856.9318,136.54 851.731,137.9674 847.3601,131.0392 C843.5638,135.3755 838.6304,135.0083 835.8881,129.7757 C832.4643,134.9606 826.3279,135.7209 823.2704,129.3748 C818.3783,134.4235 813.4461,134.802 810.641,127.2783 C806.9095,132.6544 801.6148,132.2904 799.0552,126.104 C795.0643,132.6222 790.309,132.3217 786.5419,125.8877 C779.5311,122.8631 778.4958,118.4637 783.9761,112.9599 C777.8086,110.0012 776.2825,106.3948 781.2966,100.9429 C775.8965,98.0949 775.1506,94.8783 779.6929,90.503 C774.3622,85.3937 774.3528,80.2865 781.6515,77.0104 C775.8296,71.9884 778.5895,67.0756 784.4209,64.6686 C779.2731,60.2287 779.2847,54.0219 786.6672,51.763" fill="#F1F3F5" style="stroke:#868E96;stroke-width:0.5;"/><text fill="#212529" font-family="Arial" font-size="15" lengthAdjust="spacing" textLength="84.1992" x="793" y="72.5656">Flow Identity</text><line style="stroke:#868E96;stroke-width:1;" x1="779" x2="913.7505" y1="75.7443" y2="75.7443"/><text fill="#212529" font-family="Arial" font-size="15" lengthAdjust="spacing" textLength="100.0488" x="793" y="93.8141">Human identity</text><text fill="#212529" font-family="Arial" font-size="15" lengthAdjust="spacing" textLength="106.7505" x="793" y="111.0626">and auth tokens</text></g><!--entity postgres--><g class="entity" data-qualified-name="postgres" data-source-line="37" id="ent0007"><path d="M779.5,178.9957 C779.5,168.9957 846.6216,168.9957 846.6216,168.9957 C846.6216,168.9957 913.7432,168.9957 913.7432,178.9957 L913.7432,230.4928 C913.7432,240.4928 846.6216,240.4928 846.6216,240.4928 C846.6216,240.4928 779.5,240.4928 779.5,230.4928 L779.5,178.9957" fill="#E6FCF5" style="stroke:#0CA678;stroke-width:0.5;"/><path d="M779.5,178.9957 C779.5,188.9957 846.6216,188.9957 846.6216,188.9957 C846.6216,188.9957 913.7432,188.9957 913.7432,178.9957" fill="none" style="stroke:#0CA678;stroke-width:0.5;"/><text fill="#063B2C" font-family="Arial" font-size="15" lengthAdjust="spacing" textLength="59.1943" x="789.5" y="207.0656">Postgres</text><path d="M779.5,205.2443 C779.5,215.2443 846.6216,215.2443 846.6216,215.2443 C846.6216,215.2443 913.7432,215.2443 913.7432,205.2443" fill="none" style="stroke:#0CA678;stroke-width:1;"/><text fill="#063B2C" font-family="Arial" font-size="15" lengthAdjust="spacing" textLength="114.2432" x="789.5" y="228.3141">Record database</text></g><!--entity storage--><g class="entity" data-qualified-name="storage" data-source-line="38" id="ent0008"><rect fill="#E6FCF5" height="96.9941" rx="4" ry="4" style="stroke:#1C7ED6;stroke-width:0.5;" width="172.5708" x="760" y="274.9957"/><text fill="#0B2942" font-family="Arial" font-size="15" lengthAdjust="spacing" textLength="100.0562" x="770" y="299.0656">Object Storage</text><text fill="#0B2942" font-family="Arial" font-size="15" lengthAdjust="spacing" textLength="75.0366" x="770" y="316.3141">Abstraction</text><line style="stroke:#1C7ED6;stroke-width:1;" x1="761" x2="931.5708" y1="319.4928" y2="319.4928"/><text fill="#0B2942" font-family="Arial" font-size="15" lengthAdjust="spacing" textLength="71.7114" x="770" y="337.5626">Local now;</text><text fill="#0B2942" font-family="Arial" font-size="15" lengthAdjust="spacing" textLength="152.5708" x="770" y="354.8112">R2/S3-compatible later</text></g><!--entity future_boundary--><g class="entity" data-qualified-name="future_boundary" data-source-line="40" id="ent0009"><rect fill="#FFF3BF" height="131.4912" rx="4" ry="4" style="stroke:#1C7ED6;stroke-width:0.5;" width="262.644" x="715" y="406.9957"/><text fill="#0B2942" font-family="Arial" font-size="15" lengthAdjust="spacing" textLength="168.4351" x="725" y="431.0656">Future Adapter Boundary</text><line style="stroke:#1C7ED6;stroke-width:1;" x1="716" x2="976.644" y1="434.2443" y2="434.2443"/><text fill="#0B2942" font-family="Arial" font-size="15" lengthAdjust="spacing" textLength="135.0586" x="725" y="452.3141">External task origins</text><text fill="#0B2942" font-family="Arial" font-size="15" lengthAdjust="spacing" textLength="234.3164" x="725" y="469.5626">ERC-8004 agent identity/reputation</text><text fill="#0B2942" font-family="Arial" font-size="15" lengthAdjust="spacing" textLength="210.9155" x="725" y="486.8112">ERC-8183 task contract/escrow</text><text fill="#0B2942" font-family="Arial" font-size="15" lengthAdjust="spacing" textLength="242.5781" x="725" y="504.0597">x402 / OmniClaw / USDC settlement</text><text fill="#0B2942" font-family="Arial" font-size="15" lengthAdjust="spacing" textLength="242.644" x="725" y="521.3082">Reputation and reporting consumers</text></g><!--link project_manager to workstream--><g class="link" data-entity-1="ent0001" data-entity-2="ent0005" data-link-type="dependency" data-source-line="42" id="lnk10"><path d="M185.03,149.1757 C199.98,158.1757 215.68,167.9457 230,177.4957 C276.22,208.3157 322.5376,242.6193 360.7376,271.8193" fill="none" id="project_manager-to-workstream" style="stroke:#495057;stroke-width:1.2;"/><polygon fill="#495057" points="364.71,274.8557,359.9889,266.2122,360.7376,271.8193,355.1305,272.568,364.71,274.8557" style="stroke:#495057;stroke-width:1.2;stroke-linejoin:miter;stroke-miterlimit:10;"/><text fill="#000000" font-family="Arial" font-size="15" lengthAdjust="spacing" textLength="58.374" x="261" y="196.5656">operates</text></g><!--link contributor to workstream--><g class="link" data-entity-1="ent0002" data-entity-2="ent0005" data-link-type="dependency" data-source-line="43" id="lnk11"><path d="M188.13,268.3457 C236.09,279.4157 295.3384,293.0899 345.0584,304.5799" fill="none" id="contributor-to-workstream" style="stroke:#495057;stroke-width:1.2;"/><polygon fill="#495057" points="349.93,305.7057,342.0617,299.782,345.0584,304.5799,340.2605,307.5766,349.93,305.7057" style="stroke:#495057;stroke-width:1.2;stroke-linejoin:miter;stroke-miterlimit:10;"/><text fill="#000000" font-family="Arial" font-size="15" lengthAdjust="spacing" textLength="51.6797" x="264.5" y="282.5656">submits</text></g><!--link reviewer to workstream--><g class="link" data-entity-1="ent0003" data-entity-2="ent0005" data-link-type="dependency" data-source-line="44" id="lnk12"><path d="M191.21,377.1757 C238.77,366.3457 296.2646,353.2551 344.9146,342.1851" fill="none" id="reviewer-to-workstream" style="stroke:#495057;stroke-width:1.2;"/><polygon fill="#495057" points="349.79,341.0757,340.1268,339.1723,344.9146,342.1851,341.9018,346.9729,349.79,341.0757" style="stroke:#495057;stroke-width:1.2;stroke-linejoin:miter;stroke-miterlimit:10;"/><text fill="#000000" font-family="Arial" font-size="15" lengthAdjust="spacing" textLength="50.8447" x="265" y="344.5656">reviews</text></g><!--link operator to workstream--><g class="link" data-entity-1="ent0004" data-entity-2="ent0005" data-link-type="dependency" data-source-line="45" id="lnk13"><path d="M198.62,477.4557 C209.28,471.6257 219.99,465.5457 230,459.4957 C274.81,432.4057 319.1733,401.9447 356.7933,375.0347" fill="none" id="operator-to-workstream" style="stroke:#495057;stroke-width:1.2;"/><polygon fill="#495057" points="360.86,372.1257,351.2128,374.1085,356.7933,375.0347,355.8671,380.6152,360.86,372.1257" style="stroke:#495057;stroke-width:1.2;stroke-linejoin:miter;stroke-miterlimit:10;"/><text fill="#000000" font-family="Arial" font-size="15" lengthAdjust="spacing" textLength="40.0269" x="270" y="398.5656">audits</text></g><!--link workstream to flow_auth--><g class="link" data-entity-1="ent0005" data-entity-2="ent0006" data-link-type="dependency" data-source-line="47" id="lnk14"><path d="M476.11,274.8457 C493.87,258.1657 514.89,240.2657 536,226.4957 C613.61,175.8757 708.1738,137.0221 773.0738,113.3021" fill="none" id="workstream-to-flow_auth" style="stroke:#495057;stroke-width:1.2;"/><polygon fill="#495057" points="777.77,111.5857,767.9438,110.9183,773.0738,113.3021,770.69,118.4322,777.77,111.5857" style="stroke:#495057;stroke-width:1.2;stroke-linejoin:miter;stroke-miterlimit:10;"/><text fill="#000000" font-family="Arial" font-size="15" lengthAdjust="spacing" textLength="147.5684" x="537" y="145.5656">verifies identity tokens</text></g><!--link workstream to postgres--><g class="link" data-entity-1="ent0005" data-entity-2="ent0007" data-link-type="dependency" data-source-line="48" id="lnk15"><path d="M506.36,301.3957 C584.82,278.9757 700.1524,246.0294 774.3824,224.8194" fill="none" id="workstream-to-postgres" style="stroke:#495057;stroke-width:1.2;"/><polygon fill="#495057" points="779.19,223.4457,769.4374,222.0723,774.3824,224.8194,771.6353,229.7645,779.19,223.4457" style="stroke:#495057;stroke-width:1.2;stroke-linejoin:miter;stroke-miterlimit:10;"/><text fill="#000000" font-family="Arial" font-size="15" lengthAdjust="spacing" textLength="107.5342" x="557" y="249.5656">records lifecycle</text></g><!--link workstream to storage--><g class="link" data-entity-1="ent0005" data-entity-2="ent0008" data-link-type="dependency" data-source-line="49" id="lnk16"><path d="M506.36,323.4957 C578.35,323.4957 680.43,323.4957 754.94,323.4957" fill="none" id="workstream-to-storage" style="stroke:#495057;stroke-width:1.2;"/><polygon fill="#495057" points="759.94,323.4957,750.94,319.4957,754.94,323.4957,750.94,327.4957,759.94,323.4957" style="stroke:#495057;stroke-width:1.2;stroke-linejoin:miter;stroke-miterlimit:10;"/><text fill="#000000" font-family="Arial" font-size="15" lengthAdjust="spacing" textLength="105.0586" x="558" y="319.5656">stores evidence</text></g><!--link future_boundary to workstream--><g class="link" data-entity-1="ent0009" data-entity-2="ent0005" data-link-type="dependency" data-source-line="51" id="lnk17"><path d="M714.8,486.6057 C657.16,487.2957 590.33,480.1857 536,452.4957 C501.52,434.9157 476.6963,404.99 458.1963,376.25" fill="none" id="future_boundary-to-workstream" style="stroke:#495057;stroke-width:1.2;stroke-dasharray:7,7;"/><polygon fill="#495057" points="455.49,372.0457,456.9979,381.7785,458.1963,376.25,463.7248,377.4484,455.49,372.0457" style="stroke:#495057;stroke-width:1.2;stroke-linejoin:miter;stroke-miterlimit:10;"/><text fill="#000000" font-family="Arial" font-size="15" lengthAdjust="spacing" textLength="89.2163" x="566" y="448.5656">source intake</text></g><!--link workstream to future_boundary--><g class="link" data-entity-1="ent0005" data-entity-2="ent0009" data-link-type="dependency" data-source-line="52" id="lnk18"><path d="M506.36,351.1757 C564.82,372.0857 641.7223,399.5913 710.2223,424.1013" fill="none" id="workstream-to-future_boundary" style="stroke:#495057;stroke-width:1.2;stroke-dasharray:7,7;"/><polygon fill="#495057" points="714.93,425.7857,707.8037,418.9875,710.2223,424.1013,705.1085,426.5199,714.93,425.7857" style="stroke:#495057;stroke-width:1.2;stroke-linejoin:miter;stroke-miterlimit:10;"/><text fill="#000000" font-family="Arial" font-size="15" lengthAdjust="spacing" textLength="104.2456" x="558.5" y="359.5656">adapter outputs</text></g><?plantuml-src RLHTZzew47tFhx2shsKNmiAohLI9JObQgLzQxjLzGLePPn9S4XlPJbbQzR_V4-U3R1PUWF7ud9dZC-EaoudzfytUEaEyOEkJTLImI2j7pou8SaeTSvePcUqSIwGXuQHMGM3tKXsumPKj5_lCw58baSwrOMzY_-bbs1rFz56gZAKyjzGxyTU4DeeCM_JY2QMyp5sCChxnWjZII9vVFb_BtyGcizxXqXXzR6gvlP-DPtV3mtzsKkmLMSicrs7ly81MU4PhTu8gLQjSPVcBUjiO-nCmzg1DGgPXcaHtgu_pAZhKOtKNpw07OrMvJMpy4DxVXi7VVa_SyIst5w37qN9-jxW8FO-ZU3Q0dayVmkW5jCXrcRp6NSmNg_kB9SUJU3h43IVXBBm7Rd1MuUg7qJ_nZttb2iAPZHhXir4HpEJ8iaDzRDzkL5RAXEnRTj2v59Ag45S9SzpkxHNZNUvJKKDrHVJOFfKu72qpKWuSACt8RUdqcJRdih3i23y3tfRRGZhhNvLSIyWT2aDKb-vGEiyipaYNM1_fbwJZkRdwlsNuIaW90d0gLG9_eprGR9JO4IWDx6BXqhezqw1SOlX-8CChzXks5ABovJ8ff6e9bsM2FY0TcLIReiBA9ERK4BW0et-HENbgLejdMMQuQeXr2zuIzvdFez-InRa--bT1VpmlUJNkjNATJ3uYLMeuhfR2bOOyq_6yHrhJ1xNrhZpgPyZbf3krLFuvcUoY_dbAjyF2sPEggqznyQaA1jryNFtGrcNGzlmWM259Dq2rcvgS5p9llLVN40CYGTSjgkMYxgU6-g85pvdIn_U03M_Mqv7GnG4YR06GmzF6eziQeXl0FajSLeBW1Va1wPWuZ1KtNTEhPqGLIBp66ejLAdIoUen6Y_7ubl7AtPqeDuRWqkOHVCvaCQsl-kT0zJTa1NRQHZtVZaCuw7kX90RXY9__hZz6p9B3aY_yp3nsQDuj0DV6LOiPOBOio3IY-nQUjatfVgLF7_2QmnaTZJxqN_rTOpR8tf-fLrdDP0RTJBpAg4ziq9dtLGRtGn44lM2Lq_a5AHWBcMBLT6esnXhUQRtYUIihMPRBbCH9OFaFSjkNV-T_qNaB1C5GjUlhOTkwD8AOL8xlNm1NcSFRwB1nKBsfRF0_?></g></svg>