<svg xmlns="http://www.w3.org/2000/svg" xmlns:xlink="http://www.w3.org/1999/xlink" contentStyleType="text/css" data-diagram-type="DESCRIPTION" height="571px" preserveAspectRatio="none" style="width:1091px;height:571px;background:#FFFFFF;" version="1.1" viewBox="0 0 1091 571" width="1091px" zoomAndPan="magnify"><?plantuml 1.2026.6?><defs/><g><g class="title" data-source-line="1"><text fill="#000000" font-family="Arial" font-size="14" font-weight="700" lengthAdjust="spacing" textLength="190.6133" x="447.0154" y="23.1318">Workstream System Context</text></g><!--entity project_manager--><g class="entity" data-qualified-name="project_manager" data-source-line="29" id="ent0001"><rect fill="#F1F3F5" height="96.9941" rx="4" ry="4" style="stroke:#1C7ED6;stroke-width:0.5;" width="133.3789" x="52" y="62.9957"/><text fill="#0B2942" font-family="Arial" font-size="15" lengthAdjust="spacing" textLength="110.0537" x="62" y="87.0656">Project Manager</text><line style="stroke:#1C7ED6;stroke-width:1;" x1="53" x2="184.3789" y1="90.2443" y2="90.2443"/><text fill="#0B2942" font-family="Arial" font-size="15" lengthAdjust="spacing" textLength="113.3789" x="62" y="108.3141">Creates projects,</text><text fill="#0B2942" font-family="Arial" font-size="15" lengthAdjust="spacing" textLength="106.7285" x="62" y="125.5626">guides, policies,</text><text fill="#0B2942" font-family="Arial" font-size="15" lengthAdjust="spacing" textLength="64.2041" x="62" y="142.8112">and tasks</text></g><!--entity contributor--><g class="entity" data-qualified-name="contributor" data-source-line="30" id="ent0002"><rect fill="#F1F3F5" height="114.2427" rx="4" ry="4" style="stroke:#1C7ED6;stroke-width:0.5;" width="139.2529" x="49" y="195.4957"/><text fill="#0B2942" font-family="Arial" font-size="15" lengthAdjust="spacing" textLength="92.5488" x="59" y="219.5656">Human-Agent</text><text fill="#0B2942" font-family="Arial" font-size="15" lengthAdjust="spacing" textLength="74.2017" x="59" y="236.8141">Contributor</text><line style="stroke:#1C7ED6;stroke-width:1;" x1="50" x2="187.2529" y1="239.9928" y2="239.9928"/><text fill="#0B2942" font-family="Arial" font-size="15" lengthAdjust="spacing" textLength="85.8398" x="59" y="258.0626">Claims work,</text><text fill="#0B2942" font-family="Arial" font-size="15" lengthAdjust="spacing" textLength="111.709" x="59" y="275.3112">submits packets,</text><text fill="#0B2942" font-family="Arial" font-size="15" lengthAdjust="spacing" textLength="119.2529" x="59" y="292.5597">and attests output</text></g><!--entity reviewer--><g class="entity" data-qualified-name="reviewer" data-source-line="31" id="ent0003"><rect fill="#F1F3F5" height="96.9941" rx="4" ry="4" style="stroke:#1C7ED6;stroke-width:0.5;" width="145.061" x="46" y="344.9957"/><text fill="#0B2942" font-family="Arial" font-size="15" lengthAdjust="spacing" textLength="62.5195" x="56" y="369.0656">Reviewer</text><line style="stroke:#1C7ED6;stroke-width:1;" x1="47" x2="190.061" y1="372.2443" y2="372.2443"/><text fill="#0B2942" font-family="Arial" font-size="15" lengthAdjust="spacing" textLength="125.061" x="56" y="390.3141">Reviews evidence,</text><text fill="#0B2942" font-family="Arial" font-size="15" lengthAdjust="spacing" textLength="85.0635" x="56" y="407.5626">findings, and</text><text fill="#0B2942" font-family="Arial" font-size="15" lengthAdjust="spacing" textLength="100.8691" x="56" y="424.8112">checker results</text></g><!--entity operator--><g class="entity" data-qualified-name="operator" data-source-line="32" id="ent0004"><rect fill="#F1F3F5" height="79.7456" rx="4" ry="4" style="stroke:#1C7ED6;stroke-width:0.5;" width="222.6099" x="7" y="477.4957"/><text fill="#0B2942" font-family="Arial" font-size="15" lengthAdjust="spacing" textLength="166.7285" x="17" y="501.5656">Operator / Access Admin</text><line style="stroke:#1C7ED6;stroke-width:1;" x1="8" x2="228.6099" y1="504.7443" y2="504.7443"/><text fill="#0B2942" font-family="Arial" font-size="15" lengthAdjust="spacing" textLength="180.0732" x="17" y="522.8141">Audits, performs registered</text><text fill="#0B2942" font-family="Arial" font-size="15" lengthAdjust="spacing" textLength="202.6099" x="17" y="540.0626">recovery, and manages grants</text></g><!--entity workstream--><g class="entity" data-qualified-name="workstream" data-source-line="34" id="ent0005"><rect fill="#E7F5FF" height="96.9941" rx="4" ry="4" style="stroke:#1C7ED6;stroke-width:0.5;" width="155.9009" x="350" y="274.9957"/><text fill="#0B2942" font-family="Arial" font-size="15" lengthAdjust="spacing" textLength="80.8374" x="360" y="299.0656">Workstream</text><line style="stroke:#1C7ED6;stroke-width:1;" x1="351" x2="504.9009" y1="302.2443" y2="302.2443"/><text fill="#0B2942" font-family="Arial" font-size="15" lengthAdjust="spacing" textLength="135.9009" x="360" y="320.3141">Flow task evaluation</text><text fill="#0B2942" font-family="Arial" font-size="15" lengthAdjust="spacing" textLength="106.7432" x="360" y="337.5626">and contribution</text><text fill="#0B2942" font-family="Arial" font-size="15" lengthAdjust="spacing" textLength="87.5317" x="360" y="354.8112">infrastructure</text></g><!--entity flow_auth--><g class="entity" data-qualified-name="flow_auth" data-source-line="36" id="ent0006"><path d="M886.6672,51.763 C891.0476,45.335 896.8891,47.0915 900.0541,53.074 C901.9589,47.1361 907.1083,45.6827 911.1747,50.9236 C915.4941,45.7786 920.1575,46.0209 923.2675,52.2136 C925.1319,45.7719 930.519,44.4054 934.7363,49.9651 C939.303,43.7363 943.9842,43.0986 948.512,50.0059 C951.2675,44.8997 956.4215,44.2207 959.293,49.8898 C962.9948,44.3355 968.9207,44.0258 972.0826,50.4654 C976.8203,44.7948 980.9345,45.6031 984.555,51.6541 C988.6929,46.4449 992.1233,46.523 995.1584,52.6826 C999.4764,45.7517 1004.3542,46.9406 1008.3804,52.98 C1014.9698,55.8432 1015.6793,62.2708 1009.169,65.9317 C1016.0344,68.5122 1015.2995,72.5577 1011.2848,77.1841 C1017.6571,79.409 1019.7792,84.9121 1014.3806,89.9839 C1019.903,94.7042 1018.083,100.2026 1011.6159,102.2121 C1016.9008,106.6992 1015.077,111.5857 1009.435,114.0618 C1014.3905,118.0519 1013.8393,123.5012 1008.1159,126.3445 C1004.5781,132.9227 999.0499,131.8511 995.3639,126.503 C993.302,132.786 988.2877,133.5736 984.5374,128.0514 C980.8648,135.2663 975.8382,135.8186 971.2516,128.9113 C968.3533,134.8212 964.6478,134.5772 960.4901,130.233 C956.9318,136.54 951.731,137.9674 947.3601,131.0392 C943.5638,135.3755 938.6304,135.0083 935.8881,129.7757 C932.4643,134.9606 926.3279,135.7209 923.2704,129.3748 C918.3783,134.4235 913.4461,134.802 910.641,127.2783 C906.9095,132.6544 901.6148,132.2904 899.0552,126.104 C895.0643,132.6222 890.309,132.3217 886.5419,125.8877 C879.5311,122.8631 878.4958,118.4637 883.9761,112.9599 C877.8086,110.0012 876.2825,106.3948 881.2966,100.9429 C875.8965,98.0949 875.1506,94.8783 879.6929,90.503 C874.3622,85.3937 874.3528,80.2865 881.6515,77.0104 C875.8296,71.9884 878.5895,67.0756 884.4209,64.6686 C879.2731,60.2287 879.2847,54.0219 886.6672,51.763" fill="#F1F3F5" style="stroke:#868E96;stroke-width:0.5;"/><text fill="#212529" font-family="Arial" font-size="15" lengthAdjust="spacing" textLength="84.1992" x="893" y="72.5656">Flow Identity</text><line style="stroke:#868E96;stroke-width:1;" x1="879" x2="1013.7505" y1="75.7443" y2="75.7443"/><text fill="#212529" font-family="Arial" font-size="15" lengthAdjust="spacing" textLength="100.0488" x="893" y="93.8141">Human identity</text><text fill="#212529" font-family="Arial" font-size="15" lengthAdjust="spacing" textLength="106.7505" x="893" y="111.0626">and auth tokens</text></g><!--entity postgres--><g class="entity" data-qualified-name="postgres" data-source-line="37" id="ent0007"><path d="M879.5,178.9957 C879.5,168.9957 946.6216,168.9957 946.6216,168.9957 C946.6216,168.9957 1013.7432,168.9957 1013.7432,178.9957 L1013.7432,230.4928 C1013.7432,240.4928 946.6216,240.4928 946.6216,240.4928 C946.6216,240.4928 879.5,240.4928 879.5,230.4928 L879.5,178.9957" fill="#E6FCF5" style="stroke:#0CA678;stroke-width:0.5;"/><path d="M879.5,178.9957 C879.5,188.9957 946.6216,188.9957 946.6216,188.9957 C946.6216,188.9957 1013.7432,188.9957 1013.7432,178.9957" fill="none" style="stroke:#0CA678;stroke-width:0.5;"/><text fill="#063B2C" font-family="Arial" font-size="15" lengthAdjust="spacing" textLength="59.1943" x="889.5" y="207.0656">Postgres</text><path d="M879.5,205.2443 C879.5,215.2443 946.6216,215.2443 946.6216,215.2443 C946.6216,215.2443 1013.7432,215.2443 1013.7432,205.2443" fill="none" style="stroke:#0CA678;stroke-width:1;"/><text fill="#063B2C" font-family="Arial" font-size="15" lengthAdjust="spacing" textLength="114.2432" x="889.5" y="228.3141">Record database</text></g><!--entity storage--><g class="entity" data-qualified-name="storage" data-source-line="38" id="ent0008"><rect fill="#E6FCF5" height="96.9941" rx="4" ry="4" style="stroke:#1C7ED6;stroke-width:0.5;" width="197.5757" x="847.5" y="274.9957"/><text fill="#0B2942" font-family="Arial" font-size="15" lengthAdjust="spacing" textLength="177.5757" x="857.5" y="299.0656">Immutable Artifact Storage</text><line style="stroke:#1C7ED6;stroke-width:1;" x1="848.5" x2="1044.0757" y1="302.2443" y2="302.2443"/><text fill="#0B2942" font-family="Arial" font-size="15" lengthAdjust="spacing" textLength="120.9155" x="857.5" y="320.3141">Local focused dev</text><text fill="#0B2942" font-family="Arial" font-size="15" lengthAdjust="spacing" textLength="132.5464" x="857.5" y="337.5626">MinIO local/CI proof</text><text fill="#0B2942" font-family="Arial" font-size="15" lengthAdjust="spacing" textLength="138.4058" x="857.5" y="354.8112">AWS S3 hosted v0.1</text></g><!--entity future_boundary--><g class="entity" data-qualified-name="future_boundary" data-source-line="40" id="ent0009"><rect fill="#FFF3BF" height="131.4912" rx="4" ry="4" style="stroke:#1C7ED6;stroke-width:0.5;" width="262.644" x="815" y="406.9957"/><text fill="#0B2942" font-family="Arial" font-size="15" lengthAdjust="spacing" textLength="168.4351" x="825" y="431.0656">Future Adapter Boundary</text><line style="stroke:#1C7ED6;stroke-width:1;" x1="816" x2="1076.644" y1="434.2443" y2="434.2443"/><text fill="#0B2942" font-family="Arial" font-size="15" lengthAdjust="spacing" textLength="135.0586" x="825" y="452.3141">External task origins</text><text fill="#0B2942" font-family="Arial" font-size="15" lengthAdjust="spacing" textLength="234.3164" x="825" y="469.5626">ERC-8004 agent identity/reputation</text><text fill="#0B2942" font-family="Arial" font-size="15" lengthAdjust="spacing" textLength="210.9155" x="825" y="486.8112">ERC-8183 task contract/escrow</text><text fill="#0B2942" font-family="Arial" font-size="15" lengthAdjust="spacing" textLength="242.5781" x="825" y="504.0597">x402 / OmniClaw / USDC settlement</text><text fill="#0B2942" font-family="Arial" font-size="15" lengthAdjust="spacing" textLength="242.644" x="825" y="521.3082">Reputation and reporting consumers</text></g><!--link project_manager to workstream--><g class="link" data-entity-1="ent0001" data-entity-2="ent0005" data-link-type="dependency" data-source-line="42" id="lnk10"><path d="M185.03,149.1757 C199.98,158.1757 215.68,167.9457 230,177.4957 C276.22,208.3157 322.5376,242.6193 360.7376,271.8193" fill="none" id="project_manager-to-workstream" style="stroke:#495057;stroke-width:1.2;"/><polygon fill="#495057" points="364.71,274.8557,359.9889,266.2122,360.7376,271.8193,355.1305,272.568,364.71,274.8557" style="stroke:#495057;stroke-width:1.2;stroke-linejoin:miter;stroke-miterlimit:10;"/><text fill="#000000" font-family="Arial" font-size="15" lengthAdjust="spacing" textLength="58.374" x="261" y="196.5656">operates</text></g><!--link contributor to workstream--><g class="link" data-entity-1="ent0002" data-entity-2="ent0005" data-link-type="dependency" data-source-line="43" id="lnk11"><path d="M188.13,268.3457 C236.09,279.4157 295.3384,293.0899 345.0584,304.5799" fill="none" id="contributor-to-workstream" style="stroke:#495057;stroke-width:1.2;"/><polygon fill="#495057" points="349.93,305.7057,342.0617,299.782,345.0584,304.5799,340.2605,307.5766,349.93,305.7057" style="stroke:#495057;stroke-width:1.2;stroke-linejoin:miter;stroke-miterlimit:10;"/><text fill="#000000" font-family="Arial" font-size="15" lengthAdjust="spacing" textLength="51.6797" x="264.5" y="282.5656">submits</text></g><!--link reviewer to workstream--><g class="link" data-entity-1="ent0003" data-entity-2="ent0005" data-link-type="dependency" data-source-line="44" id="lnk12"><path d="M191.21,377.1757 C238.77,366.3457 296.2646,353.2551 344.9146,342.1851" fill="none" id="reviewer-to-workstream" style="stroke:#495057;stroke-width:1.2;"/><polygon fill="#495057" points="349.79,341.0757,340.1268,339.1723,344.9146,342.1851,341.9018,346.9729,349.79,341.0757" style="stroke:#495057;stroke-width:1.2;stroke-linejoin:miter;stroke-miterlimit:10;"/><text fill="#000000" font-family="Arial" font-size="15" lengthAdjust="spacing" textLength="50.8447" x="265" y="344.5656">reviews</text></g><!--link operator to workstream--><g class="link" data-entity-1="ent0004" data-entity-2="ent0005" data-link-type="dependency" data-source-line="45" id="lnk13"><path d="M198.62,477.4557 C209.28,471.6257 219.99,465.5457 230,459.4957 C274.81,432.4057 319.1733,401.9447 356.7933,375.0347" fill="none" id="operator-to-workstream" style="stroke:#495057;stroke-width:1.2;"/><polygon fill="#495057" points="360.86,372.1257,351.2128,374.1085,356.7933,375.0347,355.8671,380.6152,360.86,372.1257" style="stroke:#495057;stroke-width:1.2;stroke-linejoin:miter;stroke-miterlimit:10;"/><text fill="#000000" font-family="Arial" font-size="15" lengthAdjust="spacing" textLength="40.0269" x="270" y="398.5656">audits</text></g><!--link workstream to flow_auth--><g class="link" data-entity-1="ent0005" data-entity-2="ent0006" data-link-type="dependency" data-source-line="47" id="lnk14"><path d="M467.16,274.8657 C485.92,253.7457 510.06,230.2757 536,214.4957 C645.46,147.8957 788.0877,114.7537 872.9177,99.6237" fill="none" id="workstream-to-flow_auth" style="stroke:#495057;stroke-width:1.2;"/><polygon fill="#495057" points="877.84,98.7457,868.2775,96.3882,872.9177,99.6237,869.6822,104.2639,877.84,98.7457" style="stroke:#495057;stroke-width:1.2;stroke-linejoin:miter;stroke-miterlimit:10;"/><text fill="#000000" font-family="Arial" font-size="15" lengthAdjust="spacing" textLength="247.6025" x="537" y="115.5656">verifies externally issued Flow tokens</text></g><!--link workstream to postgres--><g class="link" data-entity-1="ent0005" data-entity-2="ent0007" data-link-type="dependency" data-source-line="48" id="lnk15"><path d="M506.09,303.7857 C516.14,301.2957 526.31,298.8057 536,296.4957 C656.85,267.6757 793.4845,237.4996 874.5345,219.8496" fill="none" id="workstream-to-postgres" style="stroke:#495057;stroke-width:1.2;"/><polygon fill="#495057" points="879.42,218.7857,869.775,216.7924,874.5345,219.8496,871.4772,224.6092,879.42,218.7857" style="stroke:#495057;stroke-width:1.2;stroke-linejoin:miter;stroke-miterlimit:10;"/><text fill="#000000" font-family="Arial" font-size="15" lengthAdjust="spacing" textLength="107.5342" x="607" y="237.5656">records lifecycle</text></g><!--link workstream to storage--><g class="link" data-entity-1="ent0005" data-entity-2="ent0008" data-link-type="dependency" data-source-line="49" id="lnk16"><path d="M506.05,323.4957 C596.88,323.4957 743,323.4957 842.2,323.4957" fill="none" id="workstream-to-storage" style="stroke:#495057;stroke-width:1.2;"/><polygon fill="#495057" points="847.2,323.4957,838.2,319.4957,842.2,323.4957,838.2,327.4957,847.2,323.4957" style="stroke:#495057;stroke-width:1.2;stroke-linejoin:miter;stroke-miterlimit:10;"/><text fill="#000000" font-family="Arial" font-size="15" lengthAdjust="spacing" textLength="105.0586" x="608" y="319.5656">stores evidence</text></g><!--link future_boundary to workstream--><g class="link" data-entity-1="ent0009" data-entity-2="ent0005" data-link-type="dependency" data-source-line="51" id="lnk17"><path d="M814.67,492.1457 C730.72,498.6657 621.79,495.3857 536,452.4957 C501.38,435.1957 476.5585,405.255 458.0885,376.445" fill="none" id="future_boundary-to-workstream" style="stroke:#495057;stroke-width:1.2;stroke-dasharray:7,7;"/><polygon fill="#495057" points="455.39,372.2357,456.88,381.9713,458.0885,376.445,463.6148,377.6536,455.39,372.2357" style="stroke:#495057;stroke-width:1.2;stroke-linejoin:miter;stroke-miterlimit:10;"/><text fill="#000000" font-family="Arial" font-size="15" lengthAdjust="spacing" textLength="89.2163" x="616" y="448.5656">source intake</text></g><!--link workstream to future_boundary--><g class="link" data-entity-1="ent0005" data-entity-2="ent0009" data-link-type="dependency" data-source-line="52" id="lnk18"><path d="M506.05,345.7257 C587.46,369.2057 712.4959,405.2799 809.9759,433.3999" fill="none" id="workstream-to-future_boundary" style="stroke:#495057;stroke-width:1.2;stroke-dasharray:7,7;"/><polygon fill="#495057" points="814.78,434.7857,807.2413,428.448,809.9759,433.3999,805.0239,436.1345,814.78,434.7857" style="stroke:#495057;stroke-width:1.2;stroke-linejoin:miter;stroke-miterlimit:10;"/><text fill="#000000" font-family="Arial" font-size="15" lengthAdjust="spacing" textLength="104.2456" x="608.5" y="352.5656">adapter outputs</text></g><?plantuml-src RLNBRkD64BppAnhETMNhOTdo7WB8MWana8qNLeAz2316P9EQY9mHvc5P2VBlAGuVecdfOcccfwgxkhhjfCkPVcgpjywmA6XzieuBMcZb-Dr5KSwf8wV9o6pdA966OoUrYYAxb-eW39viHRpFZFOgMUXS6_fb5JwT2BiJYJvAbL4gSikTc_0iraQneLddFE5K-DojaCOVec2Q6odoo_Th-G_JQDgvd1kZZtKkjm_JuVI-V_ddJiPxnTRIw7hSkJoW597nsfsWIbcgK5d-8T_cZFwDY1wrITZKJAF5_VBRNNdQrsDvlvf23w8otVfi-3X-k1r7_tLh4aviXRq0FLpCx-vd5w7lLelLj0TzDtaSBpv0nxdsoMVSsTri-N0nvTLeDUdZZaVZwVW1kD5PXQiVHl-DN_HTA0XdDcg0pqOjO2R7bWxLjVsoKPcN2TilTD2vZ2MNHq8bv8JTsoiIRUnhKK6rINJOVlEu7CmpLWuSICt8hNVwJ9iBMLWwmi-0jtvRI6T3LzarXC8XCPngxmxU1URuZ7I9zONV91_FnLM_BU5FmYfc0ATI9V0toWF5HiKx1gM1NInSMfLdQfHB3Cy7Dg9alw5v79U-d2U5L0tXt2Ue0zAnIRKfIgnCOauDWmim-etDAL1J9Pwbp0XL4-i6l27kCfz7lo5RvVeOkeBwHEv5EUwLSgrCuKIgr0WyzR7pXWFJyRn76jD7bVMk0keJv7BIdHggq4wIxMbeZtSxB9mzgohx50zVoyEedO-h7zgw3DgU6u8LahG3LBcfZkaM-rGK7Y5vkK-SJ0LykuOm4An1-bt78gTKnzuo0FbjexvBzVHCUNbnitWgNQfJjEJdcjOJse45WM_3wr5WjHLSEvXTzfKlXK9dnG6jmoHYt8HfnLY-urI1FMYliN2bGeNBbyLWDXpUaYXTtufrOnZkhPiJOaQpIVKqj0crtR2DiUiswlrsE8QpdWibCI17VFrh_Mr1bXsMVn5cwQL52ou2k8P2MDW0ixvWKpSZbF2whLCFgtxoY2xtPtSm-BNhXg-r2T6ExgnzYgedDcfdvLD4TMEZrjIV8aGObYZg79OnhOyGWd6HALOGSQrvVY9fhKSdA_S7-_KH6aU5B4h3MSfbol4fnh-8NcpZWw_X6vztHHJrDRo-xekWlOcPf79Y_m6uZEo_HhsrdwfzPgF_0G00?></g></svg>