<svg xmlns="http://www.w3.org/2000/svg" xmlns:xlink="http://www.w3.org/1999/xlink" contentStyleType="text/css" data-diagram-type="DESCRIPTION" height="464px" preserveAspectRatio="none" style="width:2023px;height:464px;background:#FFFFFF;" version="1.1" viewBox="0 0 2023 464" width="2023px" zoomAndPan="magnify"><?plantuml 1.2026.5?><defs/><g><g class="title" data-source-line="1"><text fill="#000000" font-family="Arial" font-size="14" font-weight="700" lengthAdjust="spacing" textLength="217.0752" x="899.4624" y="23.1318">Workstream v0.1 Container View</text></g><!--cluster People--><g class="cluster" data-qualified-name="People" data-source-line="29" id="ent0001"><rect fill="#F8F9FA" height="324" rx="4" ry="4" style="stroke:#1C7ED6;stroke-width:1;" width="166" x="7" y="44.0986"/><text fill="#0B2942" font-family="Arial" font-size="15" font-weight="700" lengthAdjust="spacing" textLength="49.1821" x="65.4089" y="60.1685">People</text></g><!--cluster Workstream v0.1--><g class="cluster" data-qualified-name="Workstream v0.1" data-source-line="38" id="ent0007"><rect fill="#F8FBFF" height="169" rx="4" ry="4" style="stroke:#1C7ED6;stroke-width:1;" width="1469" x="238" y="108.0986"/><text fill="#0B2942" font-family="Arial" font-size="15" font-weight="700" lengthAdjust="spacing" textLength="120.0586" x="912.4707" y="124.1685">Workstream v0.1</text></g><!--cluster Durable Records--><g class="cluster" data-qualified-name="Durable Records" data-source-line="46" id="ent0013"><rect fill="#F2FBF7" height="341" rx="4" ry="4" style="stroke:#1C7ED6;stroke-width:1;" width="201" x="1808" y="109.0986"/><text fill="#0B2942" font-family="Arial" font-size="15" font-weight="700" lengthAdjust="spacing" textLength="120.0366" x="1848.4817" y="125.1685">Durable Records</text></g><!--entity project_manager--><g class="entity" data-qualified-name="People.project_manager" data-source-line="30" id="ent0002"><rect fill="#F1F3F5" height="37.2485" rx="4" ry="4" style="stroke:#1C7ED6;stroke-width:0.5;" width="130.0537" x="25" y="80.5986"/><text fill="#0B2942" font-family="Arial" font-size="15" lengthAdjust="spacing" textLength="110.0537" x="35" y="104.6685">Project Manager</text></g><!--entity worker--><g class="entity" data-qualified-name="People.worker" data-source-line="31" id="ent0003"><rect fill="#F1F3F5" height="54.4971" rx="4" ry="4" style="stroke:#1C7ED6;stroke-width:0.5;" width="112.5488" x="33.5" y="153.0986"/><text fill="#0B2942" font-family="Arial" font-size="15" lengthAdjust="spacing" textLength="92.5488" x="43.5" y="177.1685">Human-Agent</text><text fill="#0B2942" font-family="Arial" font-size="15" lengthAdjust="spacing" textLength="74.2017" x="43.5" y="194.417">Contributor</text></g><!--entity reviewer--><g class="entity" data-qualified-name="People.reviewer" data-source-line="32" id="ent0004"><rect fill="#F1F3F5" height="37.2485" rx="4" ry="4" style="stroke:#1C7ED6;stroke-width:0.5;" width="82.5195" x="48.5" y="242.5986"/><text fill="#0B2942" font-family="Arial" font-size="15" lengthAdjust="spacing" textLength="62.5195" x="58.5" y="266.6685">Reviewer</text></g><!--entity operator--><g class="entity" data-qualified-name="People.operator" data-source-line="33" id="ent0005"><rect fill="#F1F3F5" height="37.2485" rx="4" ry="4" style="stroke:#1C7ED6;stroke-width:0.5;" width="134.2139" x="23" y="314.5986"/><text fill="#0B2942" font-family="Arial" font-size="15" lengthAdjust="spacing" textLength="114.2139" x="33" y="338.6685">Operator / Admin</text></g><!--entity frontend--><g class="entity" data-qualified-name="Workstream v0.1.frontend" data-source-line="39" id="ent0008"><rect fill="#E7F5FF" height="79.7456" rx="4" ry="4" style="stroke:#1C7ED6;stroke-width:0.5;" width="198.8354" x="254" y="181.0986"/><text fill="#0B2942" font-family="Arial" font-size="15" lengthAdjust="spacing" textLength="178.8354" x="264" y="205.1685">React + Vite Operations UI</text><line style="stroke:#1C7ED6;stroke-width:1;" x1="255" x2="451.8354" y1="208.3472" y2="208.3472"/><text fill="#0B2942" font-family="Arial" font-size="15" lengthAdjust="spacing" textLength="108.4131" x="264" y="226.417">Planned internal</text><text fill="#0B2942" font-family="Arial" font-size="15" lengthAdjust="spacing" textLength="131.748" x="264" y="243.6655">operations interface</text></g><!--entity api--><g class="entity" data-qualified-name="Workstream v0.1.api" data-source-line="40" id="ent0009"><rect fill="#E7F5FF" height="79.7456" rx="4" ry="4" style="stroke:#1C7ED6;stroke-width:0.5;" width="163.4009" x="598" y="181.0986"/><text fill="#0B2942" font-family="Arial" font-size="15" lengthAdjust="spacing" textLength="115.8911" x="608" y="205.1685">FastAPI Backend</text><line style="stroke:#1C7ED6;stroke-width:1;" x1="599" x2="760.4009" y1="208.3472" y2="208.3472"/><text fill="#0B2942" font-family="Arial" font-size="15" lengthAdjust="spacing" textLength="143.4009" x="608" y="226.417">Modular monolith API</text><text fill="#0B2942" font-family="Arial" font-size="15" lengthAdjust="spacing" textLength="124.2188" x="608" y="243.6655">and workflow rules</text></g><!--entity jobs--><g class="entity" data-qualified-name="Workstream v0.1.jobs" data-source-line="41" id="ent0010"><rect fill="#E7F5FF" height="79.7456" rx="4" ry="4" style="stroke:#1C7ED6;stroke-width:0.5;" width="175.083" x="919" y="181.0986"/><text fill="#0B2942" font-family="Arial" font-size="15" lengthAdjust="spacing" textLength="137.5781" x="929" y="205.1685">Async Job Boundary</text><line style="stroke:#1C7ED6;stroke-width:1;" x1="920" x2="1093.083" y1="208.3472" y2="208.3472"/><text fill="#0B2942" font-family="Arial" font-size="15" lengthAdjust="spacing" textLength="155.083" x="929" y="226.417">Background tasks now;</text><text fill="#0B2942" font-family="Arial" font-size="15" lengthAdjust="spacing" textLength="140.061" x="929" y="243.6655">durable workers later</text></g><!--entity checker--><g class="entity" data-qualified-name="Workstream v0.1.checker" data-source-line="42" id="ent0011"><rect fill="#E7F5FF" height="79.7456" rx="4" ry="4" style="stroke:#1C7ED6;stroke-width:0.5;" width="153.418" x="1229" y="181.0986"/><text fill="#0B2942" font-family="Arial" font-size="15" lengthAdjust="spacing" textLength="109.2188" x="1239" y="205.1685">Checker Runner</text><line style="stroke:#1C7ED6;stroke-width:1;" x1="1230" x2="1381.418" y1="208.3472" y2="208.3472"/><text fill="#0B2942" font-family="Arial" font-size="15" lengthAdjust="spacing" textLength="133.418" x="1239" y="226.417">Automated task and</text><text fill="#0B2942" font-family="Arial" font-size="15" lengthAdjust="spacing" textLength="125.8813" x="1239" y="243.6655">submission checks</text></g><!--entity storage_adapter--><g class="entity" data-qualified-name="Workstream v0.1.storage_adapter" data-source-line="43" id="ent0012"><rect fill="#E7F5FF" height="79.7456" rx="4" ry="4" style="stroke:#1C7ED6;stroke-width:0.5;" width="153.3887" x="1538" y="153.0986"/><text fill="#0B2942" font-family="Arial" font-size="15" lengthAdjust="spacing" textLength="115.0708" x="1548" y="177.1685">Storage Interface</text><line style="stroke:#1C7ED6;stroke-width:1;" x1="1539" x2="1690.3887" y1="180.3472" y2="180.3472"/><text fill="#0B2942" font-family="Arial" font-size="15" lengthAdjust="spacing" textLength="133.3887" x="1548" y="198.417">Object-storage style</text><text fill="#0B2942" font-family="Arial" font-size="15" lengthAdjust="spacing" textLength="24.1772" x="1548" y="215.6655">API</text></g><!--entity postgres--><g class="entity" data-qualified-name="Durable Records.postgres" data-source-line="47" id="ent0014"><path d="M1824,286.0986 C1824,276.0986 1908.6191,276.0986 1908.6191,276.0986 C1908.6191,276.0986 1993.2383,276.0986 1993.2383,286.0986 L1993.2383,423.8384 C1993.2383,433.8384 1908.6191,433.8384 1908.6191,433.8384 C1908.6191,433.8384 1824,433.8384 1824,423.8384 L1824,286.0986" fill="#E6FCF5" style="stroke:#0CA678;stroke-width:0.5;"/><path d="M1824,286.0986 C1824,296.0986 1908.6191,296.0986 1908.6191,296.0986 C1908.6191,296.0986 1993.2383,296.0986 1993.2383,286.0986" fill="none" style="stroke:#0CA678;stroke-width:0.5;"/><text fill="#063B2C" font-family="Arial" font-size="15" lengthAdjust="spacing" textLength="59.1943" x="1834" y="314.1685">Postgres</text><path d="M1824,312.3472 C1824,322.3472 1908.6191,322.3472 1908.6191,322.3472 C1908.6191,322.3472 1993.2383,322.3472 1993.2383,312.3472" fill="none" style="stroke:#0CA678;stroke-width:1;"/><text fill="#063B2C" font-family="Arial" font-size="15" lengthAdjust="spacing" textLength="110.8887" x="1834" y="335.417">Projects, guides,</text><text fill="#063B2C" font-family="Arial" font-size="15" lengthAdjust="spacing" textLength="130.0415" x="1834" y="352.6655">tasks, submissions,</text><text fill="#063B2C" font-family="Arial" font-size="15" lengthAdjust="spacing" textLength="110.0317" x="1834" y="369.9141">checks, reviews,</text><text fill="#063B2C" font-family="Arial" font-size="15" lengthAdjust="spacing" textLength="149.2383" x="1834" y="387.1626">revisions, contribution,</text><text fill="#063B2C" font-family="Arial" font-size="15" lengthAdjust="spacing" textLength="136.7505" x="1834" y="404.4111">payment, reputation,</text><text fill="#063B2C" font-family="Arial" font-size="15" lengthAdjust="spacing" textLength="80.8887" x="1834" y="421.6597">audit events</text></g><!--entity file_store--><g class="entity" data-qualified-name="Durable Records.file_store" data-source-line="48" id="ent0015"><rect fill="#E6FCF5" height="96.9941" rx="4" ry="4" style="stroke:#1C7ED6;stroke-width:0.5;" width="139.2236" x="1839" y="144.5986"/><text fill="#0B2942" font-family="Arial" font-size="15" lengthAdjust="spacing" textLength="104.2163" x="1849" y="168.6685">Local File Store</text><text fill="#0B2942" font-family="Arial" font-size="15" lengthAdjust="spacing" textLength="109.2407" x="1849" y="185.917">Behind Interface</text><line style="stroke:#1C7ED6;stroke-width:1;" x1="1840" x2="1977.2236" y1="189.0957" y2="189.0957"/><text fill="#0B2942" font-family="Arial" font-size="15" lengthAdjust="spacing" textLength="119.2236" x="1849" y="207.1655">R2/S3-compatible</text><text fill="#0B2942" font-family="Arial" font-size="15" lengthAdjust="spacing" textLength="93.3984" x="1849" y="224.4141">adapter target</text></g><!--entity flow_auth--><g class="entity" data-qualified-name="flow_auth" data-source-line="36" id="ent0006"><path d="M927.1278,304.5027 C931.0982,299.2206 934.5621,299.4643 937.9763,305.0575 C941.4645,298.9755 947.6735,298.5822 950.9844,305.2386 C954.1201,300.7173 957.6149,300.5337 960.9663,304.999 C964.9282,298.3311 969.8177,298.029 973.9124,304.8717 C976.9556,300.1381 981.7258,298.9743 984.983,304.644 C987.0063,299.29 991.12,298.0126 995.2825,302.3768 C999.3983,297.108 1003.7441,295.423 1008.0164,302.2116 C1011.5862,296.7695 1014.9739,297.4542 1018.2177,302.5278 C1022.247,296.3893 1027.2334,297.0132 1030.1952,303.5376 C1033.3414,298.1793 1038.8347,298.8881 1041.8497,303.6882 C1045.638,298.0554 1051.226,299.1552 1053.5248,305.1799 C1056.9743,300.0717 1062.5856,299.3784 1065.5527,305.688 C1068.7144,299.7147 1073.741,299.4376 1077.3843,305.2027 C1080.9222,301.0368 1085.884,301.4933 1088.5425,306.2968 C1095.3726,308.6959 1094.6281,314.4139 1089.8915,318.1315 C1096.0763,320.1064 1097.113,324.8281 1092.2066,329.1362 C1099.2671,333.3033 1098.6238,337.8308 1093.271,342.9541 C1097.3998,346.883 1097.4562,352.9462 1090.9218,354.7518 C1095.9649,358.4547 1096.4535,364.2571 1090.1741,367.2846 C1094.8109,371.1983 1094.0644,377.149 1088.5146,379.7012 C1084.8175,385.6505 1079.8923,386.521 1075.4805,380.478 C1073.3313,385.1347 1068.9604,385.85 1065.673,381.7533 C1061.0433,388.9097 1057.0213,387.5531 1052.4053,381.7392 C1049.0396,386.6601 1044.6001,386.5636 1041.2656,381.7037 C1039.5491,387.0587 1034.1568,389.1799 1030.0711,384.2933 C1025.7505,389.7279 1021.5461,389.8414 1018.4221,383.1444 C1015.6178,389.0347 1010.9735,388.9431 1006.9349,384.5191 C1003.7325,390.9074 998.9546,391.176 995.1744,385.0626 C991.6333,390.0918 986.1012,388.6111 983.7685,383.679 C980.5635,389.2978 975.2474,388.2649 972.696,383.0132 C968.7028,387.2069 964.6731,387.4278 961.7371,381.83 C956.9765,386.6011 952.7371,385.5046 949.5439,379.9747 C945.9774,385.3365 941.4847,384.1766 939.1389,378.7927 C935.5194,383.742 931.8874,385.109 927.6536,379.4583 C919.8919,376.0919 921.3248,370.552 926.3832,365.9775 C918.9519,364.1982 917.031,358.9242 922.9033,353.4496 C917.7296,350.1815 917.0902,346.2234 921.6182,341.8779 C916.263,338.214 916.7851,332.6701 922.9051,330.2794 C919.1045,324.8465 920.2245,320.8241 926.2363,318.068 C919.9313,313.9306 920.0623,307.7614 927.1278,304.5027" fill="#F1F3F5" style="stroke:#868E96;stroke-width:0.5;"/><text fill="#212529" font-family="Arial" font-size="15" lengthAdjust="spacing" textLength="66.6943" x="933" y="325.1685">Flow Auth</text><line style="stroke:#868E96;stroke-width:1;" x1="919" x2="1093.748" y1="328.3472" y2="328.3472"/><text fill="#212529" font-family="Arial" font-size="15" lengthAdjust="spacing" textLength="115.0635" x="933" y="346.417">Token issuer and</text><text fill="#212529" font-family="Arial" font-size="15" lengthAdjust="spacing" textLength="146.748" x="933" y="363.6655">human identity source</text></g><!--link project_manager to frontend--><g class="link" data-entity-1="ent0002" data-entity-2="ent0008" data-link-type="dependency" data-source-line="51" id="lnk16"><path d="M139.42,117.5986 C152.98,123.0086 167.65,129.0886 181,135.0986 C212.44,149.2386 242.0334,163.7317 271.4434,178.6917" fill="none" id="project_manager-to-frontend" style="stroke:#495057;stroke-width:1.2;"/><polygon fill="#495057" points="275.9,180.9586,269.6917,173.3129,271.4434,178.6917,266.0646,180.4434,275.9,180.9586" style="stroke:#495057;stroke-width:1.2;stroke-linejoin:miter;stroke-miterlimit:10;"/><text fill="#000000" font-family="Arial" font-size="15" lengthAdjust="spacing" textLength="31.6846" x="190" y="136.1685">uses</text></g><!--link worker to frontend--><g class="link" data-entity-1="ent0003" data-entity-2="ent0008" data-link-type="dependency" data-source-line="52" id="lnk17"><path d="M146.78,188.8486 C177.9,193.7286 212.6503,199.1747 248.8403,204.8447" fill="none" id="worker-to-frontend" style="stroke:#495057;stroke-width:1.2;"/><polygon fill="#495057" points="253.78,205.6186,245.5076,200.2738,248.8403,204.8447,244.2693,208.1774,253.78,205.6186" style="stroke:#495057;stroke-width:1.2;stroke-linejoin:miter;stroke-miterlimit:10;"/><text fill="#000000" font-family="Arial" font-size="15" lengthAdjust="spacing" textLength="31.6846" x="190" y="192.1685">uses</text></g><!--link reviewer to frontend--><g class="link" data-entity-1="ent0004" data-entity-2="ent0008" data-link-type="dependency" data-source-line="53" id="lnk18"><path d="M131.56,258.1786 C157.51,256.0386 191.84,252.6986 222,248.0986 C232.29,246.5286 238.0851,245.597 248.7351,243.607" fill="none" id="reviewer-to-frontend" style="stroke:#495057;stroke-width:1.2;"/><polygon fill="#495057" points="253.65,242.6886,244.0684,240.4098,248.7351,243.607,245.5378,248.2737,253.65,242.6886" style="stroke:#495057;stroke-width:1.2;stroke-linejoin:miter;stroke-miterlimit:10;"/><text fill="#000000" font-family="Arial" font-size="15" lengthAdjust="spacing" textLength="31.6846" x="190" y="244.1685">uses</text></g><!--link operator to frontend--><g class="link" data-entity-1="ent0005" data-entity-2="ent0008" data-link-type="dependency" data-source-line="54" id="lnk19"><path d="M137.76,314.5286 C151.69,308.9586 166.97,302.8086 181,297.0986 C199.27,289.6586 203.9,287.9386 222,280.0986 C235.92,274.0686 246.0469,269.6026 260.3569,263.1926" fill="none" id="operator-to-frontend" style="stroke:#495057;stroke-width:1.2;"/><polygon fill="#495057" points="264.92,261.1486,255.0712,261.1773,260.3569,263.1926,258.3416,268.4783,264.92,261.1486" style="stroke:#495057;stroke-width:1.2;stroke-linejoin:miter;stroke-miterlimit:10;"/><text fill="#000000" font-family="Arial" font-size="15" lengthAdjust="spacing" textLength="31.6846" x="190" y="276.1685">uses</text></g><!--link frontend to api--><g class="link" data-entity-1="ent0008" data-entity-2="ent0009" data-link-type="dependency" data-source-line="56" id="lnk20"><path d="M453.03,221.0986 C499.39,221.0986 548.98,221.0986 592.84,221.0986" fill="none" id="frontend-to-api" style="stroke:#495057;stroke-width:1.2;"/><polygon fill="#495057" points="597.84,221.0986,588.84,217.0986,592.84,221.0986,588.84,225.0986,597.84,221.0986" style="stroke:#495057;stroke-width:1.2;stroke-linejoin:miter;stroke-miterlimit:10;"/><text fill="#000000" font-family="Arial" font-size="15" lengthAdjust="spacing" textLength="83.335" x="484" y="217.1685">HTTP/JSON</text></g><!--link api to flow_auth--><g class="link" data-entity-1="ent0009" data-entity-2="ent0006" data-link-type="dependency" data-source-line="57" id="lnk21"><path d="M761.25,250.9186 C808.82,268.4786 864.3197,288.9661 913.0497,306.9661" fill="none" id="api-to-flow_auth" style="stroke:#495057;stroke-width:1.2;"/><polygon fill="#495057" points="917.74,308.6986,910.6835,301.8279,913.0497,306.9661,907.9116,309.3323,917.74,308.6986" style="stroke:#495057;stroke-width:1.2;stroke-linejoin:miter;stroke-miterlimit:10;"/><text fill="#000000" font-family="Arial" font-size="15" lengthAdjust="spacing" textLength="76.6992" x="801.5" y="260.1685">verify token</text></g><!--link api to postgres--><g class="link" data-entity-1="ent0009" data-entity-2="ent0014" data-link-type="dependency" data-source-line="58" id="lnk22"><path d="M711.98,261.3386 C765.13,324.3286 879.3,439.0986 1005.5,439.0986 C1005.5,439.0986 1005.5,439.0986 1615.5,439.0986 C1687.77,439.0986 1761.6509,416.8533 1819.0609,394.4933" fill="none" id="api-to-postgres" style="stroke:#495057;stroke-width:1.2;"/><polygon fill="#495057" points="1823.72,392.6786,1813.8819,392.2177,1819.0609,394.4933,1816.7853,399.6722,1823.72,392.6786" style="stroke:#495057;stroke-width:1.2;stroke-linejoin:miter;stroke-miterlimit:10;"/><text fill="#000000" font-family="Arial" font-size="15" lengthAdjust="spacing" textLength="130.8838" x="1240.5" y="435.1685">SQLAlchemy async</text></g><!--link api to storage_adapter--><g class="link" data-entity-1="ent0009" data-entity-2="ent0012" data-link-type="dependency" data-source-line="59" id="lnk23"><path d="M761.23,196.2886 C806.77,183.5786 865.01,169.4686 918,163.0986 C1122.75,138.4686 1176.05,152.4986 1382,163.0986 C1434.31,165.7886 1487.8673,172.6537 1532.9773,179.5437" fill="none" id="api-to-storage_adapter" style="stroke:#495057;stroke-width:1.2;"/><polygon fill="#495057" points="1537.92,180.2986,1529.6271,174.9856,1532.9773,179.5437,1528.4192,182.8939,1537.92,180.2986" style="stroke:#495057;stroke-width:1.2;stroke-linejoin:miter;stroke-miterlimit:10;"/><text fill="#000000" font-family="Arial" font-size="15" lengthAdjust="spacing" textLength="69.1992" x="1127.5" y="146.1685">object refs</text></g><!--link api to jobs--><g class="link" data-entity-1="ent0009" data-entity-2="ent0010" data-link-type="dependency" data-source-line="60" id="lnk24"><path d="M761.25,221.0986 C809.19,221.0986 864.97,221.0986 913.9,221.0986" fill="none" id="api-to-jobs" style="stroke:#495057;stroke-width:1.2;"/><polygon fill="#495057" points="918.9,221.0986,909.9,217.0986,913.9,221.0986,909.9,225.0986,918.9,221.0986" style="stroke:#495057;stroke-width:1.2;stroke-linejoin:miter;stroke-miterlimit:10;"/><text fill="#000000" font-family="Arial" font-size="15" lengthAdjust="spacing" textLength="95.8813" x="792" y="217.1685">schedule work</text></g><!--link jobs to checker--><g class="link" data-entity-1="ent0010" data-entity-2="ent0011" data-link-type="dependency" data-source-line="61" id="lnk25"><path d="M1094.12,224.3786 C1104.52,224.6786 1115,224.9286 1125,225.0986 C1157.88,225.6586 1166.12,225.7186 1199,225.0986 C1208.62,224.9186 1213.7326,224.7986 1223.7326,224.4786" fill="none" id="jobs-to-checker" style="stroke:#495057;stroke-width:1.2;"/><polygon fill="#495057" points="1228.73,224.3186,1219.6067,220.6085,1223.7326,224.4786,1219.8625,228.6044,1228.73,224.3186" style="stroke:#495057;stroke-width:1.2;stroke-linejoin:miter;stroke-miterlimit:10;"/><text fill="#000000" font-family="Arial" font-size="15" lengthAdjust="spacing" textLength="72.5317" x="1126" y="221.1685">run checks</text></g><!--link checker to postgres--><g class="link" data-entity-1="ent0011" data-entity-2="ent0014" data-link-type="dependency" data-source-line="62" id="lnk26"><path d="M1382.01,237.9386 C1494.72,263.0586 1701.3499,309.1303 1818.7399,335.3103" fill="none" id="checker-to-postgres" style="stroke:#495057;stroke-width:1.2;"/><polygon fill="#495057" points="1823.62,336.3986,1815.7065,330.5355,1818.7399,335.3103,1813.9651,338.3437,1823.62,336.3986" style="stroke:#495057;stroke-width:1.2;stroke-linejoin:miter;stroke-miterlimit:10;"/><text fill="#000000" font-family="Arial" font-size="15" lengthAdjust="spacing" textLength="44.1797" x="1592.5" y="270.1685">results</text></g><!--link checker to storage_adapter--><g class="link" data-entity-1="ent0011" data-entity-2="ent0012" data-link-type="dependency" data-source-line="63" id="lnk27"><path d="M1382.39,214.1786 C1429.8,209.8486 1485.6307,204.763 1532.9707,200.443" fill="none" id="checker-to-storage_adapter" style="stroke:#495057;stroke-width:1.2;"/><polygon fill="#495057" points="1537.95,199.9886,1528.6237,196.8231,1532.9707,200.443,1529.3507,204.79,1537.95,199.9886" style="stroke:#495057;stroke-width:1.2;stroke-linejoin:miter;stroke-miterlimit:10;"/><text fill="#000000" font-family="Arial" font-size="15" lengthAdjust="spacing" textLength="94.2334" x="1413" y="199.1685">read evidence</text></g><!--link storage_adapter to file_store--><g class="link" data-entity-1="ent0012" data-entity-2="ent0015" data-link-type="dependency" data-source-line="64" id="lnk28"><path d="M1691.08,193.0986 C1736.7,193.0986 1789.39,193.0986 1833.73,193.0986" fill="none" id="storage_adapter-to-file_store" style="stroke:#495057;stroke-width:1.2;"/><polygon fill="#495057" points="1838.73,193.0986,1829.73,189.0986,1833.73,193.0986,1829.73,197.0986,1838.73,193.0986" style="stroke:#495057;stroke-width:1.2;stroke-linejoin:miter;stroke-miterlimit:10;"/><text fill="#000000" font-family="Arial" font-size="15" lengthAdjust="spacing" textLength="67.5366" x="1724" y="189.1685">store/read</text></g><?plantuml-src TLNRRjiu47tNLmpSnusRMAblNM01sOtG56tZjTFT5mC19T4sQueKU8dXBlRVToXAigHuzM1OSpcSENE6Cinm2dzBTTH6KPB3wztx4IobC8G9gk0lHaz1mEdEW96WsFvW86EAfeP94GJwo4H15EOb93tkbRGYMqek5RoBowSLeGyaaoSczh0ZNDEMfqnBfN87pbhsZEw8vIR6QhwJd4Aa6E7N_HlsYy9et796IibJLSk7-VXkFEqxdmyiFGggDOpUXordWQsGFTsOCrBZMYLYpplrrZRu9m1OI9LHLPqqMauVFasSjS_7mpGU8ny0hjpAThS8vn_2uDzsJyIGXEWhq7VBQ3ATNOMUnCjut8EUt2_2PGSwvT9cRt5dazd3_6h9yIY-x-E6et0SpX4tg6Y2mOhAWjC1ni_YUHoL9rme6goK_8bly8q835S381eARtl9lQrrL2lniqNtCDfJORR2ILAnn1hf4KuesVzBNDDNb6rrbAfUheS-5LGHn8HRYBASYJ95riOw1Rlrv0rYBayGMNFOYY4-M_4iZrG0qzhY4KHaMt5mPGFBi6ncpg2bLIajSNUO_48mkKLUR_KyYuiuxhEufWGv_0qNqb3mLUC6QlZnM5UouaG8cW4JXYf1-5R8IrXft96w48LiKf5rZuY9Dj7giTG1TPrut6yoivmeoAMGd9a3OCnMOAlb35nFe2odkaGc1Uk2HleiKlWY4nGTAekeSurxaHiOeeyQX3pzlXMPLIJ1J3zW3PoOQf8_PQAxuCi3JPqArXOxLpKmZaVccELn_L2qJN8S4d81gKlorQO-lmkwmScxqJpMbDMuJudJx51NVktk1pnjzLXYLUONaf424piRygdgQKtnbikq6tA8GvwMGsusVh2IskmLrSr4_PRe6zXRr9E-sOgIgHkujEEClgERIkhEulvvBwJruk0hUWfopb6PBhYmXbHMOZDcWBwYnpDJLALqgVagKy8XPlZViOJTB-Y1uG3VSBKERpVtmrJc1HwHE9ugNd0cQa-Dbo42lJZUQ7E7ETPwTyDm-4SZMFW8LcDLrVPVSpNxVitPRFOrPz0Od1ULZ8xFpy-hso-Rf--1Uo-pwYL6xojLR7V6BoFkInDGKuV-pPzV8uxJoS_OBkv14zCJ2uRAKbn8zautKKxmwDA8W2leLo8eZSvRYHS3bArL7TJ6NY7uYn_Ahljj3NWBPIW2TtMb-Bth-SlcBnFxM0BGMvSK_0S0?></g></svg>