<svg xmlns="http://www.w3.org/2000/svg" xmlns:xlink="http://www.w3.org/1999/xlink" contentStyleType="text/css" data-diagram-type="DESCRIPTION" height="464px" preserveAspectRatio="none" style="width:2038px;height:464px;background:#FFFFFF;" version="1.1" viewBox="0 0 2038 464" width="2038px" zoomAndPan="magnify"><?plantuml 1.2026.5?><defs/><g><g class="title" data-source-line="1"><text fill="#000000" font-family="Arial" font-size="14" font-weight="700" lengthAdjust="spacing" textLength="217.0752" x="906.9624" y="23.1318">Workstream v0.1 Container View</text></g><!--cluster People--><g class="cluster" data-qualified-name="People" data-source-line="29" id="ent0001"><rect fill="#F8F9FA" height="324" rx="4" ry="4" style="stroke:#1C7ED6;stroke-width:1;" width="166" x="7" y="44.0986"/><text fill="#0B2942" font-family="Arial" font-size="15" font-weight="700" lengthAdjust="spacing" textLength="49.1821" x="65.4089" y="60.1685">People</text></g><!--cluster Workstream v0.1--><g class="cluster" data-qualified-name="Workstream v0.1" data-source-line="38" id="ent0007"><rect fill="#F8FBFF" height="169" rx="4" ry="4" style="stroke:#1C7ED6;stroke-width:1;" width="1484" x="238" y="108.0986"/><text fill="#0B2942" font-family="Arial" font-size="15" font-weight="700" lengthAdjust="spacing" textLength="120.0586" x="919.9707" y="124.1685">Workstream v0.1</text></g><!--cluster Durable Records--><g class="cluster" data-qualified-name="Durable Records" data-source-line="46" id="ent0013"><rect fill="#F2FBF7" height="341" rx="4" ry="4" style="stroke:#1C7ED6;stroke-width:1;" width="201" x="1823" y="109.0986"/><text fill="#0B2942" font-family="Arial" font-size="15" font-weight="700" lengthAdjust="spacing" textLength="120.0366" x="1863.4817" y="125.1685">Durable Records</text></g><!--entity project_manager--><g class="entity" data-qualified-name="People.project_manager" data-source-line="30" id="ent0002"><rect fill="#F1F3F5" height="37.2485" rx="4" ry="4" style="stroke:#1C7ED6;stroke-width:0.5;" width="130.0537" x="25" y="80.5986"/><text fill="#0B2942" font-family="Arial" font-size="15" lengthAdjust="spacing" textLength="110.0537" x="35" y="104.6685">Project Manager</text></g><!--entity worker--><g class="entity" data-qualified-name="People.worker" data-source-line="31" id="ent0003"><rect fill="#F1F3F5" height="54.4971" rx="4" ry="4" style="stroke:#1C7ED6;stroke-width:0.5;" width="112.5488" x="33.5" y="153.0986"/><text fill="#0B2942" font-family="Arial" font-size="15" lengthAdjust="spacing" textLength="92.5488" x="43.5" y="177.1685">Human-Agent</text><text fill="#0B2942" font-family="Arial" font-size="15" lengthAdjust="spacing" textLength="74.2017" x="43.5" y="194.417">Contributor</text></g><!--entity reviewer--><g class="entity" data-qualified-name="People.reviewer" data-source-line="32" id="ent0004"><rect fill="#F1F3F5" height="37.2485" rx="4" ry="4" style="stroke:#1C7ED6;stroke-width:0.5;" width="82.5195" x="48.5" y="242.5986"/><text fill="#0B2942" font-family="Arial" font-size="15" lengthAdjust="spacing" textLength="62.5195" x="58.5" y="266.6685">Reviewer</text></g><!--entity operator--><g class="entity" data-qualified-name="People.operator" data-source-line="33" id="ent0005"><rect fill="#F1F3F5" height="37.2485" rx="4" ry="4" style="stroke:#1C7ED6;stroke-width:0.5;" width="134.2139" x="23" y="314.5986"/><text fill="#0B2942" font-family="Arial" font-size="15" lengthAdjust="spacing" textLength="114.2139" x="33" y="338.6685">Operator / Admin</text></g><!--entity frontend--><g class="entity" data-qualified-name="Workstream v0.1.frontend" data-source-line="39" id="ent0008"><rect fill="#E7F5FF" height="79.7456" rx="4" ry="4" style="stroke:#1C7ED6;stroke-width:0.5;" width="198.8354" x="254" y="181.0986"/><text fill="#0B2942" font-family="Arial" font-size="15" lengthAdjust="spacing" textLength="178.8354" x="264" y="205.1685">React + Vite Operations UI</text><line style="stroke:#1C7ED6;stroke-width:1;" x1="255" x2="451.8354" y1="208.3472" y2="208.3472"/><text fill="#0B2942" font-family="Arial" font-size="15" lengthAdjust="spacing" textLength="108.4131" x="264" y="226.417">Planned internal</text><text fill="#0B2942" font-family="Arial" font-size="15" lengthAdjust="spacing" textLength="145.1074" x="264" y="243.6655">operations dashboard</text></g><!--entity api--><g class="entity" data-qualified-name="Workstream v0.1.api" data-source-line="40" id="ent0009"><rect fill="#E7F5FF" height="79.7456" rx="4" ry="4" style="stroke:#1C7ED6;stroke-width:0.5;" width="163.4009" x="598" y="181.0986"/><text fill="#0B2942" font-family="Arial" font-size="15" lengthAdjust="spacing" textLength="115.8911" x="608" y="205.1685">FastAPI Backend</text><line style="stroke:#1C7ED6;stroke-width:1;" x1="599" x2="760.4009" y1="208.3472" y2="208.3472"/><text fill="#0B2942" font-family="Arial" font-size="15" lengthAdjust="spacing" textLength="143.4009" x="608" y="226.417">Modular monolith API</text><text fill="#0B2942" font-family="Arial" font-size="15" lengthAdjust="spacing" textLength="124.2188" x="608" y="243.6655">and workflow rules</text></g><!--entity jobs--><g class="entity" data-qualified-name="Workstream v0.1.jobs" data-source-line="41" id="ent0010"><rect fill="#E7F5FF" height="79.7456" rx="4" ry="4" style="stroke:#1C7ED6;stroke-width:0.5;" width="191.7676" x="918" y="181.0986"/><text fill="#0B2942" font-family="Arial" font-size="15" lengthAdjust="spacing" textLength="164.2236" x="928" y="205.1685">Celery Worker Boundary</text><line style="stroke:#1C7ED6;stroke-width:1;" x1="919" x2="1108.7676" y1="208.3472" y2="208.3472"/><text fill="#0B2942" font-family="Arial" font-size="15" lengthAdjust="spacing" textLength="146.748" x="928" y="226.417">Durable project setup,</text><text fill="#0B2942" font-family="Arial" font-size="15" lengthAdjust="spacing" textLength="171.7676" x="928" y="243.6655">checker, and product jobs</text></g><!--entity checker--><g class="entity" data-qualified-name="Workstream v0.1.checker" data-source-line="42" id="ent0011"><rect fill="#E7F5FF" height="79.7456" rx="4" ry="4" style="stroke:#1C7ED6;stroke-width:0.5;" width="153.418" x="1244" y="181.0986"/><text fill="#0B2942" font-family="Arial" font-size="15" lengthAdjust="spacing" textLength="109.2188" x="1254" y="205.1685">Checker Runner</text><line style="stroke:#1C7ED6;stroke-width:1;" x1="1245" x2="1396.418" y1="208.3472" y2="208.3472"/><text fill="#0B2942" font-family="Arial" font-size="15" lengthAdjust="spacing" textLength="133.418" x="1254" y="226.417">Automated task and</text><text fill="#0B2942" font-family="Arial" font-size="15" lengthAdjust="spacing" textLength="125.8813" x="1254" y="243.6655">submission checks</text></g><!--entity storage_adapter--><g class="entity" data-qualified-name="Workstream v0.1.storage_adapter" data-source-line="43" id="ent0012"><rect fill="#E7F5FF" height="79.7456" rx="4" ry="4" style="stroke:#1C7ED6;stroke-width:0.5;" width="153.3887" x="1553" y="153.0986"/><text fill="#0B2942" font-family="Arial" font-size="15" lengthAdjust="spacing" textLength="115.0708" x="1563" y="177.1685">Storage Interface</text><line style="stroke:#1C7ED6;stroke-width:1;" x1="1554" x2="1705.3887" y1="180.3472" y2="180.3472"/><text fill="#0B2942" font-family="Arial" font-size="15" lengthAdjust="spacing" textLength="133.3887" x="1563" y="198.417">Object-storage style</text><text fill="#0B2942" font-family="Arial" font-size="15" lengthAdjust="spacing" textLength="24.1772" x="1563" y="215.6655">API</text></g><!--entity postgres--><g class="entity" data-qualified-name="Durable Records.postgres" data-source-line="47" id="ent0014"><path d="M1839,286.0986 C1839,276.0986 1923.6191,276.0986 1923.6191,276.0986 C1923.6191,276.0986 2008.2383,276.0986 2008.2383,286.0986 L2008.2383,423.8384 C2008.2383,433.8384 1923.6191,433.8384 1923.6191,433.8384 C1923.6191,433.8384 1839,433.8384 1839,423.8384 L1839,286.0986" fill="#E6FCF5" style="stroke:#0CA678;stroke-width:0.5;"/><path d="M1839,286.0986 C1839,296.0986 1923.6191,296.0986 1923.6191,296.0986 C1923.6191,296.0986 2008.2383,296.0986 2008.2383,286.0986" fill="none" style="stroke:#0CA678;stroke-width:0.5;"/><text fill="#063B2C" font-family="Arial" font-size="15" lengthAdjust="spacing" textLength="59.1943" x="1849" y="314.1685">Postgres</text><path d="M1839,312.3472 C1839,322.3472 1923.6191,322.3472 1923.6191,322.3472 C1923.6191,322.3472 2008.2383,322.3472 2008.2383,312.3472" fill="none" style="stroke:#0CA678;stroke-width:1;"/><text fill="#063B2C" font-family="Arial" font-size="15" lengthAdjust="spacing" textLength="110.8887" x="1849" y="335.417">Projects, guides,</text><text fill="#063B2C" font-family="Arial" font-size="15" lengthAdjust="spacing" textLength="130.0415" x="1849" y="352.6655">tasks, submissions,</text><text fill="#063B2C" font-family="Arial" font-size="15" lengthAdjust="spacing" textLength="110.0317" x="1849" y="369.9141">checks, reviews,</text><text fill="#063B2C" font-family="Arial" font-size="15" lengthAdjust="spacing" textLength="149.2383" x="1849" y="387.1626">revisions, contribution,</text><text fill="#063B2C" font-family="Arial" font-size="15" lengthAdjust="spacing" textLength="136.7505" x="1849" y="404.4111">payment, reputation,</text><text fill="#063B2C" font-family="Arial" font-size="15" lengthAdjust="spacing" textLength="80.8887" x="1849" y="421.6597">audit events</text></g><!--entity file_store--><g class="entity" data-qualified-name="Durable Records.file_store" data-source-line="48" id="ent0015"><rect fill="#E6FCF5" height="96.9941" rx="4" ry="4" style="stroke:#1C7ED6;stroke-width:0.5;" width="139.2236" x="1854" y="144.5986"/><text fill="#0B2942" font-family="Arial" font-size="15" lengthAdjust="spacing" textLength="104.2163" x="1864" y="168.6685">Local File Store</text><text fill="#0B2942" font-family="Arial" font-size="15" lengthAdjust="spacing" textLength="109.2407" x="1864" y="185.917">Behind Interface</text><line style="stroke:#1C7ED6;stroke-width:1;" x1="1855" x2="1992.2236" y1="189.0957" y2="189.0957"/><text fill="#0B2942" font-family="Arial" font-size="15" lengthAdjust="spacing" textLength="119.2236" x="1864" y="207.1655">R2/S3-compatible</text><text fill="#0B2942" font-family="Arial" font-size="15" lengthAdjust="spacing" textLength="93.3984" x="1864" y="224.4141">adapter target</text></g><!--entity flow_auth--><g class="entity" data-qualified-name="flow_auth" data-source-line="36" id="ent0006"><path d="M934.6278,304.5027 C938.5982,299.2206 942.0621,299.4643 945.4763,305.0575 C948.9645,298.9755 955.1735,298.5822 958.4844,305.2386 C961.6201,300.7173 965.1149,300.5337 968.4663,304.999 C972.4282,298.3311 977.3177,298.029 981.4124,304.8717 C984.4556,300.1381 989.2258,298.9743 992.483,304.644 C994.5063,299.29 998.62,298.0126 1002.7825,302.3768 C1006.8983,297.108 1011.2441,295.423 1015.5164,302.2116 C1019.0862,296.7695 1022.4739,297.4542 1025.7177,302.5278 C1029.747,296.3893 1034.7334,297.0132 1037.6952,303.5376 C1040.8414,298.1793 1046.3347,298.8881 1049.3497,303.6882 C1053.138,298.0554 1058.726,299.1552 1061.0248,305.1799 C1064.4743,300.0717 1070.0856,299.3784 1073.0527,305.688 C1076.2144,299.7147 1081.241,299.4376 1084.8843,305.2027 C1088.4222,301.0368 1093.384,301.4933 1096.0425,306.2968 C1102.8726,308.6959 1102.1281,314.4139 1097.3915,318.1315 C1103.5763,320.1064 1104.613,324.8281 1099.7066,329.1362 C1106.7671,333.3033 1106.1238,337.8308 1100.771,342.9541 C1104.8998,346.883 1104.9562,352.9462 1098.4218,354.7518 C1103.4649,358.4547 1103.9535,364.2571 1097.6741,367.2846 C1102.3109,371.1983 1101.5644,377.149 1096.0146,379.7012 C1092.3175,385.6505 1087.3923,386.521 1082.9805,380.478 C1080.8313,385.1347 1076.4604,385.85 1073.173,381.7533 C1068.5433,388.9097 1064.5213,387.5531 1059.9053,381.7392 C1056.5396,386.6601 1052.1001,386.5636 1048.7656,381.7037 C1047.0491,387.0587 1041.6568,389.1799 1037.5711,384.2933 C1033.2505,389.7279 1029.0461,389.8414 1025.9221,383.1444 C1023.1178,389.0347 1018.4735,388.9431 1014.4349,384.5191 C1011.2325,390.9074 1006.4546,391.176 1002.6744,385.0626 C999.1333,390.0918 993.6012,388.6111 991.2685,383.679 C988.0635,389.2978 982.7474,388.2649 980.196,383.0132 C976.2028,387.2069 972.1731,387.4278 969.2371,381.83 C964.4765,386.6011 960.2371,385.5046 957.0439,379.9747 C953.4774,385.3365 948.9847,384.1766 946.6389,378.7927 C943.0194,383.742 939.3874,385.109 935.1536,379.4583 C927.3919,376.0919 928.8248,370.552 933.8832,365.9775 C926.4519,364.1982 924.531,358.9242 930.4033,353.4496 C925.2296,350.1815 924.5902,346.2234 929.1182,341.8779 C923.763,338.214 924.2851,332.6701 930.4051,330.2794 C926.6045,324.8465 927.7245,320.8241 933.7363,318.068 C927.4313,313.9306 927.5623,307.7614 934.6278,304.5027" fill="#F1F3F5" style="stroke:#868E96;stroke-width:0.5;"/><text fill="#212529" font-family="Arial" font-size="15" lengthAdjust="spacing" textLength="66.6943" x="940.5" y="325.1685">Flow Auth</text><line style="stroke:#868E96;stroke-width:1;" x1="926.5" x2="1101.248" y1="328.3472" y2="328.3472"/><text fill="#212529" font-family="Arial" font-size="15" lengthAdjust="spacing" textLength="115.0635" x="940.5" y="346.417">Token issuer and</text><text fill="#212529" font-family="Arial" font-size="15" lengthAdjust="spacing" textLength="146.748" x="940.5" y="363.6655">human identity source</text></g><!--link project_manager to frontend--><g class="link" data-entity-1="ent0002" data-entity-2="ent0008" data-link-type="dependency" data-source-line="51" id="lnk16"><path d="M139.42,117.5986 C152.98,123.0086 167.65,129.0886 181,135.0986 C212.44,149.2386 242.0334,163.7317 271.4434,178.6917" fill="none" id="project_manager-to-frontend" style="stroke:#495057;stroke-width:1.2;"/><polygon fill="#495057" points="275.9,180.9586,269.6917,173.3129,271.4434,178.6917,266.0646,180.4434,275.9,180.9586" style="stroke:#495057;stroke-width:1.2;stroke-linejoin:miter;stroke-miterlimit:10;"/><text fill="#000000" font-family="Arial" font-size="15" lengthAdjust="spacing" textLength="31.6846" x="190" y="136.1685">uses</text></g><!--link worker to frontend--><g class="link" data-entity-1="ent0003" data-entity-2="ent0008" data-link-type="dependency" data-source-line="52" id="lnk17"><path d="M146.78,188.8486 C177.9,193.7286 212.6503,199.1747 248.8403,204.8447" fill="none" id="worker-to-frontend" style="stroke:#495057;stroke-width:1.2;"/><polygon fill="#495057" points="253.78,205.6186,245.5076,200.2738,248.8403,204.8447,244.2693,208.1774,253.78,205.6186" style="stroke:#495057;stroke-width:1.2;stroke-linejoin:miter;stroke-miterlimit:10;"/><text fill="#000000" font-family="Arial" font-size="15" lengthAdjust="spacing" textLength="31.6846" x="190" y="192.1685">uses</text></g><!--link reviewer to frontend--><g class="link" data-entity-1="ent0004" data-entity-2="ent0008" data-link-type="dependency" data-source-line="53" id="lnk18"><path d="M131.56,258.1786 C157.51,256.0386 191.84,252.6986 222,248.0986 C232.29,246.5286 238.0851,245.597 248.7351,243.607" fill="none" id="reviewer-to-frontend" style="stroke:#495057;stroke-width:1.2;"/><polygon fill="#495057" points="253.65,242.6886,244.0684,240.4098,248.7351,243.607,245.5378,248.2737,253.65,242.6886" style="stroke:#495057;stroke-width:1.2;stroke-linejoin:miter;stroke-miterlimit:10;"/><text fill="#000000" font-family="Arial" font-size="15" lengthAdjust="spacing" textLength="31.6846" x="190" y="244.1685">uses</text></g><!--link operator to frontend--><g class="link" data-entity-1="ent0005" data-entity-2="ent0008" data-link-type="dependency" data-source-line="54" id="lnk19"><path d="M137.76,314.5286 C151.69,308.9586 166.97,302.8086 181,297.0986 C199.27,289.6586 203.9,287.9386 222,280.0986 C235.92,274.0686 246.0469,269.6026 260.3569,263.1926" fill="none" id="operator-to-frontend" style="stroke:#495057;stroke-width:1.2;"/><polygon fill="#495057" points="264.92,261.1486,255.0712,261.1773,260.3569,263.1926,258.3416,268.4783,264.92,261.1486" style="stroke:#495057;stroke-width:1.2;stroke-linejoin:miter;stroke-miterlimit:10;"/><text fill="#000000" font-family="Arial" font-size="15" lengthAdjust="spacing" textLength="31.6846" x="190" y="276.1685">uses</text></g><!--link frontend to api--><g class="link" data-entity-1="ent0008" data-entity-2="ent0009" data-link-type="dependency" data-source-line="56" id="lnk20"><path d="M453.03,221.0986 C499.39,221.0986 548.98,221.0986 592.84,221.0986" fill="none" id="frontend-to-api" style="stroke:#495057;stroke-width:1.2;"/><polygon fill="#495057" points="597.84,221.0986,588.84,217.0986,592.84,221.0986,588.84,225.0986,597.84,221.0986" style="stroke:#495057;stroke-width:1.2;stroke-linejoin:miter;stroke-miterlimit:10;"/><text fill="#000000" font-family="Arial" font-size="15" lengthAdjust="spacing" textLength="83.335" x="484" y="217.1685">HTTP/JSON</text></g><!--link api to flow_auth--><g class="link" data-entity-1="ent0009" data-entity-2="ent0006" data-link-type="dependency" data-source-line="57" id="lnk21"><path d="M761.41,250.2986 C811.01,268.1986 869.7968,289.4216 920.5968,307.7516" fill="none" id="api-to-flow_auth" style="stroke:#495057;stroke-width:1.2;"/><polygon fill="#495057" points="925.3,309.4486,918.1919,302.6314,920.5968,307.7516,915.4766,310.1565,925.3,309.4486" style="stroke:#495057;stroke-width:1.2;stroke-linejoin:miter;stroke-miterlimit:10;"/><text fill="#000000" font-family="Arial" font-size="15" lengthAdjust="spacing" textLength="76.6992" x="801.5" y="260.1685">verify token</text></g><!--link api to postgres--><g class="link" data-entity-1="ent0009" data-entity-2="ent0014" data-link-type="dependency" data-source-line="58" id="lnk22"><path d="M712.91,261.3386 C767.58,324.3286 884.78,439.0986 1013,439.0986 C1013,439.0986 1013,439.0986 1630.5,439.0986 C1702.77,439.0986 1776.6509,416.8533 1834.0609,394.4933" fill="none" id="api-to-postgres" style="stroke:#495057;stroke-width:1.2;"/><polygon fill="#495057" points="1838.72,392.6786,1828.8819,392.2177,1834.0609,394.4933,1831.7853,399.6722,1838.72,392.6786" style="stroke:#495057;stroke-width:1.2;stroke-linejoin:miter;stroke-miterlimit:10;"/><text fill="#000000" font-family="Arial" font-size="15" lengthAdjust="spacing" textLength="130.8838" x="1255.5" y="435.1685">SQLAlchemy async</text></g><!--link api to storage_adapter--><g class="link" data-entity-1="ent0009" data-entity-2="ent0012" data-link-type="dependency" data-source-line="59" id="lnk23"><path d="M761.23,196.2886 C806.77,183.5786 865.01,169.4686 918,163.0986 C1129.37,137.6786 1184.39,152.1586 1397,163.0986 C1449.31,165.7886 1502.8673,172.6537 1547.9773,179.5437" fill="none" id="api-to-storage_adapter" style="stroke:#495057;stroke-width:1.2;"/><polygon fill="#495057" points="1552.92,180.2986,1544.6271,174.9856,1547.9773,179.5437,1543.4192,182.8939,1552.92,180.2986" style="stroke:#495057;stroke-width:1.2;stroke-linejoin:miter;stroke-miterlimit:10;"/><text fill="#000000" font-family="Arial" font-size="15" lengthAdjust="spacing" textLength="69.1992" x="1142.5" y="146.1685">object refs</text></g><!--link api to jobs--><g class="link" data-entity-1="ent0009" data-entity-2="ent0010" data-link-type="dependency" data-source-line="60" id="lnk24"><path d="M761.41,221.0986 C808.61,221.0986 863.38,221.0986 912.83,221.0986" fill="none" id="api-to-jobs" style="stroke:#495057;stroke-width:1.2;"/><polygon fill="#495057" points="917.83,221.0986,908.83,217.0986,912.83,221.0986,908.83,225.0986,917.83,221.0986" style="stroke:#495057;stroke-width:1.2;stroke-linejoin:miter;stroke-miterlimit:10;"/><text fill="#000000" font-family="Arial" font-size="15" lengthAdjust="spacing" textLength="95.8813" x="792" y="217.1685">schedule work</text></g><!--link jobs to checker--><g class="link" data-entity-1="ent0010" data-entity-2="ent0011" data-link-type="dependency" data-source-line="61" id="lnk25"><path d="M1110.15,224.5186 C1143.04,225.3086 1180.14,225.7386 1214,225.0986 C1223.62,224.9186 1228.7326,224.7986 1238.7326,224.4786" fill="none" id="jobs-to-checker" style="stroke:#495057;stroke-width:1.2;"/><polygon fill="#495057" points="1243.73,224.3186,1234.6067,220.6085,1238.7326,224.4786,1234.8625,228.6044,1243.73,224.3186" style="stroke:#495057;stroke-width:1.2;stroke-linejoin:miter;stroke-miterlimit:10;"/><text fill="#000000" font-family="Arial" font-size="15" lengthAdjust="spacing" textLength="72.5317" x="1141" y="221.1685">run checks</text></g><!--link checker to postgres--><g class="link" data-entity-1="ent0011" data-entity-2="ent0014" data-link-type="dependency" data-source-line="62" id="lnk26"><path d="M1397.01,237.9386 C1509.72,263.0586 1716.3499,309.1303 1833.7399,335.3103" fill="none" id="checker-to-postgres" style="stroke:#495057;stroke-width:1.2;"/><polygon fill="#495057" points="1838.62,336.3986,1830.7065,330.5355,1833.7399,335.3103,1828.9651,338.3437,1838.62,336.3986" style="stroke:#495057;stroke-width:1.2;stroke-linejoin:miter;stroke-miterlimit:10;"/><text fill="#000000" font-family="Arial" font-size="15" lengthAdjust="spacing" textLength="44.1797" x="1607.5" y="270.1685">results</text></g><!--link checker to storage_adapter--><g class="link" data-entity-1="ent0011" data-entity-2="ent0012" data-link-type="dependency" data-source-line="63" id="lnk27"><path d="M1397.39,214.1786 C1444.8,209.8486 1500.6307,204.763 1547.9707,200.443" fill="none" id="checker-to-storage_adapter" style="stroke:#495057;stroke-width:1.2;"/><polygon fill="#495057" points="1552.95,199.9886,1543.6237,196.8231,1547.9707,200.443,1544.3507,204.79,1552.95,199.9886" style="stroke:#495057;stroke-width:1.2;stroke-linejoin:miter;stroke-miterlimit:10;"/><text fill="#000000" font-family="Arial" font-size="15" lengthAdjust="spacing" textLength="94.2334" x="1428" y="199.1685">read evidence</text></g><!--link storage_adapter to file_store--><g class="link" data-entity-1="ent0012" data-entity-2="ent0015" data-link-type="dependency" data-source-line="64" id="lnk28"><path d="M1706.08,193.0986 C1751.7,193.0986 1804.39,193.0986 1848.73,193.0986" fill="none" id="storage_adapter-to-file_store" style="stroke:#495057;stroke-width:1.2;"/><polygon fill="#495057" points="1853.73,193.0986,1844.73,189.0986,1848.73,193.0986,1844.73,197.0986,1853.73,193.0986" style="stroke:#495057;stroke-width:1.2;stroke-linejoin:miter;stroke-miterlimit:10;"/><text fill="#000000" font-family="Arial" font-size="15" lengthAdjust="spacing" textLength="67.5366" x="1739" y="189.1685">store/read</text></g><?plantuml-src TLNRSY9737sVhr2HnvYrmSjj7r85hAVMgTqr0ITveSebfWNqCjCzrHTJR2h_7lNS36F20pMZepwIZgGU9rrAyBSs1-iCOGQlTnzwCDVAeLHau2z9noXAQUl0QJ1ojtSWfA74IQsYo1waoj7mkGqcXvtHNecvJhM1N-BYT-PXzoZqKQeTR36rT8OKnn9jGi3ncLtG5dtgOixcEsO4KoCnlOwlv4-2tk0Cd1gZZrKk7oU3ky6e3JxlPN9GP2tqFlJFm9nBmHsjt8cb2QMYsgKN-TOs-2S2c6aZo5IHUlFHm-TXiBRrU1Z50zO38AHRsUvc_Sd7VlJlUKteS8Fs2lNTV3eSZQzI3-DvF6XH3-zd_Va5TP9gBzxpZeVZXydLbEDUVD_cxVVwW_w4UQDA9kWiIESfTTX_74_YQH7XJQBEmkWV_0RVKB6xwG1Qo4lRIrRQpaAT7VpY6UvETwJSMeMHD7BZdIuPZZoo_tTmIQyyjbKeKxrSTttAoI1pmYrCHIPLSKJNnle8LrkArubJVOIfT_krwl9lhPxrWHH8Qps7G2NMQX_I1YauRUbEOBKt2HMyMpxyWdpuJBpMwfKgpkAuhUAIa3NybHVI4PHPymPQ-FEnpcIHeb8aG2f7Hc6wLlhDJQ3TRpGQKIPYM4rIuZ94ZDPD5u_5752efEJzfeLFqK2cbKwbsmFxh1MNMlGWr0J6fsGBPipb9UcSKZAduePXWMPXkj2SQkxFtk26tQfv04lEvpThbUo9Sp0tGT402i_W3xqfWuI7LfJI7vQU9J0rE_T9P-XO4uVsK7R7-at6tM9He0XICbRnBabNF0AXHuz1q2qcLFC-RKAoNLlXDbmK76tnM71LvXSKcFF1YrMfwrqINtV2XcxtkTkZejlDwdSMshgT8TkqjfJ7ti3Eys1PLYXKnEzlvTXQDhQMCnyiuQb48QatY5yPoV6KyOW6vzmxhApeXNH0huoKokHLAfVIVDK9fX1BVWugSVKpsalkrJkjbltRrNqtqLdE8JP1fqeNxedPaIldaObUWcxKN6P1jTObqUt-ramkV09lEQlg6hW6DOj_3MnM_1eODOQ0yaWpyENvUN7x--hfUnJUYrFrDZFwIaPkJ_o9vCLf76hf65_zyNMQSdUo4vTxKadZqneMTjN5SB7OMzjuXO5do383xo8LYnSLne1MmyiEnjTJ7TN6LYBypr_CI_Xz3dmT2Hw2S8Sb_E5huKNnRntxL13GRJWK_GS0?></g></svg>