<svg xmlns="http://www.w3.org/2000/svg" xmlns:xlink="http://www.w3.org/1999/xlink" contentStyleType="text/css" data-diagram-type="DESCRIPTION" height="536px" preserveAspectRatio="none" style="width:2483px;height:536px;background:#FFFFFF;" version="1.1" viewBox="0 0 2483 536" width="2483px" zoomAndPan="magnify"><?plantuml 1.2026.6?><defs/><g><g class="title" data-source-line="1"><text fill="#000000" font-family="Arial" font-size="14" font-weight="700" lengthAdjust="spacing" textLength="217.0752" x="1129.4624" y="23.1318">Workstream v0.1 Container View</text></g><!--cluster People--><g class="cluster" data-qualified-name="People" data-source-line="29" id="ent0001"><rect fill="#F8F9FA" height="468" rx="4" ry="4" style="stroke:#1C7ED6;stroke-width:1;" width="193" x="7" y="44.0986"/><text fill="#0B2942" font-family="Arial" font-size="15" font-weight="700" lengthAdjust="spacing" textLength="49.1821" x="78.9089" y="60.1685">People</text></g><!--cluster Workstream v0.1--><g class="cluster" data-qualified-name="Workstream v0.1" data-source-line="40" id="ent0009"><rect fill="#F8FBFF" height="284" rx="4" ry="4" style="stroke:#1C7ED6;stroke-width:1;" width="1722" x="421" y="75.0986"/><text fill="#0B2942" font-family="Arial" font-size="15" font-weight="700" lengthAdjust="spacing" textLength="120.0586" x="1221.9707" y="91.1685">Workstream v0.1</text></g><!--cluster Durable Records--><g class="cluster" data-qualified-name="Durable Records" data-source-line="49" id="ent0016"><rect fill="#F2FBF7" height="325" rx="4" ry="4" style="stroke:#1C7ED6;stroke-width:1;" width="225" x="2244" y="89.0986"/><text fill="#0B2942" font-family="Arial" font-size="15" font-weight="700" lengthAdjust="spacing" textLength="120.0366" x="2296.4817" y="105.1685">Durable Records</text></g><!--entity project_manager--><g class="entity" data-qualified-name="People.project_manager" data-source-line="30" id="ent0002"><rect fill="#F1F3F5" height="37.2485" rx="4" ry="4" style="stroke:#1C7ED6;stroke-width:0.5;" width="130.0537" x="38.5" y="80.5986"/><text fill="#0B2942" font-family="Arial" font-size="15" lengthAdjust="spacing" textLength="110.0537" x="48.5" y="104.6685">Project Manager</text></g><!--entity finance_authority--><g class="entity" data-qualified-name="People.finance_authority" data-source-line="31" id="ent0003"><rect fill="#F1F3F5" height="37.2485" rx="4" ry="4" style="stroke:#1C7ED6;stroke-width:0.5;" width="136.7261" x="35" y="152.5986"/><text fill="#0B2942" font-family="Arial" font-size="15" lengthAdjust="spacing" textLength="116.7261" x="45" y="176.6685">Finance Authority</text></g><!--entity contributor--><g class="entity" data-qualified-name="People.contributor" data-source-line="32" id="ent0004"><rect fill="#F1F3F5" height="54.4971" rx="4" ry="4" style="stroke:#1C7ED6;stroke-width:0.5;" width="112.5488" x="47" y="225.0986"/><text fill="#0B2942" font-family="Arial" font-size="15" lengthAdjust="spacing" textLength="92.5488" x="57" y="249.1685">Human-Agent</text><text fill="#0B2942" font-family="Arial" font-size="15" lengthAdjust="spacing" textLength="74.2017" x="57" y="266.417">Contributor</text></g><!--entity reviewer--><g class="entity" data-qualified-name="People.reviewer" data-source-line="33" id="ent0005"><rect fill="#F1F3F5" height="37.2485" rx="4" ry="4" style="stroke:#1C7ED6;stroke-width:0.5;" width="82.5195" x="62" y="314.5986"/><text fill="#0B2942" font-family="Arial" font-size="15" lengthAdjust="spacing" textLength="62.5195" x="72" y="338.6685">Reviewer</text></g><!--entity operator--><g class="entity" data-qualified-name="People.operator" data-source-line="34" id="ent0006"><rect fill="#F1F3F5" height="37.2485" rx="4" ry="4" style="stroke:#1C7ED6;stroke-width:0.5;" width="79.1943" x="64" y="386.5986"/><text fill="#0B2942" font-family="Arial" font-size="15" lengthAdjust="spacing" textLength="59.1943" x="74" y="410.6685">Operator</text></g><!--entity access_administrator--><g class="entity" data-qualified-name="People.access_administrator" data-source-line="35" id="ent0007"><rect fill="#F1F3F5" height="37.2485" rx="4" ry="4" style="stroke:#1C7ED6;stroke-width:0.5;" width="160.874" x="23" y="458.5986"/><text fill="#0B2942" font-family="Arial" font-size="15" lengthAdjust="spacing" textLength="140.874" x="33" y="482.6685">Access Administrator</text></g><!--entity frontend--><g class="entity" data-qualified-name="Workstream v0.1.frontend" data-source-line="41" id="ent0010"><rect fill="#E7F5FF" height="79.7456" rx="4" ry="4" style="stroke:#1C7ED6;stroke-width:0.5;" width="198.8354" x="437" y="263.0986"/><text fill="#0B2942" font-family="Arial" font-size="15" lengthAdjust="spacing" textLength="178.8354" x="447" y="287.1685">React + Vite Operations UI</text><line style="stroke:#1C7ED6;stroke-width:1;" x1="438" x2="634.8354" y1="290.3472" y2="290.3472"/><text fill="#0B2942" font-family="Arial" font-size="15" lengthAdjust="spacing" textLength="108.4131" x="447" y="308.417">Planned internal</text><text fill="#0B2942" font-family="Arial" font-size="15" lengthAdjust="spacing" textLength="145.1074" x="447" y="325.6655">operations dashboard</text></g><!--entity api--><g class="entity" data-qualified-name="Workstream v0.1.api" data-source-line="42" id="ent0011"><rect fill="#E7F5FF" height="79.7456" rx="4" ry="4" style="stroke:#1C7ED6;stroke-width:0.5;" width="163.4009" x="781" y="263.0986"/><text fill="#0B2942" font-family="Arial" font-size="15" lengthAdjust="spacing" textLength="115.8911" x="791" y="287.1685">FastAPI Backend</text><line style="stroke:#1C7ED6;stroke-width:1;" x1="782" x2="943.4009" y1="290.3472" y2="290.3472"/><text fill="#0B2942" font-family="Arial" font-size="15" lengthAdjust="spacing" textLength="143.4009" x="791" y="308.417">Modular monolith API</text><text fill="#0B2942" font-family="Arial" font-size="15" lengthAdjust="spacing" textLength="124.2188" x="791" y="325.6655">and workflow rules</text></g><!--entity authorization--><g class="entity" data-qualified-name="Workstream v0.1.authorization" data-source-line="43" id="ent0012"><rect fill="#E7F5FF" height="79.7456" rx="4" ry="4" style="stroke:#1C7ED6;stroke-width:0.5;" width="196.7407" x="1134" y="263.0986"/><text fill="#0B2942" font-family="Arial" font-size="15" lengthAdjust="spacing" textLength="141.7383" x="1144" y="287.1685">Authorization Service</text><line style="stroke:#1C7ED6;stroke-width:1;" x1="1135" x2="1329.7407" y1="290.3472" y2="290.3472"/><text fill="#0B2942" font-family="Arial" font-size="15" lengthAdjust="spacing" textLength="176.7407" x="1144" y="308.417">Actor profiles, local grants,</text><text fill="#0B2942" font-family="Arial" font-size="15" lengthAdjust="spacing" textLength="142.5806" x="1144" y="325.6655">and capability checks</text></g><!--entity jobs--><g class="entity" data-qualified-name="Workstream v0.1.jobs" data-source-line="44" id="ent0013"><rect fill="#E7F5FF" height="79.7456" rx="4" ry="4" style="stroke:#1C7ED6;stroke-width:0.5;" width="191.7676" x="1136.5" y="148.0986"/><text fill="#0B2942" font-family="Arial" font-size="15" lengthAdjust="spacing" textLength="164.2236" x="1146.5" y="172.1685">Celery Worker Boundary</text><line style="stroke:#1C7ED6;stroke-width:1;" x1="1137.5" x2="1327.2676" y1="175.3472" y2="175.3472"/><text fill="#0B2942" font-family="Arial" font-size="15" lengthAdjust="spacing" textLength="146.748" x="1146.5" y="193.417">Durable project setup,</text><text fill="#0B2942" font-family="Arial" font-size="15" lengthAdjust="spacing" textLength="171.7676" x="1146.5" y="210.6655">checker, and product jobs</text></g><!--entity checker--><g class="entity" data-qualified-name="Workstream v0.1.checker" data-source-line="45" id="ent0014"><rect fill="#E7F5FF" height="79.7456" rx="4" ry="4" style="stroke:#1C7ED6;stroke-width:0.5;" width="153.418" x="1553" y="166.0986"/><text fill="#0B2942" font-family="Arial" font-size="15" lengthAdjust="spacing" textLength="109.2188" x="1563" y="190.1685">Checker Runner</text><line style="stroke:#1C7ED6;stroke-width:1;" x1="1554" x2="1705.418" y1="193.3472" y2="193.3472"/><text fill="#0B2942" font-family="Arial" font-size="15" lengthAdjust="spacing" textLength="133.418" x="1563" y="211.417">Automated task and</text><text fill="#0B2942" font-family="Arial" font-size="15" lengthAdjust="spacing" textLength="125.8813" x="1563" y="228.6655">submission checks</text></g><!--entity storage_adapter--><g class="entity" data-qualified-name="Workstream v0.1.storage_adapter" data-source-line="46" id="ent0015"><rect fill="#E7F5FF" height="79.7456" rx="4" ry="4" style="stroke:#1C7ED6;stroke-width:0.5;" width="190.1123" x="1937" y="111.0986"/><text fill="#0B2942" font-family="Arial" font-size="15" lengthAdjust="spacing" textLength="157.5659" x="1947" y="135.1685">Artifact Storage Service</text><line style="stroke:#1C7ED6;stroke-width:1;" x1="1938" x2="2126.1123" y1="138.3472" y2="138.3472"/><text fill="#0B2942" font-family="Arial" font-size="15" lengthAdjust="spacing" textLength="153.3911" x="1947" y="156.417">Admission, verification,</text><text fill="#0B2942" font-family="Arial" font-size="15" lengthAdjust="spacing" textLength="170.1123" x="1947" y="173.6655">binding, and provider port</text></g><!--entity postgres--><g class="entity" data-qualified-name="Durable Records.postgres" data-source-line="50" id="ent0017"><path d="M2260,250.0986 C2260,240.0986 2356.3049,240.0986 2356.3049,240.0986 C2356.3049,240.0986 2452.6099,240.0986 2452.6099,250.0986 L2452.6099,387.8384 C2452.6099,397.8384 2356.3049,397.8384 2356.3049,397.8384 C2356.3049,397.8384 2260,397.8384 2260,387.8384 L2260,250.0986" fill="#E6FCF5" style="stroke:#0CA678;stroke-width:0.5;"/><path d="M2260,250.0986 C2260,260.0986 2356.3049,260.0986 2356.3049,260.0986 C2356.3049,260.0986 2452.6099,260.0986 2452.6099,250.0986" fill="none" style="stroke:#0CA678;stroke-width:0.5;"/><text fill="#063B2C" font-family="Arial" font-size="15" lengthAdjust="spacing" textLength="59.1943" x="2270" y="278.1685">Postgres</text><path d="M2260,276.3472 C2260,286.3472 2356.3049,286.3472 2356.3049,286.3472 C2356.3049,286.3472 2452.6099,286.3472 2452.6099,276.3472" fill="none" style="stroke:#0CA678;stroke-width:1;"/><text fill="#063B2C" font-family="Arial" font-size="15" lengthAdjust="spacing" textLength="110.8887" x="2270" y="299.417">Projects, guides,</text><text fill="#063B2C" font-family="Arial" font-size="15" lengthAdjust="spacing" textLength="130.0415" x="2270" y="316.6655">tasks, submissions,</text><text fill="#063B2C" font-family="Arial" font-size="15" lengthAdjust="spacing" textLength="110.0317" x="2270" y="333.9141">checks, reviews,</text><text fill="#063B2C" font-family="Arial" font-size="15" lengthAdjust="spacing" textLength="149.2383" x="2270" y="351.1626">revisions, contribution,</text><text fill="#063B2C" font-family="Arial" font-size="15" lengthAdjust="spacing" textLength="172.6099" x="2270" y="368.4111">compensation, reputation,</text><text fill="#063B2C" font-family="Arial" font-size="15" lengthAdjust="spacing" textLength="80.8887" x="2270" y="385.6597">audit events</text></g><!--entity file_store--><g class="entity" data-qualified-name="Durable Records.file_store" data-source-line="51" id="ent0018"><rect fill="#E6FCF5" height="79.7456" rx="4" ry="4" style="stroke:#1C7ED6;stroke-width:0.5;" width="177.5513" x="2267.5" y="125.0986"/><text fill="#0B2942" font-family="Arial" font-size="15" lengthAdjust="spacing" textLength="134.2236" x="2277.5" y="149.1685">Private Object Store</text><text fill="#0B2942" font-family="Arial" font-size="15" lengthAdjust="spacing" textLength="133.4033" x="2277.5" y="166.417">Behind ArtifactStore</text><line style="stroke:#1C7ED6;stroke-width:1;" x1="2268.5" x2="2444.0513" y1="169.5957" y2="169.5957"/><text fill="#0B2942" font-family="Arial" font-size="15" lengthAdjust="spacing" textLength="157.5513" x="2277.5" y="187.6655">Local / MinIO / AWS S3</text></g><!--entity flow_auth--><g class="entity" data-qualified-name="flow_auth" data-source-line="38" id="ent0008"><path d="M1153.1278,386.5027 C1157.0982,381.2206 1160.5621,381.4643 1163.9763,387.0575 C1167.4645,380.9755 1173.6735,380.5822 1176.9844,387.2386 C1180.1201,382.7173 1183.6149,382.5337 1186.9663,386.999 C1190.9282,380.3311 1195.8177,380.029 1199.9124,386.8717 C1202.9556,382.1381 1207.7258,380.9743 1210.983,386.644 C1213.0063,381.29 1217.12,380.0126 1221.2825,384.3768 C1225.3983,379.108 1229.7441,377.423 1234.0164,384.2116 C1237.5862,378.7695 1240.9739,379.4542 1244.2177,384.5278 C1248.247,378.3893 1253.2334,379.0132 1256.1952,385.5376 C1259.3414,380.1793 1264.8347,380.8881 1267.8497,385.6882 C1271.638,380.0554 1277.226,381.1552 1279.5248,387.1799 C1282.9743,382.0717 1288.5856,381.3784 1291.5527,387.688 C1294.7144,381.7147 1299.741,381.4376 1303.3843,387.2027 C1306.9222,383.0368 1311.884,383.4933 1314.5425,388.2968 C1321.3726,390.6959 1320.6281,396.4139 1315.8915,400.1315 C1322.0763,402.1064 1323.113,406.8281 1318.2066,411.1362 C1325.2671,415.3033 1324.6238,419.8308 1319.271,424.9541 C1323.3998,428.883 1323.4562,434.9462 1316.9218,436.7518 C1321.9649,440.4547 1322.4535,446.2571 1316.1741,449.2846 C1320.8109,453.1983 1320.0644,459.149 1314.5146,461.7012 C1310.8175,467.6505 1305.8923,468.521 1301.4805,462.478 C1299.3313,467.1347 1294.9604,467.85 1291.673,463.7533 C1287.0433,470.9097 1283.0213,469.5531 1278.4053,463.7392 C1275.0396,468.6601 1270.6001,468.5636 1267.2656,463.7037 C1265.5491,469.0587 1260.1568,471.1799 1256.0711,466.2933 C1251.7505,471.7279 1247.5461,471.8414 1244.4221,465.1444 C1241.6178,471.0347 1236.9735,470.9431 1232.9349,466.5191 C1229.7325,472.9074 1224.9546,473.176 1221.1744,467.0626 C1217.6333,472.0918 1212.1012,470.6111 1209.7685,465.679 C1206.5635,471.2978 1201.2474,470.2649 1198.696,465.0132 C1194.7028,469.2069 1190.6731,469.4278 1187.7371,463.83 C1182.9765,468.6011 1178.7371,467.5046 1175.5439,461.9747 C1171.9774,467.3365 1167.4847,466.1766 1165.1389,460.7927 C1161.5194,465.742 1157.8874,467.109 1153.6536,461.4583 C1145.8919,458.0919 1147.3248,452.552 1152.3832,447.9775 C1144.9519,446.1982 1143.031,440.9242 1148.9033,435.4496 C1143.7296,432.1815 1143.0902,428.2234 1147.6182,423.8779 C1142.263,420.214 1142.7851,414.6701 1148.9051,412.2794 C1145.1045,406.8465 1146.2245,402.8241 1152.2363,400.068 C1145.9313,395.9306 1146.0623,389.7614 1153.1278,386.5027" fill="#F1F3F5" style="stroke:#868E96;stroke-width:0.5;"/><text fill="#212529" font-family="Arial" font-size="15" lengthAdjust="spacing" textLength="66.6943" x="1159" y="407.1685">Flow Auth</text><line style="stroke:#868E96;stroke-width:1;" x1="1145" x2="1319.748" y1="410.3472" y2="410.3472"/><text fill="#212529" font-family="Arial" font-size="15" lengthAdjust="spacing" textLength="115.0635" x="1159" y="428.417">Token issuer and</text><text fill="#212529" font-family="Arial" font-size="15" lengthAdjust="spacing" textLength="146.748" x="1159" y="445.6655">human identity source</text></g><!--link project_manager to frontend--><g class="link" data-entity-1="ent0002" data-entity-2="ent0010" data-link-type="dependency" data-source-line="54" id="lnk19"><path d="M168.52,101.9486 C232.18,107.2086 330.79,122.0986 405,164.0986 C447.78,188.3086 481.8595,227.1841 505.4395,258.9441" fill="none" id="project_manager-to-frontend" style="stroke:#495057;stroke-width:1.2;"/><polygon fill="#495057" points="508.42,262.9586,506.2666,253.3481,505.4395,258.9441,499.8434,258.1169,508.42,262.9586" style="stroke:#495057;stroke-width:1.2;stroke-linejoin:miter;stroke-miterlimit:10;"/><text fill="#000000" font-family="Arial" font-size="15" lengthAdjust="spacing" textLength="31.6846" x="295" y="104.1685">uses</text></g><!--link finance_authority to frontend--><g class="link" data-entity-1="ent0003" data-entity-2="ent0010" data-link-type="dependency" data-source-line="55" id="lnk20"><path d="M172,181.7186 C233.75,192.5186 327.07,211.5986 405,239.0986 C423.68,245.6886 438.6664,252.0866 456.7264,260.7966" fill="none" id="finance_authority-to-frontend" style="stroke:#495057;stroke-width:1.2;"/><polygon fill="#495057" points="461.23,262.9686,454.8611,255.4562,456.7264,260.7966,451.3859,262.6619,461.23,262.9686" style="stroke:#495057;stroke-width:1.2;stroke-linejoin:miter;stroke-miterlimit:10;"/><text fill="#000000" font-family="Arial" font-size="15" lengthAdjust="spacing" textLength="187.6099" x="217" y="187.1685">publishes contribution policy</text></g><!--link contributor to frontend--><g class="link" data-entity-1="ent0004" data-entity-2="ent0010" data-link-type="dependency" data-source-line="56" id="lnk21"><path d="M160.4,258.7186 C230.33,266.9886 346.2946,280.7112 431.9146,290.8412" fill="none" id="contributor-to-frontend" style="stroke:#495057;stroke-width:1.2;"/><polygon fill="#495057" points="436.88,291.4286,428.4123,286.3989,431.9146,290.8412,427.4724,294.3435,436.88,291.4286" style="stroke:#495057;stroke-width:1.2;stroke-linejoin:miter;stroke-miterlimit:10;"/><text fill="#000000" font-family="Arial" font-size="15" lengthAdjust="spacing" textLength="31.6846" x="295" y="262.1685">uses</text></g><!--link reviewer to frontend--><g class="link" data-entity-1="ent0005" data-entity-2="ent0010" data-link-type="dependency" data-source-line="57" id="lnk22"><path d="M145.01,333.9986 C166.17,334.4286 192.48,334.8886 216,335.0986 C300,335.8486 321.61,345.1786 405,335.0986 C415.42,333.8386 421.3052,333.0095 432.0152,330.8895" fill="none" id="reviewer-to-frontend" style="stroke:#495057;stroke-width:1.2;"/><polygon fill="#495057" points="436.92,329.9186,427.3146,327.7424,432.0152,330.8895,428.868,335.5901,436.92,329.9186" style="stroke:#495057;stroke-width:1.2;stroke-linejoin:miter;stroke-miterlimit:10;"/><text fill="#000000" font-family="Arial" font-size="15" lengthAdjust="spacing" textLength="31.6846" x="295" y="331.1685">uses</text></g><!--link operator to frontend--><g class="link" data-entity-1="ent0006" data-entity-2="ent0010" data-link-type="dependency" data-source-line="58" id="lnk23"><path d="M143.29,404.2486 C201.36,402.0886 313.82,394.3986 405,367.0986 C424.94,361.1286 441.0924,354.5429 459.9124,345.4029" fill="none" id="operator-to-frontend" style="stroke:#495057;stroke-width:1.2;"/><polygon fill="#495057" points="464.41,343.2186,454.5668,343.5523,459.9124,345.4029,458.0617,350.7485,464.41,343.2186" style="stroke:#495057;stroke-width:1.2;stroke-linejoin:miter;stroke-miterlimit:10;"/><text fill="#000000" font-family="Arial" font-size="15" lengthAdjust="spacing" textLength="31.6846" x="295" y="363.1685">uses</text></g><!--link access_administrator to frontend--><g class="link" data-entity-1="ent0007" data-entity-2="ent0010" data-link-type="dependency" data-source-line="59" id="lnk24"><path d="M184.02,476.4686 C246.97,473.0786 335.54,461.7186 405,427.0986 C444.72,407.2986 477.284,375.1217 501.294,346.9917" fill="none" id="access_administrator-to-frontend" style="stroke:#495057;stroke-width:1.2;"/><polygon fill="#495057" points="504.54,343.1886,495.6547,347.4373,501.294,346.9917,501.7396,352.631,504.54,343.1886" style="stroke:#495057;stroke-width:1.2;stroke-linejoin:miter;stroke-miterlimit:10;"/><text fill="#000000" font-family="Arial" font-size="15" lengthAdjust="spacing" textLength="127.5439" x="247" y="423.1685">administers access</text></g><!--link frontend to api--><g class="link" data-entity-1="ent0010" data-entity-2="ent0011" data-link-type="dependency" data-source-line="61" id="lnk25"><path d="M636.03,303.0986 C682.39,303.0986 731.98,303.0986 775.84,303.0986" fill="none" id="frontend-to-api" style="stroke:#495057;stroke-width:1.2;"/><polygon fill="#495057" points="780.84,303.0986,771.84,299.0986,775.84,303.0986,771.84,307.0986,780.84,303.0986" style="stroke:#495057;stroke-width:1.2;stroke-linejoin:miter;stroke-miterlimit:10;"/><text fill="#000000" font-family="Arial" font-size="15" lengthAdjust="spacing" textLength="83.335" x="667" y="299.1685">HTTP/JSON</text></g><!--link api to flow_auth--><g class="link" data-entity-1="ent0011" data-entity-2="ent0008" data-link-type="dependency" data-source-line="62" id="lnk26"><path d="M944.26,329.4286 C1003.29,348.6786 1078.5263,373.2188 1139.1063,392.9688" fill="none" id="api-to-flow_auth" style="stroke:#495057;stroke-width:1.2;"/><polygon fill="#495057" points="1143.86,394.5186,1136.5431,387.926,1139.1063,392.9688,1134.0634,395.532,1143.86,394.5186" style="stroke:#495057;stroke-width:1.2;stroke-linejoin:miter;stroke-miterlimit:10;"/><text fill="#000000" font-family="Arial" font-size="15" lengthAdjust="spacing" textLength="128.3936" x="975" y="338.1685">verify identity token</text></g><!--link api to authorization--><g class="link" data-entity-1="ent0011" data-entity-2="ent0012" data-link-type="dependency" data-source-line="63" id="lnk27"><path d="M944.26,303.0986 C1000.12,303.0986 1069.74,303.0986 1128.92,303.0986" fill="none" id="api-to-authorization" style="stroke:#495057;stroke-width:1.2;"/><polygon fill="#495057" points="1133.92,303.0986,1124.92,299.0986,1128.92,303.0986,1124.92,307.0986,1133.92,303.0986" style="stroke:#495057;stroke-width:1.2;stroke-linejoin:miter;stroke-miterlimit:10;"/><text fill="#000000" font-family="Arial" font-size="15" lengthAdjust="spacing" textLength="128.4082" x="975" y="299.1685">authorize capability</text></g><!--link authorization to postgres--><g class="link" data-entity-1="ent0012" data-entity-2="ent0017" data-link-type="dependency" data-source-line="64" id="lnk28"><path d="M1331.11,304.4886 C1544.1,307.5286 2043.3905,314.6474 2254.7105,317.6574" fill="none" id="authorization-to-postgres" style="stroke:#495057;stroke-width:1.2;"/><polygon fill="#495057" points="2259.71,317.7286,2250.7679,313.6009,2254.7105,317.6574,2250.6539,321.6,2259.71,317.7286" style="stroke:#495057;stroke-width:1.2;stroke-linejoin:miter;stroke-miterlimit:10;"/><text fill="#000000" font-family="Arial" font-size="15" lengthAdjust="spacing" textLength="123.4058" x="1760" y="307.1685">profiles and grants</text></g><!--link api to postgres--><g class="link" data-entity-1="ent0011" data-entity-2="ent0017" data-link-type="dependency" data-source-line="65" id="lnk29"><path d="M900.27,343.3386 C962.06,406.3286 1093.57,521.0986 1231.5,521.0986 C1231.5,521.0986 1231.5,521.0986 2033,521.0986 C2129.79,521.0986 2217.7534,458.3588 2278.4334,401.7688" fill="none" id="api-to-postgres" style="stroke:#495057;stroke-width:1.2;"/><polygon fill="#495057" points="2282.09,398.3586,2272.78,401.5716,2278.4334,401.7688,2278.2362,407.4222,2282.09,398.3586" style="stroke:#495057;stroke-width:1.2;stroke-linejoin:miter;stroke-miterlimit:10;"/><text fill="#000000" font-family="Arial" font-size="15" lengthAdjust="spacing" textLength="130.8838" x="1564.5" y="517.1685">SQLAlchemy async</text></g><!--link api to storage_adapter--><g class="link" data-entity-1="ent0011" data-entity-2="ent0015" data-link-type="dependency" data-source-line="66" id="lnk30"><path d="M901.36,262.8786 C921.6,242.8886 947.72,219.3786 974,202.0986 C1039.15,159.2586 1057.76,146.4586 1134,130.0986 C1421.09,68.4786 1766.7894,108.2204 1931.7394,133.8704" fill="none" id="api-to-storage_adapter" style="stroke:#495057;stroke-width:1.2;"/><polygon fill="#495057" points="1936.68,134.6386,1928.4015,129.3032,1931.7394,133.8704,1927.1723,137.2082,1936.68,134.6386" style="stroke:#495057;stroke-width:1.2;stroke-linejoin:miter;stroke-miterlimit:10;"/><text fill="#000000" font-family="Arial" font-size="15" lengthAdjust="spacing" textLength="160.0928" x="1362" y="94.1685">typed artifact operations</text></g><!--link api to jobs--><g class="link" data-entity-1="ent0011" data-entity-2="ent0013" data-link-type="dependency" data-source-line="67" id="lnk31"><path d="M944.26,277.8586 C1000.86,260.1786 1071.9476,237.9601 1131.4976,219.3501" fill="none" id="api-to-jobs" style="stroke:#495057;stroke-width:1.2;"/><polygon fill="#495057" points="1136.27,217.8586,1126.4866,216.7253,1131.4976,219.3501,1128.8728,224.3611,1136.27,217.8586" style="stroke:#495057;stroke-width:1.2;stroke-linejoin:miter;stroke-miterlimit:10;"/><text fill="#000000" font-family="Arial" font-size="15" lengthAdjust="spacing" textLength="95.8813" x="991.5" y="225.1685">schedule work</text></g><!--link jobs to checker--><g class="link" data-entity-1="ent0013" data-entity-2="ent0014" data-link-type="dependency" data-source-line="68" id="lnk32"><path d="M1328.62,192.4286 C1397.33,195.5686 1483.8952,199.5108 1547.7052,202.4208" fill="none" id="jobs-to-checker" style="stroke:#495057;stroke-width:1.2;"/><polygon fill="#495057" points="1552.7,202.6486,1543.8916,198.2428,1547.7052,202.4208,1543.5271,206.2345,1552.7,202.6486" style="stroke:#495057;stroke-width:1.2;stroke-linejoin:miter;stroke-miterlimit:10;"/><text fill="#000000" font-family="Arial" font-size="15" lengthAdjust="spacing" textLength="72.5317" x="1406" y="190.1685">run checks</text></g><!--link checker to postgres--><g class="link" data-entity-1="ent0014" data-entity-2="ent0017" data-link-type="dependency" data-source-line="69" id="lnk33"><path d="M1706.04,217.8686 C1838.87,238.5786 2109.0496,280.6889 2254.9296,303.4189" fill="none" id="checker-to-postgres" style="stroke:#495057;stroke-width:1.2;"/><polygon fill="#495057" points="2259.87,304.1886,2251.5931,298.8507,2254.9296,303.4189,2250.3615,306.7553,2259.87,304.1886" style="stroke:#495057;stroke-width:1.2;stroke-linejoin:miter;stroke-miterlimit:10;"/><text fill="#000000" font-family="Arial" font-size="15" lengthAdjust="spacing" textLength="44.1797" x="2010" y="251.1685">results</text></g><!--link checker to storage_adapter--><g class="link" data-entity-1="ent0014" data-entity-2="ent0015" data-link-type="dependency" data-source-line="70" id="lnk34"><path d="M1706.3,195.6886 C1771.73,186.7086 1861.5565,174.3687 1931.8465,164.7187" fill="none" id="checker-to-storage_adapter" style="stroke:#495057;stroke-width:1.2;"/><polygon fill="#495057" points="1936.8,164.0386,1927.3396,161.2999,1931.8465,164.7187,1928.4277,169.2256,1936.8,164.0386" style="stroke:#495057;stroke-width:1.2;stroke-linejoin:miter;stroke-miterlimit:10;"/><text fill="#000000" font-family="Arial" font-size="15" lengthAdjust="spacing" textLength="169.2261" x="1737" y="165.1685">materialize exact artifacts</text></g><!--link storage_adapter to file_store--><g class="link" data-entity-1="ent0015" data-entity-2="ent0018" data-link-type="dependency" data-source-line="71" id="lnk35"><path d="M2127.15,155.1886 C2171.4,157.1086 2218.8547,159.1614 2262.3247,161.0514" fill="none" id="storage_adapter-to-file_store" style="stroke:#495057;stroke-width:1.2;"/><polygon fill="#495057" points="2267.32,161.2686,2258.5022,156.8815,2262.3247,161.0514,2258.1547,164.8739,2267.32,161.2686" style="stroke:#495057;stroke-width:1.2;stroke-linejoin:miter;stroke-miterlimit:10;"/><text fill="#000000" font-family="Arial" font-size="15" lengthAdjust="spacing" textLength="67.5366" x="2160" y="153.1685">store/read</text></g><?plantuml-src RLPBS-8u4BxxLwZOuoQJG8P0vh1LXebhiZMPi26xSw4g9LiDQ12IImyopDR-zsr9jZ6ESqXGl_lhxYzORWMGxqhlZDL0z-Hm_M58vafQoYLeyW-7joGHiBR4AgBvPci9uneAovLC4hFZigGQ_N9Qx3PQESdcIYXDVil2Jyl2R2bJRrnko9eA0orDS2kKzWcdBJc3DNN2PbZDDxe7acfEHRz-oNy16OvRobHhzLRLyl5kV3sUT9KlMrxi91X3XXz6BMM9hT0DBEqHeV6jKhaHP_NMCl9lGiXCQGQwoZISJ-u_ttff5u_xIJP6F0ZnvLQowzdexkCe-Q_T4xKqfwOdzFKylPrCUqFVPlDit0bzUpCRpSz25q8vzZxkz7PwVzTRSZRCRhfnHyFHU7I7SPCA9Z9OW2e53D1-cjrbQSXmWcYmqEe7liWZbMYk1uGQKaRPwpxAMgbQZXcNL1OuTcUtIdDx3AxhA7sbjRJV-Ol3s9Vf1gHTIR_FckVEgfY-EBtxlP_XW8jV5QkhHx_fKmcQre5LzUWtJOl2RrlAzbnolBV6ZGR5AsqhcX08TPpS81FgBQ2nafVuiv8lQWUIS6CSLaSbMycjRvjmXcrxQ8noke286pe7q5gJwznz7E4ioxeZV0QA0_mTsS02YGtZ-HlozqDToK9GAO4HBYreISLAgfCPesQRAwfPB4GZ-Y1PPzZKs7Jn49OGV2SnxgDYJb1DzaegmUsMeCqA5u2HDwpTzqIq4s0YZ2Nl01vtv5UeWon17tW1TUYqy2ZZ9guv1hWWGXLKa8scqfgBcAEW9Ssvy4WMMoXsLPfsrFE4Sn2WZu5FSI8pVqjK7-kCdvscEPfLsqyCM5TYgX0Rz8KVeLSoXyeVAe_f_8TEbcXFdXrYhfj-S9ttrE8GB3Mxk0x6vNjS3zzzgu4gNmShRVdQZtc9iFZjwCB5gaWNv02QhtaH-iVoSouPqdfJ_W7N3u5LsePi9iR3xQObBiSPTTI8F0FIFpD-0KUuW9EmW0qL3XRAs8q6qsnR1127jd6Op8_BzuplKyEc1XQbyOAzn7-AsXC9n2uAjIz1cjWKUfJErWrInxWbSC2ZYW2MLJrTekC7wWya3zFrE29wCzWYFgI6jvB6Fhw6bRiYZrm-FE7VzFkIB6ygcXFmwg63XjyzS1tUlBpyexadyeauWpMz9yYELUbomSqMp1a4s9JWnJ5fSsDV-8OD-vGD__KfUrckOrWhGTUic2IDsjlYZQFPbvUNnTMVowTlYN-763MzeJRiv_74WjRJP6DvThu-PVM6rhadvqRUhPwv1x3YZB3maJ2Qw2spvLzVKu4hk3_YG8-oQ6mw5u6czbZYtTBw14_SsVXu5a13W_6G4I7GNnA4NbjTD1feLvzwKWixPU5l_D9qhdvVaMSI_tNBum8_VL5rTIRfMWVyJ_lwAOI3A_o_mfB_0G00?></g></svg>