<svg xmlns="http://www.w3.org/2000/svg" xmlns:xlink="http://www.w3.org/1999/xlink" contentStyleType="text/css" data-diagram-type="DESCRIPTION" height="571px" preserveAspectRatio="none" style="width:873px;height:571px;background:#FFFFFF;" version="1.1" viewBox="0 0 873 571" width="873px" zoomAndPan="magnify"><?plantuml 1.2026.5?><defs/><g><g class="title" data-source-line="1"><text fill="#000000" font-family="Arial" font-size="14" font-weight="700" lengthAdjust="spacing" textLength="190.6133" x="338.0154" y="23.1318">Workstream System Context</text></g><!--entity project_manager--><g class="entity" data-qualified-name="project_manager" data-source-line="29" id="ent0001"><rect fill="#F1F3F5" height="96.9941" rx="4" ry="4" style="stroke:#1C7ED6;stroke-width:0.5;" width="133.3789" x="13" y="62.9957"/><text fill="#0B2942" font-family="Arial" font-size="15" lengthAdjust="spacing" textLength="110.0537" x="23" y="87.0656">Project Manager</text><line style="stroke:#1C7ED6;stroke-width:1;" x1="14" x2="145.3789" y1="90.2443" y2="90.2443"/><text fill="#0B2942" font-family="Arial" font-size="15" lengthAdjust="spacing" textLength="113.3789" x="23" y="108.3141">Creates projects,</text><text fill="#0B2942" font-family="Arial" font-size="15" lengthAdjust="spacing" textLength="106.7285" x="23" y="125.5626">guides, policies,</text><text fill="#0B2942" font-family="Arial" font-size="15" lengthAdjust="spacing" textLength="64.2041" x="23" y="142.8112">and tasks</text></g><!--entity worker--><g class="entity" data-qualified-name="worker" data-source-line="30" id="ent0002"><rect fill="#F1F3F5" height="114.2427" rx="4" ry="4" style="stroke:#1C7ED6;stroke-width:0.5;" width="139.2529" x="10" y="195.4957"/><text fill="#0B2942" font-family="Arial" font-size="15" lengthAdjust="spacing" textLength="92.5488" x="20" y="219.5656">Human-Agent</text><text fill="#0B2942" font-family="Arial" font-size="15" lengthAdjust="spacing" textLength="74.2017" x="20" y="236.8141">Contributor</text><line style="stroke:#1C7ED6;stroke-width:1;" x1="11" x2="148.2529" y1="239.9928" y2="239.9928"/><text fill="#0B2942" font-family="Arial" font-size="15" lengthAdjust="spacing" textLength="85.8398" x="20" y="258.0626">Claims work,</text><text fill="#0B2942" font-family="Arial" font-size="15" lengthAdjust="spacing" textLength="111.709" x="20" y="275.3112">submits packets,</text><text fill="#0B2942" font-family="Arial" font-size="15" lengthAdjust="spacing" textLength="119.2529" x="20" y="292.5597">and attests output</text></g><!--entity reviewer--><g class="entity" data-qualified-name="reviewer" data-source-line="31" id="ent0003"><rect fill="#F1F3F5" height="96.9941" rx="4" ry="4" style="stroke:#1C7ED6;stroke-width:0.5;" width="145.061" x="7" y="344.9957"/><text fill="#0B2942" font-family="Arial" font-size="15" lengthAdjust="spacing" textLength="62.5195" x="17" y="369.0656">Reviewer</text><line style="stroke:#1C7ED6;stroke-width:1;" x1="8" x2="151.061" y1="372.2443" y2="372.2443"/><text fill="#0B2942" font-family="Arial" font-size="15" lengthAdjust="spacing" textLength="125.061" x="17" y="390.3141">Reviews evidence,</text><text fill="#0B2942" font-family="Arial" font-size="15" lengthAdjust="spacing" textLength="85.0635" x="17" y="407.5626">findings, and</text><text fill="#0B2942" font-family="Arial" font-size="15" lengthAdjust="spacing" textLength="100.8691" x="17" y="424.8112">checker results</text></g><!--entity operator--><g class="entity" data-qualified-name="operator" data-source-line="32" id="ent0004"><rect fill="#F1F3F5" height="79.7456" rx="4" ry="4" style="stroke:#1C7ED6;stroke-width:0.5;" width="135.8838" x="11.5" y="477.4957"/><text fill="#0B2942" font-family="Arial" font-size="15" lengthAdjust="spacing" textLength="114.2139" x="21.5" y="501.5656">Operator / Admin</text><line style="stroke:#1C7ED6;stroke-width:1;" x1="12.5" x2="146.3838" y1="504.7443" y2="504.7443"/><text fill="#0B2942" font-family="Arial" font-size="15" lengthAdjust="spacing" textLength="115.8838" x="21.5" y="522.8141">Audits, overrides,</text><text fill="#0B2942" font-family="Arial" font-size="15" lengthAdjust="spacing" textLength="96.7236" x="21.5" y="540.0626">and reconciles</text></g><!--entity workstream--><g class="entity" data-qualified-name="workstream" data-source-line="34" id="ent0005"><rect fill="#E7F5FF" height="96.9941" rx="4" ry="4" style="stroke:#1C7ED6;stroke-width:0.5;" width="155.9009" x="272" y="274.9957"/><text fill="#0B2942" font-family="Arial" font-size="15" lengthAdjust="spacing" textLength="80.8374" x="282" y="299.0656">Workstream</text><line style="stroke:#1C7ED6;stroke-width:1;" x1="273" x2="426.9009" y1="302.2443" y2="302.2443"/><text fill="#0B2942" font-family="Arial" font-size="15" lengthAdjust="spacing" textLength="135.9009" x="282" y="320.3141">Flow task evaluation</text><text fill="#0B2942" font-family="Arial" font-size="15" lengthAdjust="spacing" textLength="106.7432" x="282" y="337.5626">and contribution</text><text fill="#0B2942" font-family="Arial" font-size="15" lengthAdjust="spacing" textLength="87.5317" x="282" y="354.8112">infrastructure</text></g><!--entity flow_auth--><g class="entity" data-qualified-name="flow_auth" data-source-line="36" id="ent0006"><path d="M668.6672,51.763 C673.0476,45.335 678.8891,47.0915 682.0541,53.074 C683.9589,47.1361 689.1083,45.6827 693.1747,50.9236 C697.4941,45.7786 702.1575,46.0209 705.2675,52.2136 C707.1319,45.7719 712.519,44.4054 716.7363,49.9651 C721.303,43.7363 725.9842,43.0986 730.512,50.0059 C733.2675,44.8997 738.4215,44.2207 741.293,49.8898 C744.9948,44.3355 750.9207,44.0258 754.0826,50.4654 C758.8203,44.7948 762.9345,45.6031 766.555,51.6541 C770.6929,46.4449 774.1233,46.523 777.1584,52.6826 C781.4764,45.7517 786.3542,46.9406 790.3804,52.98 C796.9698,55.8432 797.6793,62.2708 791.169,65.9317 C798.0344,68.5122 797.2995,72.5577 793.2848,77.1841 C799.6571,79.409 801.7792,84.9121 796.3806,89.9839 C801.903,94.7042 800.083,100.2026 793.6159,102.2121 C798.9008,106.6992 797.077,111.5857 791.435,114.0618 C796.3905,118.0519 795.8393,123.5012 790.1159,126.3445 C786.5781,132.9227 781.0499,131.8511 777.3639,126.503 C775.302,132.786 770.2877,133.5736 766.5374,128.0514 C762.8648,135.2663 757.8382,135.8186 753.2516,128.9113 C750.3533,134.8212 746.6478,134.5772 742.4901,130.233 C738.9318,136.54 733.731,137.9674 729.3601,131.0392 C725.5638,135.3755 720.6304,135.0083 717.8881,129.7757 C714.4643,134.9606 708.3279,135.7209 705.2704,129.3748 C700.3783,134.4235 695.4461,134.802 692.641,127.2783 C688.9095,132.6544 683.6148,132.2904 681.0552,126.104 C677.0643,132.6222 672.309,132.3217 668.5419,125.8877 C661.5311,122.8631 660.4958,118.4637 665.9761,112.9599 C659.8086,110.0012 658.2825,106.3948 663.2966,100.9429 C657.8965,98.0949 657.1506,94.8783 661.6929,90.503 C656.3622,85.3937 656.3528,80.2865 663.6515,77.0104 C657.8296,71.9884 660.5895,67.0756 666.4209,64.6686 C661.2731,60.2287 661.2847,54.0219 668.6672,51.763" fill="#F1F3F5" style="stroke:#868E96;stroke-width:0.5;"/><text fill="#212529" font-family="Arial" font-size="15" lengthAdjust="spacing" textLength="84.1992" x="675" y="72.5656">Flow Identity</text><line style="stroke:#868E96;stroke-width:1;" x1="661" x2="795.7505" y1="75.7443" y2="75.7443"/><text fill="#212529" font-family="Arial" font-size="15" lengthAdjust="spacing" textLength="100.0488" x="675" y="93.8141">Human identity</text><text fill="#212529" font-family="Arial" font-size="15" lengthAdjust="spacing" textLength="106.7505" x="675" y="111.0626">and auth tokens</text></g><!--entity postgres--><g class="entity" data-qualified-name="postgres" data-source-line="37" id="ent0007"><path d="M661.5,178.9957 C661.5,168.9957 728.6216,168.9957 728.6216,168.9957 C728.6216,168.9957 795.7432,168.9957 795.7432,178.9957 L795.7432,230.4928 C795.7432,240.4928 728.6216,240.4928 728.6216,240.4928 C728.6216,240.4928 661.5,240.4928 661.5,230.4928 L661.5,178.9957" fill="#E6FCF5" style="stroke:#0CA678;stroke-width:0.5;"/><path d="M661.5,178.9957 C661.5,188.9957 728.6216,188.9957 728.6216,188.9957 C728.6216,188.9957 795.7432,188.9957 795.7432,178.9957" fill="none" style="stroke:#0CA678;stroke-width:0.5;"/><text fill="#063B2C" font-family="Arial" font-size="15" lengthAdjust="spacing" textLength="59.1943" x="671.5" y="207.0656">Postgres</text><path d="M661.5,205.2443 C661.5,215.2443 728.6216,215.2443 728.6216,215.2443 C728.6216,215.2443 795.7432,215.2443 795.7432,205.2443" fill="none" style="stroke:#0CA678;stroke-width:1;"/><text fill="#063B2C" font-family="Arial" font-size="15" lengthAdjust="spacing" textLength="114.2432" x="671.5" y="228.3141">Record database</text></g><!--entity storage--><g class="entity" data-qualified-name="storage" data-source-line="38" id="ent0008"><rect fill="#E6FCF5" height="96.9941" rx="4" ry="4" style="stroke:#1C7ED6;stroke-width:0.5;" width="172.5708" x="642" y="274.9957"/><text fill="#0B2942" font-family="Arial" font-size="15" lengthAdjust="spacing" textLength="100.0562" x="652" y="299.0656">Object Storage</text><text fill="#0B2942" font-family="Arial" font-size="15" lengthAdjust="spacing" textLength="75.0366" x="652" y="316.3141">Abstraction</text><line style="stroke:#1C7ED6;stroke-width:1;" x1="643" x2="813.5708" y1="319.4928" y2="319.4928"/><text fill="#0B2942" font-family="Arial" font-size="15" lengthAdjust="spacing" textLength="71.7114" x="652" y="337.5626">Local now;</text><text fill="#0B2942" font-family="Arial" font-size="15" lengthAdjust="spacing" textLength="152.5708" x="652" y="354.8112">R2/S3-compatible later</text></g><!--entity future_boundary--><g class="entity" data-qualified-name="future_boundary" data-source-line="40" id="ent0009"><rect fill="#FFF3BF" height="131.4912" rx="4" ry="4" style="stroke:#1C7ED6;stroke-width:0.5;" width="262.644" x="597" y="406.9957"/><text fill="#0B2942" font-family="Arial" font-size="15" lengthAdjust="spacing" textLength="168.4351" x="607" y="431.0656">Future Adapter Boundary</text><line style="stroke:#1C7ED6;stroke-width:1;" x1="598" x2="858.644" y1="434.2443" y2="434.2443"/><text fill="#0B2942" font-family="Arial" font-size="15" lengthAdjust="spacing" textLength="135.0586" x="607" y="452.3141">External task origins</text><text fill="#0B2942" font-family="Arial" font-size="15" lengthAdjust="spacing" textLength="234.3164" x="607" y="469.5626">ERC-8004 agent identity/reputation</text><text fill="#0B2942" font-family="Arial" font-size="15" lengthAdjust="spacing" textLength="210.9155" x="607" y="486.8112">ERC-8183 task contract/escrow</text><text fill="#0B2942" font-family="Arial" font-size="15" lengthAdjust="spacing" textLength="242.5781" x="607" y="504.0597">x402 / OmniClaw / USDC settlement</text><text fill="#0B2942" font-family="Arial" font-size="15" lengthAdjust="spacing" textLength="242.644" x="607" y="521.3082">Reputation and reporting consumers</text></g><!--link project_manager to workstream--><g class="link" data-entity-1="ent0001" data-entity-2="ent0005" data-link-type="dependency" data-source-line="42" id="lnk10"><path d="M142.1,160.1357 C185.61,194.4857 239.7559,237.2372 283.2959,271.6172" fill="none" id="project_manager-to-workstream" style="stroke:#495057;stroke-width:1.2;"/><polygon fill="#495057" points="287.22,274.7157,282.6354,265.999,283.2959,271.6172,277.6777,272.2776,287.22,274.7157" style="stroke:#495057;stroke-width:1.2;stroke-linejoin:miter;stroke-miterlimit:10;"/><text fill="#000000" font-family="Arial" font-size="15" lengthAdjust="spacing" textLength="58.374" x="183" y="188.5656">operates</text></g><!--link worker to workstream--><g class="link" data-entity-1="ent0002" data-entity-2="ent0005" data-link-type="dependency" data-source-line="43" id="lnk11"><path d="M149.3,270.6857 C186.74,280.5857 228.3463,291.587 267.0163,301.817" fill="none" id="worker-to-workstream" style="stroke:#495057;stroke-width:1.2;"/><polygon fill="#495057" points="271.85,303.0957,264.1723,296.927,267.0163,301.817,262.1263,304.661,271.85,303.0957" style="stroke:#495057;stroke-width:1.2;stroke-linejoin:miter;stroke-miterlimit:10;"/><text fill="#000000" font-family="Arial" font-size="15" lengthAdjust="spacing" textLength="51.6797" x="186.5" y="276.5656">submits</text></g><!--link reviewer to workstream--><g class="link" data-entity-1="ent0003" data-entity-2="ent0005" data-link-type="dependency" data-source-line="44" id="lnk12"><path d="M152.1,374.8257 C189.07,365.1857 229.3815,354.6763 267.1115,344.8463" fill="none" id="reviewer-to-workstream" style="stroke:#495057;stroke-width:1.2;"/><polygon fill="#495057" points="271.95,343.5857,262.2323,341.984,267.1115,344.8463,264.2492,349.7256,271.95,343.5857" style="stroke:#495057;stroke-width:1.2;stroke-linejoin:miter;stroke-miterlimit:10;"/><text fill="#000000" font-family="Arial" font-size="15" lengthAdjust="spacing" textLength="50.8447" x="187" y="348.5656">reviews</text></g><!--link operator to workstream--><g class="link" data-entity-1="ent0004" data-entity-2="ent0005" data-link-type="dependency" data-source-line="45" id="lnk13"><path d="M136.13,477.2957 C178.37,446.7757 232.5971,407.6039 277.4971,375.1639" fill="none" id="operator-to-workstream" style="stroke:#495057;stroke-width:1.2;"/><polygon fill="#495057" points="281.55,372.2357,271.9123,374.2642,277.4971,375.1639,276.5974,380.7488,281.55,372.2357" style="stroke:#495057;stroke-width:1.2;stroke-linejoin:miter;stroke-miterlimit:10;"/><text fill="#000000" font-family="Arial" font-size="15" lengthAdjust="spacing" textLength="40.0269" x="192" y="399.5656">audits</text></g><!--link workstream to flow_auth--><g class="link" data-entity-1="ent0005" data-entity-2="ent0006" data-link-type="dependency" data-source-line="47" id="lnk14"><path d="M402.63,274.9657 C419.68,259.9557 439.12,243.8657 458,230.4957 C522.52,184.8057 599.061,146.1527 655.341,120.1527" fill="none" id="workstream-to-flow_auth" style="stroke:#495057;stroke-width:1.2;"/><polygon fill="#495057" points="659.88,118.0557,650.0322,118.199,655.341,120.1527,653.3873,125.4615,659.88,118.0557" style="stroke:#495057;stroke-width:1.2;stroke-linejoin:miter;stroke-miterlimit:10;"/><text fill="#000000" font-family="Arial" font-size="15" lengthAdjust="spacing" textLength="95.874" x="465" y="161.5656">verifies tokens</text></g><!--link workstream to postgres--><g class="link" data-entity-1="ent0005" data-entity-2="ent0007" data-link-type="dependency" data-source-line="48" id="lnk15"><path d="M428.1,299.1257 C496.73,277.4357 591.2923,247.542 656.4323,226.962" fill="none" id="workstream-to-postgres" style="stroke:#495057;stroke-width:1.2;"/><polygon fill="#495057" points="661.2,225.4557,651.4131,224.3529,656.4323,226.962,653.8231,231.9812,661.2,225.4557" style="stroke:#495057;stroke-width:1.2;stroke-linejoin:miter;stroke-miterlimit:10;"/><text fill="#000000" font-family="Arial" font-size="15" lengthAdjust="spacing" textLength="107.5342" x="459" y="253.5656">records lifecycle</text></g><!--link workstream to storage--><g class="link" data-entity-1="ent0005" data-entity-2="ent0008" data-link-type="dependency" data-source-line="49" id="lnk16"><path d="M428.1,323.4957 C490.27,323.4957 572.65,323.4957 636.97,323.4957" fill="none" id="workstream-to-storage" style="stroke:#495057;stroke-width:1.2;"/><polygon fill="#495057" points="641.97,323.4957,632.97,319.4957,636.97,323.4957,632.97,327.4957,641.97,323.4957" style="stroke:#495057;stroke-width:1.2;stroke-linejoin:miter;stroke-miterlimit:10;"/><text fill="#000000" font-family="Arial" font-size="15" lengthAdjust="spacing" textLength="105.0586" x="460" y="319.5656">stores evidence</text></g><!--link future_boundary to workstream--><g class="link" data-entity-1="ent0009" data-entity-2="ent0005" data-link-type="dependency" data-source-line="51" id="lnk17"><path d="M596.72,483.2557 C550.69,481.8757 500.01,474.1657 458,452.4957 C423.74,434.8257 398.9957,405.084 380.4757,376.454" fill="none" id="future_boundary-to-workstream" style="stroke:#495057;stroke-width:1.2;stroke-dasharray:7,7;"/><polygon fill="#495057" points="377.76,372.2557,379.2897,381.9851,380.4757,376.454,386.0068,377.64,377.76,372.2557" style="stroke:#495057;stroke-width:1.2;stroke-linejoin:miter;stroke-miterlimit:10;"/><text fill="#000000" font-family="Arial" font-size="15" lengthAdjust="spacing" textLength="89.2163" x="468" y="448.5656">source intake</text></g><!--link workstream to future_boundary--><g class="link" data-entity-1="ent0005" data-entity-2="ent0009" data-link-type="dependency" data-source-line="52" id="lnk18"><path d="M428.1,354.0057 C476.61,373.2057 535.8209,396.6358 592.0909,418.9058" fill="none" id="workstream-to-future_boundary" style="stroke:#495057;stroke-width:1.2;stroke-dasharray:7,7;"/><polygon fill="#495057" points="596.74,420.7457,589.8436,413.7145,592.0909,418.9058,586.8996,421.1531,596.74,420.7457" style="stroke:#495057;stroke-width:1.2;stroke-linejoin:miter;stroke-miterlimit:10;"/><text fill="#000000" font-family="Arial" font-size="15" lengthAdjust="spacing" textLength="104.2456" x="460.5" y="364.5656">adapter outputs</text></g><?plantuml-src RLJRRjf047ttLupIrv202OIqKYNYOBLIsrIXLL-GecKzm1PxrzfBI5hrtplUjOtZm0imbpCpPy-C5JP7-ANqtbYDh83bYx5OGAAanMSRHJbkB5W5Mcnt5ZAXaLkXP1IPlP0bqvIoPdo_rSh9B56vql0kzPzEXDcnJ1s4tCA6vGOx7f_6bPQeOTQnPxXXBhSfjV6D5GXpBLX-shyKVn16auvphhKwrBrStKo6a-k-yyTEyBr4Os1q4NUS9Ot2jhYqByHADIgJs_nLluqD_aO0jqfdgEjAe-HwSJUjh7q-5jVfXFW0gDgjRSFR-EOgZlvrPsAMhPav0JrCvjFhsKdeQPgaanxqT7mR9w-WUQvSzXPtDfqjRawsd8xISHyt7iMJ-8PmeoCBPz-r-at_u2kJH9nUoG5zLZ8XCLaqK0QtEL_9hHCPcdCeLIwumCh4P0QMcRqv0zR6FXO1gcsYK-sJ8-TWlaLfgGQrfiNQMNKicpDH63YGdWdUk7KXhF6lYhOfo2mrHbRbREcihrp5doxuW4y23yUvmdy3z9MXv4YO6o4paZPDHkWhoNV8Ap2DXWGQ9jCrogaAzoLgHYF09SopGiYcqjnbrFivg2VKsZCNsgTK9Rd8CK2h9hs1xc8Vzxf1JNDry9JJ12nthDhbWCiRDhr5o8rcbEguTHfRakeZqIWw2hewywYVYH0hx4jJohyLYDRgkNTsHzTaZp9qlw74nyeOjU8_-wwCtH9xHyhfFcJjTWIfr36lY5nx8Iw9398F4RYcRXaFymIeBugp7AGwV23O-78v7d1Lb4J2cW1o4gpsw2P0jDlLhPAwYX1wAbPIEAqJxGpJxT2BPx9AAk8vLdGrXQH95W_9O3OSNW6hfDkISgcH95W_WeyPpSOXrJy7TN-9XjF1Middgs5C6half22L7-Zdp-LT0WOjNV32ByH3YmP1AQNIjhgw16PSWRectO_mkAvRz_TwV4klsL_0mU1ZzzNVrs8Zskk5UHDGRrpK2lvDHF2OgDNjcmZcXHz57MCLqqg5GcWbn8PEI2sbVcYZ3b-k4e-1N6oGlt2wvRtOvgtV-rzutEmewlDqST6VLZdD4OIqRFyAk8hiPzDWjMR2uJ7HVm00?></g></svg>